<svg width="218" height="218" viewBox="0 0 218 218" fill="none" xmlns="http://www.w3.org/2000/svg">
    <path d="M125.962 176.674C122.942 176.694 120.16 175.7 117.915 174.031C117.001 173.355 115.868 173.017 114.716 173.017C111.656 173.017 109.172 175.501 109.172 178.562V217.357H1V109.18H39.7862C42.8462 109.18 45.3299 106.696 45.3299 103.635C45.3299 102.503 44.9921 101.37 44.3165 100.436C42.6475 98.1899 41.654 95.4075 41.6738 92.3865C41.7136 85.3709 47.3368 79.4483 54.3509 79.0905C62.0803 78.693 68.4585 84.8342 68.4585 92.466C68.4585 95.4273 67.4849 98.17 65.8556 100.376C65.1601 101.31 64.8025 102.463 64.8025 103.616C64.8025 106.676 67.2862 109.161 70.3462 109.161H109.132V147.955C109.132 151.016 111.616 153.5 114.676 153.5C115.848 153.5 116.981 153.143 117.915 152.447C120.14 150.817 122.863 149.844 125.823 149.844C133.453 149.844 139.613 156.243 139.196 163.954C138.878 171.01 132.976 176.634 125.962 176.674Z" fill="#414042" stroke="#B3B2B3"/>
    <path d="M152.45 117.902C150.781 120.147 149.788 122.929 149.808 125.949C149.847 132.964 155.469 138.886 162.482 139.243C170.209 139.641 176.586 133.501 176.586 125.87C176.586 122.909 175.612 120.167 173.983 117.961C173.288 117.027 172.93 115.875 172.93 114.722C172.93 111.662 175.414 109.178 178.473 109.178H217.249V217.357H109.125V178.548C109.125 175.488 111.608 173.004 114.667 173.004C115.799 173.004 116.931 173.342 117.865 174.018C120.11 175.687 122.891 176.68 125.91 176.661C132.923 176.621 138.842 170.997 139.2 163.983C139.597 156.253 133.459 149.874 125.831 149.874C122.871 149.874 120.13 150.848 117.925 152.477C116.991 153.173 115.839 153.531 114.687 153.531C111.627 153.531 109.144 151.047 109.144 147.987V109.178H147.921C150.98 109.178 153.463 111.662 153.463 114.722C153.463 115.855 153.125 116.988 152.45 117.902Z" fill="#414042" stroke="#B3B2B3"/>
    <path d="M163.902 139.267C170.913 138.909 176.533 132.987 176.573 125.972C176.593 122.952 175.6 120.17 173.932 117.924C173.256 117.01 172.919 115.878 172.919 114.725C172.919 111.665 175.401 109.181 178.46 109.181H217.249V1H109.125V39.7893C109.125 42.8496 111.607 45.3335 114.666 45.3335C115.798 45.3335 116.93 45.0156 117.863 44.3201C120.108 42.6508 122.888 41.6573 125.907 41.6771C132.918 41.7169 138.837 47.3405 139.194 54.3552C139.592 62.0853 133.455 68.464 125.828 68.464C122.868 68.464 120.128 67.4903 117.923 65.8609C116.99 65.1654 115.838 64.8077 114.686 64.8077C111.627 64.8077 109.144 67.2916 109.144 70.3518V109.141H147.933C150.992 109.141 153.475 111.625 153.475 114.685C153.475 115.858 153.117 116.99 152.422 117.924C150.793 120.15 149.82 122.872 149.82 125.833C149.8 133.524 156.176 139.664 163.902 139.267Z" fill="#414042" stroke="#B3B2B3"/>
    <path d="M139.197 54.3739C138.84 47.3594 132.921 41.7358 125.91 41.6961C122.891 41.6762 120.11 42.6698 117.866 44.339C116.952 45.0146 115.82 45.3524 114.668 45.3524C111.61 45.3524 109.127 42.8685 109.127 39.8083V1H1V109.178H39.7699C42.8286 109.178 45.3114 106.695 45.3114 103.634C45.3114 102.502 44.9936 101.369 44.2984 100.435C42.63 98.1897 41.6369 95.4078 41.6568 92.3874C41.6965 85.3729 47.3174 79.4513 54.3285 79.0936C62.0547 78.6962 68.4303 84.8363 68.4303 92.4669C68.4303 95.4277 67.4571 98.1699 65.8284 100.376C65.1333 101.31 64.7758 102.462 64.7758 103.615C64.7758 106.675 67.2585 109.159 70.3172 109.159H109.087V70.3701C109.087 67.31 111.57 64.8261 114.629 64.8261C115.8 64.8261 116.932 65.1838 117.866 65.8793C120.09 67.5087 122.812 68.4824 125.771 68.4824C133.457 68.4824 139.595 62.0839 139.197 54.3739Z" fill="#414042" stroke="#B3B2B3"/>
</svg>