<svg width="139" height="109" viewBox="0 0 139 109" fill="none" xmlns="http://www.w3.org/2000/svg">
    <path d="M138.66 53.8114C138.302 46.7969 132.383 41.1733 125.372 41.1336C122.353 41.1137 119.573 42.1073 117.328 43.7765C116.415 44.4521 115.282 44.7899 114.13 44.7899C111.072 44.7899 108.589 42.306 108.589 39.2458V0.4375H0.462158V108.616H39.2321C42.2908 108.616 44.7735 106.132 44.7735 103.072C44.7735 101.939 44.4557 100.807 43.7606 99.8727C42.0922 97.6272 41.0991 94.8453 41.119 91.8249C41.1587 84.8104 46.7795 78.8888 53.7907 78.5311C61.5169 78.1337 67.8925 84.2738 67.8925 91.9044C67.8925 94.8652 66.9193 97.6074 65.2906 99.8131C64.5954 100.747 64.2379 101.9 64.2379 103.052C64.2379 106.112 66.7206 108.596 69.7793 108.596H108.549V69.8076C108.549 66.7475 111.032 64.2636 114.091 64.2636C115.263 64.2636 116.395 64.6213 117.328 65.3168C119.553 66.9462 122.274 67.9199 125.233 67.9199C132.92 67.9199 139.057 61.5214 138.66 53.8114Z" fill="white"/>
    <mask id="mask0_402_5397" style="mask-type:alpha" maskUnits="userSpaceOnUse" x="0" y="0" width="139" height="109">
        <path d="M138.66 53.8114C138.302 46.7969 132.383 41.1733 125.372 41.1336C122.353 41.1137 119.573 42.1073 117.328 43.7765C116.415 44.4521 115.282 44.7899 114.13 44.7899C111.072 44.7899 108.589 42.306 108.589 39.2458V0.4375H0.462158V108.616H39.2321C42.2908 108.616 44.7735 106.132 44.7735 103.072C44.7735 101.939 44.4557 100.807 43.7606 99.8727C42.0922 97.6272 41.0991 94.8453 41.119 91.8249C41.1587 84.8104 46.7795 78.8888 53.7907 78.5311C61.5169 78.1337 67.8925 84.2738 67.8925 91.9044C67.8925 94.8652 66.9193 97.6074 65.2906 99.8131C64.5954 100.747 64.2379 101.9 64.2379 103.052C64.2379 106.112 66.7206 108.596 69.7793 108.596H108.549V69.8076C108.549 66.7475 111.032 64.2636 114.091 64.2636C115.263 64.2636 116.395 64.6213 117.328 65.3168C119.553 66.9462 122.274 67.9199 125.233 67.9199C132.92 67.9199 139.057 61.5214 138.66 53.8114Z" fill="white"/>
    </mask>
    <g mask="url(#mask0_402_5397)">
        <path d="M70.819 38.5599C70.5421 38.9284 70.2683 39.1647 69.9978 39.269C69.7703 39.3671 69.5244 39.4129 69.2601 39.4065C67.8142 40.9724 66.5806 42.3325 65.5592 43.487C64.5623 44.6599 63.6762 45.7623 62.9008 46.7941C62.3653 47.5065 61.9468 48.1146 61.6451 48.6182C61.368 49.1404 61.1648 49.5643 61.0354 49.8899C60.906 50.2155 60.8105 50.4705 60.7489 50.6548C60.7302 50.833 60.7025 50.9467 60.6655 50.9958C60.5732 51.1187 60.4103 51.2076 60.1767 51.2627C59.9615 51.2932 59.7095 51.2961 59.4207 51.2712C59.1749 51.2402 58.9137 51.1785 58.6372 51.086C58.4038 50.9875 58.2011 50.8736 58.0291 50.7443C57.6115 50.4305 57.2584 50.1074 56.9698 49.7753C56.6813 49.4431 56.5219 49.0158 56.4917 48.4933C56.6641 48.1616 56.895 47.7777 57.1843 47.3416C57.492 46.8809 57.809 46.408 58.1353 45.9228C58.5045 45.4314 58.883 44.9278 59.2707 44.4119C59.6584 43.896 60.0185 43.417 60.3508 42.9748C61.2001 41.8447 62.0924 40.7086 63.0277 39.5663C63.9631 38.4241 64.9107 37.291 65.8706 36.1672C65.9138 36.0075 65.831 35.8107 65.6223 35.5769C65.4381 35.3616 65.0635 35.0417 64.4985 34.617C63.6632 33.9893 62.877 33.5521 62.1397 33.3056C61.4269 33.0775 60.9414 33.0585 60.6831 33.2488C60.2586 33.6602 59.8464 34.0808 59.4464 34.5106C59.065 34.9159 58.6496 35.3918 58.2004 35.9384C57.7512 36.485 57.2374 37.1175 56.6589 37.836C56.1051 38.573 55.4404 39.4574 54.665 40.4892C54.0003 41.3736 53.4679 42.1075 53.0679 42.691C52.7108 43.2684 52.4276 43.7475 52.2183 44.1284C52.0274 44.4847 51.8796 44.758 51.7749 44.9485C51.6948 45.1574 51.6179 45.3109 51.544 45.4092C51.2855 45.7531 50.9688 45.9188 50.5939 45.9061C50.219 45.8934 49.921 45.804 49.6999 45.6379C48.8401 44.9917 48.3614 44.3243 48.2637 43.6359C48.1722 42.9904 48.3695 42.293 48.8558 41.5437C49.1266 41.1322 49.4436 40.6592 49.8068 40.1249C50.1945 39.609 50.5792 39.0715 50.9608 38.5126C51.3854 37.9476 51.8008 37.3949 52.207 36.8544C52.6317 36.2894 53.0102 35.7858 53.3425 35.3436C53.9887 34.4837 54.6656 33.6086 55.3733 32.7181C56.124 31.8215 56.7025 31.1029 57.1087 30.5625C57.2379 30.3905 57.3149 30.2369 57.3396 30.1018C57.4073 29.9605 57.4536 29.8222 57.4783 29.687C57.5276 29.5703 57.5738 29.4321 57.617 29.2723C57.7032 29.1064 57.8294 28.913 57.9956 28.6919C58.3463 28.2251 58.7368 28.038 59.167 28.1306C59.2837 28.1799 59.4035 28.2507 59.5263 28.343C59.6676 28.4108 59.858 28.5155 60.0976 28.6571C60.3617 28.8171 60.7088 29.0203 61.1387 29.2666C61.5933 29.5313 62.1799 29.8761 62.8986 30.3008C63.6664 30.7626 64.554 31.2951 65.5614 31.8984C66.5688 32.5017 67.8094 33.3573 69.2834 34.465C70.438 35.3328 71.0919 36.074 71.2449 36.6888C71.4225 37.322 71.2806 37.9457 70.819 38.5599ZM80.2635 57.8824C77.8818 61.0515 76.1034 63.2131 74.9283 64.3675C74.2332 65.0367 73.4311 65.0298 72.5221 64.3467C71.1464 63.3127 71.0492 62.1633 72.2305 60.8984C70.5591 60.5648 69.0601 59.8996 67.7335 58.9026C66.4561 57.9425 65.48 56.7092 64.8054 55.2028C64.0021 53.4073 64.0435 51.92 64.9297 50.7408C65.7974 49.5861 67.3959 49.096 69.7252 49.2704C71.8331 49.4323 73.5136 49.984 74.7664 50.9256L77.8987 53.2796L78.5633 52.3953C80.5265 49.8342 80.7342 47.9722 79.1865 46.809C77.2458 45.3505 75.5923 45.5301 74.226 47.348C73.7645 47.9622 73.1898 48.0108 72.5019 47.4939C72.0843 47.18 71.7805 46.6634 71.5907 45.9441C71.4439 45.2187 71.5275 44.6472 71.8413 44.2296C72.8753 42.8539 74.2159 42.0931 75.8632 41.9472C77.5105 41.8013 79.022 42.2453 80.3977 43.2792C85.0162 46.7502 84.9715 51.618 80.2635 57.8824ZM75.5447 56.4119C75.9139 55.9205 75.7301 55.3979 74.9931 54.8441C71.9223 52.5362 69.8422 52.107 68.7529 53.5564C68.1621 54.3425 68.5423 55.2433 69.8934 56.2588C70.7287 56.8865 71.6902 57.2439 72.778 57.3311C74.0501 57.4798 74.9723 57.1734 75.5447 56.4119ZM97.2228 66.707C95.3396 69.2127 93.3003 71.0054 91.1051 72.085C88.301 73.5143 85.7812 73.3888 83.5457 71.7087C82.3419 70.8041 81.5686 69.6847 81.2258 68.3506C81.0227 68.6209 80.7457 68.9894 80.3949 69.4561C79.9888 69.9966 79.7118 70.3651 79.5641 70.5616C77.7917 72.92 76.668 74.9778 76.193 76.7352C76.0325 77.4603 75.8968 77.8965 75.7861 78.0439C75.1583 78.8792 74.3531 78.9275 73.3705 78.189C72.6335 77.6352 72.1823 77.0846 72.0169 76.5375C71.8759 76.1624 72.0672 75.3451 72.5909 74.0857C73.0714 72.986 73.4962 72.1905 73.8655 71.6992L80.5398 62.8184C81.149 62.0077 82.029 60.9392 83.1796 59.6127C84.4595 58.1143 85.3425 57.0673 85.8287 56.4716C86.3148 55.8759 86.9241 55.0652 87.6565 54.0395C88.592 52.7436 89.1982 51.9114 89.4751 51.5429C91.0445 49.4547 92.517 48.9276 93.8927 49.9615C94.2367 50.22 94.4637 50.5829 94.5739 51.0501C94.7025 51.4927 94.6468 51.8737 94.4068 52.1931C94.0006 52.7336 93.2007 53.6701 92.007 55.0026C93.9806 54.3715 95.6429 54.5637 96.9941 55.5791C98.812 56.9454 99.6584 58.7347 99.5333 60.9472C99.433 62.8709 98.6629 64.7908 97.2228 66.707ZM94.1924 63.9105C96.1864 61.2574 96.6183 59.5061 95.4883 58.6569C94.997 58.2876 93.9982 58.2866 92.492 58.6539C89.5842 59.3517 86.8381 61.2666 84.2536 64.3986C84.413 64.7491 84.5044 65.625 84.5276 67.0263C84.5695 68.0958 84.8607 68.8336 85.4012 69.2398C87.4402 70.7722 90.3706 68.9958 94.1924 63.9105ZM111.528 79.8225C109.867 82.0335 107.892 83.5097 105.605 84.2511C102.98 85.0844 100.611 84.7072 98.4984 83.1194C96.3366 81.4946 95.2568 79.5299 95.2591 77.2251C95.2304 75.1661 96.0561 73.0188 97.7362 70.7833C99.3978 68.5723 101.52 66.8995 104.102 65.7651C107.134 64.3913 109.669 64.4706 111.708 66.003C112.347 66.4831 112.933 67.3656 113.466 68.6507C114.981 72.3645 114.335 76.0884 111.528 79.8225ZM108.341 77.3117C111.166 73.5531 111.669 70.9906 109.851 69.6244C108.549 68.6458 106.967 68.7057 105.103 69.8041C103.707 70.6386 102.437 71.8174 101.292 73.3405C98.8367 76.6078 98.5793 78.9708 100.52 80.4293C101.773 81.3709 103.214 81.3969 104.844 80.5074C106.086 79.8264 107.252 78.7612 108.341 77.3117ZM122.311 77.8928C122.57 77.5489 122.856 77.3217 123.169 77.2114C123.483 77.1011 123.941 77.1569 124.543 77.3787C124.979 77.5144 125.409 77.607 125.833 77.6566C126.257 77.7062 126.703 77.9064 127.169 78.2571C127.341 78.3864 127.47 78.5217 127.556 78.6632C127.581 78.6816 127.716 78.7832 127.961 78.9678C128.226 79.1279 128.539 79.3249 128.901 79.5588C129.282 79.7681 129.666 79.999 130.053 80.2514C130.483 80.4976 130.876 80.7162 131.232 80.9071C131.447 81.0302 131.699 81.1811 131.988 81.3596C132.32 81.532 132.618 81.6982 132.882 81.8583C133.189 82.0123 133.45 82.1508 133.665 82.2739C133.88 82.3971 134.024 82.4863 134.098 82.5417C134.245 82.6525 134.383 82.8524 134.512 83.1414C134.641 83.4304 134.727 83.7255 134.769 84.0267C134.837 84.3464 134.858 84.6506 134.833 84.9395C134.833 85.2468 134.768 85.4864 134.639 85.6584C134.546 85.7812 134.439 85.8733 134.316 85.9346C134.211 85.9714 134.076 86.0235 133.91 86.0909C133.787 86.1523 133.633 86.229 133.449 86.321C133.289 86.4314 133.092 86.5911 132.858 86.7998C131.634 88.0708 130.45 89.3911 129.305 90.7606C128.179 92.1055 127.164 93.3798 126.259 94.5835C125.539 95.5416 125.009 96.4507 124.671 97.3109C124.35 98.1464 124.168 98.8746 124.124 99.4953C123.516 99.6914 123.03 99.7493 122.668 99.669C122.287 99.6133 121.936 99.4655 121.617 99.2254C121.175 98.8931 120.849 98.5332 120.641 98.1458C120.414 97.783 120.328 97.3342 120.384 96.7996C120.464 96.2834 120.686 95.6813 121.05 94.9933C121.431 94.2807 121.992 93.4331 122.73 92.4504C123.413 91.5414 124.065 90.7246 124.687 90C125.308 89.2754 125.914 88.5968 126.505 87.9644C127.096 87.3319 127.646 86.727 128.157 86.1498C128.692 85.591 129.203 85.0138 129.689 84.4181C129.763 84.3198 129.714 84.2061 129.542 84.0768C129.389 83.923 129.005 83.6153 128.391 83.1538C127.948 82.8214 127.5 82.5229 127.046 82.2582C126.616 82.0119 126.382 81.9133 126.345 81.9625C125.508 83.1786 124.751 84.2626 124.074 85.2146C123.44 86.1605 122.846 87.0019 122.292 87.7389C121.461 88.8444 120.704 89.7748 120.021 90.5301C119.339 91.2854 118.606 92.0038 117.825 92.6853C117.222 93.2317 116.613 93.5814 115.999 93.7344C115.409 93.906 114.834 93.9546 114.275 93.8803C113.697 93.8305 113.147 93.6671 112.625 93.39C112.109 93.1559 111.642 92.882 111.224 92.5681C110.831 92.2727 110.444 91.8667 110.064 91.35C109.689 90.8764 109.404 90.3353 109.208 89.7266C108.994 89.1425 108.905 88.5186 108.943 87.8548C109.005 87.2095 109.267 86.5798 109.728 85.9657C110.097 85.4743 110.519 85.1951 110.992 85.1279C111.484 85.0362 111.951 85.1566 112.393 85.4889C112.811 85.8027 112.998 86.1932 112.954 86.6603C112.929 87.1028 112.83 87.5667 112.658 88.0521C112.528 88.5314 112.405 88.9768 112.288 89.3885C112.214 89.7941 112.324 90.1077 112.619 90.3292C113.061 90.6615 113.952 90.2936 115.293 89.2255C116.634 88.1574 118.274 86.3336 120.213 83.7542C120.582 83.2628 120.942 82.7838 121.293 82.317C121.662 81.8257 122.019 81.3251 122.364 80.8154L122.216 80.7046C121.872 80.4461 121.713 80.0188 121.738 79.4226C121.806 78.8204 121.997 78.3104 122.311 77.8928ZM141.533 92.2235C141.176 92.4936 140.623 93.0001 139.872 93.743C139.146 94.5045 138.328 95.4655 137.417 96.6262C137.804 96.8786 138.181 97.1433 138.55 97.4202C138.961 97.6911 139.364 97.9742 139.757 98.2696C140.74 99.0081 141.495 99.7679 142.023 100.549C142.593 101.324 143.127 102.302 143.624 103.482C143.863 104.085 144.047 104.607 144.175 105.05C144.322 105.468 144.387 105.843 144.368 106.175C144.374 106.525 144.312 106.863 144.183 107.189C144.053 107.515 143.841 107.874 143.545 108.267C142.973 109.029 142.232 109.529 141.322 109.768C140.431 109.982 139.481 110.018 138.473 109.875C137.508 109.727 136.522 109.428 135.515 108.978C134.507 108.528 133.623 108.017 132.861 107.445C132.566 107.224 132.262 106.937 131.949 106.587C131.618 106.261 131.28 105.892 130.936 105.48C130.684 105.559 130.355 105.562 129.95 105.488C129.55 105.457 129.093 105.247 128.577 104.86C128.036 104.453 127.748 104.121 127.711 103.863C127.674 103.605 127.832 103.166 128.182 102.545C128.269 102.379 128.287 102.201 128.238 102.01C128.214 101.838 128.168 101.669 128.101 101.503C128.052 101.313 128.015 101.131 127.99 100.959C127.984 100.763 128.065 100.554 128.231 100.333C128.397 100.111 128.563 99.9672 128.729 99.8997C128.938 99.8262 129.129 99.7772 129.301 99.7528C129.473 99.7284 129.633 99.6947 129.78 99.6518C129.971 99.6029 130.14 99.4801 130.288 99.2836L132.171 96.7778C132.337 96.5567 132.368 96.3109 132.264 96.0403C132.203 95.7637 132.274 95.4903 132.477 95.22C132.661 94.9744 132.923 94.8056 133.261 94.7138C133.599 94.6219 133.87 94.4409 134.073 94.1706C135.273 92.5738 136.245 91.3824 136.989 90.5964C137.777 89.8044 138.447 89.1935 139.001 88.7638C139.438 88.4385 139.908 88.1962 140.412 88.0369C140.941 87.896 141.488 88.0379 142.053 88.4626C142.249 88.6103 142.455 88.8225 142.67 89.0993C142.903 89.3515 143.097 89.6314 143.25 89.9388C143.403 90.2463 143.492 90.5629 143.516 90.8887C143.559 91.1899 143.488 91.4633 143.304 91.709C143.211 91.8318 143.008 91.8716 142.695 91.8282C142.4 91.7603 142.013 91.8921 141.533 92.2235ZM140.561 105.793C141.041 105.155 141.035 104.42 140.544 103.59C140.072 102.735 139.209 101.837 137.957 100.895C137.686 100.692 137.395 100.492 137.081 100.295C136.786 100.074 136.498 99.8951 136.215 99.7596C135.951 99.5995 135.705 99.4917 135.478 99.4362C135.251 99.3807 135.082 99.4266 134.971 99.574L132.755 102.522C132.663 102.645 132.654 102.811 132.727 103.02C132.844 103.223 132.985 103.444 133.151 103.684C133.359 103.918 133.58 104.161 133.814 104.413C134.09 104.659 134.351 104.874 134.597 105.059C135.063 105.41 135.579 105.721 136.145 105.992C136.753 106.257 137.327 106.439 137.868 106.537C138.427 106.612 138.94 106.594 139.408 106.484C139.899 106.392 140.284 106.162 140.561 105.793ZM148.509 116.495C148.139 116.986 147.577 117.275 146.821 117.36C146.089 117.464 145.478 117.331 144.986 116.962C144.397 116.518 143.955 115.802 143.661 114.812C143.367 113.822 143.432 113.045 143.857 112.48C144.208 112.013 144.761 111.737 145.517 111.652C146.292 111.542 146.912 111.662 147.379 112.013C148.067 112.53 148.552 113.241 148.834 114.144C149.134 115.023 149.026 115.807 148.509 116.495ZM157.629 104.897C157.149 105.536 156.466 105.83 155.581 105.78C154.715 105.705 153.937 105.409 153.25 104.893C151.8 103.803 151.602 102.558 152.654 101.158C153.596 99.9053 154.779 99.8142 156.204 100.885C156.867 101.384 157.37 101.993 157.714 102.712C158.119 103.554 158.09 104.283 157.629 104.897ZM34.5322 86.2291C33.388 87.2912 32.2652 88.3503 31.164 89.4064C29.8475 90.6466 28.8108 91.7703 28.0538 92.7775L20.521 102.801C19.1548 104.619 17.5835 105.61 15.807 105.774C14.0552 105.956 12.2703 105.365 10.4524 103.998C9.27323 103.112 8.202 101.827 7.23871 100.142C6.07905 98.1552 5.8777 96.6585 6.63468 95.6512C6.89316 95.3073 7.24982 95.1141 7.70468 95.0715C8.16564 95.0719 8.56809 95.2014 8.91202 95.4599C9.13312 95.626 9.41205 96.3546 9.74881 97.6457C10.0856 98.9367 10.7944 99.9884 11.8753 100.801C13.2511 101.835 14.5508 102.023 15.7745 101.367C16.6354 100.938 17.6382 99.9613 18.7829 98.4382C19.2075 97.8732 19.546 97.3972 19.7984 97.0102C18.5815 96.9414 17.4695 96.5285 16.4623 95.7716C14.6198 94.3869 13.6934 92.6527 13.6832 90.5692C13.6789 88.6823 14.3784 86.8053 15.7815 84.9383C15.9292 84.7418 18.3784 81.7387 23.1289 75.9291C24.106 76.1636 24.8156 76.4471 25.2578 76.7794C25.7491 77.1487 26.2522 77.9881 26.7672 79.2977C25.0699 80.3286 22.5595 83.055 19.2362 87.477C17.113 90.3021 16.7638 92.2501 18.1887 93.321C19.245 94.1149 20.7204 93.8397 22.6147 92.4956C23.9924 91.532 25.1982 90.3624 26.2322 88.9866L29.6108 84.491C29.5924 84.5155 29.8602 84.0825 30.4142 83.1919C31.7907 83.4575 32.7246 83.775 33.2159 84.1442C33.7318 84.5319 34.1706 85.2269 34.5322 86.2291ZM44.4756 104.485C42.8139 106.696 40.8395 108.172 38.5524 108.914C35.9272 109.747 33.5582 109.37 31.4455 107.782C29.2837 106.157 28.2039 104.192 28.2062 101.887C28.1775 99.8285 29.0032 97.6812 30.6833 95.4457C32.3449 93.2347 34.467 91.5619 37.0495 90.4275C40.0809 89.0537 42.6161 89.133 44.6552 90.6655C45.2939 91.1455 45.88 92.028 46.4134 93.3131C47.9279 97.0269 47.2819 100.751 44.4756 104.485ZM41.2882 101.974C44.113 98.2155 44.6164 95.653 42.7985 94.2868C41.4965 93.3083 39.9138 93.3682 38.0504 94.4665C36.6544 95.301 35.3841 96.4798 34.2394 98.0029C31.7838 101.27 31.5264 103.633 33.4672 105.092C34.7201 106.033 36.1613 106.059 37.7909 105.17C39.0331 104.489 40.1989 103.424 41.2882 101.974ZM63.4599 109.526C62.8876 110.288 61.9216 111.369 60.5619 112.769C59.2452 114.163 58.2915 115.253 57.7007 116.039C57.1837 116.727 56.4329 117.777 55.4481 119.19C54.5063 120.596 53.7862 121.631 53.2877 122.294C52.8631 122.859 52.1717 122.782 51.2136 122.062C50.2309 121.323 49.9645 120.373 50.4143 119.212C49.0193 119.125 47.8795 118.749 46.9951 118.084C46.2827 117.549 45.6105 116.755 44.9785 115.704C44.3649 114.627 44.077 113.681 44.1147 112.863C44.1777 111.296 45.0677 109.37 46.7847 107.085C47.3755 106.299 48.434 104.942 49.9602 103.014C51.3447 101.325 52.394 99.9797 53.1079 98.9786C54.2511 98.992 55.0683 99.1834 55.5597 99.5526C56.7389 100.439 56.8946 101.459 56.0268 102.614C55.7314 103.007 55.2269 103.55 54.5133 104.244C53.8242 104.956 53.3319 105.509 53.0365 105.902L49.1317 111.098C48.6886 111.688 48.3867 112.422 48.226 113.3C48.0652 114.333 48.255 115.052 48.7955 115.458C49.8518 116.252 51.1457 116.167 52.677 115.204C53.7225 114.529 54.7438 113.528 55.7408 112.202L59.0641 107.78C59.4887 107.215 59.8675 106.404 60.2004 105.347C61.2392 105.243 62.0412 105.404 62.6062 105.829C63.1958 106.272 63.5855 106.853 63.7753 107.572C63.9897 108.31 63.8846 108.961 63.4599 109.526ZM75.5332 119.35C75.404 119.522 75.1763 119.773 74.8502 120.105C73.7804 120.454 72.963 120.417 72.398 119.992C71.9313 119.641 71.7167 119.057 71.7544 118.24C72.5361 117.097 72.5584 116.249 71.8215 115.695C71.3793 115.363 69.9618 116.124 67.5691 117.977C66.4989 118.788 65.2714 120.114 63.8867 121.956C62.5759 123.701 61.8679 124.822 61.763 125.319C61.6087 125.934 61.467 126.327 61.3377 126.499C61.0239 126.917 60.5688 127.113 59.9727 127.088C59.4196 127.056 58.9096 126.865 58.4429 126.515C57.1163 125.518 56.9145 124.405 57.8377 123.177C57.93 123.054 58.0838 122.9 58.2991 122.716C58.539 122.55 58.6958 122.418 58.7697 122.32C59.7113 121.067 61.0438 119.166 62.7672 116.617C64.5091 114.044 65.8417 112.143 66.7648 110.915C67.5956 109.809 68.6743 109.755 70.0009 110.752C70.787 111.343 71.1521 111.982 71.0961 112.671C72.3563 112.426 73.4163 112.627 74.2762 113.273C74.8658 113.716 75.3108 114.3 75.6112 115.026C75.832 115.499 75.9388 116.252 75.9317 117.285C75.943 118.293 75.8101 118.981 75.5332 119.35ZM81.4986 138.595C80.5755 139.823 79.0202 140.153 76.8327 139.586C75.1245 139.148 73.558 138.393 72.1331 137.322C68.3499 134.479 68.0738 130.908 71.3048 126.609C72.6341 124.84 74.541 123.198 77.0256 121.682C80.0759 119.823 82.3503 119.456 83.8489 120.583C85.2 121.598 86.1971 123.289 86.8401 125.656C87.5077 128.041 87.3522 129.885 86.3737 131.187C85.1552 132.809 83.4612 133.554 81.2917 133.422C79.368 133.322 77.5218 132.607 75.7531 131.278C75.4091 131.02 75.0133 130.395 74.5656 129.405C72.9099 131.813 72.7208 133.497 73.9983 134.457C75.0792 135.269 76.3663 135.756 77.8597 135.917C79.3776 136.097 80.284 136.298 80.5788 136.519C81.6351 137.313 81.9417 138.005 81.4986 138.595ZM82.7162 128.611C83.1778 127.997 83.4274 127.281 83.4651 126.464C83.5458 125.641 83.2914 125.007 82.7018 124.564C81.8911 123.955 80.9969 123.84 80.0193 124.22C79.1892 124.558 78.4603 125.144 77.8326 125.979C77.4818 126.446 77.3553 126.947 77.4531 127.481C77.551 128.016 77.8455 128.468 78.3368 128.838C80.1302 130.185 81.59 130.11 82.7162 128.611ZM98.8759 136.085C98.3774 136.749 97.0071 136.449 94.765 135.187C94.3097 135.691 93.362 136.901 91.9219 138.817L90.0941 141.249C89.7249 141.74 89.2539 142.52 88.6813 143.589C88.1332 144.676 87.6837 145.453 87.3329 145.92C87.0375 146.313 86.5733 146.522 85.9402 146.546C85.3256 146.545 84.8218 146.397 84.4287 146.102C83.8145 145.64 83.6956 144.724 84.0719 143.354C84.3618 142.303 84.7929 141.397 85.3652 140.636L91.2364 132.824C90.2356 131.802 89.6677 131.202 89.5326 131.024C89.0416 130.348 88.9346 129.825 89.2115 129.457C89.2853 129.358 89.393 129.266 89.5344 129.18C90.8563 128.751 91.9103 128.832 92.6964 129.423C92.7455 129.46 92.8192 129.515 92.9175 129.589C92.9973 129.688 93.0618 129.755 93.1109 129.792C93.6268 130.18 94.3248 129.763 95.2049 128.54L97.2266 125.85C97.2823 125.469 97.384 125.181 97.5317 124.984C97.7717 124.665 98.1683 124.521 98.7214 124.552C99.3175 124.577 99.7876 124.719 100.132 124.978C100.647 125.365 100.954 125.98 101.052 126.822C101.168 127.64 101.022 128.319 100.616 128.859C100.173 129.449 99.6318 129.965 98.9922 130.407C98.3956 130.842 97.8788 131.377 97.4418 132.009L97.331 132.157C99.0995 133.793 99.6144 135.103 98.8759 136.085ZM101.572 159.678C100.755 159.794 99.9652 159.566 99.2036 158.993C98.6877 158.606 98.3996 157.889 98.3392 156.844C99.9884 154.701 101.256 153.04 102.142 151.861C106.241 146.407 107.492 143.08 105.895 141.88C104.249 140.643 101.774 142.223 98.4691 146.62C98.2845 146.866 98.029 147.231 97.7028 147.717C97.352 148.183 97.0843 148.54 96.8997 148.785C96.6227 149.154 96.2595 149.765 95.81 150.619C95.379 151.448 95.025 152.047 94.748 152.416C94.508 152.735 94.0991 152.87 93.5215 152.82C92.9499 152.813 92.5044 152.69 92.185 152.45C91.5709 151.988 91.2273 151.346 91.1544 150.522C91.1245 149.692 91.3403 148.97 91.8019 148.356L108.03 127.223C108.086 127.15 108.147 127.042 108.215 126.901C108.283 126.76 108.335 126.664 108.372 126.615C109.037 125.731 109.86 125.658 110.843 126.396C111.31 126.747 111.684 127.374 111.966 128.278C112.266 129.157 112.25 129.818 111.918 130.26C111.512 130.801 110.789 131.507 109.749 132.379C108.734 133.269 108.023 133.984 107.617 134.525C107.1 135.212 106.303 136.324 105.226 137.86C106.007 137.946 106.581 138.128 106.95 138.405C107.908 139.125 108.776 140.143 109.556 141.459C110.544 143.163 110.803 144.915 110.334 146.715C109.976 148.061 109.114 149.642 107.748 151.46L101.572 159.678ZM118.406 166.332C117.483 167.56 115.927 167.891 113.74 167.323C112.032 166.885 110.465 166.131 109.04 165.06C105.257 162.217 104.981 158.645 108.212 154.346C109.541 152.577 111.448 150.935 113.933 149.42C116.983 147.56 119.258 147.194 120.756 148.32C122.107 149.335 123.104 151.027 123.747 153.394C124.415 155.779 124.259 157.623 123.281 158.925C122.062 160.546 120.368 161.291 118.199 161.16C116.275 161.06 114.429 160.345 112.66 159.016C112.316 158.757 111.921 158.133 111.473 157.143C109.817 159.551 109.628 161.234 110.905 162.194C111.986 163.007 113.274 163.494 114.767 163.655C116.285 163.835 117.191 164.035 117.486 164.257C118.542 165.051 118.849 165.742 118.406 166.332ZM119.623 156.349C120.085 155.735 120.335 155.019 120.372 154.201C120.453 153.378 120.199 152.745 119.609 152.302C118.798 151.692 117.904 151.578 116.927 151.958C116.096 152.295 115.368 152.881 114.74 153.717C114.389 154.183 114.263 154.684 114.36 155.219C114.458 155.754 114.753 156.206 115.244 156.575C117.037 157.923 118.497 157.847 119.623 156.349ZM136.763 172.113C135.101 174.324 133.308 175.917 131.383 176.892C128.905 178.144 126.671 178.022 124.681 176.526C124.042 176.046 123.21 175.056 122.186 173.555C122.081 173.745 121.973 173.914 121.862 174.062C121.253 174.872 120.494 174.936 119.585 174.253C118.922 173.755 118.566 173.103 118.517 172.298C118.487 171.929 118.9 171.047 119.755 169.653C120.445 168.48 121.021 167.586 121.482 166.972L121.593 166.824L137.793 146.42C138.647 146.101 139.308 146.194 139.775 146.698C139.934 146.742 140.076 146.809 140.199 146.902C140.641 147.234 140.843 147.809 140.805 148.626C140.811 149.437 140.638 150.076 140.287 150.543C139.493 151.6 138.333 152.938 136.808 154.559C135.029 156.414 133.842 157.713 133.245 158.456C134.604 158.131 135.848 158.394 136.978 159.243C138.329 160.258 139.176 161.664 139.518 163.459C139.879 165.229 139.702 166.922 138.988 168.538C138.557 169.521 137.815 170.713 136.763 172.113ZM133.529 169.279C136.04 165.938 136.596 163.742 135.195 162.689C134.016 161.803 132.483 161.977 130.594 163.21C129.168 164.137 127.91 165.325 126.82 166.774C124.494 169.87 124.264 172.119 126.131 173.522C127.925 174.87 130.391 173.456 133.529 169.279ZM147.511 188.206C146.588 189.434 145.033 189.765 142.845 189.197C141.137 188.759 139.571 188.005 138.146 186.934C134.363 184.091 134.086 180.519 137.317 176.22C138.647 174.451 140.554 172.809 143.038 171.294C146.089 169.434 148.363 169.068 149.862 170.194C151.213 171.209 152.21 172.901 152.853 175.268C153.52 177.653 153.365 179.497 152.386 180.799C151.168 182.42 149.474 183.165 147.304 183.034C145.381 182.934 143.534 182.219 141.766 180.89C141.422 180.631 141.026 180.007 140.578 179.017C138.923 181.425 138.733 183.108 140.011 184.068C141.092 184.881 142.379 185.368 143.872 185.529C145.39 185.709 146.297 185.909 146.591 186.131C147.648 186.925 147.954 187.617 147.511 188.206ZM148.729 178.223C149.19 177.609 149.44 176.893 149.478 176.076C149.558 175.252 149.304 174.619 148.714 174.176C147.904 173.566 147.01 173.452 146.032 173.832C145.202 174.169 144.473 174.755 143.845 175.591C143.494 176.057 143.368 176.558 143.466 177.093C143.564 177.628 143.858 178.08 144.35 178.449C146.143 179.797 147.603 179.721 148.729 178.223ZM161.803 198.197C160.935 199.352 159.687 199.99 158.058 200.111C156.275 200.232 154.475 199.61 152.657 198.243C151.853 197.677 151.125 196.881 150.475 195.854C148.357 192.532 147.557 190.528 148.074 189.84C148.887 188.759 150.067 188.8 151.614 189.964C151.836 190.13 152.06 190.317 152.287 190.527C151.807 191.319 151.953 192.352 152.726 193.625C153.389 194.738 154.19 195.59 155.13 196.181C155.879 196.667 156.429 196.677 156.78 196.21C156.836 196.136 156.894 196.007 156.956 195.823C157.042 195.657 157.113 195.537 157.168 195.464C157.242 195.365 156.923 194.818 156.211 193.822C155.395 192.708 154.944 192.081 154.858 191.94C153.313 188.164 153.426 185.098 155.199 182.739C156.269 181.314 157.663 180.305 159.378 179.71C161.284 179.067 162.912 179.253 164.264 180.268C165.271 181.025 166.118 182.277 166.804 184.023C167.516 185.788 167.677 187.235 167.289 188.366C167.005 189.152 166.707 189.754 166.393 190.172C166.06 190.614 165.722 190.936 165.378 191.139C164.953 191.396 164.529 191.654 164.105 191.912C163.398 191.88 162.811 191.689 162.344 191.339C162.099 191.154 161.792 190.693 161.424 189.955C161.099 189.211 161.019 188.728 161.185 188.507C161.259 188.409 161.647 188.2 162.348 187.881C162.76 187.691 163.049 187.486 163.215 187.265C164.323 185.791 164.299 184.62 163.145 183.752C162.457 183.235 161.596 183.28 160.563 183.888C159.776 184.372 159.087 185.008 158.496 185.794C157.758 186.777 157.793 188.187 158.603 190.026C159.455 191.551 160.311 193.097 161.17 194.666C162.09 196.357 162.301 197.534 161.803 198.197ZM180.003 197.056C179.504 197.719 178.134 197.42 175.892 196.157C175.436 196.661 174.489 197.871 173.049 199.787L171.221 202.219C170.852 202.71 170.381 203.491 169.808 204.559C169.26 205.647 168.811 206.424 168.46 206.891C168.164 207.284 167.7 207.492 167.067 207.516C166.452 207.516 165.949 207.368 165.555 207.072C164.941 206.611 164.822 205.695 165.199 204.324C165.489 203.274 165.92 202.368 166.492 201.606L172.363 193.794C171.362 192.773 170.794 192.173 170.659 191.994C170.168 191.318 170.061 190.795 170.338 190.427C170.412 190.329 170.52 190.237 170.661 190.151C171.983 189.722 173.037 189.803 173.823 190.393C173.872 190.43 173.946 190.486 174.044 190.56C174.124 190.658 174.189 190.726 174.238 190.763C174.754 191.15 175.452 190.733 176.332 189.511L178.353 186.821C178.409 186.44 178.511 186.151 178.658 185.955C178.898 185.635 179.295 185.491 179.848 185.522C180.444 185.548 180.914 185.689 181.258 185.948C181.774 186.336 182.081 186.951 182.178 187.793C182.294 188.61 182.149 189.289 181.743 189.83C181.3 190.419 180.759 190.935 180.119 191.377C179.522 191.813 179.006 192.347 178.569 192.98L178.458 193.127C180.226 194.764 180.741 196.073 180.003 197.056ZM195.25 193.407C195.047 193.678 194.281 194.39 192.953 195.544C189.612 198.454 187.213 200.879 185.754 202.82L180.326 210.043C178.886 211.959 178.172 213.114 178.184 213.507C178.14 214.435 178.063 214.973 177.952 215.12C177.694 215.464 177.325 215.648 176.845 215.672C176.372 215.739 175.963 215.644 175.619 215.385C175.103 214.997 174.56 214.262 173.99 213.18C174.175 212.32 174.452 211.644 174.821 211.153L186.287 195.897L186.029 195.012L186.916 193.832C187.667 192.782 188.875 191.711 190.542 190.619C192.553 189.324 193.964 188.981 194.775 189.59C195.241 189.941 195.514 190.55 195.593 191.416C195.715 192.277 195.601 192.941 195.25 193.407Z" fill="black"/>
    </g>
</svg>
