<svg width="109" height="109" viewBox="0 0 109 109" fill="none" xmlns="http://www.w3.org/2000/svg">
    <path d="M43.9119 9.33915C42.2433 11.5846 41.25 14.3665 41.2699 17.387C41.3096 24.4015 46.9314 30.3231 53.9437 30.6808C61.6711 31.0782 68.0477 24.938 68.0477 17.3075C68.0477 14.3467 67.0743 11.6045 65.4454 9.39877C64.7502 8.46483 64.3926 7.31229 64.3926 6.15976C64.3926 3.09961 66.8757 0.615723 69.9349 0.615723H108.711V108.794H0.58667V69.9859C0.58667 66.9257 3.06978 64.4418 6.12897 64.4418C7.26127 64.4418 8.39356 64.7796 9.32721 65.4553C11.5719 67.1244 14.353 68.118 17.3725 68.0981C24.3848 68.0584 30.3045 62.4348 30.6621 55.4203C31.0594 47.6905 24.9211 41.3118 17.293 41.3118C14.3332 41.3118 11.5918 42.2855 9.38681 43.9149C8.45316 44.6104 7.30099 44.9681 6.14883 44.9681C3.08964 44.9681 0.606542 42.4842 0.606542 39.4241V0.615723H39.3827C42.4419 0.615723 44.925 3.09961 44.925 6.15976C44.925 7.29242 44.5873 8.42507 43.9119 9.33915Z" fill="white"/>
    <mask id="mask0_402_5402" style="mask-type:alpha" maskUnits="userSpaceOnUse" x="0" y="0" width="109" height="109">
        <path d="M43.9119 9.33915C42.2433 11.5846 41.25 14.3665 41.2699 17.387C41.3096 24.4015 46.9314 30.3231 53.9437 30.6808C61.6711 31.0782 68.0477 24.938 68.0477 17.3075C68.0477 14.3467 67.0743 11.6045 65.4454 9.39877C64.7502 8.46483 64.3926 7.31229 64.3926 6.15976C64.3926 3.09961 66.8757 0.615723 69.9349 0.615723H108.711V108.794H0.58667V69.9859C0.58667 66.9257 3.06978 64.4418 6.12897 64.4418C7.26127 64.4418 8.39356 64.7796 9.32721 65.4553C11.5719 67.1244 14.353 68.118 17.3725 68.0981C24.3848 68.0584 30.3045 62.4348 30.6621 55.4203C31.0594 47.6905 24.9211 41.3118 17.293 41.3118C14.3332 41.3118 11.5918 42.2855 9.38681 43.9149C8.45316 44.6104 7.30099 44.9681 6.14883 44.9681C3.08964 44.9681 0.606542 42.4842 0.606542 39.4241V0.615723H39.3827C42.4419 0.615723 44.925 3.09961 44.925 6.15976C44.925 7.29242 44.5873 8.42507 43.9119 9.33915Z" fill="white"/>
    </mask>
    <g mask="url(#mask0_402_5402)">
        <path d="M-37.1808 -69.4406C-37.4577 -69.0721 -37.7314 -68.8357 -38.002 -68.7315C-38.2295 -68.6334 -38.4754 -68.5876 -38.7396 -68.594C-40.1855 -67.0281 -41.4192 -65.668 -42.4406 -64.5135C-43.4374 -63.3406 -44.3236 -62.2382 -45.099 -61.2064C-45.6344 -60.494 -46.053 -59.8859 -46.3546 -59.3822C-46.6317 -58.8601 -46.835 -58.4362 -46.9644 -58.1106C-47.0937 -57.785 -47.1893 -57.53 -47.2509 -57.3457C-47.2695 -57.1675 -47.2973 -57.0538 -47.3342 -57.0046C-47.4265 -56.8818 -47.5895 -56.7929 -47.8231 -56.7378C-48.0382 -56.7072 -48.2902 -56.7044 -48.5791 -56.7293C-48.8249 -56.7603 -49.086 -56.822 -49.3625 -56.9145C-49.596 -57.013 -49.7987 -57.1269 -49.9707 -57.2562C-50.3883 -57.57 -50.7414 -57.8931 -51.0299 -58.2252C-51.3185 -58.5574 -51.4778 -58.9847 -51.5081 -59.5072C-51.3356 -59.8389 -51.1048 -60.2228 -50.8155 -60.6589C-50.5077 -61.1196 -50.1907 -61.5925 -49.8645 -62.0777C-49.4952 -62.5691 -49.1168 -63.0727 -48.729 -63.5886C-48.3413 -64.1045 -47.9813 -64.5835 -47.649 -65.0257C-46.7997 -66.1557 -45.9074 -67.2919 -44.972 -68.4342C-44.0367 -69.5764 -43.089 -70.7095 -42.1291 -71.8333C-42.086 -71.993 -42.1687 -72.1898 -42.3775 -72.4235C-42.5616 -72.6388 -42.9362 -72.9588 -43.5013 -73.3835C-44.3365 -74.0112 -45.1228 -74.4483 -45.8601 -74.6949C-46.5728 -74.923 -47.0584 -74.9419 -47.3167 -74.7517C-47.7412 -74.3403 -48.1534 -73.9197 -48.5533 -73.4899C-48.9348 -73.0846 -49.3501 -72.6087 -49.7993 -72.0621C-50.2485 -71.5155 -50.7624 -70.883 -51.3408 -70.1645C-51.8947 -69.4275 -52.5593 -68.5431 -53.3348 -67.5113C-53.9994 -66.6269 -54.5318 -65.893 -54.9319 -65.3095C-55.2889 -64.7321 -55.5721 -64.253 -55.7815 -63.8721C-55.9724 -63.5158 -56.1201 -63.2425 -56.2248 -63.052C-56.3049 -62.8431 -56.3819 -62.6896 -56.4557 -62.5913C-56.7142 -62.2474 -57.0309 -62.0817 -57.4058 -62.0944C-57.7807 -62.1071 -58.0787 -62.1965 -58.2998 -62.3626C-59.1596 -63.0088 -59.6384 -63.6762 -59.736 -64.3646C-59.8276 -65.0101 -59.6302 -65.7075 -59.1439 -66.4568C-58.8731 -66.8683 -58.5561 -67.3413 -58.193 -67.8756C-57.8052 -68.3915 -57.4206 -68.9289 -57.039 -69.4879C-56.6143 -70.0529 -56.1989 -70.6056 -55.7927 -71.1461C-55.3681 -71.7111 -54.9896 -72.2147 -54.6573 -72.6569C-54.0111 -73.5168 -53.3341 -74.3919 -52.6264 -75.2824C-51.8757 -76.179 -51.2973 -76.8975 -50.8911 -77.438C-50.7619 -77.61 -50.6849 -77.7635 -50.6602 -77.8987C-50.5924 -78.04 -50.5462 -78.1783 -50.5215 -78.3135C-50.4722 -78.4302 -50.4259 -78.5684 -50.3828 -78.7282C-50.2966 -78.8941 -50.1704 -79.0875 -50.0042 -79.3086C-49.6534 -79.7754 -49.2629 -79.9625 -48.8328 -79.8698C-48.7161 -79.8206 -48.5963 -79.7498 -48.4735 -79.6575C-48.3322 -79.5897 -48.1417 -79.485 -47.9022 -79.3434C-47.6381 -79.1834 -47.291 -78.9802 -46.861 -78.7339C-46.4065 -78.4692 -45.8198 -78.1244 -45.1012 -77.6996C-44.3333 -77.2379 -43.4457 -76.7054 -42.4384 -76.1021C-41.431 -75.4988 -40.1903 -74.6432 -38.7163 -73.5355C-37.5617 -72.6677 -36.9079 -71.9264 -36.7548 -71.3117C-36.5772 -70.6784 -36.7192 -70.0548 -37.1808 -69.4406ZM-27.7363 -50.1181C-30.118 -46.949 -31.8964 -44.7873 -33.0714 -43.633C-33.7666 -42.9638 -34.5687 -42.9707 -35.4776 -43.6538C-36.8533 -44.6877 -36.9505 -45.8372 -35.7692 -47.1021C-37.4407 -47.4357 -38.9397 -48.1009 -40.2663 -49.0979C-41.5437 -50.058 -42.5197 -51.2913 -43.1943 -52.7977C-43.9977 -54.5932 -43.9563 -56.0805 -43.0701 -57.2597C-42.2023 -58.4143 -40.6038 -58.9045 -38.2746 -58.7301C-36.1666 -58.5682 -34.4862 -58.0164 -33.2333 -57.0748L-30.1011 -54.7208L-29.4364 -55.6052C-27.4733 -58.1662 -27.2655 -60.0283 -28.8132 -61.1915C-30.754 -62.65 -32.4075 -62.4704 -33.7737 -60.6524C-34.2353 -60.0383 -34.81 -59.9897 -35.4979 -60.5066C-35.9155 -60.8205 -36.2192 -61.3371 -36.409 -62.0564C-36.5558 -62.7818 -36.4723 -63.3533 -36.1584 -63.7709C-35.1245 -65.1466 -33.7839 -65.9074 -32.1366 -66.0533C-30.4893 -66.1992 -28.9777 -65.7552 -27.602 -64.7213C-22.9835 -61.2503 -23.0283 -56.3825 -27.7363 -50.1181ZM-32.4551 -51.5886C-32.0858 -52.0799 -32.2697 -52.6026 -33.0067 -53.1564C-36.0775 -55.4643 -38.1576 -55.8935 -39.2469 -54.4441C-39.8377 -53.6579 -39.4575 -52.7572 -38.1063 -51.7417C-37.2711 -51.114 -36.3096 -50.7565 -35.2218 -50.6694C-33.9497 -50.5207 -33.0274 -50.8271 -32.4551 -51.5886ZM-10.777 -41.2935C-12.6602 -38.7877 -14.6994 -36.9951 -16.8947 -35.9155C-19.6987 -34.4862 -22.2185 -34.6116 -24.4541 -36.2918C-25.6578 -37.1964 -26.4311 -38.3158 -26.774 -39.6498C-26.9771 -39.3796 -27.254 -39.0111 -27.6048 -38.5444C-28.011 -38.0039 -28.2879 -37.6354 -28.4356 -37.4389C-30.2081 -35.0805 -31.3318 -33.0226 -31.8068 -31.2653C-31.9673 -30.5402 -32.1029 -30.104 -32.2137 -29.9566C-32.8414 -29.1213 -33.6466 -29.0729 -34.6293 -29.8115C-35.3663 -30.3653 -35.8175 -30.9159 -35.9829 -31.463C-36.1239 -31.8381 -35.9325 -32.6553 -35.4089 -33.9148C-34.9284 -35.0145 -34.5035 -35.81 -34.1343 -36.3013L-27.46 -45.1821C-26.8507 -45.9928 -25.9707 -47.0613 -24.8201 -48.3878C-23.5402 -49.8862 -22.6572 -50.9332 -22.1711 -51.5289C-21.6849 -52.1246 -21.0757 -52.9353 -20.3433 -53.961C-19.4078 -55.2569 -18.8016 -56.0891 -18.5246 -56.4576C-16.9553 -58.5458 -15.4828 -59.0729 -14.107 -58.039C-13.7631 -57.7805 -13.5361 -57.4176 -13.4259 -56.9504C-13.2972 -56.5078 -13.3529 -56.1268 -13.593 -55.8074C-13.9991 -55.2669 -14.7991 -54.3304 -15.9927 -52.9979C-14.0192 -53.629 -12.3568 -53.4368 -11.0057 -52.4214C-9.18778 -51.0551 -8.34138 -49.2658 -8.46648 -47.0533C-8.56672 -45.1296 -9.33689 -43.2097 -10.777 -41.2935ZM-13.8074 -44.0899C-11.8134 -46.7431 -11.3814 -48.4943 -12.5115 -49.3436C-13.0028 -49.7129 -14.0015 -49.7139 -15.5077 -49.3466C-18.4155 -48.6488 -21.1617 -46.7339 -23.7462 -43.6019C-23.5867 -43.2514 -23.4954 -42.3755 -23.4722 -40.9742C-23.4302 -39.9047 -23.139 -39.1669 -22.5986 -38.7607C-20.5595 -37.2283 -17.6291 -39.0047 -13.8074 -44.0899ZM3.5287 -28.178C1.86706 -25.967 -0.10732 -24.4908 -2.39443 -23.7494C-5.01966 -22.9161 -7.38863 -23.2933 -9.50135 -24.8811C-11.6632 -26.5059 -12.743 -28.4706 -12.7407 -30.7754C-12.7694 -32.8344 -11.9437 -34.9817 -10.2636 -37.2172C-8.60193 -39.4282 -6.47985 -41.1009 -3.89734 -42.2354C-0.865929 -43.6092 1.66929 -43.5299 3.7083 -41.9974C4.34703 -41.5174 4.93311 -40.6349 5.46656 -39.3498C6.98099 -35.636 6.33504 -31.9121 3.5287 -28.178ZM0.341324 -30.6888C3.16613 -34.4474 3.66957 -37.0099 1.85165 -38.3761C0.549634 -39.3546 -1.03306 -39.2947 -2.89643 -38.1964C-4.29244 -37.3619 -5.56279 -36.1831 -6.70748 -34.66C-9.16302 -31.3927 -9.42042 -29.0297 -7.47967 -27.5712C-6.22679 -26.6296 -4.78554 -26.6035 -3.15593 -27.4931C-1.91373 -28.1741 -0.747978 -29.2393 0.341324 -30.6888ZM14.3114 -30.1077C14.5698 -30.4516 14.8559 -30.6787 15.1694 -30.7891C15.483 -30.8994 15.9408 -30.8436 16.5429 -30.6218C16.9792 -30.4861 17.4093 -30.3935 17.8333 -30.3439C18.2574 -30.2943 18.7028 -30.0941 19.1695 -29.7433C19.3415 -29.6141 19.4704 -29.4788 19.5564 -29.3373C19.5809 -29.3188 19.716 -29.2173 19.9617 -29.0327C20.2258 -28.8726 20.5391 -28.6756 20.9015 -28.4417C21.2823 -28.2324 21.6662 -28.0015 22.0532 -27.7491C22.4832 -27.5029 22.8763 -27.2843 23.2326 -27.0934C23.4476 -26.9703 23.6995 -26.8194 23.9881 -26.6409C24.3199 -26.4685 24.6178 -26.3023 24.8819 -26.1422C25.1891 -25.9882 25.4502 -25.8497 25.6651 -25.7266C25.8801 -25.6034 26.0245 -25.5142 26.0982 -25.4588C26.2456 -25.348 26.3837 -25.1481 26.5125 -24.8591C26.6412 -24.5701 26.727 -24.275 26.7697 -23.9738C26.837 -23.6541 26.8582 -23.3499 26.8334 -23.061C26.8331 -22.7537 26.7683 -22.5141 26.639 -22.3421C26.5467 -22.2193 26.4391 -22.1272 26.3161 -22.0659C26.2116 -22.0291 26.0763 -21.977 25.9103 -21.9095C25.7873 -21.8482 25.6336 -21.7715 25.4491 -21.6795C25.2892 -21.569 25.0924 -21.4094 24.8586 -21.2007C23.6343 -19.9297 22.4498 -18.6094 21.3053 -17.2399C20.1792 -15.895 19.1638 -14.6207 18.2592 -13.417C17.5391 -12.4589 17.0096 -11.5498 16.6708 -10.6896C16.3503 -9.85407 16.1683 -9.12592 16.1247 -8.50521C15.516 -8.30913 15.0304 -8.25122 14.6678 -8.33148C14.2868 -8.38717 13.9367 -8.53502 13.6173 -8.77504C13.1751 -9.10737 12.8497 -9.46724 12.6411 -9.85466C12.4141 -10.2175 12.3285 -10.6663 12.3843 -11.2009C12.4647 -11.7171 12.6866 -12.3192 13.0499 -13.0072C13.4316 -13.7198 13.9918 -14.5674 14.7303 -15.5501C15.4134 -16.459 16.0657 -17.2758 16.6872 -18.0005C17.3087 -18.7251 17.9147 -19.4037 18.5054 -20.0361C19.096 -20.6686 19.6467 -21.2735 20.1574 -21.8507C20.6927 -22.4095 21.2034 -22.9867 21.6895 -23.5824C21.7634 -23.6807 21.7143 -23.7944 21.5424 -23.9237C21.3889 -24.0775 21.005 -24.3851 20.3909 -24.8467C19.9487 -25.179 19.5003 -25.4776 19.0457 -25.7423C18.6158 -25.9886 18.3823 -26.0871 18.3454 -26.038C17.5083 -24.8219 16.7512 -23.7379 16.0742 -22.7859C15.4402 -21.84 14.8463 -20.9985 14.2924 -20.2616C13.4616 -19.1561 12.7047 -18.2257 12.0217 -17.4704C11.3388 -16.7151 10.6067 -15.9967 9.82542 -15.3152C9.22256 -14.7688 8.61374 -14.4191 7.99897 -14.266C7.40877 -14.0945 6.83406 -14.0459 6.27483 -14.1202C5.69714 -14.17 5.14722 -14.3334 4.62507 -14.6105C4.10902 -14.8445 3.64219 -15.1185 3.22456 -15.4324C2.83149 -15.7278 2.44469 -16.1338 2.06414 -16.6505C1.68969 -17.1241 1.40443 -17.6652 1.20835 -18.2739C0.99381 -18.858 0.905307 -19.4819 0.942839 -20.1457C1.00494 -20.791 1.26677 -21.4207 1.72834 -22.0348C2.0976 -22.5262 2.51888 -22.8054 2.9922 -22.8725C3.48399 -22.9642 3.95098 -22.8439 4.39317 -22.5116C4.8108 -22.1977 4.99788 -21.8073 4.95439 -21.3402C4.92937 -20.8977 4.83057 -20.4338 4.658 -19.9484C4.52846 -19.4691 4.40509 -19.0236 4.28791 -18.612C4.21376 -18.2064 4.32408 -17.8928 4.61887 -17.6713C5.06107 -17.3389 5.95263 -17.7068 7.29355 -18.7749C8.63446 -19.8431 10.2742 -21.6668 12.2128 -24.2463C12.5821 -24.7376 12.9421 -25.2167 13.2929 -25.6835C13.6621 -26.1748 14.0191 -26.6753 14.3638 -27.1851L14.2164 -27.2959C13.8725 -27.5544 13.7131 -27.9817 13.7383 -28.5779C13.8065 -29.1801 13.9975 -29.6901 14.3114 -30.1077ZM33.5332 -15.777C33.1764 -15.5069 32.6228 -15.0004 31.8722 -14.2574C31.1462 -13.496 30.3278 -12.535 29.417 -11.3742C29.804 -11.1219 30.1817 -10.8572 30.5502 -10.5803C30.9617 -10.3094 31.364 -10.0263 31.7571 -9.73091C32.7398 -8.9924 33.495 -8.2326 34.0228 -7.45152C34.5936 -6.67654 35.1274 -5.69877 35.624 -4.51821C35.8631 -3.91565 36.047 -3.39305 36.1756 -2.9504C36.3227 -2.53231 36.3869 -2.15733 36.3681 -1.82546C36.3739 -1.47512 36.3121 -1.13714 36.1827 -0.811526C36.0534 -0.485907 35.841 -0.126566 35.5456 0.266497C34.9732 1.02806 34.2321 1.52824 33.3222 1.76704C32.4308 1.98127 31.4812 2.01721 30.4734 1.87485C29.5086 1.72639 28.5224 1.42733 27.5149 0.977667C26.5074 0.528002 25.6228 0.0169966 24.8613 -0.555349C24.5665 -0.776902 24.2625 -1.063 23.9494 -1.41364C23.6178 -1.73971 23.2802 -2.10882 22.9364 -2.52095C22.6843 -2.4413 22.3555 -2.43855 21.9499 -2.5127C21.5504 -2.54383 21.0928 -2.75325 20.5769 -3.14097C20.0364 -3.54715 19.7479 -3.87933 19.7112 -4.1375C19.6746 -4.39568 19.8318 -4.83497 20.1827 -5.45539C20.2689 -5.62125 20.2875 -5.79947 20.2386 -5.99005C20.2142 -6.16217 20.1682 -6.33123 20.1008 -6.49724C20.0518 -6.68782 20.0151 -6.86917 19.9907 -7.04129C19.9847 -7.23797 20.0648 -7.44686 20.231 -7.66796C20.3972 -7.88906 20.5633 -8.03333 20.7293 -8.10077C20.9383 -8.17432 21.1289 -8.2233 21.301 -8.24772C21.4731 -8.27213 21.633 -8.30578 21.7805 -8.34865C21.9711 -8.39763 22.1402 -8.52039 22.2879 -8.71692L24.1711 -11.2227C24.3373 -11.4438 24.3683 -11.6896 24.2641 -11.9601C24.2029 -12.2368 24.2738 -12.5102 24.4769 -12.7804C24.6615 -13.0261 24.9229 -13.1949 25.261 -13.2867C25.5992 -13.3786 25.8698 -13.5596 26.0729 -13.8299C27.273 -15.4267 28.2452 -16.6181 28.9897 -17.4041C29.7772 -18.1961 30.4477 -18.807 31.0013 -19.2367C31.438 -19.562 31.9084 -19.8043 32.4126 -19.9636C32.9413 -20.1045 33.4881 -19.9626 34.0532 -19.5379C34.2497 -19.3902 34.4554 -19.178 34.6702 -18.9012C34.9035 -18.649 35.0969 -18.3691 35.2502 -18.0617C35.4036 -17.7542 35.4924 -17.4376 35.5166 -17.1118C35.5593 -16.8106 35.4884 -16.5372 35.3038 -16.2915C35.2115 -16.1687 35.0086 -16.1289 34.6952 -16.1723C34.4002 -16.2402 34.0129 -16.1084 33.5332 -15.777ZM32.561 -2.20721C33.041 -2.84594 33.0356 -3.58041 32.5447 -4.41062C32.0723 -5.26541 31.2096 -6.1636 29.9568 -7.1052C29.6865 -7.30829 29.3948 -7.50833 29.0815 -7.70532C28.7867 -7.92687 28.498 -8.10539 28.2154 -8.24089C27.9513 -8.40095 27.7056 -8.50875 27.4782 -8.56429C27.2509 -8.61983 27.0818 -8.5739 26.971 -8.4265L24.7555 -5.47853C24.6632 -5.3557 24.6538 -5.18976 24.7273 -4.98072C24.8439 -4.77778 24.9851 -4.55638 25.1508 -4.31652C25.3595 -4.08275 25.5805 -3.83976 25.8138 -3.58754C26.0902 -3.34142 26.3512 -3.12605 26.5968 -2.94142C27.0636 -2.59063 27.5796 -2.27974 28.1447 -2.00875C28.753 -1.74386 29.3274 -1.56198 29.8682 -1.46311C30.4274 -1.3888 30.9407 -1.40673 31.4079 -1.5169C31.8997 -1.60861 32.284 -1.83871 32.561 -2.20721ZM40.5089 8.49439C40.1397 8.98572 39.577 9.27403 38.8209 9.35933C38.0894 9.46309 37.478 9.33035 36.9867 8.96109C36.3971 8.51798 35.9553 7.80152 35.6612 6.8117C35.3672 5.82188 35.4325 5.04445 35.8572 4.47942C36.2079 4.01266 36.7614 3.73663 37.5174 3.65133C38.292 3.54146 38.9126 3.66193 39.3794 4.01272C40.0672 4.52968 40.5521 5.24004 40.8339 6.1438C41.1342 7.023 41.0259 7.80653 40.5089 8.49439ZM49.629 -3.10363C49.1489 -2.46491 48.4664 -2.17057 47.5814 -2.22061C46.7149 -2.29522 45.9377 -2.591 45.2498 -3.10796C43.8004 -4.19726 43.6019 -5.44206 44.6543 -6.84234C45.5959 -8.09523 46.7791 -8.18625 48.204 -7.11541C48.8672 -6.61692 49.3706 -6.00795 49.7141 -5.28851C50.1189 -4.44609 50.0905 -3.71779 49.629 -3.10363ZM-73.4676 -21.7714C-74.6118 -20.7093 -75.7345 -19.6502 -76.8357 -18.5941C-78.1522 -17.3539 -79.189 -16.2302 -79.9459 -15.2229L-87.4787 -5.19984C-88.845 -3.38193 -90.4163 -2.39087 -92.1927 -2.22668C-93.9445 -2.04403 -95.7294 -2.63582 -97.5473 -4.00206C-98.7265 -4.88828 -99.7978 -6.17388 -100.761 -7.85888C-101.921 -9.84524 -102.122 -11.342 -101.365 -12.3493C-101.107 -12.6932 -100.75 -12.8864 -100.295 -12.929C-99.8341 -12.9286 -99.4317 -12.7991 -99.0877 -12.5406C-98.8666 -12.3744 -98.5877 -11.6458 -98.2509 -10.3548C-97.9142 -9.06379 -97.2053 -8.0121 -96.1244 -7.19974C-94.7487 -6.16582 -93.449 -5.97708 -92.2252 -6.63351C-91.3643 -7.06289 -90.3616 -8.03914 -89.2169 -9.56226C-88.7922 -10.1273 -88.4537 -10.6033 -88.2013 -10.9902C-89.4182 -11.0591 -90.5303 -11.4719 -91.5375 -12.2289C-93.38 -13.6136 -94.3063 -15.3478 -94.3166 -17.4313C-94.3208 -19.3182 -93.6214 -21.1952 -92.2182 -23.0622C-92.0705 -23.2587 -89.6214 -26.2618 -84.8708 -32.0714C-83.8938 -31.8368 -83.1842 -31.5534 -82.742 -31.2211C-82.2507 -30.8518 -81.7475 -30.0124 -81.2325 -28.7027C-82.9299 -27.6719 -85.4402 -24.9455 -88.7635 -20.5235C-90.8867 -17.6984 -91.2359 -15.7504 -89.8111 -14.6795C-88.7547 -13.8856 -87.2794 -14.1608 -85.385 -15.5049C-84.0073 -16.4685 -82.8015 -17.6381 -81.7676 -19.0138L-78.3889 -23.5095C-78.4074 -23.4849 -78.1396 -23.918 -77.5856 -24.8086C-76.2091 -24.543 -75.2752 -24.2255 -74.7838 -23.8563C-74.268 -23.4686 -73.8292 -22.7736 -73.4676 -21.7714ZM-63.5242 -3.51557C-65.1858 -1.30459 -67.1602 0.171614 -69.4473 0.91304C-72.0726 1.74633 -74.4415 1.36907 -76.5542 -0.218727C-78.7161 -1.84345 -79.7959 -3.80821 -79.7936 -6.11302C-79.8223 -8.17202 -78.9966 -10.3193 -77.3165 -12.5548C-75.6548 -14.7658 -73.5327 -16.4385 -70.9502 -17.573C-67.9188 -18.9468 -65.3836 -18.8674 -63.3446 -17.335C-62.7059 -16.855 -62.1198 -15.9725 -61.5863 -14.6874C-60.0719 -10.9736 -60.7179 -7.24966 -63.5242 -3.51557ZM-66.7116 -6.02635C-63.8868 -9.78501 -63.3833 -12.3475 -65.2012 -13.7137C-66.5033 -14.6922 -68.086 -14.6323 -69.9493 -13.534C-71.3453 -12.6995 -72.6157 -11.5207 -73.7604 -9.99759C-76.2159 -6.73025 -76.4733 -4.36731 -74.5326 -2.90875C-73.2797 -1.96715 -71.8384 -1.94114 -70.2088 -2.83072C-68.9666 -3.51172 -67.8009 -4.57693 -66.7116 -6.02635ZM-44.5398 1.52594C-45.1122 2.2875 -46.0782 3.36827 -47.4379 4.76826C-48.7545 6.16213 -49.7083 7.25214 -50.2991 8.03826C-50.816 8.72612 -51.5669 9.77637 -52.5517 11.189C-53.4934 12.5956 -54.2136 13.6305 -54.712 14.2938C-55.1367 14.8588 -55.8281 14.7813 -56.7861 14.0612C-57.7688 13.3227 -58.0352 12.3729 -57.5854 11.2117C-58.9805 11.1243 -60.1202 10.7482 -61.0046 10.0836C-61.7171 9.54816 -62.3893 8.75464 -63.0213 7.70302C-63.6349 6.62684 -63.9228 5.68004 -63.8851 4.86264C-63.8221 3.29543 -62.9321 1.36949 -61.215 -0.915188C-60.6242 -1.70131 -59.5657 -3.05857 -58.0396 -4.98696C-56.655 -6.67579 -55.6058 -8.02076 -54.8918 -9.02188C-53.7487 -9.00846 -52.9314 -8.81712 -52.4401 -8.44786C-51.2609 -7.56165 -51.1052 -6.54124 -51.9729 -5.38661C-52.2683 -4.99355 -52.7729 -4.45011 -53.4865 -3.7563C-54.1756 -3.04403 -54.6678 -2.49136 -54.9632 -2.0983L-58.8681 3.0975C-59.3112 3.6871 -59.6131 4.42126 -59.7738 5.30001C-59.9346 6.3324 -59.7448 7.05169 -59.2043 7.45787C-58.1479 8.25177 -56.8541 8.167 -55.3227 7.20357C-54.2772 6.52852 -53.256 5.52771 -52.259 4.20112L-48.9357 -0.220836C-48.511 -0.785864 -48.1323 -1.59678 -47.7993 -2.65359C-46.7605 -2.75705 -45.9586 -2.59646 -45.3936 -2.17182C-44.804 -1.72871 -44.4143 -1.14751 -44.2244 -0.428226C-44.0101 0.309525 -44.1152 0.960915 -44.5398 1.52594ZM-32.4666 11.3492C-32.5958 11.5211 -32.8235 11.7729 -33.1495 12.1045C-34.2193 12.4537 -35.0367 12.4161 -35.6017 11.9914C-36.0685 11.6406 -36.283 11.0565 -36.2454 10.2391C-35.4637 9.0967 -35.4413 8.24856 -36.1783 7.69467C-36.6205 7.36234 -38.0379 8.12307 -40.4306 9.97685C-41.5009 10.7871 -42.7283 12.1134 -44.113 13.9559C-45.4239 15.7001 -46.1318 16.8211 -46.2368 17.3189C-46.391 17.9333 -46.5328 18.3265 -46.662 18.4985C-46.9759 18.9161 -47.4309 19.1124 -48.0271 19.0872C-48.5802 19.0559 -49.0901 18.8649 -49.5569 18.5141C-50.8835 17.5171 -51.0852 16.4044 -50.1621 15.1761C-50.0698 15.0533 -49.916 14.8998 -49.7007 14.7156C-49.4608 14.5499 -49.3039 14.4179 -49.2301 14.3196C-48.2885 13.0668 -46.956 11.1658 -45.2325 8.61687C-43.4906 6.04335 -42.1581 4.14243 -41.2349 2.91411C-40.4041 1.80862 -39.3254 1.75437 -37.9988 2.75136C-37.2127 3.34217 -36.8476 3.98173 -36.9036 4.67004C-35.6434 4.42544 -34.5834 4.62624 -33.7236 5.27244C-33.134 5.71554 -32.689 6.29987 -32.3885 7.02541C-32.1677 7.49888 -32.0609 8.25189 -32.0681 9.28444C-32.0568 10.2924 -32.1896 10.9807 -32.4666 11.3492ZM-26.5011 30.5942C-27.4243 31.8225 -28.9796 32.1529 -31.167 31.5852C-32.8752 31.1472 -34.4418 30.3927 -35.8666 29.3219C-39.6498 26.4786 -39.926 22.9074 -36.695 18.6083C-35.3657 16.8395 -33.4587 15.1973 -30.9742 13.6817C-27.9239 11.8224 -25.6494 11.4559 -24.1509 12.5821C-22.7997 13.5975 -21.8026 15.2887 -21.1596 17.6556C-20.492 20.041 -20.6475 21.8847 -21.626 23.1867C-22.8446 24.8081 -24.5386 25.5532 -26.7081 25.422C-28.6317 25.3217 -30.4779 24.607 -32.2467 23.2776C-32.5906 23.0192 -32.9864 22.3949 -33.4341 21.405C-35.0898 23.8126 -35.279 25.4965 -34.0015 26.4565C-32.9206 27.2689 -31.6334 27.7557 -30.1401 27.917C-28.6222 28.0967 -27.7158 28.2974 -27.421 28.5189C-26.3646 29.3128 -26.058 30.0046 -26.5011 30.5942ZM-25.2835 20.6109C-24.822 19.9968 -24.5723 19.281 -24.5347 18.4636C-24.4539 17.6401 -24.7084 17.0068 -25.298 16.5637C-26.1087 15.9544 -27.0028 15.8398 -27.9804 16.2199C-28.8105 16.5571 -29.5394 17.1434 -30.1671 17.9786C-30.5179 18.4454 -30.6444 18.9462 -30.5466 19.481C-30.4488 20.0158 -30.1542 20.4678 -29.6629 20.8371C-27.8696 22.1849 -26.4098 22.1095 -25.2835 20.6109ZM-9.12382 28.085C-9.62232 28.7483 -10.9926 28.4488 -13.2347 27.1867C-13.69 27.6902 -14.6377 28.9 -16.0778 30.8162L-17.9056 33.2483C-18.2749 33.7396 -18.7459 34.5197 -19.3185 35.5886C-19.8666 36.6759 -20.316 37.453 -20.6668 37.9197C-20.9622 38.3128 -21.4265 38.5213 -22.0595 38.5453C-22.6742 38.5447 -23.178 38.3967 -23.5711 38.1012C-24.1852 37.6397 -24.3042 36.7238 -23.9279 35.3536C-23.638 34.3029 -23.2069 33.3967 -22.6345 32.6352L-16.7634 24.823C-17.7642 23.8018 -18.3321 23.202 -18.4671 23.0236C-18.9582 22.347 -19.0652 21.8245 -18.7883 21.456C-18.7144 21.3577 -18.6068 21.2657 -18.4653 21.1798C-17.1435 20.7508 -16.0895 20.8318 -15.3034 21.4226C-15.2542 21.4595 -15.1805 21.5149 -15.0823 21.5887C-15.0025 21.6872 -14.938 21.7548 -14.8889 21.7918C-14.373 22.1795 -13.675 21.7622 -12.7949 20.54L-10.7732 17.85C-10.7175 17.469 -10.6158 17.1802 -10.4681 16.9837C-10.2281 16.6643 -9.8315 16.5203 -9.27838 16.5516C-8.68223 16.5767 -8.21218 16.7185 -7.86825 16.977C-7.35236 17.3647 -7.04566 17.9797 -6.94815 18.8218C-6.83218 19.6393 -6.97729 20.3183 -7.38347 20.8588C-7.82657 21.4484 -8.36795 21.9641 -9.00758 22.406C-9.60419 22.8418 -10.121 23.376 -10.558 24.0087L-10.6688 24.1561C-8.9003 25.7927 -8.38531 27.1023 -9.12382 28.085ZM-6.42745 51.6774C-7.245 51.7934 -8.03456 51.5652 -8.79612 50.9928C-9.31201 50.6051 -9.60018 49.8888 -9.66061 48.8439C-8.01132 46.7005 -6.74357 45.0392 -5.85735 43.86C-1.75862 38.4063 -0.507666 35.0794 -2.10448 33.8793C-3.75043 32.6423 -6.22583 34.2225 -9.53066 38.6199C-9.71529 38.8655 -9.97071 39.231 -10.2969 39.7162C-10.6477 40.183 -10.9154 40.5392 -11.1001 40.7848C-11.377 41.1533 -11.7402 41.7645 -12.1897 42.6184C-12.6208 43.4477 -12.9748 44.0466 -13.2517 44.4151C-13.4918 44.7345 -13.9006 44.8693 -14.4783 44.8195C-15.0499 44.8128 -15.4954 44.6895 -15.8147 44.4494C-16.4289 43.9879 -16.7724 43.3453 -16.8454 42.5216C-16.8753 41.6918 -16.6595 40.9699 -16.1979 40.3557L0.0304178 19.2228C0.0858055 19.1491 0.147373 19.0416 0.215121 18.9003C0.282869 18.759 0.335205 18.6638 0.372131 18.6147C1.03679 17.7303 1.86045 17.6573 2.8431 18.3958C3.30987 18.7466 3.68416 19.3739 3.96599 20.2777C4.26629 21.1569 4.25027 21.8176 3.91794 22.2598C3.51176 22.8002 2.78889 23.5063 1.74932 24.3781C0.734329 25.2682 0.0237404 25.9836 -0.382441 26.524C-0.899397 27.2119 -1.69642 28.3236 -2.77352 29.859C-1.99304 29.9459 -1.41855 30.1277 -1.05006 30.4047C-0.0919679 31.1247 0.776709 32.1428 1.55597 33.4588C2.54382 35.1623 2.8033 36.9142 2.33442 38.7146C1.97661 40.0602 1.11458 41.642 -0.251659 43.4599L-6.42745 51.6774ZM10.4061 58.3316C9.48295 59.5599 7.92764 59.8903 5.74017 59.3226C4.03197 58.8846 2.46544 58.1301 1.04059 57.0593C-2.74264 54.216 -3.01877 50.6448 0.212216 46.3457C1.54153 44.5769 3.44847 42.9347 5.93301 41.4191C8.98335 39.5598 11.2578 39.1933 12.7563 40.3195C14.1075 41.3349 15.1046 43.0261 15.7476 45.393C16.4152 47.7784 16.2597 49.6221 15.2812 50.9241C14.0626 52.5455 12.3686 53.2906 10.1991 53.1594C8.2755 53.0591 6.42928 52.3444 4.6605 51.015C4.31657 50.7566 3.92076 50.1323 3.47307 49.1424C1.81737 51.55 1.62825 53.2339 2.9057 54.1939C3.98663 55.0063 5.27377 55.4931 6.76713 55.6544C8.28505 55.8341 9.19141 56.0348 9.48621 56.2563C10.5426 57.0502 10.8492 57.742 10.4061 58.3316ZM11.6237 48.3483C12.0852 47.7342 12.3349 47.0184 12.3725 46.201C12.4533 45.3775 12.1988 44.7442 11.6092 44.3011C10.7985 43.6918 9.90438 43.5772 8.92676 43.9573C8.0967 44.2945 7.3678 44.8808 6.74006 45.716C6.38927 46.1828 6.26278 46.6836 6.36059 47.2184C6.4584 47.7532 6.75297 48.2052 7.2443 48.5745C9.03765 49.9223 10.4974 49.8469 11.6237 48.3483ZM28.7628 64.1123C27.1012 66.3233 25.308 67.9165 23.3833 68.8918C20.9051 70.1432 18.6711 70.0211 16.6812 68.5256C16.0425 68.0456 15.2107 67.0552 14.1858 65.5546C14.0811 65.745 13.9734 65.9139 13.8626 66.0613C13.2533 66.872 12.4942 66.9358 11.5852 66.2527C10.9219 65.7542 10.5661 65.1023 10.5177 64.2971C10.4874 63.9283 10.9 63.0468 11.7557 61.6524C12.4453 60.4792 13.0208 59.5855 13.4824 58.9713L13.5932 58.8239L29.7931 38.4193C30.6477 38.1005 31.3083 38.1934 31.7749 38.6978C31.9347 38.741 32.076 38.8088 32.1988 38.9011C32.641 39.2334 32.8433 39.8083 32.8056 40.6257C32.8109 41.437 32.6382 42.076 32.2874 42.5428C31.4935 43.5991 30.3337 44.9378 28.8078 46.5589C27.0297 48.4133 25.8422 49.712 25.2453 50.4551C26.6039 50.1307 27.8483 50.3932 28.9783 51.2425C30.3295 52.2579 31.1763 53.6631 31.5187 55.4582C31.8796 57.2286 31.7027 58.9217 30.9882 60.5374C30.557 61.5204 29.8152 62.712 28.7628 64.1123ZM25.5297 61.2788C28.0406 57.9378 28.5959 55.7411 27.1956 54.6887C26.0164 53.8025 24.4828 53.9761 22.5947 55.2097C21.1679 56.1363 19.9098 57.3244 18.8205 58.7738C16.4942 61.8691 16.2646 64.1184 18.1316 65.5216C19.925 66.8694 22.391 65.4551 25.5297 61.2788ZM39.5115 80.2056C38.5884 81.4339 37.0331 81.7643 34.8456 81.1967C33.1374 80.7586 31.5709 80.0042 30.146 78.9333C26.3628 76.0901 26.0867 72.5189 29.3177 68.2197C30.647 66.451 32.5539 64.8088 35.0385 63.2931C38.0888 61.4338 40.3632 61.0673 41.8618 62.1935C43.2129 63.209 44.21 64.9002 44.853 67.2671C45.5206 69.6524 45.3651 71.4961 44.3866 72.7982C43.1681 74.4195 41.4741 75.1646 39.3046 75.0334C37.381 74.9332 35.5347 74.2184 33.766 72.8891C33.422 72.6306 33.0262 72.0064 32.5785 71.0164C30.9228 73.4241 30.7337 75.1079 32.0112 76.068C33.0921 76.8803 34.3792 77.3672 35.8726 77.5284C37.3905 77.7082 38.2969 77.9088 38.5917 78.1304C39.648 78.9243 39.9546 79.616 39.5115 80.2056ZM40.7291 70.2224C41.1907 69.6082 41.4403 68.8924 41.478 68.075C41.5587 67.2515 41.3043 66.6182 40.7147 66.1751C39.904 65.5658 39.0098 65.4513 38.0322 65.8314C37.2022 66.1686 36.4733 66.7548 35.8455 67.5901C35.4947 68.0568 35.3682 68.5576 35.466 69.0924C35.5639 69.6272 35.8584 70.0793 36.3498 70.4485C38.1431 71.7963 39.6029 71.7209 40.7291 70.2224ZM53.803 90.1967C52.9353 91.3513 51.687 91.9893 50.0581 92.1106C48.2756 92.2317 46.4754 91.6092 44.6575 90.243C43.8529 89.6767 43.1254 88.8801 42.4749 87.853C40.3577 84.532 39.5576 82.5276 40.0746 81.8397C40.887 80.7588 42.067 80.7999 43.6147 81.963C43.8358 82.1292 44.0599 82.3169 44.2871 82.5261C43.8069 83.3185 43.9534 84.3512 44.7266 85.6242C45.3893 86.7373 46.1905 87.5893 47.1303 88.1803C47.8796 88.6666 48.4297 88.6763 48.7805 88.2096C48.8359 88.1359 48.8944 88.0069 48.956 87.8225C49.0422 87.6567 49.113 87.5369 49.1684 87.4632C49.2423 87.3649 48.9232 86.8176 48.2113 85.8212C47.3949 84.708 46.9438 84.0806 46.8579 83.9392C45.3128 80.1639 45.4264 77.0971 47.1989 74.7387C48.2697 73.3138 49.6628 72.3042 51.3782 71.7097C53.2841 71.0662 54.9127 71.2522 56.2638 72.2677C57.271 73.0246 58.118 74.2762 58.8046 76.0224C59.5158 77.7871 59.6773 79.2346 59.289 80.3652C59.0055 81.1516 58.7068 81.7536 58.3929 82.1712C58.0606 82.6134 57.7222 82.9358 57.3778 83.1383C56.9535 83.396 56.5292 83.6537 56.1048 83.9114C55.398 83.88 54.8113 83.6889 54.3445 83.3381C54.0988 83.1535 53.792 82.6922 53.4239 81.9543C53.0989 81.2103 53.0195 80.7277 53.1857 80.5066C53.2595 80.4084 53.6469 80.1998 54.3479 79.8809C54.7599 79.6908 55.049 79.4851 55.2151 79.264C56.3229 77.7901 56.2995 76.6192 55.1449 75.7514C54.457 75.2345 53.5965 75.2797 52.5633 75.8872C51.7761 76.372 51.0871 77.0074 50.4963 77.7935C49.7578 78.7762 49.7933 80.1868 50.6028 82.0253C51.4556 83.5504 52.3115 85.097 53.1704 86.6651C54.0906 88.3562 54.3015 89.5334 53.803 90.1967ZM72.0029 89.0553C71.5044 89.7186 70.1341 89.4192 67.892 88.157C67.4367 88.6605 66.489 89.8704 65.0489 91.7866L63.2211 94.2187C62.8519 94.71 62.3809 95.4901 61.8083 96.559C61.2602 97.6463 60.8107 98.4233 60.46 98.8901C60.1645 99.2832 59.7003 99.4917 59.0672 99.5156C58.4526 99.515 57.9488 99.367 57.5557 99.0716C56.9416 98.61 56.8226 97.6941 57.1989 96.3239C57.4888 95.2732 57.9199 94.3671 58.4923 93.6055L64.3634 85.7934C63.3626 84.7721 62.7947 84.1723 62.6596 83.994C62.1686 83.3174 62.0616 82.7949 62.3385 82.4264C62.4124 82.3281 62.52 82.236 62.6614 82.1501C63.9833 81.7212 65.0373 81.8021 65.8234 82.3929C65.8725 82.4299 65.9462 82.4853 66.0445 82.5591C66.1243 82.6575 66.1888 82.7252 66.2379 82.7621C66.7538 83.1498 67.4518 82.7326 68.3319 81.5104L70.3536 78.8203C70.4093 78.4393 70.511 78.1506 70.6587 77.954C70.8987 77.6347 71.2953 77.4906 71.8484 77.5219C72.4445 77.5471 72.9146 77.6889 73.2585 77.9474C73.7744 78.3351 74.0811 78.95 74.1786 79.7921C74.2946 80.6097 74.1495 81.2887 73.7433 81.8292C73.3002 82.4188 72.7588 82.9345 72.1192 83.3764C71.5226 83.8122 71.0058 84.3464 70.5688 84.979L70.458 85.1264C72.2265 86.763 72.7415 88.0727 72.0029 89.0553ZM87.2506 85.4069C87.0475 85.6771 86.2816 86.3893 84.9529 87.5435C81.6126 90.4535 79.2132 92.8788 77.7547 94.8196L72.3266 102.042C70.8865 103.958 70.1724 105.113 70.1843 105.506C70.1404 106.434 70.063 106.972 69.9523 107.12C69.6938 107.464 69.3248 107.648 68.8454 107.672C68.3721 107.739 67.9635 107.643 67.6195 107.385C67.1036 106.997 66.5604 106.262 65.9899 105.18C66.1751 104.319 66.4524 103.644 66.8216 103.152L78.287 87.8965L78.0297 87.0112L78.916 85.832C79.6668 84.7817 80.8756 83.7104 82.5423 82.618C84.5534 81.3232 85.9642 80.9804 86.7749 81.5897C87.2417 81.9405 87.5146 82.5492 87.5936 83.4159C87.7157 84.2765 87.6014 84.9401 87.2506 85.4069Z" fill="black"/>
    </g>
</svg>
