<svg width="139" height="139" viewBox="0 0 139 139" fill="none" xmlns="http://www.w3.org/2000/svg">
    <path d="M125.424 98.1111C122.404 98.1309 119.622 97.1372 117.377 95.4678C116.463 94.792 115.33 94.4542 114.178 94.4542C111.118 94.4542 108.634 96.9385 108.634 99.9991V138.794H0.462158V30.6175H39.2483C42.3083 30.6175 44.7921 28.1331 44.7921 25.0725C44.7921 23.9396 44.4543 22.8068 43.7787 21.8727C42.1096 19.6269 41.1161 16.8445 41.136 13.8236C41.1757 6.80787 46.7989 0.885284 53.813 0.527544C61.5424 0.130055 67.9207 6.27126 67.9207 13.903C67.9207 16.8643 66.9471 19.607 65.3177 21.8131C64.6223 22.7472 64.2646 23.8999 64.2646 25.0526C64.2646 28.1133 66.7484 30.5976 69.8083 30.5976H108.595V69.3925C108.595 72.4532 111.078 74.9375 114.138 74.9375C115.311 74.9375 116.443 74.5797 117.377 73.8841C119.602 72.2544 122.325 71.2806 125.285 71.2806C132.915 71.2806 139.075 77.6801 138.658 85.3914C138.34 92.4468 132.438 98.0713 125.424 98.1111Z" fill="white"/>
    <mask id="mask0_402_5407" style="mask-type:alpha" maskUnits="userSpaceOnUse" x="0" y="0" width="139" height="139">
        <path d="M125.424 98.1111C122.404 98.1309 119.622 97.1372 117.377 95.4678C116.463 94.792 115.33 94.4542 114.178 94.4542C111.118 94.4542 108.634 96.9385 108.634 99.9991V138.794H0.462158V30.6175H39.2483C42.3083 30.6175 44.7921 28.1331 44.7921 25.0725C44.7921 23.9396 44.4543 22.8068 43.7787 21.8727C42.1096 19.6269 41.1161 16.8445 41.136 13.8236C41.1757 6.80787 46.7989 0.885284 53.813 0.527544C61.5424 0.130055 67.9207 6.27126 67.9207 13.903C67.9207 16.8643 66.9471 19.607 65.3177 21.8131C64.6223 22.7472 64.2646 23.8999 64.2646 25.0526C64.2646 28.1133 66.7484 30.5976 69.8083 30.5976H108.595V69.3925C108.595 72.4532 111.078 74.9375 114.138 74.9375C115.311 74.9375 116.443 74.5797 117.377 73.8841C119.602 72.2544 122.325 71.2806 125.285 71.2806C132.915 71.2806 139.075 77.6801 138.658 85.3914C138.34 92.4468 132.438 98.0713 125.424 98.1111Z" fill="white"/>
    </mask>
    <g mask="url(#mask0_402_5407)">
        <path d="M70.819 -39.4406C70.5421 -39.0721 70.2683 -38.8357 69.9978 -38.7315C69.7703 -38.6334 69.5244 -38.5876 69.2601 -38.594C67.8142 -37.0281 66.5806 -35.668 65.5592 -34.5135C64.5623 -33.3406 63.6762 -32.2382 62.9008 -31.2064C62.3653 -30.494 61.9468 -29.8859 61.6451 -29.3822C61.368 -28.8601 61.1648 -28.4362 61.0354 -28.1106C60.906 -27.785 60.8105 -27.53 60.7489 -27.3457C60.7302 -27.1675 60.7025 -27.0538 60.6655 -27.0046C60.5732 -26.8818 60.4103 -26.7929 60.1767 -26.7378C59.9615 -26.7072 59.7095 -26.7044 59.4207 -26.7293C59.1749 -26.7603 58.9137 -26.822 58.6372 -26.9145C58.4038 -27.013 58.2011 -27.1269 58.0291 -27.2562C57.6115 -27.57 57.2584 -27.8931 56.9698 -28.2252C56.6813 -28.5574 56.5219 -28.9847 56.4917 -29.5072C56.6641 -29.8389 56.895 -30.2228 57.1843 -30.6589C57.492 -31.1196 57.809 -31.5925 58.1353 -32.0777C58.5045 -32.5691 58.883 -33.0727 59.2707 -33.5886C59.6584 -34.1045 60.0185 -34.5835 60.3508 -35.0257C61.2001 -36.1557 62.0924 -37.2919 63.0277 -38.4342C63.9631 -39.5764 64.9107 -40.7095 65.8706 -41.8333C65.9138 -41.993 65.831 -42.1898 65.6223 -42.4235C65.4381 -42.6388 65.0635 -42.9588 64.4985 -43.3835C63.6632 -44.0112 62.877 -44.4483 62.1397 -44.6949C61.4269 -44.923 60.9414 -44.9419 60.6831 -44.7517C60.2586 -44.3403 59.8464 -43.9197 59.4464 -43.4899C59.065 -43.0846 58.6496 -42.6087 58.2004 -42.0621C57.7512 -41.5155 57.2374 -40.883 56.6589 -40.1645C56.1051 -39.4275 55.4404 -38.5431 54.665 -37.5113C54.0003 -36.6269 53.4679 -35.893 53.0679 -35.3095C52.7108 -34.7321 52.4276 -34.253 52.2183 -33.8721C52.0274 -33.5158 51.8796 -33.2425 51.7749 -33.052C51.6948 -32.8431 51.6179 -32.6896 51.544 -32.5913C51.2855 -32.2474 50.9688 -32.0817 50.5939 -32.0944C50.219 -32.1071 49.921 -32.1965 49.6999 -32.3626C48.8401 -33.0088 48.3614 -33.6762 48.2637 -34.3646C48.1722 -35.0101 48.3695 -35.7075 48.8558 -36.4568C49.1266 -36.8683 49.4436 -37.3413 49.8068 -37.8756C50.1945 -38.3915 50.5792 -38.9289 50.9608 -39.4879C51.3854 -40.0529 51.8008 -40.6056 52.207 -41.1461C52.6317 -41.7111 53.0102 -42.2147 53.3425 -42.6569C53.9887 -43.5168 54.6656 -44.3919 55.3733 -45.2824C56.124 -46.179 56.7025 -46.8975 57.1087 -47.438C57.2379 -47.61 57.3149 -47.7635 57.3396 -47.8987C57.4073 -48.04 57.4536 -48.1783 57.4783 -48.3135C57.5276 -48.4302 57.5738 -48.5684 57.617 -48.7282C57.7032 -48.8941 57.8294 -49.0875 57.9956 -49.3086C58.3463 -49.7754 58.7368 -49.9625 59.167 -49.8698C59.2837 -49.8206 59.4035 -49.7498 59.5263 -49.6575C59.6676 -49.5897 59.858 -49.485 60.0976 -49.3434C60.3617 -49.1834 60.7088 -48.9802 61.1387 -48.7339C61.5933 -48.4692 62.1799 -48.1244 62.8986 -47.6996C63.6664 -47.2379 64.554 -46.7054 65.5614 -46.1021C66.5688 -45.4988 67.8094 -44.6432 69.2834 -43.5355C70.438 -42.6677 71.0919 -41.9264 71.2449 -41.3117C71.4225 -40.6784 71.2806 -40.0548 70.819 -39.4406ZM80.2635 -20.1181C77.8818 -16.949 76.1034 -14.7873 74.9283 -13.633C74.2332 -12.9638 73.4311 -12.9707 72.5221 -13.6538C71.1464 -14.6877 71.0492 -15.8372 72.2305 -17.1021C70.5591 -17.4357 69.0601 -18.1009 67.7335 -19.0979C66.4561 -20.058 65.48 -21.2913 64.8054 -22.7977C64.0021 -24.5932 64.0435 -26.0805 64.9297 -27.2597C65.7974 -28.4143 67.3959 -28.9045 69.7252 -28.7301C71.8331 -28.5682 73.5136 -28.0164 74.7664 -27.0748L77.8987 -24.7208L78.5633 -25.6052C80.5265 -28.1662 80.7342 -30.0283 79.1865 -31.1915C77.2458 -32.65 75.5923 -32.4704 74.226 -30.6524C73.7645 -30.0383 73.1898 -29.9897 72.5019 -30.5066C72.0843 -30.8205 71.7805 -31.3371 71.5907 -32.0564C71.4439 -32.7818 71.5275 -33.3533 71.8413 -33.7709C72.8753 -35.1466 74.2159 -35.9074 75.8632 -36.0533C77.5105 -36.1992 79.022 -35.7552 80.3977 -34.7213C85.0162 -31.2503 84.9715 -26.3825 80.2635 -20.1181ZM75.5447 -21.5886C75.9139 -22.0799 75.7301 -22.6026 74.9931 -23.1564C71.9223 -25.4643 69.8422 -25.8935 68.7529 -24.4441C68.1621 -23.6579 68.5423 -22.7572 69.8934 -21.7417C70.7287 -21.114 71.6902 -20.7565 72.778 -20.6694C74.0501 -20.5207 74.9723 -20.8271 75.5447 -21.5886ZM97.2228 -11.2935C95.3396 -8.78774 93.3003 -6.99507 91.1051 -5.91552C88.301 -4.48623 85.7812 -4.61164 83.5457 -6.29175C82.3419 -7.19643 81.5686 -8.31579 81.2258 -9.64985C81.0227 -9.37962 80.7457 -9.01112 80.3949 -8.54436C79.9888 -8.0039 79.7118 -7.6354 79.5641 -7.43887C77.7917 -5.08049 76.668 -3.02264 76.193 -1.26531C76.0325 -0.540218 75.8968 -0.103974 75.7861 0.0434241C75.1583 0.878683 74.3531 0.927057 73.3705 0.188547C72.6335 -0.365336 72.1823 -0.915863 72.0169 -1.46304C71.8759 -1.83809 72.0672 -2.65534 72.5909 -3.91479C73.0714 -5.01448 73.4962 -5.80998 73.8655 -6.30131L80.5398 -15.1821C81.149 -15.9928 82.029 -17.0613 83.1796 -18.3878C84.4595 -19.8862 85.3425 -20.9332 85.8287 -21.5289C86.3148 -22.1246 86.9241 -22.9353 87.6565 -23.961C88.592 -25.2569 89.1982 -26.0891 89.4751 -26.4576C91.0445 -28.5458 92.517 -29.0729 93.8927 -28.039C94.2367 -27.7805 94.4637 -27.4176 94.5739 -26.9504C94.7025 -26.5078 94.6468 -26.1268 94.4068 -25.8074C94.0006 -25.2669 93.2007 -24.3304 92.007 -22.9979C93.9806 -23.629 95.6429 -23.4368 96.9941 -22.4214C98.812 -21.0551 99.6584 -19.2658 99.5333 -17.0533C99.433 -15.1296 98.6629 -13.2097 97.2228 -11.2935ZM94.1924 -14.0899C96.1864 -16.7431 96.6183 -18.4943 95.4883 -19.3436C94.997 -19.7129 93.9982 -19.7139 92.492 -19.3466C89.5842 -18.6488 86.8381 -16.7339 84.2536 -13.6019C84.413 -13.2514 84.5044 -12.3755 84.5276 -10.9742C84.5695 -9.90469 84.8607 -9.16686 85.4012 -8.76068C87.4402 -7.22827 90.3706 -9.00469 94.1924 -14.0899ZM111.528 1.82203C109.867 4.033 107.892 5.50921 105.605 6.25063C102.98 7.08392 100.611 6.70666 98.4984 5.11887C96.3366 3.49414 95.2568 1.52938 95.2591 -0.77543C95.2304 -2.83442 96.0561 -4.98169 97.7362 -7.21724C99.3978 -9.42821 101.52 -11.1009 104.102 -12.2354C107.134 -13.6092 109.669 -13.5299 111.708 -11.9974C112.347 -11.5174 112.933 -10.6349 113.466 -9.34978C114.981 -5.63601 114.335 -1.91207 111.528 1.82203ZM108.341 -0.688757C111.166 -4.44742 111.669 -7.00987 109.851 -8.37612C108.549 -9.35464 106.967 -9.29474 105.103 -8.19642C103.707 -7.36192 102.437 -6.18311 101.292 -4.65999C98.8367 -1.39266 98.5793 0.970286 100.52 2.42884C101.773 3.37044 103.214 3.39645 104.844 2.50687C106.086 1.82587 107.252 0.760662 108.341 -0.688757ZM122.311 -0.107687C122.57 -0.451617 122.856 -0.678743 123.169 -0.789064C123.483 -0.899385 123.941 -0.843617 124.543 -0.62176C124.979 -0.486114 125.409 -0.393498 125.833 -0.34391C126.257 -0.294321 126.703 -0.0941305 127.169 0.256662C127.341 0.385901 127.47 0.521244 127.556 0.662691C127.581 0.681154 127.716 0.782699 127.961 0.967326C128.226 1.12739 128.539 1.32437 128.901 1.55829C129.282 1.76763 129.666 1.99849 130.053 2.25087C130.483 2.49714 130.876 2.71571 131.232 2.9066C131.447 3.02973 131.699 3.18056 131.988 3.35909C132.32 3.53151 132.618 3.69775 132.882 3.85781C133.189 4.01177 133.45 4.15031 133.665 4.27345C133.88 4.39658 134.024 4.48585 134.098 4.54123C134.245 4.65201 134.383 4.8519 134.512 5.14089C134.641 5.42989 134.727 5.72499 134.769 6.0262C134.837 6.34586 134.858 6.65012 134.833 6.93896C134.833 7.24627 134.768 7.48591 134.639 7.65787C134.546 7.7807 134.439 7.87279 134.316 7.93413C134.211 7.97091 134.076 8.02301 133.91 8.09046C133.787 8.1518 133.633 8.22847 133.449 8.32048C133.289 8.43096 133.092 8.59056 132.858 8.7993C131.634 10.0703 130.45 11.3906 129.305 12.7601C128.179 14.105 127.164 15.3793 126.259 16.583C125.539 17.5411 125.009 18.4502 124.671 19.3104C124.35 20.1459 124.168 20.8741 124.124 21.4948C123.516 21.6909 123.03 21.7488 122.668 21.6685C122.287 21.6128 121.936 21.465 121.617 21.225C121.175 20.8926 120.849 20.5328 120.641 20.1453C120.414 19.7825 120.328 19.3337 120.384 18.7991C120.464 18.2829 120.686 17.6808 121.05 16.9928C121.431 16.2802 121.992 15.4326 122.73 14.4499C123.413 13.541 124.065 12.7242 124.687 11.9995C125.308 11.2749 125.914 10.5963 126.505 9.96387C127.096 9.3314 127.646 8.72655 128.157 8.14931C128.692 7.59054 129.203 7.0133 129.689 6.41761C129.763 6.31934 129.714 6.20559 129.542 6.07635C129.389 5.92254 129.005 5.61486 128.391 5.15329C127.948 4.82096 127.5 4.52243 127.046 4.25769C126.616 4.01142 126.382 3.91285 126.345 3.96198C125.508 5.1781 124.751 6.26215 124.074 7.21413C123.44 8.16002 122.846 9.00146 122.292 9.73845C121.461 10.8439 120.704 11.7743 120.021 12.5296C119.339 13.2849 118.606 14.0033 117.825 14.6848C117.222 15.2312 116.613 15.5809 115.999 15.734C115.409 15.9055 114.834 15.9541 114.275 15.8798C113.697 15.83 113.147 15.6666 112.625 15.3895C112.109 15.1555 111.642 14.8815 111.224 14.5676C110.831 14.2722 110.444 13.8662 110.064 13.3495C109.689 12.8759 109.404 12.3348 109.208 11.7261C108.994 11.142 108.905 10.5181 108.943 9.85433C109.005 9.20905 109.267 8.57932 109.728 7.96516C110.097 7.47383 110.519 7.1946 110.992 7.12746C111.484 7.03575 111.951 7.15606 112.393 7.48839C112.811 7.80226 112.998 8.19273 112.954 8.65979C112.929 9.10229 112.83 9.56623 112.658 10.0516C112.528 10.5309 112.405 10.9764 112.288 11.388C112.214 11.7936 112.324 12.1072 112.619 12.3287C113.061 12.6611 113.952 12.2932 115.293 11.2251C116.634 10.1569 118.274 8.33315 120.213 5.75368C120.582 5.26235 120.942 4.78331 121.293 4.31654C121.662 3.82522 122.019 3.32466 122.364 2.81486L122.216 2.70409C121.872 2.44561 121.713 2.01829 121.738 1.42214C121.806 0.819885 121.997 0.309942 122.311 -0.107687ZM141.533 14.223C141.176 14.4931 140.623 14.9996 139.872 15.7426C139.146 16.504 138.328 17.465 137.417 18.6258C137.804 18.8781 138.181 19.1428 138.55 19.4197C138.961 19.6906 139.364 19.9737 139.757 20.2691C140.74 21.0076 141.495 21.7674 142.023 22.5485C142.593 23.3235 143.127 24.3012 143.624 25.4818C143.863 26.0843 144.047 26.607 144.175 27.0496C144.322 27.4677 144.387 27.8427 144.368 28.1745C144.374 28.5249 144.312 28.8629 144.183 29.1885C144.053 29.5141 143.841 29.8734 143.545 30.2665C142.973 31.0281 142.232 31.5282 141.322 31.767C140.431 31.9813 139.481 32.0172 138.473 31.8749C137.508 31.7264 136.522 31.4273 135.515 30.9777C134.507 30.528 133.623 30.017 132.861 29.4447C132.566 29.2231 132.262 28.937 131.949 28.5864C131.618 28.2603 131.28 27.8912 130.936 27.4791C130.684 27.5587 130.355 27.5615 129.95 27.4873C129.55 27.4562 129.093 27.2467 128.577 26.859C128.036 26.4529 127.748 26.1207 127.711 25.8625C127.674 25.6043 127.832 25.165 128.182 24.5446C128.269 24.3788 128.287 24.2005 128.238 24.01C128.214 23.8378 128.168 23.6688 128.101 23.5028C128.052 23.3122 128.015 23.1308 127.99 22.9587C127.984 22.762 128.065 22.5531 128.231 22.332C128.397 22.1109 128.563 21.9667 128.729 21.8992C128.938 21.8257 129.129 21.7767 129.301 21.7523C129.473 21.7279 129.633 21.6942 129.78 21.6513C129.971 21.6024 130.14 21.4796 130.288 21.2831L132.171 18.7773C132.337 18.5562 132.368 18.3104 132.264 18.0399C132.203 17.7632 132.274 17.4898 132.477 17.2196C132.661 16.9739 132.923 16.8051 133.261 16.7133C133.599 16.6214 133.87 16.4404 134.073 16.1701C135.273 14.5733 136.245 13.3819 136.989 12.5959C137.777 11.8039 138.447 11.193 139.001 10.7633C139.438 10.438 139.908 10.1957 140.412 10.0364C140.941 9.89554 141.488 10.0374 142.053 10.4621C142.249 10.6098 142.455 10.822 142.67 11.0988C142.903 11.351 143.097 11.6309 143.25 11.9383C143.403 12.2458 143.492 12.5624 143.516 12.8882C143.559 13.1894 143.488 13.4628 143.304 13.7085C143.211 13.8313 143.008 13.8711 142.695 13.8277C142.4 13.7598 142.013 13.8916 141.533 14.223ZM140.561 27.7928C141.041 27.1541 141.035 26.4196 140.544 25.5894C140.072 24.7346 139.209 23.8364 137.957 22.8948C137.686 22.6917 137.395 22.4917 137.081 22.2947C136.786 22.0731 136.498 21.8946 136.215 21.7591C135.951 21.5991 135.705 21.4913 135.478 21.4357C135.251 21.3802 135.082 21.4261 134.971 21.5735L132.755 24.5215C132.663 24.6443 132.654 24.8102 132.727 25.0193C132.844 25.2222 132.985 25.4436 133.151 25.6835C133.359 25.9172 133.58 26.1602 133.814 26.4125C134.09 26.6586 134.351 26.874 134.597 27.0586C135.063 27.4094 135.579 27.7203 136.145 27.9913C136.753 28.2561 137.327 28.438 137.868 28.5369C138.427 28.6112 138.94 28.5933 139.408 28.4831C139.899 28.3914 140.284 28.1613 140.561 27.7928ZM148.509 38.4944C148.139 38.9857 147.577 39.274 146.821 39.3593C146.089 39.4631 145.478 39.3303 144.986 38.9611C144.397 38.518 143.955 37.8015 143.661 36.8117C143.367 35.8219 143.432 35.0444 143.857 34.4794C144.208 34.0127 144.761 33.7366 145.517 33.6513C146.292 33.5415 146.912 33.6619 147.379 34.0127C148.067 34.5297 148.552 35.24 148.834 36.1438C149.134 37.023 149.026 37.8065 148.509 38.4944ZM157.629 26.8964C157.149 27.5351 156.466 27.8294 155.581 27.7794C154.715 27.7048 153.937 27.409 153.25 26.892C151.8 25.8027 151.602 24.5579 152.654 23.1577C153.596 21.9048 154.779 21.8137 156.204 22.8846C156.867 23.3831 157.37 23.992 157.714 24.7115C158.119 25.5539 158.09 26.2822 157.629 26.8964ZM34.5322 8.22857C33.388 9.29073 32.2652 10.3498 31.164 11.4059C29.8475 12.6461 28.8108 13.7698 28.0538 14.7771L20.521 24.8002C19.1548 26.6181 17.5835 27.6091 15.807 27.7733C14.0552 27.956 12.2703 27.3642 10.4524 25.9979C9.27323 25.1117 8.202 23.8261 7.23871 22.1411C6.07905 20.1548 5.8777 18.658 6.63468 17.6507C6.89316 17.3068 7.24982 17.1136 7.70468 17.071C8.16564 17.0714 8.56809 17.2009 8.91202 17.4594C9.13312 17.6256 9.41205 18.3542 9.74881 19.6452C10.0856 20.9362 10.7944 21.9879 11.8753 22.8003C13.2511 23.8342 14.5508 24.0229 15.7745 23.3665C16.6354 22.9371 17.6382 21.9609 18.7829 20.4377C19.2075 19.8727 19.546 19.3967 19.7984 19.0098C18.5815 18.9409 17.4695 18.5281 16.4623 17.7711C14.6198 16.3864 13.6934 14.6522 13.6832 12.5687C13.6789 10.6818 14.3784 8.80485 15.7815 6.9378C15.9292 6.74127 18.3784 3.73821 23.1289 -2.07137C24.106 -1.83685 24.8156 -1.55342 25.2578 -1.22109C25.7491 -0.851838 26.2522 -0.0123889 26.7672 1.29725C25.0699 2.32813 22.5595 5.05455 19.2362 9.4765C17.113 12.3016 16.7638 14.2496 18.1887 15.3205C19.245 16.1144 20.7204 15.8392 22.6147 14.4951C23.9924 13.5315 25.1982 12.3619 26.2322 10.9862L29.6108 6.4905C29.5924 6.51506 29.8602 6.08202 30.4142 5.19138C31.7907 5.45702 32.7246 5.77447 33.2159 6.14373C33.7318 6.53144 34.1706 7.22639 34.5322 8.22857ZM44.4756 26.4844C42.8139 28.6954 40.8395 30.1716 38.5524 30.913C35.9272 31.7463 33.5582 31.3691 31.4455 29.7813C29.2837 28.1566 28.2039 26.1918 28.2062 23.887C28.1775 21.828 29.0032 19.6807 30.6833 17.4452C32.3449 15.2342 34.467 13.5615 37.0495 12.427C40.0809 11.0532 42.6161 11.1326 44.6552 12.665C45.2939 13.145 45.88 14.0275 46.4134 15.3126C47.9279 19.0264 47.2819 22.7503 44.4756 26.4844ZM41.2882 23.9737C44.113 20.215 44.6164 17.6525 42.7985 16.2863C41.4965 15.3078 39.9138 15.3677 38.0504 16.466C36.6544 17.3005 35.3841 18.4793 34.2394 20.0024C31.7838 23.2697 31.5264 25.6327 33.4672 27.0913C34.7201 28.0329 36.1613 28.0589 37.7909 27.1693C39.0331 26.4883 40.1989 25.4231 41.2882 23.9737ZM63.4599 31.5259C62.8876 32.2875 61.9216 33.3683 60.5619 34.7683C59.2452 36.1621 58.2915 37.2521 57.7007 38.0383C57.1837 38.7261 56.4329 39.7764 55.4481 41.189C54.5063 42.5956 53.7862 43.6305 53.2877 44.2938C52.8631 44.8588 52.1717 44.7813 51.2136 44.0612C50.2309 43.3227 49.9645 42.3729 50.4143 41.2117C49.0193 41.1243 47.8795 40.7482 46.9951 40.0836C46.2827 39.5482 45.6105 38.7546 44.9785 37.703C44.3649 36.6268 44.077 35.68 44.1147 34.8626C44.1777 33.2954 45.0677 31.3695 46.7847 29.0848C47.3755 28.2987 48.434 26.9414 49.9602 25.013C51.3447 23.3242 52.394 21.9792 53.1079 20.9781C54.2511 20.9915 55.0683 21.1829 55.5597 21.5521C56.7389 22.4383 56.8946 23.4588 56.0268 24.6134C55.7314 25.0064 55.2269 25.5499 54.5133 26.2437C53.8242 26.956 53.3319 27.5086 53.0365 27.9017L49.1317 33.0975C48.6886 33.6871 48.3867 34.4213 48.226 35.3C48.0652 36.3324 48.255 37.0517 48.7955 37.4579C49.8518 38.2518 51.1457 38.167 52.677 37.2036C53.7225 36.5285 54.7438 35.5277 55.7408 34.2011L59.0641 29.7792C59.4887 29.2141 59.8675 28.4032 60.2004 27.3464C61.2392 27.2429 62.0412 27.4035 62.6062 27.8282C63.1958 28.2713 63.5855 28.8525 63.7753 29.5718C63.9897 30.3095 63.8846 30.9609 63.4599 31.5259ZM75.5332 41.3492C75.404 41.5211 75.1763 41.7729 74.8502 42.1045C73.7804 42.4537 72.963 42.4161 72.398 41.9914C71.9313 41.6406 71.7167 41.0565 71.7544 40.2391C72.5361 39.0967 72.5584 38.2486 71.8215 37.6947C71.3793 37.3623 69.9618 38.1231 67.5691 39.9768C66.4989 40.7871 65.2714 42.1134 63.8867 43.9559C62.5759 45.7001 61.8679 46.8211 61.763 47.3189C61.6087 47.9333 61.467 48.3265 61.3377 48.4985C61.0239 48.9161 60.5688 49.1124 59.9727 49.0872C59.4196 49.0559 58.9096 48.8649 58.4429 48.5141C57.1163 47.5171 56.9145 46.4044 57.8377 45.1761C57.93 45.0533 58.0838 44.8998 58.2991 44.7156C58.539 44.5499 58.6958 44.4179 58.7697 44.3196C59.7113 43.0668 61.0438 41.1658 62.7672 38.6169C64.5091 36.0434 65.8417 34.1424 66.7648 32.9141C67.5956 31.8086 68.6743 31.7544 70.0009 32.7514C70.787 33.3422 71.1521 33.9817 71.0961 34.67C72.3563 34.4254 73.4163 34.6262 74.2762 35.2724C74.8658 35.7155 75.3108 36.2999 75.6112 37.0254C75.832 37.4989 75.9388 38.2519 75.9317 39.2844C75.943 40.2924 75.8101 40.9807 75.5332 41.3492ZM81.4986 60.5942C80.5755 61.8225 79.0202 62.1529 76.8327 61.5852C75.1245 61.1472 73.558 60.3927 72.1331 59.3219C68.3499 56.4786 68.0738 52.9074 71.3048 48.6083C72.6341 46.8395 74.541 45.1973 77.0256 43.6817C80.0759 41.8224 82.3503 41.4559 83.8489 42.5821C85.2 43.5975 86.1971 45.2887 86.8401 47.6556C87.5077 50.041 87.3522 51.8847 86.3737 53.1867C85.1552 54.8081 83.4612 55.5532 81.2917 55.422C79.368 55.3217 77.5218 54.607 75.7531 53.2776C75.4091 53.0192 75.0133 52.3949 74.5656 51.405C72.9099 53.8126 72.7208 55.4965 73.9983 56.4565C75.0792 57.2689 76.3663 57.7557 77.8597 57.917C79.3776 58.0967 80.284 58.2974 80.5788 58.5189C81.6351 59.3128 81.9417 60.0046 81.4986 60.5942ZM82.7162 50.6109C83.1778 49.9968 83.4274 49.281 83.4651 48.4636C83.5458 47.6401 83.2914 47.0068 82.7018 46.5637C81.8911 45.9544 80.9969 45.8398 80.0193 46.2199C79.1892 46.5571 78.4603 47.1434 77.8326 47.9786C77.4818 48.4454 77.3553 48.9462 77.4531 49.481C77.551 50.0158 77.8455 50.4678 78.3368 50.8371C80.1302 52.1849 81.59 52.1095 82.7162 50.6109ZM98.8759 58.085C98.3774 58.7483 97.0071 58.4488 94.765 57.1867C94.3097 57.6902 93.362 58.9 91.9219 60.8162L90.0941 63.2483C89.7249 63.7396 89.2539 64.5197 88.6813 65.5886C88.1332 66.6759 87.6837 67.453 87.3329 67.9197C87.0375 68.3128 86.5733 68.5213 85.9402 68.5453C85.3256 68.5447 84.8218 68.3967 84.4287 68.1012C83.8145 67.6397 83.6956 66.7238 84.0719 65.3536C84.3618 64.3029 84.7929 63.3967 85.3652 62.6352L91.2364 54.823C90.2356 53.8018 89.6677 53.202 89.5326 53.0236C89.0416 52.347 88.9346 51.8245 89.2115 51.456C89.2853 51.3577 89.393 51.2657 89.5344 51.1798C90.8563 50.7508 91.9103 50.8318 92.6964 51.4226C92.7455 51.4595 92.8192 51.5149 92.9175 51.5887C92.9973 51.6872 93.0618 51.7548 93.1109 51.7918C93.6268 52.1795 94.3248 51.7622 95.2049 50.54L97.2266 47.85C97.2823 47.469 97.384 47.1802 97.5317 46.9837C97.7717 46.6643 98.1683 46.5203 98.7214 46.5516C99.3175 46.5767 99.7876 46.7185 100.132 46.977C100.647 47.3647 100.954 47.9797 101.052 48.8218C101.168 49.6393 101.022 50.3183 100.616 50.8588C100.173 51.4484 99.6318 51.9641 98.9922 52.406C98.3956 52.8418 97.8788 53.376 97.4418 54.0087L97.331 54.1561C99.0995 55.7927 99.6144 57.1023 98.8759 58.085ZM101.572 81.6774C100.755 81.7934 99.9652 81.5652 99.2036 80.9928C98.6877 80.6051 98.3996 79.8888 98.3392 78.8439C99.9884 76.7005 101.256 75.0392 102.142 73.86C106.241 68.4063 107.492 65.0794 105.895 63.8793C104.249 62.6423 101.774 64.2225 98.4691 68.6199C98.2845 68.8655 98.029 69.231 97.7028 69.7162C97.352 70.183 97.0843 70.5392 96.8997 70.7848C96.6227 71.1533 96.2595 71.7645 95.81 72.6184C95.379 73.4477 95.025 74.0466 94.748 74.4151C94.508 74.7345 94.0991 74.8693 93.5215 74.8195C92.9499 74.8128 92.5044 74.6895 92.185 74.4494C91.5709 73.9879 91.2273 73.3453 91.1544 72.5216C91.1245 71.6918 91.3403 70.9699 91.8019 70.3557L108.03 49.2228C108.086 49.1491 108.147 49.0416 108.215 48.9003C108.283 48.759 108.335 48.6638 108.372 48.6147C109.037 47.7303 109.86 47.6573 110.843 48.3958C111.31 48.7466 111.684 49.3739 111.966 50.2777C112.266 51.1569 112.25 51.8176 111.918 52.2598C111.512 52.8002 110.789 53.5063 109.749 54.3781C108.734 55.2682 108.023 55.9836 107.617 56.524C107.1 57.2119 106.303 58.3236 105.226 59.859C106.007 59.9459 106.581 60.1277 106.95 60.4047C107.908 61.1247 108.776 62.1428 109.556 63.4588C110.544 65.1623 110.803 66.9142 110.334 68.7146C109.976 70.0602 109.114 71.642 107.748 73.4599L101.572 81.6774ZM118.406 88.3316C117.483 89.5599 115.927 89.8903 113.74 89.3226C112.032 88.8846 110.465 88.1301 109.04 87.0593C105.257 84.216 104.981 80.6448 108.212 76.3457C109.541 74.5769 111.448 72.9347 113.933 71.4191C116.983 69.5598 119.258 69.1933 120.756 70.3195C122.107 71.3349 123.104 73.0261 123.747 75.393C124.415 77.7784 124.259 79.6221 123.281 80.9241C122.062 82.5455 120.368 83.2906 118.199 83.1594C116.275 83.0591 114.429 82.3444 112.66 81.015C112.316 80.7566 111.921 80.1323 111.473 79.1424C109.817 81.55 109.628 83.2339 110.905 84.1939C111.986 85.0063 113.274 85.4931 114.767 85.6544C116.285 85.8341 117.191 86.0348 117.486 86.2563C118.542 87.0502 118.849 87.742 118.406 88.3316ZM119.623 78.3483C120.085 77.7342 120.335 77.0184 120.372 76.201C120.453 75.3775 120.199 74.7442 119.609 74.3011C118.798 73.6918 117.904 73.5772 116.927 73.9573C116.096 74.2945 115.368 74.8808 114.74 75.716C114.389 76.1828 114.263 76.6836 114.36 77.2184C114.458 77.7532 114.753 78.2052 115.244 78.5745C117.037 79.9223 118.497 79.8469 119.623 78.3483ZM136.763 94.1123C135.101 96.3233 133.308 97.9165 131.383 98.8918C128.905 100.143 126.671 100.021 124.681 98.5256C124.042 98.0456 123.21 97.0552 122.186 95.5546C122.081 95.745 121.973 95.9139 121.862 96.0613C121.253 96.872 120.494 96.9358 119.585 96.2527C118.922 95.7542 118.566 95.1023 118.517 94.2971C118.487 93.9283 118.9 93.0468 119.755 91.6524C120.445 90.4792 121.021 89.5855 121.482 88.9713L121.593 88.8239L137.793 68.4193C138.647 68.1005 139.308 68.1934 139.775 68.6978C139.934 68.741 140.076 68.8088 140.199 68.9011C140.641 69.2334 140.843 69.8083 140.805 70.6257C140.811 71.437 140.638 72.076 140.287 72.5428C139.493 73.5991 138.333 74.9378 136.808 76.5589C135.029 78.4133 133.842 79.712 133.245 80.4551C134.604 80.1307 135.848 80.3932 136.978 81.2425C138.329 82.2579 139.176 83.6631 139.518 85.4582C139.879 87.2286 139.702 88.9217 138.988 90.5374C138.557 91.5204 137.815 92.712 136.763 94.1123ZM133.529 91.2788C136.04 87.9378 136.596 85.7411 135.195 84.6887C134.016 83.8025 132.483 83.9761 130.594 85.2097C129.168 86.1363 127.91 87.3244 126.82 88.7738C124.494 91.8691 124.264 94.1184 126.131 95.5216C127.925 96.8694 130.391 95.4551 133.529 91.2788ZM147.511 110.206C146.588 111.434 145.033 111.764 142.845 111.197C141.137 110.759 139.571 110.004 138.146 108.933C134.363 106.09 134.086 102.519 137.317 98.2197C138.647 96.451 140.554 94.8088 143.038 93.2931C146.089 91.4338 148.363 91.0673 149.862 92.1935C151.213 93.209 152.21 94.9002 152.853 97.2671C153.52 99.6524 153.365 101.496 152.386 102.798C151.168 104.42 149.474 105.165 147.304 105.033C145.381 104.933 143.534 104.218 141.766 102.889C141.422 102.631 141.026 102.006 140.578 101.016C138.923 103.424 138.733 105.108 140.011 106.068C141.092 106.88 142.379 107.367 143.872 107.528C145.39 107.708 146.297 107.909 146.591 108.13C147.648 108.924 147.954 109.616 147.511 110.206ZM148.729 100.222C149.19 99.6082 149.44 98.8924 149.478 98.075C149.558 97.2515 149.304 96.6182 148.714 96.1751C147.904 95.5658 147.01 95.4513 146.032 95.8314C145.202 96.1686 144.473 96.7548 143.845 97.5901C143.494 98.0568 143.368 98.5576 143.466 99.0924C143.564 99.6272 143.858 100.079 144.35 100.449C146.143 101.796 147.603 101.721 148.729 100.222ZM161.803 120.197C160.935 121.351 159.687 121.989 158.058 122.111C156.275 122.232 154.475 121.609 152.657 120.243C151.853 119.677 151.125 118.88 150.475 117.853C148.357 114.532 147.557 112.528 148.074 111.84C148.887 110.759 150.067 110.8 151.614 111.963C151.836 112.129 152.06 112.317 152.287 112.526C151.807 113.318 151.953 114.351 152.726 115.624C153.389 116.737 154.19 117.589 155.13 118.18C155.879 118.667 156.429 118.676 156.78 118.21C156.836 118.136 156.894 118.007 156.956 117.823C157.042 117.657 157.113 117.537 157.168 117.463C157.242 117.365 156.923 116.818 156.211 115.821C155.395 114.708 154.944 114.081 154.858 113.939C153.313 110.164 153.426 107.097 155.199 104.739C156.269 103.314 157.663 102.304 159.378 101.71C161.284 101.066 162.912 101.252 164.264 102.268C165.271 103.025 166.118 104.276 166.804 106.022C167.516 107.787 167.677 109.235 167.289 110.365C167.005 111.152 166.707 111.754 166.393 112.171C166.06 112.613 165.722 112.936 165.378 113.138C164.953 113.396 164.529 113.654 164.105 113.911C163.398 113.88 162.811 113.689 162.344 113.338C162.099 113.153 161.792 112.692 161.424 111.954C161.099 111.21 161.019 110.728 161.185 110.507C161.259 110.408 161.647 110.2 162.348 109.881C162.76 109.691 163.049 109.485 163.215 109.264C164.323 107.79 164.299 106.619 163.145 105.751C162.457 105.234 161.596 105.28 160.563 105.887C159.776 106.372 159.087 107.007 158.496 107.794C157.758 108.776 157.793 110.187 158.603 112.025C159.455 113.55 160.311 115.097 161.17 116.665C162.09 118.356 162.301 119.533 161.803 120.197ZM180.003 119.055C179.504 119.719 178.134 119.419 175.892 118.157C175.436 118.661 174.489 119.87 173.049 121.787L171.221 124.219C170.852 124.71 170.381 125.49 169.808 126.559C169.26 127.646 168.811 128.423 168.46 128.89C168.164 129.283 167.7 129.492 167.067 129.516C166.452 129.515 165.949 129.367 165.555 129.072C164.941 128.61 164.822 127.694 165.199 126.324C165.489 125.273 165.92 124.367 166.492 123.606L172.363 115.793C171.362 114.772 170.794 114.172 170.659 113.994C170.168 113.317 170.061 112.795 170.338 112.426C170.412 112.328 170.52 112.236 170.661 112.15C171.983 111.721 173.037 111.802 173.823 112.393C173.872 112.43 173.946 112.485 174.044 112.559C174.124 112.658 174.189 112.725 174.238 112.762C174.754 113.15 175.452 112.733 176.332 111.51L178.353 108.82C178.409 108.439 178.511 108.151 178.658 107.954C178.898 107.635 179.295 107.491 179.848 107.522C180.444 107.547 180.914 107.689 181.258 107.947C181.774 108.335 182.081 108.95 182.178 109.792C182.294 110.61 182.149 111.289 181.743 111.829C181.3 112.419 180.759 112.935 180.119 113.376C179.522 113.812 179.006 114.346 178.569 114.979L178.458 115.126C180.226 116.763 180.741 118.073 180.003 119.055ZM195.25 115.407C195.047 115.677 194.281 116.389 192.953 117.543C189.612 120.453 187.213 122.879 185.754 124.82L180.326 132.042C178.886 133.958 178.172 135.113 178.184 135.506C178.14 136.434 178.063 136.972 177.952 137.12C177.694 137.464 177.325 137.648 176.845 137.672C176.372 137.739 175.963 137.643 175.619 137.385C175.103 136.997 174.56 136.262 173.99 135.18C174.175 134.319 174.452 133.644 174.821 133.152L186.287 117.896L186.029 117.011L186.916 115.832C187.667 114.782 188.875 113.71 190.542 112.618C192.553 111.323 193.964 110.98 194.775 111.59C195.241 111.94 195.514 112.549 195.593 113.416C195.715 114.276 195.601 114.94 195.25 115.407Z" fill="black"/>
    </g>
</svg>
