<svg width="109" height="139" viewBox="0 0 109 139" fill="none" xmlns="http://www.w3.org/2000/svg">
    <path d="M55.3639 138.704C62.3749 138.346 67.9956 132.425 68.0353 125.41C68.0552 122.389 67.0621 119.607 65.3938 117.362C64.7185 116.448 64.3809 115.315 64.3809 114.163C64.3809 111.102 66.8635 108.618 69.9222 108.618H108.711V0.4375H0.58667V39.2268C0.58667 42.2871 3.06933 44.771 6.12795 44.771C7.26004 44.771 8.39213 44.4531 9.3256 43.7576C11.5699 42.0883 14.3505 41.0948 17.3694 41.1146C24.3804 41.1544 30.299 46.778 30.6565 53.7927C31.0538 61.5228 24.9167 67.9015 17.29 67.9015C14.3306 67.9015 11.5898 66.9278 9.3852 65.2984C8.45172 64.6029 7.29976 64.2452 6.14781 64.2452C3.08918 64.2452 0.606538 66.7291 0.606538 69.7893V108.579H39.3955C42.4541 108.579 44.9368 111.063 44.9368 114.123C44.9368 115.295 44.5793 116.428 43.8841 117.362C42.2555 119.588 41.2823 122.31 41.2823 125.271C41.2624 132.961 47.6379 139.101 55.3639 138.704Z" fill="white"/>
    <mask id="mask0_402_5412" style="mask-type:alpha" maskUnits="userSpaceOnUse" x="0" y="0" width="109" height="139">
        <path d="M55.3639 138.704C62.3749 138.346 67.9956 132.425 68.0353 125.41C68.0552 122.389 67.0621 119.607 65.3938 117.362C64.7185 116.448 64.3809 115.315 64.3809 114.163C64.3809 111.102 66.8635 108.618 69.9222 108.618H108.711V0.4375H0.58667V39.2268C0.58667 42.2871 3.06933 44.771 6.12795 44.771C7.26004 44.771 8.39213 44.4531 9.3256 43.7576C11.5699 42.0883 14.3505 41.0948 17.3694 41.1146C24.3804 41.1544 30.299 46.778 30.6565 53.7927C31.0538 61.5228 24.9167 67.9015 17.29 67.9015C14.3306 67.9015 11.5898 66.9278 9.3852 65.2984C8.45172 64.6029 7.29976 64.2452 6.14781 64.2452C3.08918 64.2452 0.606538 66.7291 0.606538 69.7893V108.579H39.3955C42.4541 108.579 44.9368 111.063 44.9368 114.123C44.9368 115.295 44.5793 116.428 43.8841 117.362C42.2555 119.588 41.2823 122.31 41.2823 125.271C41.2624 132.961 47.6379 139.101 55.3639 138.704Z" fill="white"/>
    </mask>
    <g mask="url(#mask0_402_5412)">
        <path d="M-37.1808 38.5599C-37.4577 38.9284 -37.7314 39.1647 -38.002 39.269C-38.2295 39.3671 -38.4754 39.4129 -38.7396 39.4065C-40.1855 40.9724 -41.4192 42.3325 -42.4406 43.487C-43.4374 44.6599 -44.3236 45.7623 -45.099 46.7941C-45.6344 47.5065 -46.053 48.1146 -46.3546 48.6182C-46.6317 49.1404 -46.835 49.5643 -46.9644 49.8899C-47.0937 50.2155 -47.1893 50.4705 -47.2509 50.6548C-47.2695 50.833 -47.2973 50.9467 -47.3342 50.9958C-47.4265 51.1187 -47.5895 51.2076 -47.8231 51.2627C-48.0382 51.2932 -48.2902 51.2961 -48.5791 51.2712C-48.8249 51.2402 -49.086 51.1785 -49.3625 51.086C-49.596 50.9875 -49.7987 50.8736 -49.9707 50.7443C-50.3883 50.4305 -50.7414 50.1074 -51.0299 49.7753C-51.3185 49.4431 -51.4778 49.0158 -51.5081 48.4933C-51.3356 48.1616 -51.1048 47.7777 -50.8155 47.3416C-50.5077 46.8809 -50.1907 46.408 -49.8645 45.9228C-49.4952 45.4314 -49.1168 44.9278 -48.729 44.4119C-48.3413 43.896 -47.9813 43.417 -47.649 42.9748C-46.7997 41.8447 -45.9074 40.7086 -44.972 39.5663C-44.0367 38.4241 -43.089 37.291 -42.1291 36.1672C-42.086 36.0075 -42.1687 35.8107 -42.3775 35.5769C-42.5616 35.3616 -42.9362 35.0417 -43.5013 34.617C-44.3365 33.9893 -45.1228 33.5521 -45.8601 33.3056C-46.5728 33.0775 -47.0584 33.0585 -47.3167 33.2488C-47.7412 33.6602 -48.1534 34.0808 -48.5533 34.5106C-48.9348 34.9159 -49.3501 35.3918 -49.7993 35.9384C-50.2485 36.485 -50.7624 37.1175 -51.3408 37.836C-51.8947 38.573 -52.5593 39.4574 -53.3348 40.4892C-53.9994 41.3736 -54.5318 42.1075 -54.9319 42.691C-55.2889 43.2684 -55.5721 43.7475 -55.7815 44.1284C-55.9724 44.4847 -56.1201 44.758 -56.2248 44.9485C-56.3049 45.1574 -56.3819 45.3109 -56.4557 45.4092C-56.7142 45.7531 -57.0309 45.9188 -57.4058 45.9061C-57.7807 45.8934 -58.0787 45.804 -58.2998 45.6379C-59.1596 44.9917 -59.6384 44.3243 -59.736 43.6359C-59.8276 42.9904 -59.6302 42.293 -59.1439 41.5437C-58.8731 41.1322 -58.5561 40.6592 -58.193 40.1249C-57.8052 39.609 -57.4206 39.0715 -57.039 38.5126C-56.6143 37.9476 -56.1989 37.3949 -55.7927 36.8544C-55.3681 36.2894 -54.9896 35.7858 -54.6573 35.3436C-54.0111 34.4837 -53.3341 33.6086 -52.6264 32.7181C-51.8757 31.8215 -51.2973 31.1029 -50.8911 30.5625C-50.7619 30.3905 -50.6849 30.2369 -50.6602 30.1018C-50.5924 29.9605 -50.5462 29.8222 -50.5215 29.687C-50.4722 29.5703 -50.4259 29.4321 -50.3828 29.2723C-50.2966 29.1064 -50.1704 28.913 -50.0042 28.6919C-49.6534 28.2251 -49.2629 28.038 -48.8328 28.1306C-48.7161 28.1799 -48.5963 28.2507 -48.4735 28.343C-48.3322 28.4108 -48.1417 28.5155 -47.9022 28.6571C-47.6381 28.8171 -47.291 29.0203 -46.861 29.2666C-46.4065 29.5313 -45.8198 29.8761 -45.1012 30.3008C-44.3333 30.7626 -43.4457 31.2951 -42.4384 31.8984C-41.431 32.5017 -40.1903 33.3573 -38.7163 34.465C-37.5617 35.3328 -36.9079 36.074 -36.7548 36.6888C-36.5772 37.322 -36.7192 37.9457 -37.1808 38.5599ZM-27.7363 57.8824C-30.118 61.0515 -31.8964 63.2131 -33.0714 64.3675C-33.7666 65.0367 -34.5687 65.0298 -35.4776 64.3467C-36.8533 63.3127 -36.9505 62.1633 -35.7692 60.8984C-37.4407 60.5648 -38.9397 59.8996 -40.2663 58.9026C-41.5437 57.9425 -42.5197 56.7092 -43.1943 55.2028C-43.9977 53.4073 -43.9563 51.92 -43.0701 50.7408C-42.2023 49.5861 -40.6038 49.096 -38.2746 49.2704C-36.1666 49.4323 -34.4862 49.984 -33.2333 50.9256L-30.1011 53.2796L-29.4364 52.3953C-27.4733 49.8342 -27.2655 47.9722 -28.8132 46.809C-30.754 45.3505 -32.4075 45.5301 -33.7737 47.348C-34.2353 47.9622 -34.81 48.0108 -35.4979 47.4939C-35.9155 47.18 -36.2192 46.6634 -36.409 45.9441C-36.5558 45.2187 -36.4723 44.6472 -36.1584 44.2296C-35.1245 42.8539 -33.7839 42.0931 -32.1366 41.9472C-30.4893 41.8013 -28.9777 42.2453 -27.602 43.2792C-22.9835 46.7502 -23.0283 51.618 -27.7363 57.8824ZM-32.4551 56.4119C-32.0858 55.9205 -32.2697 55.3979 -33.0067 54.8441C-36.0775 52.5362 -38.1576 52.107 -39.2469 53.5564C-39.8377 54.3425 -39.4575 55.2433 -38.1063 56.2588C-37.2711 56.8865 -36.3096 57.2439 -35.2218 57.3311C-33.9497 57.4798 -33.0274 57.1734 -32.4551 56.4119ZM-10.777 66.707C-12.6602 69.2127 -14.6994 71.0054 -16.8947 72.085C-19.6987 73.5143 -22.2185 73.3888 -24.4541 71.7087C-25.6578 70.8041 -26.4311 69.6847 -26.774 68.3506C-26.9771 68.6209 -27.254 68.9894 -27.6048 69.4561C-28.011 69.9966 -28.2879 70.3651 -28.4356 70.5616C-30.2081 72.92 -31.3318 74.9778 -31.8068 76.7352C-31.9673 77.4603 -32.1029 77.8965 -32.2137 78.0439C-32.8414 78.8792 -33.6466 78.9275 -34.6293 78.189C-35.3663 77.6352 -35.8175 77.0846 -35.9829 76.5375C-36.1239 76.1624 -35.9325 75.3451 -35.4089 74.0857C-34.9284 72.986 -34.5035 72.1905 -34.1343 71.6992L-27.46 62.8184C-26.8507 62.0077 -25.9707 60.9392 -24.8201 59.6127C-23.5402 58.1143 -22.6572 57.0673 -22.1711 56.4716C-21.6849 55.8759 -21.0757 55.0652 -20.3433 54.0395C-19.4078 52.7436 -18.8016 51.9114 -18.5246 51.5429C-16.9553 49.4547 -15.4828 48.9276 -14.107 49.9615C-13.7631 50.22 -13.5361 50.5829 -13.4259 51.0501C-13.2972 51.4927 -13.3529 51.8737 -13.593 52.1931C-13.9991 52.7336 -14.7991 53.6701 -15.9927 55.0026C-14.0192 54.3715 -12.3568 54.5637 -11.0057 55.5791C-9.18778 56.9454 -8.34138 58.7347 -8.46648 60.9472C-8.56672 62.8709 -9.33689 64.7908 -10.777 66.707ZM-13.8074 63.9105C-11.8134 61.2574 -11.3814 59.5061 -12.5115 58.6569C-13.0028 58.2876 -14.0015 58.2866 -15.5077 58.6539C-18.4155 59.3517 -21.1617 61.2666 -23.7462 64.3986C-23.5867 64.7491 -23.4954 65.625 -23.4722 67.0263C-23.4302 68.0958 -23.139 68.8336 -22.5986 69.2398C-20.5595 70.7722 -17.6291 68.9958 -13.8074 63.9105ZM3.5287 79.8225C1.86706 82.0335 -0.10732 83.5097 -2.39443 84.2511C-5.01966 85.0844 -7.38863 84.7072 -9.50135 83.1194C-11.6632 81.4946 -12.743 79.5299 -12.7407 77.2251C-12.7694 75.1661 -11.9437 73.0188 -10.2636 70.7833C-8.60193 68.5723 -6.47985 66.8995 -3.89734 65.7651C-0.865929 64.3913 1.66929 64.4706 3.7083 66.003C4.34703 66.4831 4.93311 67.3656 5.46656 68.6507C6.98099 72.3645 6.33504 76.0884 3.5287 79.8225ZM0.341324 77.3117C3.16613 73.5531 3.66957 70.9906 1.85165 69.6244C0.549634 68.6458 -1.03306 68.7057 -2.89643 69.8041C-4.29244 70.6386 -5.56279 71.8174 -6.70748 73.3405C-9.16302 76.6078 -9.42042 78.9708 -7.47967 80.4293C-6.22679 81.3709 -4.78554 81.3969 -3.15593 80.5074C-1.91373 79.8264 -0.747978 78.7612 0.341324 77.3117ZM14.3114 77.8928C14.5698 77.5489 14.8559 77.3217 15.1694 77.2114C15.483 77.1011 15.9408 77.1569 16.5429 77.3787C16.9792 77.5144 17.4093 77.607 17.8333 77.6566C18.2574 77.7062 18.7028 77.9064 19.1695 78.2571C19.3415 78.3864 19.4704 78.5217 19.5564 78.6632C19.5809 78.6816 19.716 78.7832 19.9617 78.9678C20.2258 79.1279 20.5391 79.3249 20.9015 79.5588C21.2823 79.7681 21.6662 79.999 22.0532 80.2514C22.4832 80.4976 22.8763 80.7162 23.2326 80.9071C23.4476 81.0302 23.6995 81.1811 23.9881 81.3596C24.3199 81.532 24.6178 81.6982 24.8819 81.8583C25.1891 82.0123 25.4502 82.1508 25.6651 82.2739C25.8801 82.3971 26.0245 82.4863 26.0982 82.5417C26.2456 82.6525 26.3837 82.8524 26.5125 83.1414C26.6412 83.4304 26.727 83.7255 26.7697 84.0267C26.837 84.3464 26.8582 84.6506 26.8334 84.9395C26.8331 85.2468 26.7683 85.4864 26.639 85.6584C26.5467 85.7812 26.4391 85.8733 26.3161 85.9346C26.2116 85.9714 26.0763 86.0235 25.9103 86.0909C25.7873 86.1523 25.6336 86.229 25.4491 86.321C25.2892 86.4314 25.0924 86.5911 24.8586 86.7998C23.6343 88.0708 22.4498 89.3911 21.3053 90.7606C20.1792 92.1055 19.1638 93.3798 18.2592 94.5835C17.5391 95.5416 17.0096 96.4507 16.6708 97.3109C16.3503 98.1464 16.1683 98.8746 16.1247 99.4953C15.516 99.6914 15.0304 99.7493 14.6678 99.669C14.2868 99.6133 13.9367 99.4655 13.6173 99.2254C13.1751 98.8931 12.8497 98.5332 12.6411 98.1458C12.4141 97.783 12.3285 97.3342 12.3843 96.7996C12.4647 96.2834 12.6866 95.6813 13.0499 94.9933C13.4316 94.2807 13.9918 93.4331 14.7303 92.4504C15.4134 91.5414 16.0657 90.7246 16.6872 90C17.3087 89.2754 17.9147 88.5968 18.5054 87.9644C19.096 87.3319 19.6467 86.727 20.1574 86.1498C20.6927 85.591 21.2034 85.0138 21.6895 84.4181C21.7634 84.3198 21.7143 84.2061 21.5424 84.0768C21.3889 83.923 21.005 83.6153 20.3909 83.1538C19.9487 82.8214 19.5003 82.5229 19.0457 82.2582C18.6158 82.0119 18.3823 81.9133 18.3454 81.9625C17.5083 83.1786 16.7512 84.2626 16.0742 85.2146C15.4402 86.1605 14.8463 87.0019 14.2924 87.7389C13.4616 88.8444 12.7047 89.7748 12.0217 90.5301C11.3388 91.2854 10.6067 92.0038 9.82542 92.6853C9.22256 93.2317 8.61374 93.5814 7.99897 93.7344C7.40877 93.906 6.83406 93.9546 6.27483 93.8803C5.69714 93.8305 5.14722 93.6671 4.62507 93.39C4.10902 93.1559 3.64219 92.882 3.22456 92.5681C2.83149 92.2727 2.44469 91.8667 2.06414 91.35C1.68969 90.8764 1.40443 90.3353 1.20835 89.7266C0.99381 89.1425 0.905307 88.5186 0.942839 87.8548C1.00494 87.2095 1.26677 86.5798 1.72834 85.9657C2.0976 85.4743 2.51888 85.1951 2.9922 85.1279C3.48399 85.0362 3.95098 85.1566 4.39317 85.4889C4.8108 85.8027 4.99788 86.1932 4.95439 86.6603C4.92937 87.1028 4.83057 87.5667 4.658 88.0521C4.52846 88.5314 4.40509 88.9768 4.28791 89.3885C4.21376 89.7941 4.32408 90.1077 4.61887 90.3292C5.06107 90.6615 5.95263 90.2936 7.29355 89.2255C8.63446 88.1574 10.2742 86.3336 12.2128 83.7542C12.5821 83.2628 12.9421 82.7838 13.2929 82.317C13.6621 81.8257 14.0191 81.3251 14.3638 80.8154L14.2164 80.7046C13.8725 80.4461 13.7131 80.0188 13.7383 79.4226C13.8065 78.8204 13.9975 78.3104 14.3114 77.8928ZM33.5332 92.2235C33.1764 92.4936 32.6228 93.0001 31.8722 93.743C31.1462 94.5045 30.3278 95.4655 29.417 96.6262C29.804 96.8786 30.1817 97.1433 30.5502 97.4202C30.9617 97.6911 31.364 97.9742 31.7571 98.2696C32.7398 99.0081 33.495 99.7679 34.0228 100.549C34.5936 101.324 35.1274 102.302 35.624 103.482C35.8631 104.085 36.047 104.607 36.1756 105.05C36.3227 105.468 36.3869 105.843 36.3681 106.175C36.3739 106.525 36.3121 106.863 36.1827 107.189C36.0534 107.515 35.841 107.874 35.5456 108.267C34.9732 109.029 34.2321 109.529 33.3222 109.768C32.4308 109.982 31.4812 110.018 30.4734 109.875C29.5086 109.727 28.5224 109.428 27.5149 108.978C26.5074 108.528 25.6228 108.017 24.8613 107.445C24.5665 107.224 24.2625 106.937 23.9494 106.587C23.6178 106.261 23.2802 105.892 22.9364 105.48C22.6843 105.559 22.3555 105.562 21.9499 105.488C21.5504 105.457 21.0928 105.247 20.5769 104.86C20.0364 104.453 19.7479 104.121 19.7112 103.863C19.6746 103.605 19.8318 103.166 20.1827 102.545C20.2689 102.379 20.2875 102.201 20.2386 102.01C20.2142 101.838 20.1682 101.669 20.1008 101.503C20.0518 101.313 20.0151 101.131 19.9907 100.959C19.9847 100.763 20.0648 100.554 20.231 100.333C20.3972 100.111 20.5633 99.9672 20.7293 99.8997C20.9383 99.8262 21.1289 99.7772 21.301 99.7528C21.4731 99.7284 21.633 99.6947 21.7805 99.6518C21.9711 99.6029 22.1402 99.4801 22.2879 99.2836L24.1711 96.7778C24.3373 96.5567 24.3683 96.3109 24.2641 96.0403C24.2029 95.7637 24.2738 95.4903 24.4769 95.22C24.6615 94.9744 24.9229 94.8056 25.261 94.7138C25.5992 94.6219 25.8698 94.4409 26.0729 94.1706C27.273 92.5738 28.2452 91.3824 28.9897 90.5964C29.7772 89.8044 30.4477 89.1935 31.0013 88.7638C31.438 88.4385 31.9084 88.1962 32.4126 88.0369C32.9413 87.896 33.4881 88.0379 34.0532 88.4626C34.2497 88.6103 34.4554 88.8225 34.6702 89.0993C34.9035 89.3515 35.0969 89.6314 35.2502 89.9388C35.4036 90.2463 35.4924 90.5629 35.5166 90.8887C35.5593 91.1899 35.4884 91.4633 35.3038 91.709C35.2115 91.8318 35.0086 91.8716 34.6952 91.8282C34.4002 91.7603 34.0129 91.8921 33.5332 92.2235ZM32.561 105.793C33.041 105.155 33.0356 104.42 32.5447 103.59C32.0723 102.735 31.2096 101.837 29.9568 100.895C29.6865 100.692 29.3948 100.492 29.0815 100.295C28.7867 100.074 28.498 99.8951 28.2154 99.7596C27.9513 99.5995 27.7056 99.4917 27.4782 99.4362C27.2509 99.3807 27.0818 99.4266 26.971 99.574L24.7555 102.522C24.6632 102.645 24.6538 102.811 24.7273 103.02C24.8439 103.223 24.9851 103.444 25.1508 103.684C25.3595 103.918 25.5805 104.161 25.8138 104.413C26.0902 104.659 26.3512 104.874 26.5968 105.059C27.0636 105.41 27.5796 105.721 28.1447 105.992C28.753 106.257 29.3274 106.439 29.8682 106.537C30.4274 106.612 30.9407 106.594 31.4079 106.484C31.8997 106.392 32.284 106.162 32.561 105.793ZM40.5089 116.495C40.1397 116.986 39.577 117.275 38.8209 117.36C38.0894 117.464 37.478 117.331 36.9867 116.962C36.3971 116.518 35.9553 115.802 35.6612 114.812C35.3672 113.822 35.4325 113.045 35.8572 112.48C36.2079 112.013 36.7614 111.737 37.5174 111.652C38.292 111.542 38.9126 111.662 39.3794 112.013C40.0672 112.53 40.5521 113.241 40.8339 114.144C41.1342 115.023 41.0259 115.807 40.5089 116.495ZM49.629 104.897C49.1489 105.536 48.4664 105.83 47.5814 105.78C46.7149 105.705 45.9377 105.409 45.2498 104.893C43.8004 103.803 43.6019 102.558 44.6543 101.158C45.5959 99.9053 46.7791 99.8142 48.204 100.885C48.8672 101.384 49.3706 101.993 49.7141 102.712C50.1189 103.554 50.0905 104.283 49.629 104.897ZM-73.4676 86.2291C-74.6118 87.2912 -75.7345 88.3503 -76.8357 89.4064C-78.1522 90.6466 -79.189 91.7703 -79.9459 92.7775L-87.4787 102.801C-88.845 104.619 -90.4163 105.61 -92.1927 105.774C-93.9445 105.956 -95.7294 105.365 -97.5473 103.998C-98.7265 103.112 -99.7978 101.827 -100.761 100.142C-101.921 98.1552 -102.122 96.6585 -101.365 95.6512C-101.107 95.3073 -100.75 95.1141 -100.295 95.0715C-99.8341 95.0719 -99.4317 95.2014 -99.0877 95.4599C-98.8666 95.626 -98.5877 96.3546 -98.2509 97.6457C-97.9142 98.9367 -97.2053 99.9884 -96.1244 100.801C-94.7487 101.835 -93.449 102.023 -92.2252 101.367C-91.3643 100.938 -90.3616 99.9613 -89.2169 98.4382C-88.7922 97.8732 -88.4537 97.3972 -88.2013 97.0102C-89.4182 96.9414 -90.5303 96.5285 -91.5375 95.7716C-93.38 94.3869 -94.3063 92.6527 -94.3166 90.5692C-94.3208 88.6823 -93.6214 86.8053 -92.2182 84.9383C-92.0705 84.7418 -89.6214 81.7387 -84.8708 75.9291C-83.8938 76.1636 -83.1842 76.4471 -82.742 76.7794C-82.2507 77.1487 -81.7475 77.9881 -81.2325 79.2977C-82.9299 80.3286 -85.4402 83.055 -88.7635 87.477C-90.8867 90.3021 -91.2359 92.2501 -89.8111 93.321C-88.7547 94.1149 -87.2794 93.8397 -85.385 92.4956C-84.0073 91.532 -82.8015 90.3624 -81.7676 88.9866L-78.3889 84.491C-78.4074 84.5155 -78.1396 84.0825 -77.5856 83.1919C-76.2091 83.4575 -75.2752 83.775 -74.7838 84.1442C-74.268 84.5319 -73.8292 85.2269 -73.4676 86.2291ZM-63.5242 104.485C-65.1858 106.696 -67.1602 108.172 -69.4473 108.914C-72.0726 109.747 -74.4415 109.37 -76.5542 107.782C-78.7161 106.157 -79.7959 104.192 -79.7936 101.887C-79.8223 99.8285 -78.9966 97.6812 -77.3165 95.4457C-75.6548 93.2347 -73.5327 91.5619 -70.9502 90.4275C-67.9188 89.0537 -65.3836 89.133 -63.3446 90.6655C-62.7059 91.1455 -62.1198 92.028 -61.5863 93.3131C-60.0719 97.0269 -60.7179 100.751 -63.5242 104.485ZM-66.7116 101.974C-63.8868 98.2155 -63.3833 95.653 -65.2012 94.2868C-66.5033 93.3083 -68.086 93.3682 -69.9493 94.4665C-71.3453 95.301 -72.6157 96.4798 -73.7604 98.0029C-76.2159 101.27 -76.4733 103.633 -74.5326 105.092C-73.2797 106.033 -71.8384 106.059 -70.2088 105.17C-68.9666 104.489 -67.8009 103.424 -66.7116 101.974ZM-44.5398 109.526C-45.1122 110.288 -46.0782 111.369 -47.4379 112.769C-48.7545 114.163 -49.7083 115.253 -50.2991 116.039C-50.816 116.727 -51.5669 117.777 -52.5517 119.19C-53.4934 120.596 -54.2136 121.631 -54.712 122.294C-55.1367 122.859 -55.8281 122.782 -56.7861 122.062C-57.7688 121.323 -58.0352 120.373 -57.5854 119.212C-58.9805 119.125 -60.1202 118.749 -61.0046 118.084C-61.7171 117.549 -62.3893 116.755 -63.0213 115.704C-63.6349 114.627 -63.9228 113.681 -63.8851 112.863C-63.8221 111.296 -62.9321 109.37 -61.215 107.085C-60.6242 106.299 -59.5657 104.942 -58.0396 103.014C-56.655 101.325 -55.6058 99.9797 -54.8918 98.9786C-53.7487 98.992 -52.9314 99.1834 -52.4401 99.5526C-51.2609 100.439 -51.1052 101.459 -51.9729 102.614C-52.2683 103.007 -52.7729 103.55 -53.4865 104.244C-54.1756 104.956 -54.6678 105.509 -54.9632 105.902L-58.8681 111.098C-59.3112 111.688 -59.6131 112.422 -59.7738 113.3C-59.9346 114.333 -59.7448 115.052 -59.2043 115.458C-58.1479 116.252 -56.8541 116.167 -55.3227 115.204C-54.2772 114.529 -53.256 113.528 -52.259 112.202L-48.9357 107.78C-48.511 107.215 -48.1323 106.404 -47.7993 105.347C-46.7605 105.243 -45.9586 105.404 -45.3936 105.829C-44.804 106.272 -44.4143 106.853 -44.2244 107.572C-44.0101 108.31 -44.1152 108.961 -44.5398 109.526ZM-32.4666 119.35C-32.5958 119.522 -32.8235 119.773 -33.1495 120.105C-34.2193 120.454 -35.0367 120.417 -35.6017 119.992C-36.0685 119.641 -36.283 119.057 -36.2454 118.24C-35.4637 117.097 -35.4413 116.249 -36.1783 115.695C-36.6205 115.363 -38.0379 116.124 -40.4306 117.977C-41.5009 118.788 -42.7283 120.114 -44.113 121.956C-45.4239 123.701 -46.1318 124.822 -46.2368 125.319C-46.391 125.934 -46.5328 126.327 -46.662 126.499C-46.9759 126.917 -47.4309 127.113 -48.0271 127.088C-48.5802 127.056 -49.0901 126.865 -49.5569 126.515C-50.8835 125.518 -51.0852 124.405 -50.1621 123.177C-50.0698 123.054 -49.916 122.9 -49.7007 122.716C-49.4608 122.55 -49.3039 122.418 -49.2301 122.32C-48.2885 121.067 -46.956 119.166 -45.2325 116.617C-43.4906 114.044 -42.1581 112.143 -41.2349 110.915C-40.4041 109.809 -39.3254 109.755 -37.9988 110.752C-37.2127 111.343 -36.8476 111.982 -36.9036 112.671C-35.6434 112.426 -34.5834 112.627 -33.7236 113.273C-33.134 113.716 -32.689 114.3 -32.3885 115.026C-32.1677 115.499 -32.0609 116.252 -32.0681 117.285C-32.0568 118.293 -32.1896 118.981 -32.4666 119.35ZM-26.5011 138.595C-27.4243 139.823 -28.9796 140.153 -31.167 139.586C-32.8752 139.148 -34.4418 138.393 -35.8666 137.322C-39.6498 134.479 -39.926 130.908 -36.695 126.609C-35.3657 124.84 -33.4587 123.198 -30.9742 121.682C-27.9239 119.823 -25.6494 119.456 -24.1509 120.583C-22.7997 121.598 -21.8026 123.289 -21.1596 125.656C-20.492 128.041 -20.6475 129.885 -21.626 131.187C-22.8446 132.809 -24.5386 133.554 -26.7081 133.422C-28.6317 133.322 -30.4779 132.607 -32.2467 131.278C-32.5906 131.02 -32.9864 130.395 -33.4341 129.405C-35.0898 131.813 -35.279 133.497 -34.0015 134.457C-32.9206 135.269 -31.6334 135.756 -30.1401 135.917C-28.6222 136.097 -27.7158 136.298 -27.421 136.519C-26.3646 137.313 -26.058 138.005 -26.5011 138.595ZM-25.2835 128.611C-24.822 127.997 -24.5723 127.281 -24.5347 126.464C-24.4539 125.641 -24.7084 125.007 -25.298 124.564C-26.1087 123.955 -27.0028 123.84 -27.9804 124.22C-28.8105 124.558 -29.5394 125.144 -30.1671 125.979C-30.5179 126.446 -30.6444 126.947 -30.5466 127.481C-30.4488 128.016 -30.1542 128.468 -29.6629 128.838C-27.8696 130.185 -26.4098 130.11 -25.2835 128.611ZM-9.12382 136.085C-9.62232 136.749 -10.9926 136.449 -13.2347 135.187C-13.69 135.691 -14.6377 136.901 -16.0778 138.817L-17.9056 141.249C-18.2749 141.74 -18.7459 142.52 -19.3185 143.589C-19.8666 144.676 -20.316 145.453 -20.6668 145.92C-20.9622 146.313 -21.4265 146.522 -22.0595 146.546C-22.6742 146.545 -23.178 146.397 -23.5711 146.102C-24.1852 145.64 -24.3042 144.724 -23.9279 143.354C-23.638 142.303 -23.2069 141.397 -22.6345 140.636L-16.7634 132.824C-17.7642 131.802 -18.3321 131.202 -18.4671 131.024C-18.9582 130.348 -19.0652 129.825 -18.7883 129.457C-18.7144 129.358 -18.6068 129.266 -18.4653 129.18C-17.1435 128.751 -16.0895 128.832 -15.3034 129.423C-15.2542 129.46 -15.1805 129.515 -15.0823 129.589C-15.0025 129.688 -14.938 129.755 -14.8889 129.792C-14.373 130.18 -13.675 129.763 -12.7949 128.54L-10.7732 125.85C-10.7175 125.469 -10.6158 125.181 -10.4681 124.984C-10.2281 124.665 -9.8315 124.521 -9.27838 124.552C-8.68223 124.577 -8.21218 124.719 -7.86825 124.978C-7.35236 125.365 -7.04566 125.98 -6.94815 126.822C-6.83218 127.64 -6.97729 128.319 -7.38347 128.859C-7.82657 129.449 -8.36795 129.965 -9.00758 130.407C-9.60419 130.842 -10.121 131.377 -10.558 132.009L-10.6688 132.157C-8.9003 133.793 -8.38531 135.103 -9.12382 136.085ZM-6.42745 159.678C-7.245 159.794 -8.03456 159.566 -8.79612 158.993C-9.31201 158.606 -9.60018 157.889 -9.66061 156.844C-8.01132 154.701 -6.74357 153.04 -5.85735 151.861C-1.75862 146.407 -0.507666 143.08 -2.10448 141.88C-3.75043 140.643 -6.22583 142.223 -9.53066 146.62C-9.71529 146.866 -9.97071 147.231 -10.2969 147.717C-10.6477 148.183 -10.9154 148.54 -11.1001 148.785C-11.377 149.154 -11.7402 149.765 -12.1897 150.619C-12.6208 151.448 -12.9748 152.047 -13.2517 152.416C-13.4918 152.735 -13.9006 152.87 -14.4783 152.82C-15.0499 152.813 -15.4954 152.69 -15.8147 152.45C-16.4289 151.988 -16.7724 151.346 -16.8454 150.522C-16.8753 149.692 -16.6595 148.97 -16.1979 148.356L0.0304178 127.223C0.0858055 127.15 0.147373 127.042 0.215121 126.901C0.282869 126.76 0.335205 126.664 0.372131 126.615C1.03679 125.731 1.86045 125.658 2.8431 126.396C3.30987 126.747 3.68416 127.374 3.96599 128.278C4.26629 129.157 4.25027 129.818 3.91794 130.26C3.51176 130.801 2.78889 131.507 1.74932 132.379C0.734329 133.269 0.0237404 133.984 -0.382441 134.525C-0.899397 135.212 -1.69642 136.324 -2.77352 137.86C-1.99304 137.946 -1.41855 138.128 -1.05006 138.405C-0.0919679 139.125 0.776709 140.143 1.55597 141.459C2.54382 143.163 2.8033 144.915 2.33442 146.715C1.97661 148.061 1.11458 149.642 -0.251659 151.46L-6.42745 159.678ZM10.4061 166.332C9.48295 167.56 7.92764 167.891 5.74017 167.323C4.03197 166.885 2.46544 166.131 1.04059 165.06C-2.74264 162.217 -3.01877 158.645 0.212216 154.346C1.54153 152.577 3.44847 150.935 5.93301 149.42C8.98335 147.56 11.2578 147.194 12.7563 148.32C14.1075 149.335 15.1046 151.027 15.7476 153.394C16.4152 155.779 16.2597 157.623 15.2812 158.925C14.0626 160.546 12.3686 161.291 10.1991 161.16C8.2755 161.06 6.42928 160.345 4.6605 159.016C4.31657 158.757 3.92076 158.133 3.47307 157.143C1.81737 159.551 1.62825 161.234 2.9057 162.194C3.98663 163.007 5.27377 163.494 6.76713 163.655C8.28505 163.835 9.19141 164.035 9.48621 164.257C10.5426 165.051 10.8492 165.742 10.4061 166.332ZM11.6237 156.349C12.0852 155.735 12.3349 155.019 12.3725 154.201C12.4533 153.378 12.1988 152.745 11.6092 152.302C10.7985 151.692 9.90438 151.578 8.92676 151.958C8.0967 152.295 7.3678 152.881 6.74006 153.717C6.38927 154.183 6.26278 154.684 6.36059 155.219C6.4584 155.754 6.75297 156.206 7.2443 156.575C9.03765 157.923 10.4974 157.847 11.6237 156.349ZM28.7628 172.113C27.1012 174.324 25.308 175.917 23.3833 176.892C20.9051 178.144 18.6711 178.022 16.6812 176.526C16.0425 176.046 15.2107 175.056 14.1858 173.555C14.0811 173.745 13.9734 173.914 13.8626 174.062C13.2533 174.872 12.4942 174.936 11.5852 174.253C10.9219 173.755 10.5661 173.103 10.5177 172.298C10.4874 171.929 10.9 171.047 11.7557 169.653C12.4453 168.48 13.0208 167.586 13.4824 166.972L13.5932 166.824L29.7931 146.42C30.6477 146.101 31.3083 146.194 31.7749 146.698C31.9347 146.742 32.076 146.809 32.1988 146.902C32.641 147.234 32.8433 147.809 32.8056 148.626C32.8109 149.437 32.6382 150.076 32.2874 150.543C31.4935 151.6 30.3337 152.938 28.8078 154.559C27.0297 156.414 25.8422 157.713 25.2453 158.456C26.6039 158.131 27.8483 158.394 28.9783 159.243C30.3295 160.258 31.1763 161.664 31.5187 163.459C31.8796 165.229 31.7027 166.922 30.9882 168.538C30.557 169.521 29.8152 170.713 28.7628 172.113ZM25.5297 169.279C28.0406 165.938 28.5959 163.742 27.1956 162.689C26.0164 161.803 24.4828 161.977 22.5947 163.21C21.1679 164.137 19.9098 165.325 18.8205 166.774C16.4942 169.87 16.2646 172.119 18.1316 173.522C19.925 174.87 22.391 173.456 25.5297 169.279ZM39.5115 188.206C38.5884 189.434 37.0331 189.765 34.8456 189.197C33.1374 188.759 31.5709 188.005 30.146 186.934C26.3628 184.091 26.0867 180.519 29.3177 176.22C30.647 174.451 32.5539 172.809 35.0385 171.294C38.0888 169.434 40.3632 169.068 41.8618 170.194C43.2129 171.209 44.21 172.901 44.853 175.268C45.5206 177.653 45.3651 179.497 44.3866 180.799C43.1681 182.42 41.4741 183.165 39.3046 183.034C37.381 182.934 35.5347 182.219 33.766 180.89C33.422 180.631 33.0262 180.007 32.5785 179.017C30.9228 181.425 30.7337 183.108 32.0112 184.068C33.0921 184.881 34.3792 185.368 35.8726 185.529C37.3905 185.709 38.2969 185.909 38.5917 186.131C39.648 186.925 39.9546 187.617 39.5115 188.206ZM40.7291 178.223C41.1907 177.609 41.4403 176.893 41.478 176.076C41.5587 175.252 41.3043 174.619 40.7147 174.176C39.904 173.566 39.0098 173.452 38.0322 173.832C37.2022 174.169 36.4733 174.755 35.8455 175.591C35.4947 176.057 35.3682 176.558 35.466 177.093C35.5639 177.628 35.8584 178.08 36.3498 178.449C38.1431 179.797 39.6029 179.721 40.7291 178.223ZM53.803 198.197C52.9353 199.352 51.687 199.99 50.0581 200.111C48.2756 200.232 46.4754 199.61 44.6575 198.243C43.8529 197.677 43.1254 196.881 42.4749 195.854C40.3577 192.532 39.5576 190.528 40.0746 189.84C40.887 188.759 42.067 188.8 43.6147 189.964C43.8358 190.13 44.0599 190.317 44.2871 190.527C43.8069 191.319 43.9534 192.352 44.7266 193.625C45.3893 194.738 46.1905 195.59 47.1303 196.181C47.8796 196.667 48.4297 196.677 48.7805 196.21C48.8359 196.136 48.8944 196.007 48.956 195.823C49.0422 195.657 49.113 195.537 49.1684 195.464C49.2423 195.365 48.9232 194.818 48.2113 193.822C47.3949 192.708 46.9438 192.081 46.8579 191.94C45.3128 188.164 45.4264 185.098 47.1989 182.739C48.2697 181.314 49.6628 180.305 51.3782 179.71C53.2841 179.067 54.9127 179.253 56.2638 180.268C57.271 181.025 58.118 182.277 58.8046 184.023C59.5158 185.788 59.6773 187.235 59.289 188.366C59.0055 189.152 58.7068 189.754 58.3929 190.172C58.0606 190.614 57.7222 190.936 57.3778 191.139C56.9535 191.396 56.5292 191.654 56.1048 191.912C55.398 191.88 54.8113 191.689 54.3445 191.339C54.0988 191.154 53.792 190.693 53.4239 189.955C53.0989 189.211 53.0195 188.728 53.1857 188.507C53.2595 188.409 53.6469 188.2 54.3479 187.881C54.7599 187.691 55.049 187.486 55.2151 187.265C56.3229 185.791 56.2995 184.62 55.1449 183.752C54.457 183.235 53.5965 183.28 52.5633 183.888C51.7761 184.372 51.0871 185.008 50.4963 185.794C49.7578 186.777 49.7933 188.187 50.6028 190.026C51.4556 191.551 52.3115 193.097 53.1704 194.666C54.0906 196.357 54.3015 197.534 53.803 198.197ZM72.0029 197.056C71.5044 197.719 70.1341 197.42 67.892 196.157C67.4367 196.661 66.489 197.871 65.0489 199.787L63.2211 202.219C62.8519 202.71 62.3809 203.491 61.8083 204.559C61.2602 205.647 60.8107 206.424 60.46 206.891C60.1645 207.284 59.7003 207.492 59.0672 207.516C58.4526 207.516 57.9488 207.368 57.5557 207.072C56.9416 206.611 56.8226 205.695 57.1989 204.324C57.4888 203.274 57.9199 202.368 58.4923 201.606L64.3634 193.794C63.3626 192.773 62.7947 192.173 62.6596 191.994C62.1686 191.318 62.0616 190.795 62.3385 190.427C62.4124 190.329 62.52 190.237 62.6614 190.151C63.9833 189.722 65.0373 189.803 65.8234 190.393C65.8725 190.43 65.9462 190.486 66.0445 190.56C66.1243 190.658 66.1888 190.726 66.2379 190.763C66.7538 191.15 67.4518 190.733 68.3319 189.511L70.3536 186.821C70.4093 186.44 70.511 186.151 70.6587 185.955C70.8987 185.635 71.2953 185.491 71.8484 185.522C72.4445 185.548 72.9146 185.689 73.2585 185.948C73.7744 186.336 74.0811 186.951 74.1786 187.793C74.2946 188.61 74.1495 189.289 73.7433 189.83C73.3002 190.419 72.7588 190.935 72.1192 191.377C71.5226 191.813 71.0058 192.347 70.5688 192.98L70.458 193.127C72.2265 194.764 72.7415 196.073 72.0029 197.056ZM87.2506 193.407C87.0475 193.678 86.2816 194.39 84.9529 195.544C81.6126 198.454 79.2132 200.879 77.7547 202.82L72.3266 210.043C70.8865 211.959 70.1724 213.114 70.1843 213.507C70.1404 214.435 70.063 214.973 69.9523 215.12C69.6938 215.464 69.3248 215.648 68.8454 215.672C68.3721 215.739 67.9635 215.644 67.6195 215.385C67.1036 214.997 66.5604 214.262 65.9899 213.18C66.1751 212.32 66.4524 211.644 66.8216 211.153L78.287 195.897L78.0297 195.012L78.916 193.832C79.6668 192.782 80.8756 191.711 82.5423 190.619C84.5534 189.324 85.9642 188.981 86.7749 189.59C87.2417 189.941 87.5146 190.55 87.5936 191.416C87.7157 192.277 87.6014 192.941 87.2506 193.407Z" fill="black"/>
    </g>
</svg>
