<svg width="173" height="270" viewBox="0 0 173 270" fill="none" xmlns="http://www.w3.org/2000/svg">
    <path d="M94.8281 67.0444C170.549 66.1064 165.012 93.0753 165.012 93.0753C165.012 93.0753 153.315 198.528 95.0621 198.528C34.6256 198.528 21.0567 93.4661 21.0567 93.4661C21.0567 93.4661 16.4557 67.9825 94.8281 67.0444Z" fill="#6D3726"/>
    <path d="M26.9049 81.9749C34.7032 75.0959 52.8731 67.5134 94.8277 67.0443C135.379 66.5753 152.691 74.0797 159.943 81.1932C163.374 92.059 125.553 97.2964 92.9561 97.2964C61.6072 97.2964 21.1342 91.5118 26.9049 81.9749Z" fill="#662B1E"/>
    <path d="M162.049 94.5605C162.049 94.5605 167.508 67.5916 91.7868 68.5297C61.3736 68.9205 43.5156 72.9072 32.988 77.7538C42.9698 72.2819 61.2956 67.4353 94.8281 67.0444C170.549 66.1064 165.012 93.0753 165.012 93.0753C165.012 93.0753 155.888 175.311 113.622 194.541C153.315 172.888 162.049 94.5605 162.049 94.5605Z" fill="#914C3F"/>
    <path d="M171.407 87.9944L163.375 85.8838C163.375 85.8838 164.856 87.8381 164.856 90.0268L171.407 87.9944Z" fill="#C4691E"/>
    <path d="M23.084 85.5703C23.084 85.5703 21.5243 87.8373 21.7583 89.8697L14.8958 87.9936L23.084 85.5703Z" fill="#C4691E"/>
    <path d="M17.3135 89.6349C21.2906 90.6511 25.4237 91.2764 29.5568 91.4328L31.7403 91.511L29.7907 92.6835C28.3091 93.5434 27.2953 94.1688 25.8916 95.2631L25.7356 95.4195L25.9696 96.592H26.2035C32.988 97.6864 39.4605 97.6083 46.479 97.0611L47.2588 96.9829L47.0249 97.921C46.7129 99.1717 46.401 100.422 46.0891 101.595L46.0111 102.064L46.7909 103.158H47.1808C53.3414 102.533 59.5021 101.204 65.5067 99.1717C65.6627 99.0935 75.6445 105.738 75.6445 105.738L76.8142 105.504L77.828 105.269C83.4427 103.862 88.7455 101.204 93.4245 97.3738L93.7364 97.1392L94.0483 97.3738C98.8053 101.282 104.03 103.94 109.645 105.269L111.75 104.8C111.75 104.8 115.026 103.158 117.521 101.517C119.627 100.188 121.03 98.7808 121.108 98.859C127.347 101.048 133.819 102.455 140.292 103.158L141.852 103.315L141.306 101.673C140.994 100.422 140.682 99.1717 140.37 97.9991L140.136 97.0611L140.916 97.1392C147.934 97.6864 154.797 98.1555 161.581 96.9829L163.141 96.6702L162.049 95.8103L161.893 95.654C160.489 94.6378 159.086 93.6216 157.604 92.7617L155.655 91.5891L157.838 91.511C161.893 91.3546 166.026 90.7292 170.081 89.713L171.017 89.4785L170.783 90.4947C169.613 95.4977 168.444 100.422 167.196 105.269C163.765 119.027 159.866 133.723 155.265 150.373C151.132 165.148 146.92 179.844 143.333 192.195L143.255 192.429L143.021 192.586C140.994 193.836 138.654 194.618 136.237 194.853L135.379 194.931L135.145 194.462L134.989 194.931L134.443 197.041L133.975 197.276C130.934 198.761 127.659 199.621 124.15 199.777H123.448H122.98L122.434 202.201L122.044 202.279C118.067 202.904 114.09 202.748 110.191 201.81L109.021 201.497L108.709 201.419L107.305 202.122L106.993 202.279C105.512 202.904 104.108 203.53 102.626 204.311L101.691 204.78L100.989 205.249L100.365 205.015C98.4154 204.389 96.5438 203.608 94.7502 202.67L94.5942 202.591L94.5162 202.435C94.4382 202.279 94.2043 201.966 93.8924 202.044L93.7364 202.122L93.5804 202.044C93.2685 201.966 93.0346 202.201 92.9566 202.435L92.8786 202.67L92.7226 202.748C90.929 203.686 88.9795 204.468 87.0299 205.093L86.406 205.327L85.7042 204.858L84.7684 204.389C83.3647 203.686 81.8831 202.982 80.4794 202.357L80.1674 202.201L78.7638 201.497L77.2821 201.888C73.383 202.826 69.3279 202.982 65.4287 202.357L65.0388 202.279L64.9608 201.888C64.8829 201.575 64.8049 201.341 64.8049 201.028L64.5709 199.856H64.103H63.4012C59.892 199.699 56.6167 198.839 53.5754 197.354L52.9515 197.041L52.4836 195.009H52.0937L51.2359 194.931C48.8185 194.696 46.479 193.915 44.4514 192.664L44.2175 192.507L44.1395 192.273C41.722 183.831 39.6945 176.795 37.7449 170.151C32.832 152.875 28.8549 138.648 25.3457 125.203C22.1484 112.93 19.2631 101.595 16.6897 90.4947L16.4557 89.4785L17.3135 89.6349Z" fill="url(#paint0_linear_402_5148)"/>
    <path d="M140.37 97.9215L140.136 96.9834L140.916 97.0616C141.072 97.0616 141.228 97.0616 141.306 97.0616L140.838 99.8757C140.76 99.2504 140.526 98.5468 140.37 97.9215Z" fill="url(#paint1_linear_402_5148)"/>
    <path d="M141.306 101.595C141.15 101.048 140.994 100.423 140.916 99.8757L141.384 97.0615C147.232 97.5305 153.003 97.8432 158.618 97.296L135.613 194.853H135.301L135.067 194.384L134.911 194.853L134.365 196.964L133.897 197.198C130.856 198.683 127.581 199.543 124.071 199.7H123.37H123.136L140.292 103.081L141.306 101.595Z" fill="#DB8F3E"/>
    <path d="M157.37 93.2316L154.563 91.59L157.916 91.5118C158.618 91.5118 159.398 91.4336 160.1 91.3555L159.398 94.6386C158.696 94.1696 157.994 93.5442 157.37 93.2316Z" fill="url(#paint2_linear_402_5148)"/>
    <path d="M45.3873 97.1398L46.1672 101.439C46.1672 101.517 46.1672 101.596 46.0892 101.596L46.0112 102.065L46.3231 102.534L63.6353 199.778H63.2453C59.7361 199.622 56.4609 198.762 53.4195 197.276L52.7957 196.964L52.0938 196.651L51.548 196.417L51.0021 194.853L26.6715 96.8271C32.4422 97.4525 39.5387 97.6089 45.3873 97.1398Z" fill="#CC772B"/>
    <path d="M17.3136 89.6352C20.355 90.4169 23.5522 90.9641 26.6715 91.1986L28.0752 94.091C27.6853 94.3255 26.9835 95.4199 26.7495 96.0452C26.5936 96.4361 26.1257 96.5142 26.1257 96.5142C25.8917 95.3417 51.0801 194.775 51.0801 194.775C48.6626 194.54 46.4011 193.759 44.3736 192.508L44.1396 192.352L43.5938 192.117C41.1763 183.675 38.9928 176.796 37.1212 170.151C32.2083 152.875 28.2312 138.961 24.644 125.594C21.4467 113.321 18.6393 102.064 16.0659 90.9641L15.676 88.8535L17.3136 89.6352Z" fill="#C4691E"/>
    <path d="M159.476 93.8561L160.1 91.3546C163.453 91.1201 166.806 90.4947 170.159 89.713L171.017 89.4785L170.783 90.4947C169.613 95.4977 168.444 100.422 167.196 105.269C163.765 119.027 159.866 133.723 155.265 150.373C151.132 165.148 146.92 179.844 143.333 192.195L143.255 192.429L143.021 192.586C140.994 193.836 138.654 194.618 136.237 194.853L135.691 194.931L158.618 97.2956C159.008 95.8103 159.554 93.8561 159.476 93.8561Z" fill="url(#paint3_linear_402_5148)"/>
    <path d="M140.292 103.08L123.136 199.777H122.98L122.434 202.201L122.044 202.279C118.223 202.904 114.324 202.748 110.425 201.888L122.824 99.3281C128.517 101.204 134.365 102.455 140.292 103.08Z" fill="#DB8F3E"/>
    <path d="M46.4008 97.0616L47.1807 96.9834L46.9467 97.9215C46.6348 99.094 46.4008 100.267 46.0889 101.439L45.3091 97.1397C45.699 97.1397 46.0889 97.0616 46.4008 97.0616Z" fill="#DB8F3E"/>
    <path d="M111.75 104.722C111.75 104.722 115.025 103.081 117.521 101.439C119.626 100.11 121.03 98.7033 121.108 98.7814C121.654 99.0159 122.278 99.1723 122.824 99.3286L110.502 201.889C110.425 201.889 110.347 201.81 110.191 201.81L109.021 201.498L108.709 201.42L107.305 202.123L106.993 202.279C105.512 202.905 104.108 203.53 102.626 204.312L102.002 204.625L109.723 105.113L111.75 104.722Z" fill="url(#paint4_linear_402_5148)"/>
    <path d="M29.0109 90.7297L33.3779 91.2769L29.7907 93.3093C29.0109 93.7783 28.621 94.4819 27.8412 95.0291L26.3595 90.417C27.2953 90.5733 28.0751 90.6515 29.0109 90.7297Z" fill="#CC772B"/>
    <path d="M46.7127 103.08H47.1026C52.7953 102.533 58.4881 101.282 63.9468 99.5625L76.2681 202.044C72.6029 202.748 68.9377 202.826 65.3505 202.279L64.1808 202.122L46.2448 102.533L46.7127 103.08Z" fill="#DB8F3E"/>
    <path d="M94.0482 97.2961C98.8051 101.205 104.03 103.862 109.645 105.191H109.723L102.002 204.703L101.69 204.859L100.989 205.328L100.365 205.093C98.4152 204.468 96.5436 203.686 94.75 202.748L94.594 202.67L94.5161 202.514C94.4381 202.357 94.2041 202.045 93.8922 202.123L93.7362 202.201V96.9834L94.0482 97.2961Z" fill="#DB8F3E"/>
    <path d="M65.4286 99.0156C65.4286 99.0156 70.8094 102.064 73.7727 103.706L76.97 105.347L84.6123 204.702C83.2086 203.999 77.6719 201.419 77.6719 201.419C77.3599 201.497 76.5801 201.888 76.2682 201.966L63.9469 99.4847C64.0249 99.5628 65.3506 99.0156 65.4286 99.0156Z" fill="#DB8F3E"/>
    <path d="M77.0481 104.566C82.6628 103.158 87.8876 100.735 92.6446 96.8266L93.7363 96.0449V96.983L93.5804 202.357L92.8785 202.67L92.7226 202.748C90.929 203.686 88.9794 204.468 87.0298 205.093L86.406 205.328L85.7041 204.859L84.7683 204.389C84.7683 204.389 84.7683 204.389 84.6904 204.389L77.0481 105.425V104.566Z" fill="url(#paint5_linear_402_5148)"/>
    <path d="M24.2536 86.3524C23.0839 87.9939 22.538 89.5574 22.2261 90.6518C21.6022 90.5736 20.9004 90.4954 20.2765 90.3391C20.5885 88.8538 21.2123 87.0559 22.616 85.0235C28.3867 76.581 45.5429 66.4188 94.7498 65.7935C141.149 65.3245 157.682 75.174 163.374 83.5382C165.09 86.0397 165.714 88.3066 166.026 90.0264C165.402 90.1046 164.7 90.1827 164.076 90.2609C163.842 88.8538 163.296 87.0559 161.893 84.9453C158.696 80.2551 152.691 76.4247 144.035 73.6105C132.181 69.702 115.649 67.9041 94.9058 68.1386C44.0612 68.764 28.8546 79.8642 24.2536 86.3524Z" fill="#542404"/>
    <path d="M148.012 141.071C151.755 125.594 155.42 110.116 159.007 94.5599C159.007 94.4818 160.099 95.498 160.567 95.8888C160.645 95.967 160.567 96.8269 160.411 97.2177C156.98 112.07 153.081 126.844 148.246 141.15C148.246 141.384 148.012 141.306 148.012 141.071Z" fill="#93430C"/>
    <path d="M109.021 105.738C109.099 105.191 109.099 104.566 109.099 103.94C109.723 104.097 110.269 104.175 110.893 104.019C110.815 104.566 110.737 105.191 110.737 105.738C110.425 108.943 110.191 112.148 109.879 115.353C109.333 121.451 108.631 127.548 107.617 133.567C107.617 133.723 107.305 133.723 107.305 133.489C107.461 127.313 107.773 121.138 108.241 114.963C108.553 111.836 108.787 108.787 109.021 105.738Z" fill="#93430C"/>
    <path d="M134.131 136.928C134.833 129.737 136.159 122.545 137.484 115.431C138.108 111.836 138.732 108.318 139.434 104.722C139.59 104.018 139.668 103.393 139.746 102.69C140.136 99.8754 141.773 102.142 141.773 102.142C141.617 102.69 141.539 103.237 141.384 103.862C141.306 104.175 141.228 104.566 141.15 104.878C140.448 108.396 139.746 111.992 139.044 115.51C137.64 122.701 136.315 129.971 134.443 137.006C134.443 137.241 134.053 137.241 134.131 136.928Z" fill="#93430C"/>
    <path d="M101.222 205.719C101.3 204.547 101.456 203.374 101.534 202.202C102.392 192.039 103.172 181.799 104.108 171.637C104.498 167.728 105.043 163.82 105.355 159.911C105.355 159.755 105.589 159.755 105.589 159.911C104.81 175.233 103.718 190.476 102.548 205.797C102.08 205.719 101.612 205.719 101.222 205.719Z" fill="#93430C"/>
    <path d="M122.044 97.8438C122.2 97.9219 122.434 98.0783 122.59 98.1564C122.902 98.3128 123.136 98.4691 123.448 98.5473C122.59 105.895 121.576 113.243 120.328 120.513C120.328 120.67 120.095 120.591 120.172 120.513C120.796 114.963 120.874 109.335 121.42 103.785C121.576 101.83 121.81 99.798 122.044 97.8438Z" fill="#93430C"/>
    <path d="M35.0151 90.1048C35.9509 90.0266 36.8867 89.9485 37.7445 89.8703C37.7445 90.0266 37.7445 90.183 37.6665 90.2611C37.5886 90.4175 37.5106 90.4956 37.3546 90.5738C36.7307 90.8083 36.0289 91.121 35.1711 91.4337C32.9876 92.3717 30.8041 93.6225 28.7765 95.1077L27.7628 95.8113L28.9325 95.9676C34.6252 96.6711 40.24 96.2803 46.4786 95.7331L47.8822 95.5767C47.7263 96.1239 47.6483 96.7493 47.4923 97.2965C47.2584 98.5472 46.9465 99.798 46.6345 101.049L46.4786 101.674L47.1024 101.596C52.2493 100.971 57.4741 99.8761 62.465 98.3127C63.0888 98.0782 63.7907 97.9219 64.5705 97.6092C65.1944 98.1564 65.8962 98.6254 66.5201 99.0944C69.5614 101.205 72.7587 102.847 76.1119 103.863H76.2679H76.4239C81.9606 102.534 87.1075 99.9543 91.7864 96.2021C92.1763 95.8894 92.6442 95.4986 93.1121 95.0295C93.58 95.4204 94.0479 95.8113 94.4378 96.2021C99.0388 99.9543 104.264 102.534 109.8 103.863H109.956H110.112C113.466 102.847 116.741 101.283 119.704 99.0944C120.406 98.6254 121.03 98.0782 121.654 97.6092C122.434 97.8437 123.135 98.0782 123.759 98.3127C128.75 99.8761 133.975 100.971 139.122 101.596L139.746 101.674L139.59 101.049C139.278 99.798 139.044 98.5472 138.732 97.2965C138.576 96.7493 138.498 96.1239 138.342 95.5767L139.746 95.7331C145.984 96.2803 151.599 96.6711 157.292 95.9676L158.461 95.8113L157.448 95.1077C155.42 93.7006 153.315 92.4499 151.053 91.4337C150.195 91.0428 149.571 90.8083 148.87 90.5738C148.714 90.4956 148.636 90.4175 148.558 90.2611C148.48 90.1048 148.48 90.0266 148.48 89.8703C149.338 89.9485 150.273 90.0266 151.209 90.1048C157.76 90.4957 164.388 89.7921 170.783 87.9942C170.627 88.4632 170.549 89.0104 170.393 89.4794C165.636 90.7302 160.723 91.4337 155.81 91.5119H154.172L155.576 92.3717C156.98 93.2316 158.695 94.795 160.021 95.8113C160.021 96.1239 159.631 96.4366 159.475 96.9056C153.003 98 146.374 97.531 140.214 97.062L139.59 96.9838C139.59 96.9838 141.071 101.44 141.227 101.83C141.227 101.83 139.668 102.768 139.356 102.925C133.429 102.299 127.502 100.971 121.81 99.0944L121.576 99.0163L121.342 99.1726C119.002 100.971 116.507 102.534 113.855 103.706C112.452 104.332 111.048 104.801 109.644 105.27C108.241 104.957 106.759 104.488 105.433 104.019C101.066 102.456 96.9333 100.032 93.1901 96.9056L92.8782 96.6711L92.5662 96.9056C88.8231 100.032 84.69 102.456 80.323 104.019C78.9193 104.488 77.5156 104.957 76.1119 105.27C74.7082 104.879 73.3046 104.332 71.9009 103.706C69.2495 102.534 66.754 101.049 64.4145 99.1726L64.1806 99.0163L63.9467 99.0944C58.1759 100.971 52.1713 102.299 46.1666 102.925C45.6987 103.003 45.2308 103.003 44.7629 103.081C44.8409 102.612 44.9969 102.143 45.0749 101.674L45.1529 101.361C45.3868 100.189 45.6987 98.9381 46.0107 97.531L46.1666 96.9056L45.5428 96.9838C39.3042 97.531 32.6757 97.9219 26.2031 96.8275C25.9692 96.8275 25.8132 96.7493 25.5793 96.7493C25.5013 96.5148 25.3453 96.0458 25.2673 95.8113C25.5013 95.6549 25.6572 95.4986 25.8912 95.3422H25.9692C27.2949 94.2478 28.7765 93.2316 30.1802 92.3717L31.5839 91.5119H29.9463C24.8774 91.4337 19.8865 90.652 14.9736 89.3231C14.8956 88.7759 14.8956 88.3069 14.8177 87.916C21.7581 89.7921 28.3866 90.4957 35.0151 90.1048Z" fill="#93430C"/>
    <path d="M37.5889 142.323C36.887 140.291 26.6713 99.4855 25.8135 96.046C25.8135 95.9678 27.8411 96.2023 27.9191 96.2805C28.7769 99.6419 37.5889 140.134 38.1348 142.167C38.1348 142.323 37.6669 142.479 37.5889 142.323Z" fill="#93430C"/>
    <path d="M77.594 103.706C77.594 104.253 77.6719 104.8 77.6719 105.269C77.9059 108.474 78.1398 111.679 78.3738 114.884C78.8417 121.06 79.1536 127.235 79.3096 133.411C79.3096 133.567 79.0756 133.645 78.9976 133.489C77.9839 127.47 77.282 121.451 76.7361 115.275C76.5022 112.227 76.1903 109.1 75.9563 106.051C75.8783 105.348 75.8004 104.644 75.7224 103.862C76.4242 103.941 76.9701 103.862 77.594 103.706Z" fill="#93430C"/>
    <path d="M52.2494 137.006C50.4558 129.971 49.0521 122.701 47.6484 115.51C46.9466 112.148 45.3869 107.145 44.7631 103.784C44.7631 103.706 46.6347 99.7972 47.0246 102.533C47.1026 103.315 47.2585 104.018 47.4145 104.8C48.0383 108.396 48.6622 111.914 49.364 115.51C50.6118 122.623 51.9375 129.815 52.7173 137.006C52.6393 137.241 52.3274 137.241 52.2494 137.006Z" fill="#93430C"/>
    <path d="M84.1442 205.172C84.0662 204.234 83.9882 203.296 83.9102 202.436C83.1304 192.196 82.1946 181.877 81.6487 171.637C81.4148 167.728 81.3368 163.82 81.1808 159.911C81.1808 159.755 81.3368 159.755 81.4148 159.911C82.8964 174.998 84.2221 190.163 85.5479 205.328C85.08 205.25 84.6121 205.25 84.1442 205.172Z" fill="#93430C"/>
    <path d="M64.7269 98.3125C64.9609 100.11 65.1168 101.987 65.2728 103.784C65.8187 109.335 65.9746 114.963 66.5205 120.513C66.5205 120.669 66.3645 120.669 66.3645 120.513C65.1168 113.321 64.103 105.973 63.2452 98.7034C63.7911 98.6252 64.259 98.4688 64.7269 98.3125Z" fill="#93430C"/>
    <path d="M41.1761 154.986C42.2678 158.504 50.534 190.163 52.2496 196.573C55.6808 198.527 59.6579 199.309 63.4011 199.152C63.5571 199.934 63.5571 199.856 63.791 200.559C63.713 200.638 63.5571 200.638 63.4011 200.638C59.8919 200.794 56.2267 200.169 52.8735 198.683C52.1716 198.371 51.4698 197.98 50.7679 197.589C50.534 196.573 50.456 196.416 50.222 195.4C48.8963 190.085 41.332 158.191 40.9421 154.986C40.9421 154.986 41.1761 154.908 41.1761 154.986Z" fill="#93430C"/>
    <path d="M15.1296 86.9778C17.703 86.2742 20.1985 85.6488 22.7719 84.9453C22.8499 84.9453 22.6939 84.9453 22.304 85.6488C22.148 85.9615 21.4462 87.1341 21.4462 87.1341C19.6526 87.6031 17.859 88.0721 16.0654 88.5412C22.46 115.823 29.7903 142.792 37.4326 169.604C39.5381 177.109 41.7216 184.535 43.9052 192.039C46.1667 193.446 48.6621 194.15 51.2355 194.306C51.3135 194.697 51.2355 194.462 51.3915 194.853C51.5474 195.322 51.7034 195.713 51.8594 196.104C49.3639 196.026 46.8685 195.479 44.607 194.462C43.7492 194.072 43.5152 193.993 42.7354 193.446C42.4235 192.274 42.1895 191.648 41.8776 190.476C33.8454 162.647 25.8912 134.74 18.8728 106.442C17.4691 100.814 16.1434 95.1857 14.8177 89.4792C14.6617 88.7757 14.5057 87.994 14.2718 87.2904C14.8957 87.0559 14.5057 87.1341 15.1296 86.9778Z" fill="#93430C"/>
    <path d="M56.3824 158.113C57.7081 161.474 58.2539 165.304 59.0338 168.9C59.9696 173.278 60.6714 177.734 61.4512 182.111C62.543 188.599 63.6347 195.166 64.8825 201.576C68.8596 202.201 72.7587 202.045 76.6578 201.107C77.5936 201.654 78.4514 201.497 79.3872 202.045C79.3092 202.045 79.2312 202.123 79.1533 202.123C74.5523 203.53 69.8733 203.843 65.2724 203.295C64.7265 203.217 64.2586 203.139 63.7127 203.061C63.5568 202.279 63.4788 202.123 63.3228 201.263C62.0751 195.009 61.0613 188.756 60.1255 182.502C59.4237 178.203 58.7218 173.825 58.02 169.526C57.3961 165.773 56.5383 161.943 56.2264 158.113C56.0704 158.035 56.3044 157.956 56.3824 158.113Z" fill="#93430C"/>
    <path d="M144.97 155.064C142.397 162.96 140.993 169.213 139.278 177.03C137.952 183.05 136.158 190.163 134.443 196.573C131.012 198.527 127.035 199.309 123.291 199.153C123.135 199.934 123.135 199.856 122.901 200.56C122.979 200.638 123.135 200.638 123.291 200.638C126.801 200.794 130.466 200.169 133.819 198.684C134.521 198.371 135.223 197.98 135.925 197.589C136.158 196.573 136.236 196.417 136.47 195.401C137.796 190.085 138.966 184.613 140.214 179.219C142.007 171.246 144.113 163.116 145.126 154.986C145.126 155.064 144.97 154.986 144.97 155.064Z" fill="#93430C"/>
    <path d="M171.641 86.9778C169.067 86.2742 166.572 85.6488 163.998 84.9453C163.92 84.9453 164.076 84.9453 164.466 85.6488C164.622 85.9615 165.324 87.1341 165.324 87.1341C167.118 87.6031 168.911 88.0721 170.705 88.5412C164.31 115.823 156.98 142.792 149.338 169.604C147.232 177.109 145.049 184.535 142.865 192.039C140.604 193.446 138.108 194.15 135.535 194.306C135.457 194.697 135.535 194.462 135.379 194.853C135.223 195.322 135.067 195.713 134.911 196.104C137.406 196.026 139.902 195.479 142.163 194.462C143.021 194.072 143.255 193.993 144.035 193.446C144.347 192.274 144.581 191.648 144.893 190.476C152.925 162.647 160.879 134.74 167.898 106.442C169.301 100.814 170.627 95.1857 171.953 89.4792C172.109 88.7757 172.265 87.994 172.499 87.2904C171.875 87.0559 172.265 87.1341 171.641 86.9778Z" fill="#93430C"/>
    <path d="M130.388 158.113C129.062 161.474 128.516 165.304 127.736 168.9C126.801 173.278 126.099 177.734 125.319 182.111C124.227 188.599 123.135 195.166 121.888 201.576C117.911 202.201 114.011 202.045 110.112 201.107C109.177 201.654 108.319 201.497 107.383 202.045C107.461 202.045 107.539 202.123 107.617 202.123C112.218 203.53 116.897 203.843 121.498 203.295C122.044 203.217 122.512 203.139 123.057 203.061C123.213 202.279 123.291 202.123 123.447 201.263C124.695 195.009 125.709 188.756 126.645 182.502C127.346 178.203 128.048 173.825 128.75 169.526C129.374 165.773 130.232 161.943 130.544 158.113C130.7 158.035 130.466 157.956 130.388 158.113Z" fill="#93430C"/>
    <path d="M73.9286 180.704C74.5525 185.395 75.2543 190.007 75.8782 194.697C76.1121 196.573 76.3461 198.449 76.658 200.325C79.6993 201.576 82.6626 203.061 85.548 204.703C88.1214 203.921 90.5389 202.905 92.9563 201.576C93.0343 201.498 93.1123 201.498 93.1903 201.498H93.2683H93.3462C93.4242 201.498 93.4242 201.498 93.5022 201.498H93.5802C93.6582 201.498 93.7362 201.576 93.8141 201.576C96.2316 202.905 99.1169 203.999 101.69 204.781C104.498 203.296 107.305 202.045 110.035 200.794C110.268 198.918 110.58 196.573 110.814 194.619C111.438 189.928 112.14 185.316 112.764 180.626C112.764 180.392 113.154 180.392 113.154 180.704C113.076 185.473 112.452 190.319 111.984 195.088C111.828 196.651 111.672 198.215 111.516 199.7C111.438 200.56 111.282 200.794 111.204 201.654C110.736 201.889 110.268 202.123 109.723 202.358C107.851 203.217 105.745 204.234 103.796 205.328C103.016 205.719 102.236 206.188 101.534 206.579C100.599 206.266 99.6628 206.032 98.727 205.641C96.9334 204.937 95.1398 204.156 93.3462 203.217C91.6306 204.156 89.837 204.937 88.0434 205.563C87.1856 205.875 86.4058 206.188 85.548 206.422C84.6902 205.953 83.8324 205.406 83.0526 204.937C81.025 203.843 78.9975 202.827 76.8919 201.889C76.424 201.654 75.9561 201.498 75.4882 201.263C75.4103 200.56 75.3323 200.56 75.2543 199.856C75.0983 198.293 74.9424 196.729 74.7864 195.166C74.3185 190.397 73.6946 185.629 73.6167 180.782C73.5387 180.548 73.9286 180.47 73.9286 180.704Z" fill="#93430C"/>
    <path d="M44.6072 155.612C46.7907 163.351 49.2081 171.168 50.6118 179.063C50.6118 179.219 50.4558 179.219 50.3779 179.141C47.8044 171.559 46.1668 163.507 44.3732 155.69C44.2952 155.456 44.5292 155.456 44.6072 155.612Z" fill="#A0501A"/>
    <path d="M31.3503 100.97C32.4421 104.331 33.2219 107.927 34.1577 111.367C35.0935 114.806 36.1072 118.246 36.8091 121.763C36.8091 121.92 36.6531 121.92 36.5751 121.841C35.2494 118.48 34.3916 114.962 33.4558 111.523C32.52 108.083 31.5843 104.566 31.1164 101.048C31.1943 100.97 31.3503 100.892 31.3503 100.97Z" fill="#A0501A"/>
    <path d="M58.7999 103.159C56.6944 104.097 54.4329 104.723 52.1714 105.27C50.4558 105.661 50.9237 106.521 51.1576 108.006C51.3916 109.335 51.4696 110.742 51.6255 112.071C51.1576 109.882 50.6117 107.693 50.2218 105.426C50.2218 105.27 50.2218 105.114 50.4558 105.114C53.2632 104.488 55.9925 103.706 58.7999 103.003C58.8779 103.003 58.8779 103.159 58.7999 103.159Z" fill="#A0501A"/>
    <path d="M74.0846 108.084C71.6671 107.38 69.5616 106.364 67.534 104.801C67.69 104.722 67.846 104.644 68.0019 104.566C68.2359 106.364 68.5478 108.24 68.6258 110.038C68.6258 110.116 68.5478 110.116 68.5478 110.038C68.0799 108.318 67.768 106.442 67.534 104.722C67.4561 104.41 67.768 104.253 68.0019 104.488C69.7955 105.895 71.9011 107.146 74.0846 108.084C74.1626 108.084 74.1626 108.162 74.0846 108.084Z" fill="#A0501A"/>
    <path d="M38.0567 100.11C39.2264 99.7979 40.4741 99.9542 41.6439 99.7979C43.0476 99.6416 44.3733 99.4854 45.777 99.3291C45.8549 99.3291 45.8549 99.4072 45.777 99.4854C43.5935 100.267 40.3182 100.892 38.0567 100.11Z" fill="#A0501A"/>
    <path d="M19.1851 92.6064C22.1484 93.6222 25.0337 93.8566 28.153 94.0128C28.309 94.0128 28.309 94.1691 28.153 94.2472C25.0337 94.9504 21.9145 94.2472 19.1071 92.7627C19.0291 92.7627 19.1071 92.6064 19.1851 92.6064Z" fill="#A0501A"/>
    <path d="M81.6492 107.224C84.9244 106.364 87.8098 105.426 90.3052 103.003C90.5392 102.768 90.8511 102.924 90.8511 103.237C90.9291 107.771 91.397 112.618 90.7731 117.151C90.7731 117.23 90.6951 117.23 90.6951 117.151C89.9153 112.696 90.3052 107.771 90.1493 103.237C90.3052 103.315 90.5392 103.393 90.6951 103.472C88.3557 105.739 84.9244 107.693 81.5712 107.38C81.6492 107.302 81.6492 107.224 81.6492 107.224Z" fill="#A0501A"/>
    <path d="M105.2 108.162C102.002 107.693 99.1169 106.208 96.6214 104.175C96.7774 104.097 96.9334 104.019 97.0893 103.941C97.3233 106.286 97.3233 108.709 96.7774 110.976C96.7774 111.054 96.6214 111.054 96.6214 110.976C96.6214 108.631 96.6994 106.286 96.5434 103.941C96.5434 103.706 96.8554 103.628 97.0113 103.706C99.4288 105.66 102.236 106.989 105.2 108.005C105.355 108.084 105.277 108.162 105.2 108.162Z" fill="#A0501A"/>
    <path d="M114.168 107.145C116.039 106.286 117.755 105.66 119.392 104.409C119.548 104.253 119.86 104.331 119.86 104.566C119.626 106.989 119.314 109.334 119.003 111.679H118.925C119.003 109.334 119.159 106.989 119.314 104.566C119.47 104.644 119.626 104.722 119.782 104.722C118.223 105.973 116.273 107.224 114.168 107.224C114.09 107.302 114.09 107.224 114.168 107.145Z" fill="#A0501A"/>
    <path d="M126.099 104.175C129.374 104.879 132.337 105.739 135.691 106.051C135.847 106.051 136.003 106.208 135.925 106.442C135.379 109.022 134.911 111.601 134.287 114.181C134.287 114.259 134.209 114.259 134.209 114.181C134.365 112.852 134.599 111.523 134.755 110.194C134.911 109.334 135.223 108.396 135.223 107.615C135.223 106.52 135.145 106.677 134.053 106.52C131.324 106.208 128.438 105.66 126.021 104.332C126.021 104.175 126.099 104.097 126.099 104.175Z" fill="#A0501A"/>
    <path d="M145.595 100.657C148.636 100.892 151.443 100.814 154.407 100.266C154.641 100.188 154.875 100.423 154.797 100.657C153.939 103.393 153.237 106.207 152.301 108.943C152.301 109.021 152.145 109.021 152.145 108.943C152.457 106.051 153.315 103.315 154.173 100.501C154.329 100.657 154.407 100.735 154.563 100.892C151.677 101.752 148.48 101.83 145.595 100.97C145.439 100.892 145.439 100.657 145.595 100.657Z" fill="#A0501A"/>
    <path d="M162.127 93.4657C163.92 93.7002 165.714 93.6221 167.429 93.153C167.663 93.0749 167.819 93.3094 167.819 93.5439C167.195 96.358 166.494 99.2503 165.246 101.908C165.168 101.986 165.09 101.908 165.09 101.83C165.714 99.0158 166.65 96.2017 167.273 93.3875C167.429 93.5439 167.507 93.6221 167.663 93.7784C165.792 94.3256 164.076 94.3256 162.205 93.7002C162.049 93.5439 162.049 93.4657 162.127 93.4657Z" fill="#A0501A"/>
    <path d="M125.631 162.882C125.007 168.197 124.071 173.435 123.213 178.672C122.356 184.066 121.654 189.616 120.328 194.932C120.328 195.01 120.25 195.01 120.25 194.932C120.718 189.616 121.81 184.379 122.668 179.141C123.603 173.669 124.383 168.197 125.631 162.882C125.553 162.804 125.631 162.804 125.631 162.882Z" fill="#A0501A"/>
    <path d="M139.2 165.07C138.42 169.995 137.329 174.92 136.237 179.845C135.223 184.691 134.443 189.85 132.884 194.541C132.884 194.619 132.806 194.619 132.806 194.541C133.274 189.694 134.677 184.848 135.691 180.079C136.783 175.076 137.719 169.995 139.122 165.07C139.122 164.992 139.2 164.992 139.2 165.07Z" fill="#A0501A"/>
    <path d="M85.6258 177.03C86.5616 184.457 87.1855 191.961 87.4194 199.465C87.4194 199.543 87.3415 199.543 87.3415 199.465C86.3277 192.039 85.7038 184.535 85.3139 177.03C85.3919 176.874 85.6258 176.874 85.6258 177.03Z" fill="#A0501A"/>
    <path d="M63.6348 179.454C64.7266 183.441 65.2724 187.662 65.8183 191.727C66.0523 193.447 66.2862 195.245 66.4422 196.964C66.5982 198.371 66.4422 198.997 67.8459 199.231C68.9376 199.466 70.1853 199.309 71.3551 199.466C71.4331 199.466 71.4331 199.622 71.3551 199.622C69.7175 199.622 68.0798 199.622 66.4422 199.622C66.3642 199.622 66.2862 199.544 66.2082 199.466C65.2724 192.821 64.1027 186.177 63.4009 179.454C63.4789 179.454 63.5568 179.454 63.6348 179.454Z" fill="#A0501A"/>
    <path d="M23.3179 108.944C25.5794 114.963 27.217 121.295 28.8547 127.548C30.4923 133.802 32.1299 140.056 33.2217 146.466C33.2217 146.544 33.1437 146.622 33.0657 146.466C31.3501 140.212 29.9464 133.958 28.3088 127.705C26.6712 121.451 24.6436 115.275 23.084 109.022C23.006 108.865 23.2399 108.787 23.3179 108.944Z" fill="#A0501A"/>
    <path d="M34.0797 149.827C36.7311 157.957 39.2266 166.321 41.0981 174.764C41.0981 174.842 41.0202 174.92 40.9422 174.764C38.1348 166.712 35.8733 158.192 33.8458 149.906C33.8458 149.749 34.0797 149.671 34.0797 149.827Z" fill="#A0501A"/>
    <path d="M31.8184 80.8028C31.8184 80.8028 32.4423 77.9886 33.768 76.2689C35.0937 74.5491 35.9515 73.6892 35.9515 73.6892C35.9515 73.6892 32.6762 66.4975 37.9791 57.8988C43.2819 49.2218 51.548 47.1112 51.548 47.1112C51.548 47.1112 48.8966 41.4047 54.4334 34.7602C59.9701 28.1157 80.0116 24.2854 80.0116 24.2854C80.0116 24.2854 85.3924 20.6113 83.2089 16.5465C81.0254 12.4816 75.1767 13.9668 75.1767 13.9668C75.1767 13.9668 80.2456 -3.07437 99.7412 2.39758C119.237 7.86952 123.058 21.7839 123.058 21.7839C123.058 21.7839 124.774 27.334 124.072 31.008C123.37 34.6821 123.058 35.9328 123.058 35.9328C123.058 35.9328 135.769 35.1511 140.292 40.0758C144.893 45.0788 144.737 53.5212 144.737 53.5212C144.737 53.5212 153.393 56.4917 154.797 66.9666C154.797 66.9666 154.485 79.1612 145.517 85.493C136.549 91.8248 122.278 93.0756 122.278 93.0756C122.278 93.0756 109.645 94.2481 96.6999 93.8573C92.8787 93.7791 88.9796 93.5446 85.4704 93.0756C85.4704 93.0756 80.0116 97.3749 70.1858 95.0298C60.36 92.6847 55.6811 86.1184 55.6811 86.1184L53.3416 85.3367C53.3416 85.3367 45.6993 89.4015 38.369 87.9163C30.9606 86.4311 31.8184 80.8028 31.8184 80.8028ZM100.287 84.555C100.287 84.555 93.5806 88.7762 88.3558 91.434C90.6173 91.8248 100.287 84.555 100.287 84.555Z" fill="#F37022"/>
    <path d="M105.746 80.9592C105.746 80.9592 112.296 77.2852 111.127 65.8722C110.113 55.71 101.379 53.6776 101.379 53.6776C101.379 53.6776 114.246 39.7632 104.03 19.2825C98.6495 8.57312 81.1814 9.51117 76.9703 9.98019C79.8557 5.36812 86.4062 -1.43273 99.6632 2.31946C119.081 7.79141 122.98 21.7058 122.98 21.7058C122.98 21.7058 124.696 27.2559 123.994 30.9299C123.292 34.604 122.98 35.8547 122.98 35.8547C122.98 35.8547 135.691 35.073 140.214 39.9977C144.893 45.0788 144.737 53.5213 144.737 53.5213C144.737 53.5213 153.393 56.4917 154.797 66.9666C154.797 66.9666 154.485 79.1613 145.517 85.4931C136.549 91.8249 122.278 93.0756 122.278 93.0756C122.278 93.0756 119.081 93.3883 114.324 93.6228C113.076 84.555 105.746 80.9592 105.746 80.9592Z" fill="url(#paint6_linear_402_5148)"/>
    <path d="M34.7034 78.0666C35.4053 74.6271 39.3824 71.7348 39.3824 71.7348C39.3824 71.7348 35.8731 64.6995 42.2677 56.8824C48.1164 49.7689 54.9009 45.9385 54.9009 45.9385C54.9009 45.9385 52.7174 38.7468 59.9697 34.0565C69.3276 28.0374 77.0479 29.5226 82.5067 22.4091C83.4425 21.2366 85.47 20.4548 83.2865 16.39C81.103 12.3251 75.2543 13.8103 75.2543 13.8103C75.2543 13.8103 88.6673 7.40034 95.2179 19.4386C95.2179 19.4386 98.4931 24.1289 95.2179 29.1318C91.8646 34.1347 87.4976 35.4636 87.4976 35.4636C87.4976 35.4636 101.456 33.353 100.599 22.4091V19.3605C100.599 19.3605 105.278 23.3472 103.406 31.7896C103.406 31.7896 106.135 30.2262 106.681 28.0374C106.681 28.0374 107.305 37.2615 101.378 41.2482C95.4518 45.235 74.4745 49.2217 73.0708 53.9901C71.6671 58.7585 75.2543 60.5564 76.892 60.4001C78.6076 60.1656 95.9977 56.9606 102.782 52.8175C109.567 48.6745 109.021 49.1435 109.021 49.1435C109.021 49.1435 106.213 56.4134 101.3 59.1493C96.3876 61.8853 85.548 65.3248 85.1581 70.1714C84.7682 75.018 92.8784 78.4575 99.5849 77.3631C99.5849 77.3631 87.8095 87.9943 87.8875 90.8866C87.9655 93.7789 100.209 84.5548 100.209 84.5548L108.319 79.7082C108.319 79.7082 108.163 83.5386 104.42 88.2288C100.677 92.8409 96.5436 93.8571 96.5436 93.8571C92.7224 93.7789 88.8233 93.5444 85.3141 93.0754C85.3141 93.0754 79.8553 97.3748 70.0295 95.0297C60.2037 92.6846 55.9926 87.1344 55.9926 87.1344L52.7174 87.7598C52.7174 87.7598 49.5201 88.9324 42.1897 87.4471C38.4466 86.6654 33.7676 82.9132 34.7034 78.0666ZM61.4514 89.0105C68.5478 93.6226 78.6856 94.8733 86.0159 89.9486C86.0939 89.9486 86.0159 89.7922 85.9379 89.8704C78.2177 92.45 70.0295 92.6064 62.8551 88.4633C63.245 88.2288 63.6349 87.9161 64.0248 87.5253C64.1808 87.3689 64.0248 87.1344 63.7909 87.1344C63.0111 87.2908 62.3092 87.5253 61.5294 87.838C61.0615 88.1507 60.9835 88.6979 61.4514 89.0105ZM56.6945 44.0624C56.7725 44.2187 57.0064 44.1406 57.0064 43.9842C57.0844 40.7011 58.8 38.5904 61.4514 36.8707C63.8689 35.3854 66.4423 33.9784 68.9377 32.8058C69.0937 32.7276 69.0157 32.4931 68.7818 32.4931C65.3505 33.6657 61.8413 34.9164 59.034 37.1052C57.0844 38.7468 55.2908 41.5609 56.6945 44.0624ZM51.7036 51.6449C48.3504 52.7393 45.621 55.2408 43.6714 58.1331C41.8778 60.7127 39.7723 64.8558 40.786 68.0608C40.864 68.2171 41.098 68.2953 41.176 68.139C41.7998 66.8101 41.9558 65.2466 42.3457 63.8396C42.8136 62.198 43.5154 60.6346 44.3732 59.2275C46.2448 56.1788 48.8182 53.9119 51.7816 51.9576C51.8596 51.8013 51.7816 51.5668 51.7036 51.6449ZM38.3686 82.2879C41.4099 86.7436 48.1944 86.9781 52.8733 85.4147C53.0293 85.3365 53.0293 85.102 52.7954 85.102C48.7403 84.7893 44.6852 85.7274 41.176 83.1477C37.6667 80.6463 37.4328 74.6271 42.3457 73.6891C42.5017 73.6891 42.5017 73.3764 42.2677 73.3764C37.4328 72.9855 36.1071 78.9265 38.3686 82.2879Z" fill="#5F308C"/>
    <path d="M74.8645 13.5753C74.8645 13.5753 74.9425 14.2788 75.3324 13.8098C78.1397 10.9175 90.305 -0.729955 108.397 9.74492C127.113 20.5325 119.081 40.2315 119.081 40.2315C119.081 40.2315 134.209 38.3554 139.356 45.3907C144.425 52.4261 141.773 61.3376 141.773 61.3376C141.773 61.3376 148.168 56.1001 151.053 66.0278C153.939 75.9555 145.517 85.4923 145.517 85.4923C145.517 85.4923 156.122 77.6752 155.031 67.3567C153.939 57.1164 145.673 53.2078 145.673 53.2078C145.673 53.2078 146.063 44.4527 139.512 39.997C132.961 35.5412 123.058 35.8539 123.058 35.8539C123.058 35.8539 128.906 19.1254 113.154 7.63431C97.4014 -3.85678 85.938 2.70956 85.938 2.70956C85.938 2.70956 77.7498 5.36736 74.8645 13.5753Z" fill="#FFB284"/>
    <path d="M65.6626 77.2062C65.8186 77.0499 65.9745 76.9717 66.1305 76.9717C66.3645 76.9717 66.5984 76.8935 66.8323 76.8935C67.3002 76.8154 67.6901 76.8154 68.158 76.8154C69.0159 76.7372 69.8737 76.659 70.8095 76.659C72.5251 76.5809 74.3187 76.5027 76.0343 76.2682C76.8921 76.19 77.7499 76.1118 78.6857 75.9555C79.1536 75.8773 79.5435 75.8773 80.0114 75.7991C80.0894 75.7991 80.2453 75.7992 80.3233 75.721C80.1674 75.721 80.4013 75.721 80.4013 75.721C80.7132 75.6428 80.9472 75.6428 81.2591 75.6428C81.3371 75.6428 81.4151 75.6428 81.4931 75.6428C81.3371 75.6428 81.4931 75.6428 81.4931 75.6428C81.571 75.6428 81.649 75.6428 81.649 75.6428C81.883 75.6428 82.0389 75.5646 82.2729 75.5646C82.7408 75.4865 83.1307 75.4083 83.5986 75.3301C84.4564 75.1738 85.3142 75.0174 86.172 74.8611C88.1216 74.4703 90.0711 74.0794 91.9427 73.6104C92.2546 73.5322 92.6446 73.6104 92.8785 73.8449C92.9565 74.0012 93.1125 74.0794 93.1904 74.3139C93.2684 74.4702 93.1904 74.7048 93.1904 74.8611C93.1125 75.1738 92.8005 75.4865 92.4886 75.5646C88.9794 76.4245 85.4702 76.9717 81.961 77.4407C78.4517 77.9098 74.9425 78.0661 71.4333 78.0661C70.4195 78.0661 69.4058 78.0661 68.47 77.9879C68.0021 77.9879 67.4562 77.9098 66.9883 77.8316C66.7544 77.8316 66.5204 77.7534 66.2085 77.7534C66.1305 77.7534 65.9745 77.7534 65.8186 77.6752C65.7406 77.5971 65.6626 77.5189 65.5846 77.4407C65.5846 77.4407 65.5846 77.2844 65.6626 77.2062Z" fill="#FFB284"/>
    <path d="M71.5112 74.6266C71.8231 74.5484 72.1351 74.5484 72.447 74.4703C72.7589 74.4703 73.0708 74.3921 73.4608 74.3921C74.0846 74.3139 74.7085 74.2357 75.2544 74.1576C76.5021 74.0012 77.8278 73.8449 79.0755 73.6104C81.5709 73.2195 84.1444 72.7505 86.5618 72.1251C87.2637 71.9688 87.9655 71.8124 88.6674 71.5779C89.3692 71.4216 90.383 71.0307 91.0068 71.4998C91.2408 71.6561 91.3188 71.9688 91.2408 72.2815C90.9288 72.985 89.9931 73.1413 89.3692 73.2977C88.7453 73.454 88.1215 73.6104 87.4976 73.7667C86.2499 74.0794 84.9242 74.3139 83.6765 74.4703C82.3508 74.7048 81.0251 74.8611 79.6994 75.0174C78.4516 75.1738 77.1259 75.252 75.8782 75.252C75.1764 75.252 74.4745 75.252 73.6947 75.252C73.3048 75.252 72.9929 75.252 72.6029 75.1738C72.213 75.1738 71.8231 75.1738 71.4332 75.0956C71.3552 75.0174 71.3552 74.7048 71.5112 74.6266Z" fill="#FFB284"/>
    <path d="M62.3092 53.4428C62.5431 53.2865 62.6991 53.1301 62.933 52.9738C63.167 52.8174 63.4009 52.5829 63.6349 52.4266C64.1028 52.1921 64.5707 51.8794 65.1165 51.6449C66.1303 51.1758 67.2221 50.7068 68.2358 50.316C70.2634 49.4561 72.2909 48.7526 74.3965 48.1272C78.5295 46.7983 82.8186 45.7821 87.1856 45.0785C89.681 44.6877 92.1765 44.2968 94.6719 44.0623C95.2178 43.9841 95.7637 44.6095 95.7637 45.1567C95.7637 45.7821 95.2958 46.1729 94.6719 46.2511C93.5802 46.3293 92.4884 46.4856 91.3967 46.642C91.1627 46.642 90.8508 46.7201 90.6168 46.7201C90.6168 46.7201 90.8508 46.7201 90.6168 46.7201C90.5388 46.7201 90.5388 46.7201 90.4609 46.7201C90.3049 46.7201 90.1489 46.7983 89.993 46.7983C89.4471 46.8765 88.9012 46.9546 88.4333 47.0328C86.3278 47.3455 84.1443 47.8145 82.0387 48.2835C77.7497 49.2216 73.6166 50.3941 69.4836 51.8012C68.3138 52.1921 67.2221 52.5829 66.0523 52.9738C65.5065 53.2083 64.8826 53.3646 64.3367 53.521C64.1807 53.5991 64.0248 53.5991 63.8688 53.6773C63.7128 53.6773 63.5569 53.6773 63.4009 53.7555C63.089 53.7555 62.7771 53.8337 62.4651 53.9118C62.2312 53.9118 62.1532 53.5991 62.3092 53.4428Z" fill="#FFB284"/>
    <path d="M66.6765 55.3972C67.1444 55.0064 67.6903 54.5374 68.2362 54.2247C68.782 53.912 69.3279 53.5212 69.8738 53.2085C71.0435 52.5831 72.1353 51.9577 73.383 51.4105C75.8005 50.3162 78.2959 49.4563 80.7913 48.8309C81.4932 48.6746 82.195 48.5182 82.8969 48.3619C83.2868 48.2837 83.5987 48.2055 83.9886 48.1274C84.4565 48.0492 84.9244 47.971 85.3923 48.1274C85.7042 48.2055 85.9382 48.4401 86.0162 48.7527C86.0941 49.0654 86.0162 49.4563 85.7822 49.6126C85.5483 49.769 85.3923 49.9253 85.0804 50.0035C84.9244 50.0816 84.7684 50.0816 84.6905 50.0816C84.3785 50.1598 83.9886 50.1598 83.6767 50.238C83.0528 50.3162 82.429 50.4725 81.8051 50.6288C80.5574 50.8634 79.3097 51.176 78.062 51.5669C75.6445 52.2704 73.227 53.1303 70.8876 54.0683C70.2637 54.3029 69.5619 54.6155 68.938 54.9282C68.2361 55.2409 67.6123 55.4754 66.9105 55.7099C66.6765 55.7881 66.5205 55.4754 66.6765 55.3972Z" fill="#FFB284"/>
    <path d="M122.356 36.9483C122.512 36.4011 122.668 35.8539 122.746 35.3067C131.792 34.8377 142.397 37.8082 145.205 47.5014C146.531 52.1134 145.361 57.1945 142.865 61.1812C140.136 65.4806 135.925 68.2948 131.558 70.5617C131.324 70.7181 131.09 70.3272 131.324 70.1709C138.732 65.7151 146.687 57.429 143.879 47.8922C141.228 38.6681 130.856 36.2448 122.356 36.9483Z" fill="#2D0F4A"/>
    <path d="M151.599 77.9883C153.471 74.8615 154.485 71.2657 154.329 67.5916C154.095 61.338 150.196 56.1787 144.503 54.5371C144.659 53.9899 144.737 53.3646 144.815 52.8174C150.664 54.3026 154.953 60.0873 155.576 66.1064C156.356 73.5326 152.145 82.5222 145.205 85.7272C145.127 85.7272 145.049 85.6491 145.127 85.6491C147.388 83.0694 149.806 80.8807 151.599 77.9883Z" fill="#2D0F4A"/>
    <path d="M119.782 40.2319C122.356 35.6198 123.837 30.8514 123.292 25.5358C122.668 20.2202 120.25 15.3736 116.585 11.5432C109.723 4.35154 98.883 0.0521507 88.9792 2.24093C83.5984 3.49166 79.7773 7.00934 76.1901 11.0742C75.9562 11.3869 75.4103 10.996 75.6442 10.6834C87.8095 -9.64101 120.796 2.94446 124.149 23.7379C125.085 29.3662 124.149 36.167 119.938 40.3101C119.86 40.3882 119.782 40.3101 119.782 40.2319Z" fill="#2D0F4A"/>
    <path d="M75.0986 13.8097C78.4518 12.3245 83.9106 13.8097 84.3005 18.0309C84.4565 19.907 83.6767 22.0176 82.429 23.4247C80.9473 24.9881 78.6078 25.4571 76.6582 26.0043C66.7545 28.6621 54.8231 30.4601 51.3139 41.7166C51.2359 41.9512 50.924 41.873 50.924 41.6385C51.08 33.5869 60.126 29.2875 66.6765 27.2551C70.9655 25.9262 75.6445 25.2226 79.8555 23.5029C82.117 22.5648 84.0666 19.2817 82.8189 16.8584C81.3372 13.8879 77.9839 14.0442 75.1766 13.966C75.0206 14.0442 74.9426 13.8879 75.0986 13.8097Z" fill="#2D0F4A"/>
    <path d="M36.5753 73.1417C36.1854 73.4544 35.8734 73.8452 35.5615 74.2361C31.0385 64.5429 37.4331 54.3026 45.8552 49.3778C50.8461 46.4073 56.6168 44.9221 62.2316 43.9059C68.5481 42.7333 74.9427 41.7171 81.2593 41.248C81.2593 41.248 81.3373 41.3262 81.2593 41.3262C70.5757 44.2185 58.8003 44.453 48.7406 49.456C44.3736 51.5666 40.3185 54.6934 37.823 58.9928C35.4056 63.1358 34.7037 68.5296 36.5753 73.1417Z" fill="#2D0F4A"/>
    <path d="M84.6906 59.0712C79.0758 60.6346 73.3051 61.8072 67.6124 63.2142C62.0756 64.6213 56.5389 66.0284 51.0801 67.67C46.0892 69.1552 41.0204 70.9531 36.9653 74.3145C34.9377 75.9561 32.6762 78.1448 32.3643 80.8808C32.0524 83.0696 33.0661 84.9457 34.7817 86.3528C34.9377 86.5091 34.7818 86.7436 34.5478 86.7436C30.1808 85.6492 30.4927 80.0209 32.5982 77.0505C35.7955 72.5166 41.0983 69.8588 46.0892 67.9827C52.1719 65.7157 58.4884 64.2305 64.805 62.7452C71.3556 61.1818 78.0621 59.6184 84.7686 58.9149C84.7686 58.8367 84.7686 58.993 84.6906 59.0712Z" fill="#2D0F4A"/>
    <path d="M121.498 75.878C119.315 77.0505 116.897 77.5977 114.558 78.4576C112.062 79.3175 109.567 80.2555 107.149 81.2718C102.47 83.226 98.6493 86.1183 94.5162 88.9325C90.1492 91.903 85.5482 94.4044 80.3234 95.3425C75.6444 96.2024 69.4058 96.3587 65.2728 93.7009C65.1948 93.6227 65.1948 93.4664 65.3507 93.4664C68.0021 93.7009 70.5756 94.4044 73.305 94.5608C76.0343 94.7171 78.8417 94.4044 81.4931 93.7791C86.8739 92.5283 91.4749 89.5578 95.9199 86.431C99.5851 83.8514 103.172 81.5844 107.383 79.9429C109.801 79.0048 112.218 78.2231 114.636 77.5196C116.897 76.816 119.159 76.0343 121.498 75.7998C121.576 75.7998 121.576 75.878 121.498 75.878Z" fill="#2D0F4A"/>
    <path d="M40.1623 87.9946C42.6577 87.6037 45.3871 87.7601 47.9605 87.5256C50.7679 87.2911 53.4973 86.822 56.2267 86.2748C61.7634 85.0241 66.8323 82.9135 71.9791 80.7247C72.1351 80.6465 72.2911 80.8811 72.1351 80.9592C67.6901 84.3206 61.9194 86.1967 56.5386 87.3692C53.8872 87.9164 51.2358 88.3073 48.5844 88.4636C45.933 88.62 42.8137 88.9326 40.1623 88.3073C40.0063 88.2291 40.0063 87.9946 40.1623 87.9946Z" fill="#2D0F4A"/>
    <path d="M115.025 44.297C112.764 47.0329 109.723 49.2999 106.759 51.176C103.796 53.0521 100.443 54.9282 96.9334 55.4754C96.7775 55.4754 96.6995 55.319 96.8555 55.2409C99.9748 53.5211 103.328 52.2704 106.369 50.3943C109.411 48.5964 112.14 46.3294 115.025 44.1406C114.947 44.1406 115.025 44.2188 115.025 44.297Z" fill="#2D0F4A"/>
    <path d="M86.4841 11.3867C92.2549 9.7451 98.1036 13.9663 100.209 19.2038C102.783 25.5356 100.755 32.2583 95.998 36.8703C95.92 36.9485 95.8421 36.8703 95.92 36.7922C99.4293 32.2583 101.379 26.1609 99.5852 20.5327C97.7136 14.5917 92.4888 11.543 86.4841 11.6212C86.4062 11.6212 86.4062 11.4649 86.4841 11.3867Z" fill="#2D0F4A"/>
    <path d="M106.214 21.8619C108.943 31.6332 98.8052 38.7468 90.0712 39.294C89.9152 39.294 89.8372 39.0594 89.9932 38.9813C94.1263 37.496 98.3373 36.558 101.769 33.5093C104.888 30.7733 107.071 26.0831 106.136 21.8619C106.058 21.8619 106.214 21.7837 106.214 21.8619Z" fill="#2D0F4A"/>
    <path d="M144.581 82.8352C146.219 79.5521 147.7 76.2689 148.012 72.5949C148.324 68.8427 147.856 64.2306 143.801 62.9017C143.567 62.8235 143.567 62.4327 143.801 62.3545C148.324 60.7129 149.65 67.5138 149.65 70.5624C149.65 75.0182 148.168 79.8648 144.737 82.9134C144.659 82.9916 144.503 82.9134 144.581 82.8352Z" fill="#FFB284"/>
    <path d="M139.122 60.869C139.746 56.0224 139.122 51.254 135.691 47.5018C134.131 45.782 132.104 44.4531 129.998 43.5932C127.815 42.6552 125.631 42.7334 123.292 42.4207C123.058 42.4207 123.136 42.108 123.292 42.0298C125.553 41.0918 128.673 41.639 130.934 42.4207C133.352 43.2806 135.535 44.844 137.173 46.7982C140.292 50.5504 141.618 56.4132 139.59 61.0253C139.434 61.1816 139.044 61.1035 139.122 60.869Z" fill="#FFB284"/>
    <path d="M117.677 37.0272C118.145 29.8355 116.897 22.4874 112.14 16.8591C109.956 14.2795 107.305 12.1689 104.342 10.6837C101.144 9.04207 97.7132 8.41671 94.282 7.71317C94.126 7.71317 94.126 7.47866 94.282 7.47866C101.3 6.38427 109.021 10.7618 113.388 15.9993C118.067 21.7057 120.484 29.9136 118.067 37.1053C117.989 37.2617 117.677 37.2617 117.677 37.0272Z" fill="#FFB284"/>
    <path d="M103.484 9.43272C100.443 8.80735 97.0118 12.9504 98.8054 15.061C100.599 17.1716 108.085 18.5787 108.319 15.061C108.631 11.5433 105.044 9.7454 103.484 9.43272Z" fill="#FFB284"/>
    <path d="M129.686 43.2021C126.333 42.4986 122.512 47.1106 124.539 49.4557C126.489 51.8009 134.755 53.3643 135.067 49.4557C135.379 45.5472 131.402 43.5929 129.686 43.2021Z" fill="#FFB284"/>
    <path d="M135.613 53.2077C134.131 52.1133 131.558 54.4584 132.805 56.2564C134.053 58.1324 136.861 58.2888 137.017 56.2564C137.095 55.3183 136.627 53.9894 135.613 53.2077Z" fill="#FFB284"/>
    <path d="M110.035 17.4841C108.553 16.3897 105.98 18.7348 107.227 20.5327C108.475 22.4088 111.282 22.5652 111.438 20.5327C111.516 19.5947 111.049 18.2658 110.035 17.4841Z" fill="#FFB284"/>
    <path d="M116.897 32.1027C115.883 31.2428 114.168 33.0407 115.026 34.4478C115.883 35.8549 117.755 36.0112 117.833 34.4478C117.911 33.7443 117.599 32.728 116.897 32.1027Z" fill="#FFB284"/>
    <path d="M139.98 67.6701C138.966 66.8102 137.25 68.6081 138.108 70.0152C138.966 71.4223 140.838 71.5786 140.916 70.0152C140.994 69.2335 140.682 68.2173 139.98 67.6701Z" fill="#FFB284"/>
    <path d="M129.062 51.1759C128.049 50.316 126.333 52.114 127.191 53.521C128.049 54.9281 129.92 55.0845 129.998 53.521C130.076 52.8175 129.764 51.8013 129.062 51.1759Z" fill="#FFB284"/>
    <path d="M147.466 65.9501C145.595 63.0578 139.668 65.4029 140.682 69.3896C141.696 73.3763 146.297 75.5651 147.856 72.1256C148.636 70.5622 148.714 67.9044 147.466 65.9501Z" fill="#FFB284"/>
    <path d="M144.425 75.5648C143.567 74.2359 140.76 75.3303 141.228 77.2063C141.696 79.0824 143.879 80.0987 144.581 78.4571C144.971 77.7535 145.049 76.5028 144.425 75.5648Z" fill="#FFB284"/>
    <path d="M138.966 89.1671C132.494 91.9812 125.709 93.4665 118.691 94.2482C111.36 95.1081 103.874 95.3426 96.6217 94.0137C96.4658 94.0137 96.4658 93.701 96.6217 93.7792C110.815 94.3263 125.241 93.3883 138.888 89.0107C138.966 89.0107 139.044 89.0889 138.966 89.1671Z" fill="#2D0F4A"/>
    <path d="M139.512 85.1013C133.117 87.9936 125.943 89.6352 119.002 90.5733C111.906 91.5895 104.732 91.9022 97.5573 91.4332C96.1536 91.355 96.1536 89.1662 97.5573 89.3225C104.498 89.7916 111.516 89.7134 118.379 88.9317C125.475 88.0718 132.337 86.3521 139.278 84.7105C139.59 84.6323 139.824 85.0232 139.512 85.1013Z" fill="#E05C0D"/>
    <path d="M126.177 85.4925C118.457 87.7594 110.191 88.3848 102.236 88.4629C100.911 88.4629 100.911 86.3523 102.236 86.4305C110.269 86.5087 118.145 85.6488 126.099 85.0234C126.411 85.0234 126.411 85.4143 126.177 85.4925Z" fill="#E05C0D"/>
    <path d="M118.067 45.1563C116.273 48.205 113.544 50.7846 110.736 52.8952C109.255 53.9896 107.617 54.9277 105.901 55.7875C104.342 56.4911 102.548 57.4291 100.911 57.4291C99.9748 57.4291 99.5849 56.1002 100.443 55.6312C101.768 54.8495 103.484 54.5368 104.888 53.9896C106.525 53.2861 108.163 52.5044 109.645 51.5663C112.686 49.6902 115.103 47.3451 117.599 44.7655C117.755 44.531 118.223 44.8436 118.067 45.1563Z" fill="#E05C0D"/>
    <path d="M116.429 50.629C113.466 54.9284 107.773 57.508 103.016 59.3059C100.209 60.3222 97.4017 61.2602 94.5943 62.2764C93.1127 62.8236 91.709 63.449 90.3053 64.1525C89.1355 64.7779 88.0438 65.5596 86.7181 65.7159C86.4062 65.7159 86.2502 65.4033 86.4062 65.1687C87.4979 63.0581 90.6952 61.8856 92.7227 61.0257C95.3741 59.8531 98.1035 58.9151 100.755 57.977C103.562 57.039 106.37 56.1791 109.021 54.9284C111.75 53.6777 113.856 52.1924 116.273 50.4727C116.351 50.4727 116.507 50.5508 116.429 50.629Z" fill="#E05C0D"/>
    <path d="M98.6492 51.4882C94.8281 54.9277 89.6032 56.2566 84.6903 57.2728C81.883 57.82 78.9976 58.1327 76.1902 58.5235C73.4608 58.9144 70.5755 59.9306 67.8461 60.0088C67.2222 60.0088 67.0663 59.2271 67.5342 58.9144C69.7177 57.5855 72.603 57.2728 75.0985 56.8819C77.8279 56.4129 80.6352 56.1002 83.3646 55.7094C88.7454 54.9277 93.5803 53.5206 98.4932 51.0973C98.5712 51.0191 98.8052 51.3318 98.6492 51.4882Z" fill="#E05C0D"/>
    <path d="M108.553 27.0211C110.113 30.4606 109.801 34.2128 108.163 37.5741C106.993 40.0756 104.186 43.7496 101.145 43.9841C100.989 43.9841 100.833 43.7496 100.989 43.6714C101.69 42.6552 102.938 42.0298 103.796 41.0918C104.81 39.9192 105.824 38.6685 106.525 37.2614C108.163 34.2128 108.475 30.5388 108.319 27.0992C108.319 26.9429 108.475 26.9429 108.553 27.0211Z" fill="#E05C0D"/>
    <path d="M109.879 39.0598C109.177 40.7014 107.461 41.8739 105.98 42.7338C104.576 43.5155 102.782 44.4535 101.145 43.9064C100.989 43.8282 100.989 43.6718 101.145 43.5937C102.471 42.6556 104.186 42.4211 105.668 41.6394C107.15 40.8577 108.397 39.8415 109.801 38.9816C109.801 38.9034 109.879 38.9816 109.879 39.0598Z" fill="#E05C0D"/>
    <path d="M114.557 75.2522C111.906 76.1902 109.255 76.8938 106.681 77.9882C104.186 79.0825 101.768 80.4114 99.5068 81.9749C95.6857 84.5545 92.0985 88.6975 87.1856 88.9321C86.2498 88.9321 86.0159 87.525 86.9517 87.2905C92.1765 86.2742 95.6857 82.053 100.053 79.3952C104.264 76.8938 109.489 74.8613 114.479 74.8613C114.713 74.8613 114.791 75.174 114.557 75.2522Z" fill="#E05C0D"/>
    <path d="M108.007 73.9234C106.681 74.8615 104.966 75.4087 103.484 76.2685C102.002 77.1284 100.521 77.9883 99.1169 79.0045C97.7132 80.0207 96.3095 81.1151 95.0618 82.2877C93.892 83.3039 92.7223 84.9455 91.3186 85.5708C91.0847 85.649 90.8507 85.4927 90.8507 85.2582C91.1627 83.7729 92.5663 82.3658 93.5801 81.3496C94.9058 80.0207 96.3875 78.77 97.9471 77.7538C100.599 75.9559 104.654 73.7671 107.929 73.9234C108.085 73.8452 108.085 73.9234 108.007 73.9234Z" fill="#E05C0D"/>
    <path d="M102.626 152.564C97.8693 156.394 88.2775 155.613 84.0664 151.391C83.8324 151.157 84.0664 150.61 84.4563 150.766C87.3417 151.938 90.0711 153.267 93.2683 153.502C96.5436 153.736 99.273 152.798 102.392 152.095C102.626 152.017 102.86 152.408 102.626 152.564Z" fill="white"/>
    <path d="M112.76 202.101C111.738 203.465 112.59 205.852 112.76 207.472C113.101 209.858 113.271 212.245 113.526 214.547C114.122 219.662 114.377 224.776 114.207 229.976C113.952 240.035 112.419 249.924 109.695 259.557C108.929 262.285 113.015 264.075 113.782 261.347C116.676 251.288 118.038 240.888 118.038 230.403C118.038 225.203 117.697 220.088 116.931 214.973C116.591 212.416 115.995 209.944 115.314 207.386C114.888 205.767 114.633 202.868 112.93 202.101C112.93 202.016 112.845 202.016 112.76 202.101Z" fill="white"/>
    <path d="M126.721 261.347C124.848 259.046 121.102 257.341 117.697 257.511C117.442 257.341 117.101 257.17 116.761 257C115.229 255.806 113.441 254.954 111.398 255.124C109.099 255.295 106.971 256.744 106.545 259.046C105.268 265.439 113.866 268.423 118.634 269.19C121.273 269.616 124.423 270.042 126.551 268.252C128.764 266.377 128.424 263.393 126.721 261.347Z" fill="white"/>
    <path d="M76.6648 202.017C71.3868 202.613 66.5344 206.108 63.1292 210.03C59.5538 214.122 57.1701 219.322 56.4891 224.692C55.8081 230.062 56.8296 235.774 59.1281 240.633C60.3199 243.02 61.7671 245.321 63.4697 247.367C65.0872 249.158 67.4708 252.056 69.9396 252.397C71.0463 252.567 72.2381 251.289 71.6422 250.181C70.5355 248.22 68.1519 247.026 66.6195 245.321C65.0021 243.446 63.5549 241.4 62.5333 239.184C60.4902 234.836 59.5538 229.977 60.0645 225.118C60.6604 220.344 62.7036 215.741 65.6831 211.99C68.8329 208.069 72.834 205.597 77.0053 203.04C77.6864 202.869 77.2607 202.017 76.6648 202.017Z" fill="white"/>
    <path d="M76.0688 247.879C73.4298 245.748 69.7692 246.6 68.5774 249.413C67.2153 251.118 67.1302 253.846 67.7261 256.062C65.4276 256.148 63.2143 257.085 62.4481 259.813C61.3414 263.649 65.3425 266.207 68.7477 266.207C72.919 266.207 76.5796 263.223 77.9417 259.387C79.2186 255.807 79.2186 250.436 76.0688 247.879Z" fill="white"/>
    <path d="M8.30592 147.033C0.984769 146.607 -2.33529 134.757 3.02788 130.41C7.9654 126.403 13.6691 131.603 13.9245 137.059C15.0312 141.748 13.3286 147.459 8.30592 147.033Z" fill="white"/>
    <path d="M3.70891 133.564C3.62378 131.603 3.70891 129.728 3.53865 127.852C3.36839 125.806 2.43197 123.931 1.75093 121.97C0.218595 117.538 5.58176 115.833 6.85871 120.18C7.71 123.164 7.62487 125.636 7.36948 128.449C7.11409 130.836 6.60332 133.052 5.24124 134.587C4.73046 135.098 3.70891 134.416 3.70891 133.564Z" fill="white"/>
    <path d="M34.1853 171.243C29.8437 172.692 24.4805 171.754 20.3092 170.22C15.7973 168.515 11.5408 165.446 8.81667 161.695C6.17765 157.944 5.07097 153.767 4.98584 149.335C4.98584 147.033 5.32636 144.049 6.00739 141.918C6.51817 140.128 7.28434 137.912 9.41258 137.315C10.1787 137.144 10.9449 137.485 11.2003 138.167C11.7962 139.872 10.2639 141.577 9.7531 143.197C9.15719 144.987 8.9018 146.862 8.81667 148.738C8.73154 152.574 9.7531 156.495 11.9665 159.82C14.0947 163.144 17.3296 165.787 21.0753 167.577C25.2467 169.538 29.418 169.794 34.015 169.964C34.6961 169.964 34.9515 170.987 34.1853 171.243Z" fill="white"/>
    <path d="M149.962 160.16C148.259 170.731 147.408 181.216 148.004 191.957C148.599 202.187 149.621 212.757 152.175 222.646C152.26 223.072 152.175 224.862 154.388 227.59C155.069 228.442 156.942 225.373 156.431 222.731C154.473 212.331 152.515 202.101 151.749 191.531C150.983 181.216 150.557 170.731 150.898 160.331C150.898 159.734 150.047 159.564 149.962 160.16Z" fill="white"/>
    <path d="M162.986 222.987C162.135 219.151 156.857 217.957 154.388 220.941C154.133 221.282 153.878 221.708 153.707 222.049C152.005 224.351 153.878 228.102 156.517 228.954C158.219 229.551 160.092 229.38 161.539 228.102C162.901 226.908 163.412 224.862 162.986 222.987Z" fill="white"/>
    <path d="M158.645 228.528C160.007 229.806 163.072 228.783 164.604 228.272C167.243 227.419 169.286 225.97 171.074 223.924C173.032 221.537 169.456 218.724 167.754 221.367C166.562 223.157 164.859 224.947 162.987 226.056C161.624 226.908 159.581 226.993 158.645 228.357C158.56 228.357 158.56 228.442 158.645 228.528Z" fill="white"/>
    <path d="M162.05 226.311C163.497 225.629 164.349 223.754 164.945 222.304C165.711 220.514 166.392 218.895 166.732 216.934C167.158 214.547 163.583 214.036 163.412 216.508C163.327 218.213 163.157 220.088 162.646 221.708C162.22 223.072 161.369 224.521 161.369 225.97C161.369 226.311 161.71 226.481 162.05 226.311Z" fill="white"/>
    <path d="M160.943 222.219C161.624 221.196 161.709 220.003 161.624 218.809C161.539 217.445 161.539 216.252 161.114 214.973C160.347 212.757 157.113 214.376 158.304 216.167C158.9 217.104 159.581 218.042 159.752 219.065C159.922 220.088 159.837 221.111 160.007 222.134C160.177 222.56 160.688 222.56 160.943 222.219Z" fill="white"/>
    <path d="M113.526 156.575C113.441 154.444 112.42 152.398 110.887 151.034C109.61 149.926 107.993 149.414 106.375 149.67C104.162 149.926 102.289 150.949 100.416 151.972C97.8624 153.336 95.4788 154.7 92.4141 154.018H92.329C91.5628 153.847 90.7115 153.677 89.8602 153.421C87.3915 152.739 84.8376 151.972 82.4539 153.165C79.219 154.785 78.1123 158.877 78.7934 161.86C79.7298 165.952 83.135 168.51 87.2212 169.873C89.4346 170.641 91.8182 170.982 94.1167 170.982C99.3096 170.982 106.375 169.959 110.376 165.014C112.505 162.457 113.611 159.473 113.526 156.575Z" fill="white"/>
    <path d="M106.886 158.536C109.014 157.257 111.057 155.808 112.93 154.018C112.505 152.91 111.738 151.801 110.802 151.034C109.525 149.926 107.908 149.414 106.29 149.67C104.077 149.926 102.204 150.949 100.331 151.972C99.9053 152.228 99.5648 152.398 99.1392 152.569C101.608 152.824 106.035 153.847 106.886 158.536Z" fill="#D1D1D1"/>
    <path d="M107.227 160.411C107.141 160.411 107.141 160.411 107.056 160.496C106.971 165.185 104.332 168.339 102.289 170.044C105.354 169.191 108.333 167.657 110.462 165.014C112.505 162.457 113.611 159.473 113.526 156.575C113.526 156.49 113.526 156.49 113.526 156.404C111.568 158.109 109.44 159.473 107.227 160.411Z" fill="#D1D1D1"/>
    <path d="M113.611 154.956C113.611 154.785 113.526 154.7 113.526 154.53C113.526 154.615 113.526 154.53 113.441 154.444C111.228 156.575 108.844 158.28 106.29 159.9C106.205 159.9 106.29 159.985 106.375 159.985C109.099 158.962 111.568 157.343 113.696 155.382C113.696 155.212 113.696 155.041 113.611 154.956Z" fill="#595959"/>
    <path d="M86.1145 162.372C83.4755 161.604 80.9216 160.667 78.538 159.303C78.4528 159.558 78.4528 159.814 78.538 160.07C80.9216 161.349 83.3904 162.286 86.1145 162.457C86.1996 162.457 86.1996 162.372 86.1145 162.372Z" fill="#595959"/>
    <path d="M67.6412 132.343C67.2156 130.382 67.3859 128.592 68.0669 127.228C68.5777 126.205 69.3438 125.523 70.2803 125.267C72.4936 124.756 74.9624 127.143 75.6434 130.553C76.4096 133.962 75.2178 137.116 72.9193 137.628C72.2382 137.798 71.4721 137.628 70.791 137.287C69.429 136.52 68.152 134.644 67.6412 132.343Z" fill="#1E1E1E"/>
    <path d="M73.4299 131.319C72.834 128.421 70.7909 126.46 69.0032 126.887C68.6626 126.972 68.4072 127.142 68.1519 127.313C68.6626 126.29 69.4288 125.608 70.3652 125.352C72.5786 124.841 75.0474 127.228 75.7284 130.637C76.4946 134.047 75.3027 137.201 73.0042 137.713C72.3232 137.883 71.557 137.713 70.876 137.372C70.9611 137.372 71.1314 137.372 71.2165 137.287C73.0894 136.86 74.0258 134.133 73.4299 131.319Z" fill="white"/>
    <path d="M67.6412 132.342C67.2156 130.382 67.3859 128.592 68.0669 127.228C68.3223 127.057 68.6628 126.887 68.9182 126.801C70.7059 126.375 72.749 128.421 73.3449 131.234C73.9408 134.133 73.0044 136.775 71.2167 137.116C71.1316 137.116 70.9613 137.116 70.8762 137.201C69.429 136.519 68.152 134.644 67.6412 132.342Z" fill="#3D3D3D"/>
    <path d="M68.3222 129.87C68.4925 130.637 69.2586 131.064 70.0248 130.808C70.791 130.637 71.2166 129.87 70.9612 129.103C70.791 128.336 70.0248 127.909 69.2586 128.165C68.5776 128.421 68.152 129.188 68.3222 129.87Z" fill="#EFEFEF"/>
    <path d="M68.5778 132.598C68.663 133.024 69.1737 133.28 69.5994 133.195C70.025 133.11 70.2804 132.598 70.1953 132.172C70.1102 131.746 69.5994 131.491 69.1737 131.576C68.7481 131.746 68.4927 132.172 68.5778 132.598Z" fill="#EFEFEF"/>
    <path d="M107.141 127.569C107.482 125.608 108.418 123.989 109.525 123.051C110.376 122.284 111.398 121.943 112.334 122.113C114.548 122.54 115.91 125.608 115.229 129.103C114.633 132.513 112.249 134.985 110.036 134.559C109.355 134.389 108.674 134.048 108.163 133.366C107.141 132.087 106.716 129.871 107.141 127.569Z" fill="#1E1E1E"/>
    <path d="M112.845 128.848C113.356 125.95 112.334 123.307 110.547 122.966C110.206 122.881 109.866 122.881 109.525 122.966C110.376 122.199 111.398 121.858 112.334 122.028C114.548 122.455 115.91 125.523 115.229 129.019C114.633 132.428 112.249 134.9 110.036 134.474C109.355 134.304 108.674 133.963 108.163 133.281C108.248 133.281 108.418 133.366 108.504 133.366C110.376 133.792 112.334 131.746 112.845 128.848Z" fill="white"/>
    <path d="M107.141 127.569C107.482 125.609 108.418 123.989 109.525 123.051C109.866 122.966 110.206 122.966 110.547 123.051C112.334 123.392 113.441 126.035 112.845 128.933C112.334 131.832 110.376 133.877 108.589 133.536C108.503 133.536 108.333 133.451 108.248 133.451C107.141 132.087 106.716 129.871 107.141 127.569Z" fill="#3D3D3D"/>
    <path d="M108.674 125.523C108.589 126.29 109.099 126.972 109.866 127.057C110.632 127.143 111.313 126.631 111.398 125.864C111.483 125.097 110.972 124.415 110.206 124.329C109.525 124.244 108.844 124.841 108.674 125.523Z" fill="#EFEFEF"/>
    <path d="M107.908 128.165C107.823 128.591 108.163 129.018 108.589 129.103C109.014 129.188 109.44 128.847 109.525 128.421C109.61 127.995 109.27 127.569 108.844 127.484C108.333 127.399 107.993 127.739 107.908 128.165Z" fill="#EFEFEF"/>
    <path d="M78.5376 115.379C77.0904 114.697 75.6432 114.015 74.196 113.589C72.7488 113.163 71.1314 112.907 69.599 112.907C66.4492 112.907 63.4697 113.845 60.7456 115.379C59.2132 116.232 57.8512 117.425 56.4039 118.533C56.1486 118.704 55.8932 118.448 56.0634 118.192C56.4891 117.425 56.9999 116.743 57.5958 116.147C58.1917 115.55 58.7876 114.953 59.4686 114.442C60.8307 113.419 62.363 112.737 63.9805 112.225C67.2154 111.202 70.7057 111.202 73.9406 112.225C75.7284 112.822 77.3458 113.93 78.7079 115.209C78.7079 115.209 78.7079 115.379 78.5376 115.379Z" fill="white"/>
    <path d="M113.441 152.227C116.931 157.768 113.1 165.355 108.248 168.68C102.715 172.431 94.372 173.113 88.0724 171.322C82.1984 169.703 76.1542 164.759 77.6014 158.024C78.1973 155.296 79.9851 152.739 82.7092 151.716C86.0293 150.437 89.3493 152.227 92.5842 152.824H92.6694H92.7545C97.0961 153.847 100.757 149.841 104.758 148.732C108.333 147.795 111.568 149.244 113.441 152.227ZM110.121 164.759C111.994 162.457 113.186 159.559 113.015 156.575C112.845 153.08 110.036 149.585 106.29 150.011C101.182 150.608 97.692 155.552 92.1586 154.359C89.0939 153.762 85.6036 151.886 82.6241 153.421C79.7297 154.87 78.4527 158.621 79.1338 161.69C80.6661 167.998 88.3278 170.47 94.1166 170.555C99.8203 170.641 106.46 169.362 110.121 164.759Z" fill="white"/>
    <path d="M99.6498 173.655C103.31 174.849 107.992 173.826 109.78 169.99C109.865 169.904 109.695 169.819 109.61 169.904C106.545 172.036 103.395 172.973 99.6498 173.485C99.5647 173.485 99.5647 173.655 99.6498 173.655Z" fill="white"/>
    <path d="M102.459 113.589C104.417 110.776 107.311 109.071 110.461 108.474C113.526 107.877 117.357 108.389 120.251 109.923C121.017 110.35 121.613 110.691 122.379 111.287C122.72 111.543 123.146 111.969 123.486 112.31C123.827 112.651 124.252 113.077 124.508 113.418C124.678 113.674 124.508 113.845 124.252 113.674C123.571 113.333 122.975 112.736 122.294 112.395C121.698 112.054 121.017 111.713 120.336 111.372C118.974 110.776 117.527 110.264 116.165 110.009C113.1 109.412 109.95 109.753 107.141 110.946C105.524 111.628 103.991 112.822 102.544 113.845C102.459 113.845 102.374 113.674 102.459 113.589Z" fill="white"/>
    <defs>
        <linearGradient id="paint0_linear_402_5148" x1="170.996" y1="147.382" x2="16.3916" y2="147.382" gradientUnits="userSpaceOnUse">
            <stop stop-color="#F0B85D"/>
            <stop offset="1" stop-color="#E4A23C"/>
        </linearGradient>
        <linearGradient id="paint1_linear_402_5148" x1="170.998" y1="98.4488" x2="16.3843" y2="98.4488" gradientUnits="userSpaceOnUse">
            <stop stop-color="#F0B85D"/>
            <stop offset="1" stop-color="#E4A23C"/>
        </linearGradient>
        <linearGradient id="paint2_linear_402_5148" x1="173.997" y1="92.9581" x2="-23.0443" y2="92.9581" gradientUnits="userSpaceOnUse">
            <stop stop-color="#F0B85D"/>
            <stop offset="1" stop-color="#E4A23C"/>
        </linearGradient>
        <linearGradient id="paint3_linear_402_5148" x1="170.996" y1="142.182" x2="135.647" y2="142.182" gradientUnits="userSpaceOnUse">
            <stop stop-color="#F0B85D"/>
            <stop offset="1" stop-color="#E4A23C"/>
        </linearGradient>
        <linearGradient id="paint4_linear_402_5148" x1="122.794" y1="151.743" x2="102.017" y2="151.743" gradientUnits="userSpaceOnUse">
            <stop stop-color="#F0B85D"/>
            <stop offset="1" stop-color="#E4A23C"/>
        </linearGradient>
        <linearGradient id="paint5_linear_402_5148" x1="93.6937" y1="150.681" x2="77.0216" y2="150.681" gradientUnits="userSpaceOnUse">
            <stop stop-color="#F0B85D"/>
            <stop offset="1" stop-color="#E4A23C"/>
        </linearGradient>
        <linearGradient id="paint6_linear_402_5148" x1="119.954" y1="43.2495" x2="104.994" y2="48.2867" gradientUnits="userSpaceOnUse">
            <stop stop-color="#FD8F4D"/>
            <stop offset="1" stop-color="#F37022"/>
        </linearGradient>
    </defs>
</svg>
