<svg width="32" height="42" viewBox="0 0 32 42" fill="none" xmlns="http://www.w3.org/2000/svg">
    <path d="M16.403 13.2841C31.5868 13.0972 30.4766 18.4708 30.4766 18.4708C30.4766 18.4708 28.131 39.4827 16.4499 39.4827C4.33093 39.4827 1.61004 18.5487 1.61004 18.5487C1.61004 18.5487 0.687436 13.471 16.403 13.2841Z" fill="#6D3726"/>
    <path d="M2.783 16.2585C4.34673 14.8878 7.99023 13.3769 16.4031 13.2835C24.5345 13.19 28.006 14.6853 29.4603 16.1027C30.1483 18.2677 22.5642 19.3113 16.0278 19.3113C9.74161 19.3113 1.62584 18.1587 2.783 16.2585Z" fill="#662B1E"/>
    <path d="M29.8823 18.7668C29.8823 18.7668 30.977 13.3931 15.7931 13.58C9.69454 13.6579 6.11359 14.4523 4.00255 15.418C6.00413 14.3276 9.6789 13.3619 16.403 13.2841C31.5868 13.0972 30.4766 18.4708 30.4766 18.4708C30.4766 18.4708 28.647 34.8566 20.1716 38.6883C28.131 34.3738 29.8823 18.7668 29.8823 18.7668Z" fill="#914C3F"/>
    <path d="M31.7588 17.4577L30.1481 17.0371C30.1481 17.0371 30.4453 17.4265 30.4453 17.8626L31.7588 17.4577Z" fill="#C4691E"/>
    <path d="M2.0166 16.9756C2.0166 16.9756 1.70386 17.4273 1.75077 17.8323L0.374682 17.4584L2.0166 16.9756Z" fill="#C4691E"/>
    <path d="M0.859728 17.7851C1.65723 17.9875 2.48601 18.1122 3.31479 18.1433L3.75263 18.1589L3.3617 18.3925C3.06459 18.5639 2.86131 18.6885 2.57983 18.9065L2.54856 18.9377L2.59547 19.1713H2.64238C4.00283 19.3894 5.30073 19.3738 6.70809 19.2648L6.86446 19.2492L6.81755 19.4361C6.755 19.6853 6.69245 19.9345 6.6299 20.1682L6.61427 20.2616L6.77064 20.4797H6.84883C8.08418 20.3551 9.31952 20.0903 10.5236 19.6853C10.5549 19.6697 12.5565 20.9937 12.5565 20.9937L12.791 20.947L12.9943 20.9002C14.1202 20.6199 15.1835 20.0903 16.1218 19.3271L16.1843 19.2803L16.2469 19.3271C17.2007 20.1059 18.2484 20.6354 19.3743 20.9002L19.7965 20.8068C19.7965 20.8068 20.4533 20.4797 20.9537 20.1526C21.3759 19.8878 21.6574 19.6074 21.673 19.623C22.924 20.0591 24.2219 20.3395 25.5198 20.4797L25.8325 20.5108L25.7231 20.1837C25.6605 19.9345 25.598 19.6853 25.5354 19.4517L25.4885 19.2648L25.6449 19.2803C27.0523 19.3894 28.4283 19.4828 29.7888 19.2492L30.1015 19.1869L29.8826 19.0156L29.8513 18.9844C29.5699 18.7819 29.2884 18.5794 28.9913 18.4081L28.6004 18.1745L29.0382 18.1589C29.8513 18.1277 30.6801 18.0031 31.4933 17.8006L31.6809 17.7539L31.634 17.9564C31.3994 18.9532 31.1649 19.9345 30.9147 20.9002C30.2266 23.6416 29.4448 26.5699 28.5222 29.8875C27.6934 32.8314 26.849 35.7596 26.1297 38.2206L26.114 38.2673L26.0671 38.2985C25.6605 38.5477 25.1914 38.7035 24.7067 38.7502L24.5346 38.7658L24.4877 38.6723L24.4565 38.7658L24.347 39.1863L24.2532 39.233C23.6433 39.529 22.9866 39.7003 22.2829 39.7315H22.1421H22.0483L21.9389 40.2143L21.8607 40.2299C21.0632 40.3545 20.2657 40.3234 19.4838 40.1364L19.2492 40.0741L19.1867 40.0586L18.9052 40.1987L18.8427 40.2299C18.5456 40.3545 18.2641 40.4791 17.967 40.6349L17.7793 40.7283L17.6386 40.8218L17.5135 40.775C17.1226 40.6504 16.7473 40.4947 16.3876 40.3078L16.3563 40.2922L16.3407 40.261C16.325 40.2299 16.2781 40.1676 16.2156 40.1832L16.1843 40.1987L16.153 40.1832C16.0905 40.1676 16.0436 40.2143 16.0279 40.261L16.0123 40.3078L15.981 40.3233C15.6214 40.5103 15.2304 40.666 14.8395 40.7906L14.7144 40.8374L14.5737 40.7439L14.386 40.6504C14.1045 40.5103 13.8074 40.3701 13.526 40.2455L13.4634 40.2143L13.1819 40.0741L12.8848 40.152C12.103 40.3389 11.2898 40.3701 10.508 40.2455L10.4298 40.2299L10.4141 40.152C10.3985 40.0897 10.3829 40.043 10.3829 39.9807L10.336 39.747H10.2421H10.1014C9.39771 39.7159 8.74094 39.5446 8.13109 39.2486L8.00599 39.1863L7.91217 38.7813H7.83398L7.66197 38.7658C7.17721 38.719 6.70809 38.5633 6.30152 38.3141L6.25461 38.2829L6.23897 38.2362C5.75421 36.554 5.34764 35.1522 4.95671 33.8282C3.97156 30.3859 3.17405 27.5511 2.47037 24.8721C1.82924 22.4267 1.25066 20.1682 0.734629 17.9564L0.687717 17.7539L0.859728 17.7851Z" fill="url(#paint0_linear_402_4719)"/>
    <path d="M25.5355 19.4359L25.4886 19.249L25.645 19.2646C25.6762 19.2646 25.7075 19.2646 25.7231 19.2646L25.6293 19.8253C25.6137 19.7007 25.5668 19.5605 25.5355 19.4359Z" fill="url(#paint1_linear_402_4719)"/>
    <path d="M25.7231 20.168C25.6918 20.059 25.6605 19.9344 25.6449 19.8254L25.7387 19.2646C26.9115 19.3581 28.0687 19.4204 29.1946 19.3114L24.5816 38.7501H24.519L24.4721 38.6566L24.4408 38.7501L24.3314 39.1706L24.2375 39.2173C23.6277 39.5133 22.9709 39.6846 22.2672 39.7158H22.1265H22.0796L25.5198 20.464L25.7231 20.168Z" fill="#DB8F3E"/>
    <path d="M28.9444 18.5018L28.3814 18.1747L29.0539 18.1591C29.1946 18.1591 29.351 18.1435 29.4917 18.1279L29.351 18.7821C29.2102 18.6887 29.0695 18.5641 28.9444 18.5018Z" fill="url(#paint2_linear_402_4719)"/>
    <path d="M6.48906 19.2801L6.64543 20.1368C6.64543 20.1523 6.64543 20.1679 6.62979 20.1679L6.61416 20.2614L6.67671 20.3548L10.1482 39.7312H10.07C9.36633 39.7001 8.70956 39.5287 8.0997 39.2328L7.9746 39.1705L7.83387 39.1082L7.72441 39.0614L7.61495 38.7499L2.7361 19.2178C3.89326 19.3424 5.31626 19.3735 6.48906 19.2801Z" fill="#CC772B"/>
    <path d="M0.85965 17.7856C1.46951 17.9414 2.11064 18.0504 2.73613 18.0972L3.0176 18.6735C2.93942 18.7202 2.79868 18.9383 2.75177 19.0629C2.72049 19.1407 2.62667 19.1563 2.62667 19.1563C2.57976 18.9227 7.63062 38.7352 7.63062 38.7352C7.14586 38.6885 6.69237 38.5327 6.2858 38.2835L6.23889 38.2523L6.12943 38.2056C5.64467 36.5234 5.20683 35.1527 4.83153 33.8288C3.84638 30.3865 3.04888 27.614 2.32956 24.9505C1.68843 22.5051 1.12548 20.2622 0.609452 18.0504L0.531265 17.6299L0.85965 17.7856Z" fill="#C4691E"/>
    <path d="M29.3666 18.6262L29.4917 18.1277C30.1641 18.081 30.8365 17.9564 31.5089 17.8006L31.6809 17.7539L31.634 17.9564C31.3994 18.9532 31.1649 19.9345 30.9147 20.9002C30.2266 23.6416 29.4448 26.5699 28.5222 29.8875C27.6934 32.8314 26.849 35.7596 26.1297 38.2206L26.114 38.2673L26.0671 38.2985C25.6605 38.5477 25.1914 38.7035 24.7067 38.7502L24.5972 38.7658L29.1946 19.3115C29.2728 19.0156 29.3822 18.6262 29.3666 18.6262Z" fill="url(#paint3_linear_402_4719)"/>
    <path d="M25.52 20.4644L22.0798 39.7318H22.0485L21.9391 40.2146L21.8609 40.2302C21.0947 40.3548 20.3128 40.3237 19.5309 40.1523L22.0173 19.7168C23.1588 20.0906 24.3316 20.3398 25.52 20.4644Z" fill="#DB8F3E"/>
    <path d="M6.6925 19.2646L6.84888 19.249L6.80196 19.4359C6.73942 19.6696 6.6925 19.9032 6.62995 20.1368L6.47358 19.2802C6.55177 19.2802 6.62995 19.2646 6.6925 19.2646Z" fill="#DB8F3E"/>
    <path d="M19.7966 20.7908C19.7966 20.7908 20.4534 20.4637 20.9538 20.1366C21.376 19.8719 21.6574 19.5915 21.6731 19.6071C21.7825 19.6538 21.9076 19.6849 22.0171 19.7161L19.5464 40.1516C19.5308 40.1516 19.5151 40.1361 19.4838 40.1361L19.2493 40.0738L19.1867 40.0582L18.9053 40.1984L18.8427 40.2295C18.5456 40.3541 18.2641 40.4787 17.967 40.6345L17.8419 40.6968L19.39 20.8687L19.7966 20.7908Z" fill="url(#paint4_linear_402_4719)"/>
    <path d="M3.20536 18.0037L4.08105 18.1127L3.36174 18.5177C3.20536 18.6112 3.12718 18.7514 2.9708 18.8604L2.67369 17.9414C2.86134 17.9726 3.01772 17.9881 3.20536 18.0037Z" fill="#CC772B"/>
    <path d="M6.75485 20.4646H6.83303C7.97456 20.3556 9.11609 20.1063 10.2107 19.7637L12.6814 40.1836C11.9464 40.3238 11.2115 40.3394 10.4922 40.2304L10.2576 40.1992L6.66103 20.3556L6.75485 20.4646Z" fill="#DB8F3E"/>
    <path d="M16.247 19.3113C17.2009 20.0901 18.2486 20.6197 19.3745 20.8845H19.3901L17.842 40.7126L17.7795 40.7437L17.6388 40.8372L17.5137 40.7905C17.1227 40.6659 16.7474 40.5101 16.3878 40.3232L16.3565 40.3076L16.3409 40.2765C16.3252 40.2453 16.2783 40.183 16.2158 40.1986L16.1845 40.2142V19.249L16.247 19.3113Z" fill="#DB8F3E"/>
    <path d="M10.508 19.6543C10.508 19.6543 11.5869 20.2618 12.1811 20.5888L12.8223 20.9159L14.3547 40.7129C14.0733 40.5727 12.963 40.0587 12.963 40.0587C12.9005 40.0743 12.7441 40.1522 12.6815 40.1677L10.2108 19.7478C10.2265 19.7633 10.4923 19.6543 10.508 19.6543Z" fill="#DB8F3E"/>
    <path d="M12.8379 20.7603C13.9638 20.4799 15.0115 19.9971 15.9654 19.2183L16.1843 19.0625V19.2494L16.1531 40.2457L16.0123 40.308L15.981 40.3236C15.6214 40.5105 15.2304 40.6662 14.8395 40.7908L14.7144 40.8376L14.5737 40.7441L14.386 40.6507C14.386 40.6507 14.386 40.6507 14.3704 40.6507L12.8379 20.9316V20.7603Z" fill="url(#paint5_linear_402_4719)"/>
    <path d="M2.25126 17.1309C2.0167 17.458 1.90724 17.7695 1.84469 17.9876C1.71959 17.972 1.57885 17.9564 1.45376 17.9253C1.51631 17.6293 1.6414 17.2711 1.92288 16.8661C3.08004 15.1839 6.52025 13.1591 16.3874 13.0345C25.6916 12.941 29.0067 14.9036 30.1483 16.5702C30.4923 17.0686 30.6174 17.5203 30.6799 17.863C30.5548 17.8786 30.4141 17.8941 30.289 17.9097C30.2421 17.6293 30.1326 17.2711 29.8512 16.8506C29.21 15.916 28.0059 15.1528 26.2702 14.5921C23.8933 13.8133 20.5782 13.455 16.4187 13.5017C6.22314 13.6263 3.17386 15.8381 2.25126 17.1309Z" fill="#542404"/>
    <path d="M27.0678 28.0341C27.8184 24.9501 28.5534 21.8661 29.2727 18.7665C29.2727 18.7509 29.4916 18.9534 29.5854 19.0313C29.6011 19.0468 29.5854 19.2182 29.5541 19.2961C28.8661 22.2555 28.0842 25.1993 27.1147 28.0497C27.1147 28.0964 27.0678 28.0808 27.0678 28.0341Z" fill="#93430C"/>
    <path d="M19.249 20.994C19.2646 20.885 19.2646 20.7603 19.2646 20.6357C19.3897 20.6669 19.4992 20.6825 19.6243 20.6513C19.6086 20.7604 19.593 20.885 19.593 20.994C19.5304 21.6326 19.4835 22.2712 19.421 22.9098C19.3115 24.1247 19.1708 25.3397 18.9675 26.539C18.9675 26.5702 18.905 26.5702 18.905 26.5234C18.9362 25.2929 18.9988 24.0624 19.0926 22.8319C19.1551 22.2089 19.2021 21.6014 19.249 20.994Z" fill="#93430C"/>
    <path d="M24.2844 27.2087C24.4252 25.7757 24.691 24.3427 24.9568 22.9253C25.0819 22.2088 25.207 21.5079 25.3478 20.7914C25.379 20.6513 25.3947 20.5267 25.4103 20.3865C25.4885 19.8257 25.8169 20.2774 25.8169 20.2774C25.7856 20.3865 25.77 20.4955 25.7387 20.6201C25.7231 20.6824 25.7074 20.7603 25.6918 20.8226C25.5511 21.5235 25.4103 22.24 25.2696 22.9409C24.9881 24.3739 24.7223 25.8225 24.347 27.2243C24.347 27.271 24.2688 27.271 24.2844 27.2087Z" fill="#93430C"/>
    <path d="M17.6853 40.9155C17.701 40.6818 17.7323 40.4482 17.7479 40.2146C17.9199 38.1897 18.0763 36.1493 18.2639 34.1244C18.3421 33.3456 18.4516 32.5668 18.5141 31.788C18.5141 31.7569 18.561 31.7569 18.561 31.788C18.4047 34.8409 18.1857 37.8782 17.9512 40.931C17.8574 40.9155 17.7635 40.9155 17.6853 40.9155Z" fill="#93430C"/>
    <path d="M21.8604 19.4209C21.8916 19.4365 21.9386 19.4676 21.9698 19.4832C22.0324 19.5144 22.0793 19.5455 22.1418 19.5611C21.9698 21.0252 21.7665 22.4893 21.5164 23.9379C21.5164 23.9691 21.4694 23.9535 21.4851 23.9379C21.6102 22.832 21.6258 21.7106 21.7353 20.6047C21.7665 20.2153 21.8135 19.8103 21.8604 19.4209Z" fill="#93430C"/>
    <path d="M4.40944 17.8785C4.59708 17.8629 4.78473 17.8474 4.95674 17.8318C4.95674 17.8629 4.95674 17.8941 4.94111 17.9097C4.92547 17.9408 4.90983 17.9564 4.87856 17.972C4.75346 18.0187 4.61272 18.081 4.44071 18.1433C4.00287 18.3302 3.56502 18.5794 3.15845 18.8754L2.95516 19.0155L3.18972 19.0467C4.33125 19.1869 5.45714 19.109 6.70812 19L6.9896 18.9688C6.95832 19.0779 6.94268 19.2025 6.91141 19.3115C6.8645 19.5607 6.80195 19.8099 6.7394 20.0591L6.70812 20.1837L6.83322 20.1682C7.86529 20.0436 8.91299 19.8255 9.91378 19.514C10.0389 19.4672 10.1796 19.4361 10.336 19.3738C10.4611 19.4828 10.6018 19.5763 10.7269 19.6697C11.3368 20.0903 11.9779 20.4174 12.6503 20.6199H12.6816H12.7129C13.8231 20.3551 14.8552 19.8411 15.7934 19.0934C15.8716 19.0311 15.9654 18.9532 16.0592 18.8598C16.1531 18.9377 16.2469 19.0155 16.3251 19.0934C17.2477 19.8411 18.2954 20.3551 19.4056 20.6199H19.4369H19.4682C20.1406 20.4174 20.7974 20.1059 21.3916 19.6697C21.5323 19.5763 21.6574 19.4672 21.7825 19.3738C21.9389 19.4205 22.0796 19.4672 22.2047 19.514C23.2055 19.8255 24.2532 20.0436 25.2853 20.1682L25.4104 20.1837L25.3791 20.0591C25.3166 19.8099 25.2696 19.5607 25.2071 19.3115C25.1758 19.2025 25.1602 19.0779 25.1289 18.9688L25.4104 19C26.6614 19.109 27.7872 19.1869 28.9288 19.0467L29.1633 19.0155L28.96 18.8754C28.5535 18.595 28.1313 18.3458 27.6778 18.1433C27.5058 18.0654 27.3807 18.0187 27.2399 17.972C27.2087 17.9564 27.193 17.9408 27.1774 17.9097C27.1618 17.8785 27.1618 17.8629 27.1618 17.8318C27.3338 17.8474 27.5214 17.8629 27.7091 17.8785C29.0226 17.9564 30.3518 17.8162 31.634 17.458C31.6028 17.5514 31.5871 17.6604 31.5558 17.7539C30.602 18.0031 29.6168 18.1433 28.6317 18.1589H28.3033L28.5848 18.3302C28.8662 18.5015 29.2102 18.8131 29.4761 19.0155C29.4761 19.0778 29.3979 19.1402 29.3666 19.2336C28.0687 19.4517 26.7395 19.3582 25.5042 19.2648L25.3791 19.2492C25.3791 19.2492 25.6762 20.137 25.7075 20.2149C25.7075 20.2149 25.3947 20.4018 25.3322 20.433C24.1438 20.3083 22.9553 20.0436 21.8138 19.6697L21.7669 19.6542L21.72 19.6853C21.2508 20.0436 20.7505 20.3551 20.2188 20.5887C19.9373 20.7133 19.6558 20.8068 19.3744 20.9002C19.0929 20.8379 18.7958 20.7445 18.5299 20.651C17.6543 20.3395 16.8255 19.8566 16.0749 19.2336L16.0123 19.1869L15.9498 19.2336C15.1992 19.8566 14.3704 20.3395 13.4947 20.651C13.2133 20.7445 12.9318 20.8379 12.6503 20.9002C12.3688 20.8223 12.0874 20.7133 11.8059 20.5887C11.2742 20.3551 10.7738 20.0591 10.3047 19.6853L10.2578 19.6542L10.2109 19.6697C9.05373 20.0436 7.84965 20.3083 6.64558 20.433C6.55175 20.4485 6.45793 20.4485 6.3641 20.4641C6.37974 20.3706 6.41102 20.2772 6.42665 20.1837L6.44229 20.1214C6.4892 19.8878 6.55175 19.6386 6.6143 19.3582L6.64558 19.2336L6.52048 19.2492C5.26949 19.3582 3.94032 19.4361 2.64242 19.218C2.59551 19.218 2.56423 19.2025 2.51732 19.2025C2.50168 19.1557 2.47041 19.0623 2.45477 19.0155C2.50168 18.9844 2.53296 18.9532 2.57987 18.9221H2.59551C2.86134 18.704 3.15845 18.5015 3.43992 18.3302L3.7214 18.1589H3.39301C2.37658 18.1433 1.37579 17.9875 0.390643 17.7227C0.375006 17.6137 0.375006 17.5203 0.359369 17.4424C1.75109 17.8162 3.08026 17.9564 4.40944 17.8785Z" fill="#93430C"/>
    <path d="M4.92521 28.2836C4.78447 27.8787 2.73598 19.748 2.56397 19.0627C2.56397 19.0471 2.97054 19.0939 2.98618 19.1094C3.15819 19.7792 4.92521 27.8475 5.03467 28.2525C5.03467 28.2836 4.94084 28.3148 4.92521 28.2836Z" fill="#93430C"/>
    <path d="M12.9472 20.5889C12.9472 20.6979 12.9629 20.8069 12.9629 20.9004C13.0098 21.539 13.0567 22.1776 13.1036 22.8162C13.1974 24.0467 13.26 25.2772 13.2913 26.5077C13.2913 26.5389 13.2443 26.5544 13.2287 26.5233C13.0254 25.3239 12.8847 24.1246 12.7752 22.8941C12.7283 22.2866 12.6658 21.6636 12.6189 21.0561C12.6032 20.916 12.5876 20.7758 12.5719 20.62C12.7127 20.6356 12.8221 20.62 12.9472 20.5889Z" fill="#93430C"/>
    <path d="M7.86516 27.2245C7.5055 25.8227 7.22403 24.3741 6.94256 22.9411C6.80182 22.2714 6.48908 21.2745 6.36398 20.6047C6.36398 20.5892 6.73927 19.8104 6.81746 20.3555C6.8331 20.5113 6.86437 20.6515 6.89565 20.8072C7.02075 21.5237 7.14584 22.2246 7.28658 22.9411C7.53678 24.3585 7.80261 25.7915 7.95898 27.2245C7.94335 27.2712 7.8808 27.2712 7.86516 27.2245Z" fill="#93430C"/>
    <path d="M14.2608 40.8064C14.2451 40.6195 14.2295 40.4326 14.2139 40.2613C14.0575 38.2208 13.8698 36.1648 13.7604 34.1244C13.7135 33.3456 13.6978 32.5668 13.6665 31.788C13.6665 31.7569 13.6978 31.7569 13.7135 31.788C14.0106 34.7942 14.2764 37.8159 14.5422 40.8376C14.4484 40.822 14.3546 40.822 14.2608 40.8064Z" fill="#93430C"/>
    <path d="M10.3669 19.5146C10.4138 19.8729 10.4451 20.2467 10.4764 20.605C10.5858 21.7108 10.6171 22.8323 10.7266 23.9382C10.7266 23.9693 10.6953 23.9693 10.6953 23.9382C10.4451 22.5052 10.2418 21.0411 10.0698 19.5925C10.1793 19.577 10.2731 19.5458 10.3669 19.5146Z" fill="#93430C"/>
    <path d="M5.64462 30.8067C5.86354 31.5076 7.5211 37.8159 7.86512 39.0931C8.55316 39.4825 9.35066 39.6382 10.1013 39.6071C10.1325 39.7629 10.1325 39.7473 10.1794 39.8875C10.1638 39.903 10.1325 39.903 10.1013 39.903C9.39758 39.9342 8.66262 39.8096 7.99022 39.5136C7.84948 39.4513 7.70874 39.3735 7.56801 39.2956C7.52109 39.0931 7.50546 39.0619 7.45855 38.8595C7.19271 37.8003 5.67589 31.4453 5.5977 30.8067C5.5977 30.8067 5.64462 30.7912 5.64462 30.8067Z" fill="#93430C"/>
    <path d="M0.421681 17.2556C0.937713 17.1154 1.43811 16.9908 1.95414 16.8506C1.96978 16.8506 1.9385 16.8506 1.86031 16.9908C1.82904 17.0531 1.68831 17.2867 1.68831 17.2867C1.32865 17.3802 0.968987 17.4736 0.609328 17.5671C1.89159 23.0031 3.3615 28.3767 4.89396 33.7193C5.31617 35.2145 5.75401 36.6943 6.19186 38.1895C6.64534 38.4699 7.14573 38.6101 7.66177 38.6412C7.6774 38.7191 7.66177 38.6724 7.69304 38.7503C7.72431 38.8437 7.75559 38.9216 7.78687 38.9995C7.28647 38.9839 6.78608 38.8749 6.33259 38.6724C6.16058 38.5945 6.11367 38.5789 5.9573 38.4699C5.89475 38.2363 5.84784 38.1117 5.78529 37.878C4.17464 32.333 2.57963 26.7724 1.17227 21.134C0.890801 20.0125 0.624967 18.891 0.359132 17.754C0.327858 17.6138 0.296584 17.458 0.249672 17.3179C0.37477 17.2711 0.296582 17.2867 0.421681 17.2556Z" fill="#93430C"/>
    <path d="M8.69387 31.4301C8.95971 32.0999 9.06917 32.8631 9.22554 33.5796C9.41319 34.4518 9.55393 35.3396 9.7103 36.2119C9.92922 37.5047 10.1481 38.8131 10.3983 40.0903C11.1958 40.2149 11.9777 40.1837 12.7596 39.9968C12.9472 40.1059 13.1192 40.0747 13.3069 40.1837C13.2912 40.1837 13.2756 40.1993 13.26 40.1993C12.3374 40.4797 11.3991 40.542 10.4765 40.433C10.3671 40.4174 10.2732 40.4018 10.1638 40.3862C10.1325 40.2305 10.1169 40.1993 10.0856 40.028C9.8354 38.7819 9.63211 37.5358 9.44446 36.2898C9.30373 35.4331 9.16299 34.5608 9.02226 33.7042C8.89716 32.9565 8.72515 32.1933 8.6626 31.4301C8.63132 31.4145 8.67824 31.3989 8.69387 31.4301Z" fill="#93430C"/>
    <path d="M26.4577 30.8222C25.9417 32.3954 25.6602 33.6414 25.3162 35.199C25.0504 36.3984 24.6907 37.8158 24.3467 39.093C23.6587 39.4824 22.8612 39.6382 22.1106 39.607C22.0793 39.7628 22.0793 39.7472 22.0324 39.8874C22.048 39.903 22.0793 39.903 22.1106 39.903C22.8142 39.9341 23.5492 39.8095 24.2216 39.5136C24.3623 39.4513 24.5031 39.3734 24.6438 39.2955C24.6907 39.093 24.7064 39.0619 24.7533 38.8594C25.0191 37.8002 25.2537 36.7099 25.5039 35.6352C25.8635 34.0464 26.2857 32.4265 26.489 30.8066C26.489 30.8222 26.4577 30.8066 26.4577 30.8222Z" fill="#93430C"/>
    <path d="M31.8058 17.2556C31.2897 17.1154 30.7893 16.9908 30.2733 16.8506C30.2577 16.8506 30.289 16.8506 30.3671 16.9908C30.3984 17.0531 30.5391 17.2867 30.5391 17.2867C30.8988 17.3802 31.2585 17.4736 31.6181 17.5671C30.3359 23.0031 28.866 28.3767 27.3335 33.7193C26.9113 35.2145 26.4734 36.6943 26.0356 38.1895C25.5821 38.4699 25.0817 38.6101 24.5657 38.6412C24.5501 38.7191 24.5657 38.6724 24.5344 38.7503C24.5031 38.8437 24.4719 38.9216 24.4406 38.9995C24.941 38.9839 25.4414 38.8749 25.8949 38.6724C26.0669 38.5945 26.1138 38.5789 26.2702 38.4699C26.3327 38.2363 26.3796 38.1117 26.4422 37.878C28.0528 32.333 29.6478 26.7724 31.0552 21.134C31.3367 20.0125 31.6025 18.891 31.8683 17.754C31.8996 17.6138 31.9309 17.458 31.9778 17.3179C31.8527 17.2711 31.9309 17.2867 31.8058 17.2556Z" fill="#93430C"/>
    <path d="M23.5336 31.4301C23.2678 32.0999 23.1583 32.8631 23.002 33.5796C22.8143 34.4518 22.6736 35.3396 22.5172 36.2119C22.2983 37.5047 22.0794 38.8131 21.8292 40.0903C21.0317 40.2149 20.2498 40.1837 19.4679 39.9968C19.2803 40.1059 19.1083 40.0747 18.9206 40.1837C18.9363 40.1837 18.9519 40.1993 18.9675 40.1993C19.8901 40.4797 20.8284 40.542 21.751 40.433C21.8604 40.4174 21.9543 40.4018 22.0637 40.3862C22.095 40.2305 22.1106 40.1993 22.1419 40.028C22.3921 38.7819 22.5954 37.5358 22.7831 36.2898C22.9238 35.4331 23.0645 34.5608 23.2053 33.7042C23.3304 32.9565 23.5024 32.1933 23.5649 31.4301C23.5962 31.4145 23.5493 31.3989 23.5336 31.4301Z" fill="#93430C"/>
    <path d="M12.2121 35.9317C12.3372 36.8662 12.4779 37.7852 12.603 38.7198C12.6499 39.0936 12.6968 39.4674 12.7594 39.8412C13.3692 40.0905 13.9634 40.3864 14.542 40.7135C15.0581 40.5577 15.5428 40.3552 16.0276 40.0905C16.0432 40.0749 16.0588 40.0749 16.0745 40.0749H16.0901H16.1058C16.1214 40.0749 16.1214 40.0749 16.137 40.0749H16.1527C16.1683 40.0749 16.1839 40.0905 16.1996 40.0905C16.6843 40.3552 17.2629 40.5733 17.7789 40.7291C18.3419 40.4331 18.9048 40.1839 19.4521 39.9347C19.4991 39.5609 19.5616 39.0936 19.6085 38.7042C19.7336 37.7696 19.8744 36.8507 19.9995 35.9161C19.9995 35.8694 20.0776 35.8694 20.0776 35.9317C20.062 36.8818 19.9369 37.8475 19.8431 38.7977C19.8118 39.1092 19.7805 39.4207 19.7493 39.7166C19.7336 39.888 19.7023 39.9347 19.6867 40.106C19.5929 40.1528 19.4991 40.1995 19.3896 40.2462C19.0143 40.4175 18.5921 40.62 18.2012 40.8381C18.0448 40.916 17.8884 41.0094 17.7477 41.0873C17.56 41.025 17.3724 40.9783 17.1847 40.9004C16.8251 40.7602 16.4654 40.6045 16.1058 40.4175C15.7617 40.6045 15.4021 40.7602 15.0424 40.8848C14.8704 40.9471 14.714 41.0094 14.542 41.0562C14.37 40.9627 14.198 40.8537 14.0416 40.7602C13.6351 40.5422 13.2285 40.3397 12.8063 40.1528C12.7125 40.106 12.6186 40.0749 12.5248 40.0282C12.5092 39.888 12.4935 39.888 12.4779 39.7478C12.4466 39.4363 12.4153 39.1247 12.3841 38.8132C12.2902 37.8631 12.1651 36.913 12.1495 35.9473C12.1339 35.9005 12.2121 35.885 12.2121 35.9317Z" fill="#93430C"/>
    <path d="M6.33255 30.9319C6.77039 32.4739 7.25515 34.0315 7.53662 35.6046C7.53662 35.6358 7.50535 35.6358 7.48971 35.6202C6.97368 34.1093 6.64529 32.505 6.28563 30.9474C6.27 30.9007 6.31691 30.9007 6.33255 30.9319Z" fill="#A0501A"/>
    <path d="M3.67419 20.0436C3.89311 20.7133 4.04948 21.4298 4.23713 22.1152C4.42478 22.8005 4.62806 23.4858 4.7688 24.1867C4.7688 24.2179 4.73752 24.2179 4.72189 24.2023C4.45605 23.5326 4.28404 22.8316 4.09639 22.1463C3.90874 21.461 3.7211 20.7601 3.62727 20.0591C3.64291 20.0436 3.67419 20.028 3.67419 20.0436Z" fill="#A0501A"/>
    <path d="M9.1787 20.4804C8.75649 20.6673 8.30301 20.7919 7.84953 20.9009C7.50551 20.9788 7.59933 21.1501 7.64624 21.4461C7.69315 21.7109 7.70879 21.9912 7.74007 22.256C7.64624 21.8199 7.53678 21.3838 7.45859 20.9321C7.45859 20.9009 7.4586 20.8698 7.50551 20.8698C8.06845 20.7452 8.61576 20.5894 9.1787 20.4492C9.19434 20.4492 9.19434 20.4804 9.1787 20.4804Z" fill="#A0501A"/>
    <path d="M12.2436 21.4607C11.7589 21.3205 11.3367 21.118 10.9301 20.8065C10.9614 20.7909 10.9927 20.7753 11.0239 20.7598C11.0708 21.118 11.1334 21.4918 11.149 21.8501C11.149 21.8656 11.1334 21.8656 11.1334 21.8501C11.0396 21.5074 10.977 21.1336 10.9301 20.7909C10.9145 20.7286 10.977 20.6975 11.0239 20.7442C11.3836 21.0245 11.8058 21.2738 12.2436 21.4607C12.2593 21.4762 12.2593 21.4607 12.2436 21.4607Z" fill="#A0501A"/>
    <path d="M5.01903 19.8726C5.25359 19.8103 5.50379 19.8414 5.73835 19.8103C6.01982 19.7791 6.28566 19.7479 6.56713 19.7168C6.58277 19.7168 6.58277 19.7324 6.56713 19.7479C6.12928 19.9037 5.47252 20.0283 5.01903 19.8726Z" fill="#A0501A"/>
    <path d="M1.23489 18.377C1.82911 18.5794 2.40769 18.6262 3.03318 18.6573C3.06446 18.6573 3.06446 18.6885 3.03318 18.704C2.40769 18.8442 1.7822 18.704 1.21926 18.4081C1.20362 18.4081 1.21925 18.377 1.23489 18.377Z" fill="#A0501A"/>
    <path d="M13.7604 21.2904C14.4172 21.119 14.9957 20.9321 15.4961 20.4493C15.543 20.4025 15.6056 20.4337 15.6056 20.496C15.6212 21.3994 15.7151 22.3651 15.59 23.2685C15.59 23.2841 15.5743 23.2841 15.5743 23.2685C15.4179 22.3807 15.4961 21.3994 15.4649 20.496C15.4961 20.5116 15.543 20.5271 15.5743 20.5427C15.1052 20.9944 14.4172 21.3838 13.7448 21.3215C13.7604 21.3059 13.7604 21.2904 13.7604 21.2904Z" fill="#A0501A"/>
    <path d="M18.4829 21.4767C17.8418 21.3832 17.2632 21.0873 16.7628 20.6823C16.7941 20.6667 16.8254 20.6512 16.8566 20.6356C16.9036 21.1029 16.9036 21.5857 16.7941 22.0374C16.7941 22.053 16.7628 22.053 16.7628 22.0374C16.7628 21.5701 16.7785 21.1029 16.7472 20.6356C16.7472 20.5888 16.8097 20.5733 16.841 20.5888C17.3258 20.9782 17.8887 21.243 18.4829 21.4455C18.5142 21.4611 18.4986 21.4767 18.4829 21.4767Z" fill="#A0501A"/>
    <path d="M20.2811 21.2743C20.6564 21.1029 21.0004 20.9783 21.3288 20.7291C21.3601 20.6979 21.4226 20.7135 21.4226 20.7602C21.3757 21.2431 21.3131 21.7104 21.2506 22.1777H21.235C21.2506 21.7104 21.2819 21.2431 21.3131 20.7602C21.3444 20.7758 21.3757 20.7914 21.407 20.7914C21.0942 21.0406 20.7033 21.2898 20.2811 21.2898C20.2654 21.3054 20.2654 21.2898 20.2811 21.2743Z" fill="#A0501A"/>
    <path d="M22.6737 20.6829C23.3305 20.8231 23.9247 20.9944 24.5971 21.0567C24.6284 21.0567 24.6597 21.0878 24.644 21.1346C24.5346 21.6486 24.4407 22.1626 24.3157 22.6766C24.3157 22.6922 24.3 22.6922 24.3 22.6766C24.3313 22.4118 24.3782 22.147 24.4095 21.8822C24.4407 21.7109 24.5033 21.524 24.5033 21.3682C24.5033 21.1501 24.4877 21.1813 24.2687 21.1501C23.7214 21.0878 23.1429 20.9788 22.6581 20.714C22.6581 20.6829 22.6737 20.6673 22.6737 20.6829Z" fill="#A0501A"/>
    <path d="M26.5829 19.9813C27.1927 20.0281 27.7557 20.0125 28.3499 19.9034C28.3968 19.8879 28.4437 19.9346 28.4281 19.9813C28.2561 20.5265 28.1153 21.0872 27.9277 21.6324C27.9277 21.6479 27.8964 21.6479 27.8964 21.6324C27.959 21.0561 28.131 20.5109 28.303 19.9502C28.3343 19.9813 28.3499 19.9969 28.3812 20.0281C27.8026 20.1994 27.1615 20.215 26.5829 20.0436C26.5516 20.0281 26.5516 19.9813 26.5829 19.9813Z" fill="#A0501A"/>
    <path d="M29.898 18.5488C30.2577 18.5955 30.6173 18.5799 30.9614 18.4865C31.0083 18.4709 31.0396 18.5176 31.0396 18.5643C30.9145 19.1251 30.7737 19.7014 30.5235 20.231C30.5079 20.2465 30.4922 20.231 30.4922 20.2154C30.6173 19.6546 30.805 19.0939 30.9301 18.5332C30.9614 18.5643 30.977 18.5799 31.0083 18.6111C30.633 18.7201 30.289 18.7201 29.9137 18.5955C29.8824 18.5643 29.8824 18.5488 29.898 18.5488Z" fill="#A0501A"/>
    <path d="M22.5798 32.3798C22.4547 33.439 22.2671 34.4826 22.0951 35.5262C21.9231 36.6009 21.7823 37.7068 21.5165 38.766C21.5165 38.7815 21.5009 38.7815 21.5009 38.766C21.5947 37.7068 21.8136 36.6632 21.9856 35.6196C22.1733 34.5293 22.3296 33.439 22.5798 32.3798C22.5798 32.3643 22.5642 32.3643 22.5798 32.3798Z" fill="#A0501A"/>
    <path d="M25.3005 32.8154C25.1442 33.7967 24.9252 34.778 24.7063 35.7592C24.503 36.7249 24.3467 37.7529 24.0339 38.6875C24.0339 38.7031 24.0183 38.7031 24.0183 38.6875C24.1121 37.7218 24.3936 36.7561 24.5969 35.806C24.8158 34.8091 25.0034 33.7967 25.2849 32.8154C25.2849 32.7998 25.3005 32.7998 25.3005 32.8154Z" fill="#A0501A"/>
    <path d="M14.5578 35.1991C14.7455 36.6789 14.8706 38.1741 14.9175 39.6694C14.9175 39.685 14.9018 39.685 14.9018 39.6694C14.6986 38.1897 14.5735 36.6944 14.4953 35.1991C14.5109 35.168 14.5578 35.168 14.5578 35.1991Z" fill="#A0501A"/>
    <path d="M10.1482 35.6816C10.3671 36.476 10.4766 37.3171 10.586 38.1271C10.6329 38.4697 10.6799 38.828 10.7111 39.1706C10.7424 39.451 10.7111 39.5756 10.9926 39.6223C11.2115 39.6691 11.4617 39.6379 11.6963 39.6691C11.7119 39.6691 11.7119 39.7002 11.6963 39.7002C11.3679 39.7002 11.0395 39.7002 10.7111 39.7002C10.6955 39.7002 10.6799 39.6846 10.6642 39.6691C10.4766 38.3451 10.242 37.0212 10.1013 35.6816C10.1169 35.6816 10.1325 35.6816 10.1482 35.6816Z" fill="#A0501A"/>
    <path d="M2.06362 21.6322C2.5171 22.8316 2.84549 24.0932 3.17387 25.3393C3.50226 26.5853 3.83064 27.8314 4.04956 29.1086C4.04956 29.1242 4.03392 29.1398 4.01829 29.1086C3.67427 27.8626 3.39279 26.6165 3.06441 25.3704C2.73603 24.1244 2.32945 22.8939 2.01671 21.6478C2.00107 21.6166 2.04798 21.6011 2.06362 21.6322Z" fill="#A0501A"/>
    <path d="M4.22155 29.7787C4.75322 31.3986 5.25361 33.0652 5.62891 34.7474C5.62891 34.763 5.61327 34.7786 5.59763 34.7474C5.03469 33.1431 4.5812 31.4453 4.17463 29.7943C4.17463 29.7631 4.22155 29.7475 4.22155 29.7787Z" fill="#A0501A"/>
    <path d="M3.76815 16.0249C3.76815 16.0249 3.89325 15.4642 4.15908 15.1215C4.42492 14.7789 4.59693 14.6075 4.59693 14.6075C4.59693 14.6075 3.94016 13.1746 5.0035 11.4612C6.06684 9.73229 7.72439 9.31174 7.72439 9.31174C7.72439 9.31174 7.19273 8.1747 8.30298 6.85075C9.41323 5.5268 13.432 4.76359 13.432 4.76359C13.432 4.76359 14.511 4.03152 14.0732 3.22157C13.6353 2.41163 12.4625 2.70757 12.4625 2.70757C12.4625 2.70757 13.4789 -0.687971 17.3883 0.402341C21.2976 1.49265 22.0638 4.26516 22.0638 4.26516C22.0638 4.26516 22.4078 5.37105 22.2671 6.10311C22.1264 6.83518 22.0638 7.08439 22.0638 7.08439C22.0638 7.08439 24.6127 6.92863 25.5197 7.90991C26.4423 8.90677 26.411 10.589 26.411 10.589C26.411 10.589 28.1468 11.1808 28.4282 13.268C28.4282 13.268 28.3657 15.6979 26.5674 16.9595C24.7691 18.2211 21.9075 18.4704 21.9075 18.4704C21.9075 18.4704 19.3742 18.704 16.7784 18.6261C16.0122 18.6105 15.2303 18.5638 14.5266 18.4704C14.5266 18.4704 13.432 19.327 11.4617 18.8598C9.49141 18.3925 8.55317 17.0841 8.55317 17.0841L8.08405 16.9283C8.08405 16.9283 6.55159 17.7383 5.08168 17.4423C3.59614 17.1464 3.76815 16.0249 3.76815 16.0249ZM17.4977 16.7726C17.4977 16.7726 16.1529 17.6137 15.1052 18.1433C15.5587 18.2211 17.4977 16.7726 17.4977 16.7726Z" fill="#F37022"/>
    <path d="M18.5923 16.0568C18.5923 16.0568 19.9059 15.3248 19.6713 13.0507C19.468 11.0258 17.7166 10.6208 17.7166 10.6208C17.7166 10.6208 20.2968 7.84834 18.2483 3.76746C17.1693 1.63357 13.6666 1.82048 12.8222 1.91393C13.4007 0.994955 14.7143 -0.360146 17.3726 0.387496C21.2663 1.47781 22.0482 4.25031 22.0482 4.25031C22.0482 4.25031 22.3922 5.3562 22.2515 6.08827C22.1107 6.82033 22.0482 7.06955 22.0482 7.06955C22.0482 7.06955 24.5971 6.91379 25.504 7.89507C26.4423 8.9075 26.411 10.5897 26.411 10.5897C26.411 10.5897 28.1468 11.1816 28.4282 13.2687C28.4282 13.2687 28.3657 15.6986 26.5674 16.9602C24.7691 18.2219 21.9075 18.4711 21.9075 18.4711C21.9075 18.4711 21.2663 18.5334 20.3124 18.5801C20.0622 16.7733 18.5923 16.0568 18.5923 16.0568Z" fill="url(#paint6_linear_402_4719)"/>
    <path d="M4.3465 15.48C4.48723 14.7946 5.28474 14.2183 5.28474 14.2183C5.28474 14.2183 4.58106 12.8165 5.86332 11.2589C7.03612 9.84152 8.39656 9.0783 8.39656 9.0783C8.39656 9.0783 7.95872 7.64532 9.41299 6.71077C11.2895 5.51143 12.8376 5.80737 13.9322 4.38996C14.1198 4.15633 14.5264 4.00057 14.0886 3.19062C13.6507 2.38068 12.4779 2.67662 12.4779 2.67662C12.4779 2.67662 15.1675 1.3994 16.4811 3.79808C16.4811 3.79808 17.1378 4.73263 16.4811 5.72949C15.8087 6.72634 14.933 6.99113 14.933 6.99113C14.933 6.99113 17.7321 6.57059 17.56 4.38996V3.7825C17.56 3.7825 18.4983 4.57687 18.123 6.25907C18.123 6.25907 18.6703 5.94755 18.7798 5.51143C18.7798 5.51143 18.9049 7.34938 17.7164 8.14375C16.528 8.93812 12.3215 9.73249 12.0401 10.6826C11.7586 11.6327 12.4779 11.991 12.8063 11.9598C13.1503 11.9131 16.6374 11.2745 17.9979 10.449C19.3583 9.62346 19.2489 9.71691 19.2489 9.71691C19.2489 9.71691 18.6859 11.1655 17.7008 11.7106C16.7156 12.2558 14.542 12.9411 14.4639 13.9068C14.3857 14.8725 16.0119 15.5579 17.3568 15.3398C17.3568 15.3398 14.9955 17.4581 15.0112 18.0344C15.0268 18.6107 17.4819 16.7728 17.4819 16.7728L19.1081 15.8071C19.1081 15.8071 19.0769 16.5703 18.3263 17.5048C17.5757 18.4238 16.7469 18.6263 16.7469 18.6263C15.9807 18.6107 15.1988 18.564 14.4951 18.4706C14.4951 18.4706 13.4005 19.3272 11.4302 18.8599C9.4599 18.3927 8.61549 17.2868 8.61549 17.2868L7.95872 17.4114C7.95872 17.4114 7.31759 17.645 5.84768 17.3491C5.09709 17.1933 4.15885 16.4457 4.3465 15.48ZM9.7101 17.6606C11.1331 18.5796 13.166 18.8288 14.6359 17.8475C14.6515 17.8475 14.6359 17.8164 14.6202 17.8319C13.0721 18.3459 11.4302 18.3771 9.99157 17.5516C10.0698 17.5048 10.1479 17.4425 10.2261 17.3647C10.2574 17.3335 10.2261 17.2868 10.1792 17.2868C10.0228 17.3179 9.88211 17.3647 9.72574 17.427C9.63191 17.4893 9.61628 17.5983 9.7101 17.6606ZM8.75622 8.70448C8.77186 8.73563 8.81877 8.72006 8.81877 8.6889C8.83441 8.03472 9.17843 7.61417 9.7101 7.2715C10.1949 6.97556 10.7109 6.69519 11.2113 6.46155C11.2426 6.44598 11.2269 6.39925 11.18 6.39925C10.492 6.63289 9.78829 6.8821 9.22534 7.31823C8.83441 7.64532 8.47475 8.20605 8.75622 8.70448ZM7.75544 10.2153C7.08303 10.4334 6.53572 10.9318 6.14479 11.5081C5.78513 12.0221 5.36292 12.8477 5.56621 13.4863C5.58185 13.5174 5.62876 13.533 5.6444 13.5018C5.76949 13.2371 5.80077 12.9255 5.87896 12.6452C5.97278 12.3181 6.11351 12.0066 6.28552 11.7262C6.66082 11.1187 7.17685 10.667 7.77107 10.2776C7.78671 10.2465 7.77107 10.1998 7.75544 10.2153ZM5.08145 16.3211C5.69131 17.2089 7.05176 17.2556 7.99 16.9441C8.02127 16.9285 8.02127 16.8818 7.97436 16.8818C7.16122 16.8195 6.34808 17.0064 5.6444 16.4924C4.94072 15.994 4.8938 14.7946 5.87896 14.6077C5.91023 14.6077 5.91023 14.5454 5.86332 14.5454C4.8938 14.4676 4.62797 15.6513 5.08145 16.3211Z" fill="#5F308C"/>
    <path d="M12.3997 2.62998C12.3997 2.62998 12.4154 2.77016 12.4936 2.67671C13.0565 2.1004 15.4959 -0.220406 19.1238 1.86676C22.8767 4.01623 21.2661 7.94135 21.2661 7.94135C21.2661 7.94135 24.2997 7.56753 25.3318 8.96936C26.3482 10.3712 25.8166 12.1468 25.8166 12.1468C25.8166 12.1468 27.0988 11.1033 27.6774 13.0814C28.256 15.0595 26.5672 16.9598 26.5672 16.9598C26.5672 16.9598 28.6938 15.4022 28.4749 13.3462C28.256 11.3057 26.5984 10.5269 26.5984 10.5269C26.5984 10.5269 26.6766 8.78245 25.3631 7.89463C24.0495 7.0068 22.0636 7.0691 22.0636 7.0691C22.0636 7.0691 23.2364 3.73587 20.0777 1.44621C16.9189 -0.843441 14.6202 0.464933 14.6202 0.464933C14.6202 0.464933 12.9783 0.994513 12.3997 2.62998Z" fill="#FFB284"/>
    <path d="M10.5549 15.3092C10.5861 15.2781 10.6174 15.2625 10.6487 15.2625C10.6956 15.2625 10.7425 15.2469 10.7894 15.2469C10.8832 15.2314 10.9614 15.2314 11.0553 15.2314C11.2273 15.2158 11.3993 15.2002 11.5869 15.2002C11.9309 15.1846 12.2906 15.1691 12.6346 15.1223C12.8066 15.1068 12.9786 15.0912 13.1663 15.06C13.2601 15.0445 13.3383 15.0445 13.4321 15.0289C13.4478 15.0289 13.479 15.0289 13.4947 15.0133C13.4634 15.0133 13.5103 15.0133 13.5103 15.0133C13.5729 14.9977 13.6198 14.9977 13.6823 14.9977C13.698 14.9977 13.7136 14.9977 13.7292 14.9977C13.698 14.9977 13.7292 14.9977 13.7292 14.9977C13.7449 14.9977 13.7605 14.9977 13.7605 14.9977C13.8074 14.9977 13.8387 14.9822 13.8856 14.9822C13.9794 14.9666 14.0576 14.951 14.1514 14.9354C14.3235 14.9043 14.4955 14.8731 14.6675 14.842C15.0584 14.7641 15.4493 14.6862 15.8246 14.5928C15.8872 14.5772 15.9654 14.5928 16.0123 14.6395C16.0279 14.6706 16.0592 14.6862 16.0748 14.7329C16.0905 14.7641 16.0748 14.8108 16.0748 14.842C16.0592 14.9043 15.9967 14.9666 15.9341 14.9822C15.2304 15.1535 14.5267 15.2625 13.8231 15.356C13.1194 15.4494 12.4157 15.4806 11.712 15.4806C11.5087 15.4806 11.3055 15.4806 11.1178 15.465C11.024 15.465 10.9145 15.4494 10.8207 15.4339C10.7738 15.4339 10.7269 15.4183 10.6643 15.4183C10.6487 15.4183 10.6174 15.4183 10.5861 15.4027C10.5705 15.3871 10.5549 15.3715 10.5392 15.356C10.5392 15.356 10.5392 15.3248 10.5549 15.3092Z" fill="#FFB284"/>
    <path d="M11.7276 14.7955C11.7901 14.7799 11.8527 14.7799 11.9152 14.7643C11.9778 14.7643 12.0403 14.7487 12.1185 14.7487C12.2436 14.7332 12.3687 14.7176 12.4782 14.702C12.7284 14.6709 12.9942 14.6397 13.2444 14.593C13.7448 14.5151 14.2608 14.4217 14.7456 14.297C14.8863 14.2659 15.0271 14.2347 15.1678 14.188C15.3085 14.1569 15.5118 14.079 15.6369 14.1724C15.6838 14.2036 15.6995 14.2659 15.6838 14.3282C15.6213 14.4684 15.4336 14.4995 15.3085 14.5307C15.1834 14.5618 15.0583 14.593 14.9332 14.6241C14.683 14.6864 14.4172 14.7332 14.167 14.7643C13.9012 14.8111 13.6353 14.8422 13.3695 14.8734C13.1193 14.9045 12.8535 14.9201 12.6033 14.9201C12.4625 14.9201 12.3218 14.9201 12.1654 14.9201C12.0872 14.9201 12.0247 14.9201 11.9465 14.9045C11.8683 14.9045 11.7901 14.9045 11.7119 14.8889C11.6963 14.8734 11.6963 14.8111 11.7276 14.7955Z" fill="#FFB284"/>
    <path d="M9.88216 10.5745C9.92907 10.5434 9.96035 10.5122 10.0073 10.4811C10.0542 10.4499 10.1011 10.4032 10.148 10.372C10.2418 10.3253 10.3356 10.263 10.4451 10.2163C10.6484 10.1228 10.8673 10.0294 11.0706 9.9515C11.4772 9.78016 11.8837 9.63998 12.3059 9.51537C13.1347 9.25058 13.9948 9.0481 14.8705 8.90791C15.3709 8.83003 15.8713 8.75216 16.3717 8.70543C16.4811 8.68985 16.5906 8.81446 16.5906 8.92349C16.5906 9.0481 16.4968 9.12598 16.3717 9.14155C16.1527 9.15713 15.9338 9.18828 15.7149 9.21943C15.668 9.21943 15.6054 9.23501 15.5585 9.23501C15.5585 9.23501 15.6054 9.23501 15.5585 9.23501C15.5429 9.23501 15.5429 9.23501 15.5272 9.23501C15.496 9.23501 15.4647 9.25058 15.4334 9.25058C15.324 9.26616 15.2145 9.28173 15.1207 9.29731C14.6985 9.35961 14.2606 9.45307 13.8384 9.54652C12.9784 9.73343 12.1496 9.96707 11.3208 10.2474C11.0862 10.3253 10.8673 10.4032 10.6328 10.4811C10.5233 10.5278 10.3982 10.559 10.2887 10.5901C10.2575 10.6057 10.2262 10.6057 10.1949 10.6213C10.1636 10.6213 10.1324 10.6213 10.1011 10.6368C10.0385 10.6368 9.97598 10.6524 9.91343 10.668C9.86652 10.668 9.85088 10.6057 9.88216 10.5745Z" fill="#FFB284"/>
    <path d="M10.7579 10.9636C10.8517 10.8857 10.9612 10.7923 11.0707 10.73C11.1801 10.6677 11.2896 10.5898 11.3991 10.5275C11.6336 10.4029 11.8525 10.2783 12.1027 10.1692C12.5875 9.95118 13.0879 9.77985 13.5883 9.65524C13.729 9.62409 13.8698 9.59294 14.0105 9.56178C14.0887 9.54621 14.1512 9.53063 14.2294 9.51506C14.3232 9.49948 14.4171 9.4839 14.5109 9.51506C14.5734 9.53063 14.6203 9.57736 14.636 9.63966C14.6516 9.70197 14.636 9.77985 14.5891 9.811C14.5422 9.84215 14.5109 9.8733 14.4483 9.88888C14.4171 9.90445 14.3858 9.90445 14.3701 9.90445C14.3076 9.92003 14.2294 9.92003 14.1669 9.9356C14.0418 9.95118 13.9167 9.98233 13.7916 10.0135C13.5414 10.0602 13.2912 10.1225 13.041 10.2004C12.5562 10.3406 12.0715 10.5119 11.6023 10.6988C11.4772 10.7455 11.3365 10.8079 11.2114 10.8702C11.0707 10.9325 10.9456 10.9792 10.8048 11.0259C10.7579 11.0415 10.7266 10.9792 10.7579 10.9636Z" fill="#FFB284"/>
    <path d="M21.923 7.28763C21.9542 7.17859 21.9855 7.06956 22.0011 6.96053C23.8151 6.86708 25.9417 7.45896 26.5047 9.39037C26.7705 10.3093 26.536 11.3218 26.0356 12.1161C25.4883 12.9728 24.6439 13.5336 23.7682 13.9853C23.7212 14.0164 23.6743 13.9385 23.7212 13.9074C25.2068 13.0195 26.8018 11.3685 26.2389 9.46825C25.7072 7.63029 23.6274 7.14744 21.923 7.28763Z" fill="#2D0F4A"/>
    <path d="M27.787 15.4647C28.1623 14.8416 28.3656 14.1251 28.3343 13.3931C28.2874 12.147 27.5055 11.119 26.364 10.7919C26.3953 10.6829 26.4109 10.5582 26.4265 10.4492C27.5993 10.7452 28.4594 11.8978 28.5845 13.0971C28.7409 14.5768 27.8964 16.3681 26.5047 17.0067C26.4891 17.0067 26.4734 16.9911 26.4891 16.9911C26.9426 16.4771 27.4273 16.041 27.787 15.4647Z" fill="#2D0F4A"/>
    <path d="M21.4069 7.94167C21.923 7.02269 22.2201 6.07257 22.1106 5.01341C21.9855 3.95425 21.5008 2.98854 20.7658 2.22532C19.3897 0.792344 17.2161 -0.0643292 15.2302 0.371795C14.1512 0.621009 13.385 1.32192 12.6657 2.13187C12.6188 2.19417 12.5093 2.11629 12.5562 2.05399C14.9956 -1.99574 21.6102 0.511978 22.2826 4.65516C22.4703 5.77662 22.2826 7.13172 21.4382 7.95725C21.4226 7.97282 21.4069 7.95725 21.4069 7.94167Z" fill="#2D0F4A"/>
    <path d="M12.4467 2.67715C13.1191 2.38121 14.2137 2.67715 14.2919 3.51825C14.3232 3.89207 14.1668 4.31262 13.9166 4.59298C13.6195 4.9045 13.1504 4.99795 12.7595 5.10699C10.7735 5.63657 8.38102 5.99481 7.67734 8.23774C7.6617 8.28446 7.59915 8.26889 7.59915 8.22216C7.63043 6.61785 9.44436 5.76117 10.7579 5.3562C11.6179 5.09141 12.5562 4.95123 13.4006 4.60856C13.8541 4.42165 14.245 3.76746 13.9948 3.28461C13.6977 2.69272 13.0253 2.72388 12.4624 2.7083C12.4311 2.72388 12.4155 2.69272 12.4467 2.67715Z" fill="#2D0F4A"/>
    <path d="M4.72182 14.4995C4.64364 14.5618 4.58109 14.6397 4.51854 14.7176C3.61157 12.7861 4.89384 10.7457 6.58267 9.76442C7.58346 9.17254 8.74062 8.8766 9.86651 8.67411C11.1331 8.44047 12.4154 8.23799 13.682 8.14453C13.682 8.14453 13.6977 8.16011 13.682 8.16011C11.5397 8.73641 9.17846 8.78314 7.16125 9.78C6.28556 10.2005 5.47242 10.8236 4.97202 11.6803C4.48726 12.5058 4.34653 13.5805 4.72182 14.4995Z" fill="#2D0F4A"/>
    <path d="M14.3701 11.6956C13.2442 12.0071 12.0871 12.2407 10.9455 12.5211C9.83528 12.8014 8.72503 13.0818 7.63041 13.4089C6.62962 13.7048 5.6132 14.0631 4.80006 14.7328C4.39348 15.0599 3.94 15.4961 3.87745 16.0412C3.8149 16.4773 4.01819 16.8512 4.36221 17.1315C4.39348 17.1627 4.36221 17.2094 4.3153 17.2094C3.43961 16.9914 3.50216 15.8699 3.92437 15.278C4.5655 14.3746 5.62883 13.845 6.62962 13.4712C7.84934 13.0195 9.11596 12.7236 10.3826 12.4276C11.6961 12.1161 13.0409 11.8046 14.3857 11.6644C14.3857 11.6488 14.3857 11.68 14.3701 11.6956Z" fill="#2D0F4A"/>
    <path d="M21.751 15.0439C21.3131 15.2775 20.8284 15.3866 20.3592 15.5579C19.8588 15.7292 19.3585 15.9161 18.8737 16.1186C17.9355 16.508 17.1692 17.0843 16.3404 17.6451C15.4648 18.237 14.5422 18.7354 13.4945 18.9223C12.5562 19.0936 11.3052 19.1248 10.4765 18.5952C10.4608 18.5796 10.4608 18.5485 10.4921 18.5485C11.0238 18.5952 11.5398 18.7354 12.0871 18.7665C12.6344 18.7977 13.1973 18.7354 13.729 18.6108C14.808 18.3616 15.7306 17.7697 16.6219 17.1466C17.3569 16.6326 18.0762 16.1809 18.9206 15.8538C19.4054 15.6669 19.8901 15.5112 20.3749 15.371C20.8284 15.2308 21.2818 15.075 21.751 15.0283C21.7666 15.0283 21.7666 15.0439 21.751 15.0439Z" fill="#2D0F4A"/>
    <path d="M5.44122 17.4585C5.94161 17.3806 6.48892 17.4118 7.00495 17.3651C7.56789 17.3183 8.1152 17.2249 8.66251 17.1159C9.77276 16.8666 10.7892 16.4461 11.8212 16.01C11.8525 15.9944 11.8838 16.0411 11.8525 16.0567C10.9612 16.7265 9.80403 17.1003 8.72506 17.3339C8.19339 17.443 7.66172 17.5208 7.13005 17.552C6.59838 17.5831 5.97289 17.6454 5.44122 17.5208C5.40994 17.5053 5.40994 17.4585 5.44122 17.4585Z" fill="#2D0F4A"/>
    <path d="M20.4531 8.75185C19.9996 9.29701 19.3898 9.74871 18.7956 10.1225C18.2013 10.4964 17.5289 10.8702 16.8253 10.9792C16.794 10.9792 16.7784 10.9481 16.8096 10.9325C17.4351 10.5898 18.1075 10.3406 18.7174 9.96677C19.3272 9.60853 19.8745 9.15683 20.4531 8.7207C20.4375 8.7207 20.4531 8.73628 20.4531 8.75185Z" fill="#2D0F4A"/>
    <path d="M14.7296 2.19465C15.8868 1.86755 17.0596 2.70865 17.4818 3.75223C17.9978 5.01388 17.5913 6.35341 16.6374 7.27238C16.6217 7.28796 16.6061 7.27238 16.6217 7.25681C17.3254 6.35341 17.7164 5.13849 17.3567 4.01702C16.9814 2.83326 15.9337 2.2258 14.7296 2.24137C14.714 2.24137 14.714 2.21022 14.7296 2.19465Z" fill="#2D0F4A"/>
    <path d="M18.686 4.28134C19.2333 6.22832 17.2005 7.64573 15.4491 7.75476C15.4178 7.75476 15.4022 7.70803 15.4335 7.69245C16.2622 7.39651 17.1067 7.2096 17.7947 6.60214C18.4202 6.05699 18.858 5.12243 18.6704 4.28134C18.6548 4.28134 18.686 4.26576 18.686 4.28134Z" fill="#2D0F4A"/>
    <path d="M26.3796 16.4309C26.708 15.7767 27.0051 15.1225 27.0676 14.3905C27.1302 13.6428 27.0363 12.7238 26.2232 12.459C26.1763 12.4435 26.1763 12.3656 26.2232 12.35C27.1302 12.0229 27.396 13.378 27.396 13.9855C27.396 14.8733 27.0989 15.839 26.4108 16.4465C26.3952 16.462 26.3639 16.4465 26.3796 16.4309Z" fill="#FFB284"/>
    <path d="M25.2848 12.0535C25.4099 11.0878 25.2848 10.1377 24.5968 9.39005C24.2841 9.04738 23.8775 8.78259 23.4553 8.61126C23.0174 8.42434 22.5796 8.43992 22.1105 8.37762C22.0636 8.37762 22.0792 8.31531 22.1105 8.29974C22.564 8.11283 23.1894 8.22186 23.6429 8.37762C24.1277 8.54895 24.5655 8.86047 24.8939 9.24987C25.5194 9.99751 25.7852 11.1657 25.3787 12.0847C25.3474 12.1158 25.2692 12.1003 25.2848 12.0535Z" fill="#FFB284"/>
    <path d="M20.9847 7.30321C21.0785 5.87023 20.8283 4.4061 19.8744 3.28463C19.4366 2.77063 18.9049 2.35008 18.3107 2.05414C17.6696 1.72705 16.9815 1.60244 16.2935 1.46226C16.2622 1.46226 16.2622 1.41553 16.2935 1.41553C17.7009 1.19747 19.249 2.06971 20.1246 3.1133C21.0629 4.25034 21.5476 5.8858 21.0629 7.31878C21.0472 7.34994 20.9847 7.34994 20.9847 7.30321Z" fill="#FFB284"/>
    <path d="M18.1387 1.80466C17.5289 1.68005 16.8408 2.50557 17.2005 2.92612C17.5601 3.34667 19.0613 3.62704 19.1082 2.92612C19.1708 2.22521 18.4515 1.86696 18.1387 1.80466Z" fill="#FFB284"/>
    <path d="M23.3929 8.53294C22.7205 8.39276 21.9543 9.31174 22.3608 9.77901C22.7518 10.2463 24.4093 10.5578 24.4719 9.77901C24.5344 9.00022 23.7369 8.61082 23.3929 8.53294Z" fill="#FFB284"/>
    <path d="M24.5814 10.5275C24.2842 10.3094 23.7682 10.7767 24.0184 11.1349C24.2686 11.5087 24.8316 11.5399 24.8628 11.1349C24.8785 10.948 24.7846 10.6832 24.5814 10.5275Z" fill="#FFB284"/>
    <path d="M19.4522 3.4093C19.1551 3.19124 18.6391 3.65851 18.8893 4.01676C19.1395 4.39058 19.7024 4.42173 19.7337 4.01676C19.7493 3.82985 19.6555 3.56506 19.4522 3.4093Z" fill="#FFB284"/>
    <path d="M20.8283 6.32193C20.625 6.1506 20.281 6.50884 20.453 6.78921C20.625 7.06957 21.0003 7.10073 21.016 6.78921C21.0316 6.64903 20.9691 6.44654 20.8283 6.32193Z" fill="#FFB284"/>
    <path d="M25.457 13.4088C25.2537 13.2375 24.9097 13.5958 25.0817 13.8761C25.2537 14.1565 25.629 14.1876 25.6446 13.8761C25.6603 13.7204 25.5977 13.5179 25.457 13.4088Z" fill="#FFB284"/>
    <path d="M23.2678 10.1227C23.0645 9.95138 22.7205 10.3096 22.8925 10.59C23.0645 10.8704 23.4398 10.9015 23.4554 10.59C23.4711 10.4498 23.4085 10.2473 23.2678 10.1227Z" fill="#FFB284"/>
    <path d="M26.9582 13.066C26.5829 12.4897 25.3944 12.957 25.5977 13.7514C25.801 14.5457 26.7236 14.9819 27.0364 14.2965C27.1927 13.985 27.2084 13.4554 26.9582 13.066Z" fill="#FFB284"/>
    <path d="M26.3482 14.982C26.1762 14.7173 25.6132 14.9353 25.7071 15.3091C25.8009 15.683 26.2387 15.8854 26.3795 15.5584C26.4577 15.4182 26.4733 15.169 26.3482 14.982Z" fill="#FFB284"/>
    <path d="M25.2535 17.6923C23.9556 18.253 22.5952 18.549 21.1878 18.7047C19.7179 18.8761 18.2167 18.9228 16.7625 18.658C16.7312 18.658 16.7312 18.5957 16.7625 18.6113C19.6085 18.7203 22.5014 18.5334 25.2379 17.6611C25.2535 17.6611 25.2692 17.6767 25.2535 17.6923Z" fill="#2D0F4A"/>
    <path d="M25.363 16.8827C24.0808 17.459 22.6421 17.7861 21.2504 17.973C19.8274 18.1755 18.3888 18.2378 16.9502 18.1443C16.6687 18.1287 16.6687 17.6926 16.9502 17.7238C18.3419 17.8172 19.7492 17.8016 21.1253 17.6459C22.5483 17.4745 23.9244 17.1319 25.3161 16.8048C25.3787 16.7892 25.4256 16.8671 25.363 16.8827Z" fill="#E05C0D"/>
    <path d="M22.6892 16.9597C21.1411 17.4114 19.4836 17.536 17.8886 17.5515C17.6227 17.5515 17.6227 17.131 17.8886 17.1466C19.4992 17.1622 21.0786 16.9908 22.6736 16.8662C22.7361 16.8662 22.7361 16.9441 22.6892 16.9597Z" fill="#E05C0D"/>
    <path d="M21.063 8.9233C20.7034 9.53075 20.1561 10.0448 19.5931 10.4653C19.296 10.6834 18.9676 10.8703 18.6236 11.0416C18.3109 11.1818 17.9512 11.3687 17.6228 11.3687C17.4352 11.3687 17.357 11.1039 17.529 11.0105C17.7948 10.8547 18.1389 10.7924 18.4203 10.6834C18.7487 10.5432 19.0771 10.3874 19.3742 10.2005C19.9841 9.8267 20.4688 9.35942 20.9692 8.84542C21.0005 8.79869 21.0943 8.86099 21.063 8.9233Z" fill="#E05C0D"/>
    <path d="M20.7345 10.0136C20.1403 10.8702 18.9988 11.3843 18.0449 11.7425C17.4819 11.945 16.919 12.1319 16.3561 12.3344C16.0589 12.4434 15.7775 12.568 15.496 12.7082C15.2614 12.8328 15.0425 12.9886 14.7767 13.0197C14.7141 13.0197 14.6829 12.9574 14.7141 12.9107C14.9331 12.4901 15.5742 12.2565 15.9808 12.0852C16.5124 11.8515 17.0597 11.6646 17.5914 11.4777C18.1543 11.2908 18.7173 11.1195 19.249 10.8702C19.7963 10.621 20.2185 10.3251 20.7032 9.98242C20.7189 9.98242 20.7501 9.998 20.7345 10.0136Z" fill="#E05C0D"/>
    <path d="M17.1692 10.1848C16.4029 10.8702 15.3552 11.135 14.3701 11.3374C13.8071 11.4465 13.2286 11.5088 12.6656 11.5867C12.1183 11.6645 11.5397 11.867 10.9924 11.8826C10.8673 11.8826 10.836 11.7268 10.9299 11.6645C11.3677 11.3997 11.9463 11.3374 12.4467 11.2596C12.994 11.1661 13.5569 11.1038 14.1042 11.0259C15.1832 10.8702 16.1527 10.5898 17.1379 10.107C17.1535 10.0914 17.2004 10.1537 17.1692 10.1848Z" fill="#E05C0D"/>
    <path d="M19.1552 5.31004C19.4679 5.99537 19.4054 6.74302 19.077 7.41278C18.8424 7.91121 18.2795 8.64327 17.6696 8.69C17.6383 8.69 17.6071 8.64327 17.6383 8.6277C17.7791 8.42521 18.0293 8.3006 18.2013 8.11369C18.4046 7.88006 18.6079 7.63084 18.7486 7.35048C19.077 6.74302 19.1395 6.01095 19.1083 5.32561C19.1083 5.29446 19.1395 5.29446 19.1552 5.31004Z" fill="#E05C0D"/>
    <path d="M19.4209 7.70757C19.2802 8.03467 18.9361 8.26831 18.639 8.43964C18.3576 8.5954 17.9979 8.78231 17.6695 8.67328C17.6382 8.6577 17.6382 8.62655 17.6695 8.61097C17.9354 8.42406 18.2794 8.37734 18.5765 8.22158C18.8736 8.06582 19.1238 7.86333 19.4053 7.692C19.4053 7.67642 19.4209 7.692 19.4209 7.70757Z" fill="#E05C0D"/>
    <path d="M20.3594 14.9197C19.8277 15.1066 19.296 15.2468 18.78 15.4648C18.2796 15.6829 17.7948 15.9477 17.3414 16.2592C16.5751 16.7732 15.8558 17.5987 14.8707 17.6455C14.683 17.6455 14.6361 17.3651 14.8238 17.3184C15.8715 17.1159 16.5751 16.2748 17.4508 15.7452C18.2952 15.2468 19.3429 14.8418 20.3437 14.8418C20.3906 14.8418 20.4063 14.9041 20.3594 14.9197Z" fill="#E05C0D"/>
    <path d="M19.0456 14.6544C18.7798 14.8413 18.4358 14.9503 18.1387 15.1217C17.8416 15.293 17.5445 15.4643 17.263 15.6668C16.9815 15.8693 16.7 16.0874 16.4498 16.321C16.2153 16.5235 15.9807 16.8506 15.6992 16.9752C15.6523 16.9908 15.6054 16.9596 15.6054 16.9129C15.668 16.6169 15.9494 16.3366 16.1527 16.1341C16.4186 15.8693 16.7157 15.6201 17.0284 15.4176C17.5601 15.0594 18.3732 14.6232 19.03 14.6544C19.0613 14.6388 19.0613 14.6544 19.0456 14.6544Z" fill="#E05C0D"/>
    <defs>
        <linearGradient id="paint0_linear_402_4719" x1="31.6767" y1="29.2915" x2="0.674861" y2="29.2915" gradientUnits="userSpaceOnUse">
            <stop stop-color="#F0B85D"/>
            <stop offset="1" stop-color="#E4A23C"/>
        </linearGradient>
        <linearGradient id="paint1_linear_402_4719" x1="31.6771" y1="19.541" x2="0.673468" y2="19.541" gradientUnits="userSpaceOnUse">
            <stop stop-color="#F0B85D"/>
            <stop offset="1" stop-color="#E4A23C"/>
        </linearGradient>
        <linearGradient id="paint2_linear_402_4719" x1="32.2786" y1="18.4473" x2="-7.23297" y2="18.4473" gradientUnits="userSpaceOnUse">
            <stop stop-color="#F0B85D"/>
            <stop offset="1" stop-color="#E4A23C"/>
        </linearGradient>
        <linearGradient id="paint3_linear_402_4719" x1="31.6767" y1="28.2553" x2="24.5883" y2="28.2553" gradientUnits="userSpaceOnUse">
            <stop stop-color="#F0B85D"/>
            <stop offset="1" stop-color="#E4A23C"/>
        </linearGradient>
        <linearGradient id="paint4_linear_402_4719" x1="22.0111" y1="30.1599" x2="17.8448" y2="30.1599" gradientUnits="userSpaceOnUse">
            <stop stop-color="#F0B85D"/>
            <stop offset="1" stop-color="#E4A23C"/>
        </linearGradient>
        <linearGradient id="paint5_linear_402_4719" x1="16.1758" y1="29.949" x2="12.8326" y2="29.949" gradientUnits="userSpaceOnUse">
            <stop stop-color="#F0B85D"/>
            <stop offset="1" stop-color="#E4A23C"/>
        </linearGradient>
        <linearGradient id="paint6_linear_402_4719" x1="21.4415" y1="8.54299" x2="18.4454" y2="9.55818" gradientUnits="userSpaceOnUse">
            <stop stop-color="#FD8F4D"/>
            <stop offset="1" stop-color="#F37022"/>
        </linearGradient>
    </defs>
</svg>
