<svg width="178" height="268" viewBox="0 0 178 268" fill="none" xmlns="http://www.w3.org/2000/svg">
    <path d="M99.6917 66.9917C175.413 66.0536 169.876 93.0225 169.876 93.0225C169.876 93.0225 158.179 198.475 99.9256 198.475C39.4892 198.475 25.9202 93.4134 25.9202 93.4134C25.9202 93.4134 21.3192 67.9297 99.6917 66.9917Z" fill="#6D3726"/>
    <path d="M31.7687 81.9222C39.567 75.0432 57.7369 67.4606 99.6915 66.9916C140.242 66.5226 157.555 74.027 164.807 81.1405C168.238 92.0062 130.417 97.2437 97.8199 97.2437C66.4709 97.2437 25.998 91.459 31.7687 81.9222Z" fill="#662B1E"/>
    <path d="M166.913 94.5078C166.913 94.5078 172.371 67.5389 96.6503 68.4769C66.2372 68.8678 48.3792 72.8545 37.8515 77.7011C47.8333 72.2291 66.1592 67.3825 99.6917 66.9917C175.413 66.0536 169.876 93.0225 169.876 93.0225C169.876 93.0225 160.752 175.258 118.485 194.488C158.179 172.835 166.913 94.5078 166.913 94.5078Z" fill="#914C3F"/>
    <path d="M176.271 87.9417L168.238 85.8311C168.238 85.8311 169.72 87.7853 169.72 89.9741L176.271 87.9417Z" fill="#C4691E"/>
    <path d="M27.9478 85.5176C27.9478 85.5176 26.3881 87.7845 26.6221 89.817L19.7596 87.9409L27.9478 85.5176Z" fill="#C4691E"/>
    <path d="M22.177 89.5821C26.1541 90.5983 30.2872 91.2237 34.4203 91.38L36.6038 91.4582L34.6542 92.6308C33.1726 93.4907 32.1588 94.116 30.7551 95.2104L30.5992 95.3668L30.8331 96.5393H31.067C37.8515 97.6337 44.3241 97.5555 51.3425 97.0083L52.1223 96.9302L51.8884 97.8682C51.5765 99.1189 51.2645 100.37 50.9526 101.542L50.8746 102.011L51.6544 103.106H52.0444C58.205 102.48 64.3656 101.151 70.3702 99.1189C70.5262 99.0408 80.508 105.685 80.508 105.685L81.6777 105.451L82.6915 105.216C88.3062 103.809 93.609 101.151 98.288 97.321L98.5999 97.0865L98.9119 97.321C103.669 101.23 108.894 103.887 114.508 105.216L116.614 104.747C116.614 104.747 119.889 103.106 122.385 101.464C124.49 100.135 125.894 98.7281 125.972 98.8063C132.21 100.995 138.683 102.402 145.155 103.106L146.715 103.262L146.169 101.62C145.857 100.37 145.545 99.1189 145.233 97.9464L145 97.0083L145.779 97.0865C152.798 97.6337 159.66 98.1027 166.445 96.9302L168.004 96.6175L166.913 95.7576L166.757 95.6013C165.353 94.585 163.949 93.5688 162.468 92.7089L160.518 91.5364L162.702 91.4582C166.757 91.3019 170.89 90.6765 174.945 89.6603L175.881 89.4258L175.647 90.442C174.477 95.4449 173.307 100.37 172.059 105.216C168.628 118.974 164.729 133.67 160.128 150.321C155.995 165.095 151.784 179.791 148.197 192.142L148.119 192.377L147.885 192.533C145.857 193.784 143.518 194.565 141.1 194.8L140.243 194.878L140.009 194.409L139.853 194.878L139.307 196.989L138.839 197.223C135.798 198.708 132.522 199.568 129.013 199.725H128.311H127.843L127.298 202.148L126.908 202.226C122.93 202.851 118.953 202.695 115.054 201.757L113.885 201.444L113.573 201.366L112.169 202.07L111.857 202.226C110.375 202.851 108.972 203.477 107.49 204.259L106.554 204.728L105.852 205.197L105.228 204.962C103.279 204.337 101.407 203.555 99.6137 202.617L99.4577 202.539L99.3798 202.382C99.3018 202.226 99.0678 201.913 98.7559 201.992L98.5999 202.07L98.444 201.992C98.132 201.913 97.8981 202.148 97.8201 202.382L97.7421 202.617L97.5862 202.695C95.7926 203.633 93.843 204.415 91.8934 205.04L91.2696 205.275L90.5677 204.806L89.6319 204.337C88.2282 203.633 86.7466 202.93 85.3429 202.304L85.031 202.148L83.6273 201.444L82.1456 201.835C78.2465 202.773 74.1914 202.93 70.2923 202.304L69.9023 202.226L69.8244 201.835C69.7464 201.523 69.6684 201.288 69.6684 200.975L69.4345 199.803H68.9666H68.2647C64.7555 199.646 61.4802 198.787 58.4389 197.301L57.8151 196.989L57.3472 194.956H56.9573L56.0994 194.878C53.682 194.644 51.3425 193.862 49.315 192.611L49.081 192.455L49.003 192.22C46.5856 183.778 44.558 176.742 42.6085 170.098C37.6956 152.822 33.7185 138.595 30.2092 125.15C27.012 112.877 24.1266 101.542 21.5532 90.442L21.3192 89.4258L22.177 89.5821Z" fill="url(#paint0_linear_402_4189)"/>
    <path d="M145.233 97.8687L144.999 96.9307L145.779 97.0088C145.935 97.0088 146.091 97.0088 146.169 97.0088L145.701 99.823C145.623 99.1976 145.389 98.4941 145.233 97.8687Z" fill="url(#paint1_linear_402_4189)"/>
    <path d="M146.169 101.543C146.013 100.995 145.857 100.37 145.779 99.8229L146.247 97.0088C152.096 97.4778 157.867 97.7905 163.481 97.2433L140.477 194.8H140.165L139.931 194.331L139.775 194.8L139.229 196.911L138.761 197.145C135.72 198.631 132.444 199.491 128.935 199.647H128.233H127.999L145.156 103.028L146.169 101.543Z" fill="#DB8F3E"/>
    <path d="M162.234 93.1779L159.426 91.5363L162.78 91.4581C163.481 91.4581 164.261 91.3799 164.963 91.3018L164.261 94.5849C163.559 94.1159 162.858 93.4905 162.234 93.1779Z" fill="url(#paint2_linear_402_4189)"/>
    <path d="M50.2506 97.0871L51.0305 101.386C51.0305 101.465 51.0304 101.543 50.9525 101.543L50.8745 102.012L51.1864 102.481L68.4985 199.725H68.1086C64.5994 199.569 61.3241 198.709 58.2828 197.224L57.659 196.911L56.9571 196.598L56.4112 196.364L55.8654 194.8L31.5348 96.7744C37.3055 97.3998 44.4019 97.5561 50.2506 97.0871Z" fill="#CC772B"/>
    <path d="M22.1769 89.5825C25.2182 90.3642 28.4155 90.9114 31.5348 91.1459L32.9385 94.0382C32.5486 94.2727 31.8468 95.3671 31.6128 95.9925C31.4568 96.3833 30.989 96.4615 30.989 96.4615C30.755 95.289 55.9434 194.722 55.9434 194.722C53.5259 194.488 51.2644 193.706 49.2369 192.455L49.0029 192.299L48.457 192.064C46.0396 183.622 43.8561 176.743 41.9845 170.098C37.0716 152.823 33.0945 138.908 29.5073 125.541C26.31 113.268 23.5026 102.012 20.9292 90.9114L20.5393 88.8008L22.1769 89.5825Z" fill="#C4691E"/>
    <path d="M164.339 93.8033L164.963 91.3019C168.316 91.0674 171.67 90.442 175.023 89.6603L175.881 89.4258L175.647 90.442C174.477 95.4449 173.307 100.37 172.059 105.216C168.628 118.974 164.729 133.67 160.128 150.321C155.995 165.095 151.784 179.791 148.197 192.142L148.119 192.377L147.885 192.533C145.857 193.784 143.518 194.565 141.1 194.8L140.555 194.878L163.481 97.2428C163.871 95.7576 164.417 93.8033 164.339 93.8033Z" fill="url(#paint3_linear_402_4189)"/>
    <path d="M145.156 103.028L127.999 199.725H127.843L127.298 202.148L126.908 202.226C123.086 202.852 119.187 202.695 115.288 201.835L127.687 99.2754C133.38 101.151 139.229 102.402 145.156 103.028Z" fill="#DB8F3E"/>
    <path d="M51.2644 97.0088L52.0442 96.9307L51.8102 97.8687C51.4983 99.0413 51.2644 100.214 50.9524 101.386L50.1726 97.087C50.5625 97.087 50.9524 97.0088 51.2644 97.0088Z" fill="#DB8F3E"/>
    <path d="M116.614 104.67C116.614 104.67 119.889 103.028 122.384 101.387C124.49 100.058 125.894 98.6505 125.972 98.7287C126.518 98.9632 127.141 99.1196 127.687 99.2759L115.366 201.836C115.288 201.836 115.21 201.758 115.054 201.758L113.884 201.445L113.572 201.367L112.169 202.07L111.857 202.227C110.375 202.852 108.971 203.477 107.49 204.259L106.866 204.572L114.586 105.061L116.614 104.67Z" fill="url(#paint4_linear_402_4189)"/>
    <path d="M33.8744 90.6769L38.2415 91.2241L34.6543 93.2566C33.8744 93.7256 33.4845 94.4291 32.7047 94.9763L31.223 90.3643C32.1588 90.5206 32.9386 90.5988 33.8744 90.6769Z" fill="#CC772B"/>
    <path d="M51.5765 103.027H51.9664C57.6591 102.48 63.3518 101.23 68.8106 99.5098L81.1318 201.992C77.4667 202.695 73.8015 202.773 70.2143 202.226L69.0446 202.07L51.1086 102.48L51.5765 103.027Z" fill="#DB8F3E"/>
    <path d="M98.9117 97.2433C103.669 101.152 108.893 103.81 114.508 105.139H114.586L106.866 204.65L106.554 204.806L105.852 205.275L105.228 205.041C103.279 204.415 101.407 203.634 99.6135 202.696L99.4576 202.617L99.3796 202.461C99.3016 202.305 99.0677 201.992 98.7557 202.07L98.5998 202.148V96.9307L98.9117 97.2433Z" fill="#DB8F3E"/>
    <path d="M70.2924 98.9629C70.2924 98.9629 75.6732 102.012 78.6365 103.653L81.8338 105.295L89.4761 204.65C88.0724 203.946 82.5356 201.366 82.5356 201.366C82.2237 201.445 81.4439 201.836 81.1319 201.914L68.8107 99.4319C68.8887 99.5101 70.2144 98.9629 70.2924 98.9629Z" fill="#DB8F3E"/>
    <path d="M81.9116 104.513C87.5263 103.106 92.7512 100.682 97.5081 96.7739L98.5999 95.9922V96.9302L98.4439 202.304L97.742 202.617L97.5861 202.695C95.7925 203.633 93.8429 204.415 91.8934 205.04L91.2695 205.275L90.5677 204.806L89.6319 204.337C89.6319 204.337 89.6319 204.337 89.5539 204.337L81.9116 105.373V104.513Z" fill="url(#paint5_linear_402_4189)"/>
    <path d="M29.1174 86.2996C27.9477 87.9412 27.4018 89.5046 27.0899 90.599C26.466 90.5208 25.7641 90.4427 25.1403 90.2863C25.4522 88.8011 26.0761 87.0032 27.4798 84.9707C33.2505 76.5283 50.4066 66.3661 99.6136 65.7407C146.013 65.2717 162.546 75.1212 168.238 83.4855C169.954 85.987 170.578 88.2539 170.89 89.9737C170.266 90.0518 169.564 90.13 168.94 90.2082C168.706 88.8011 168.16 87.0032 166.757 84.8926C163.559 80.2023 157.555 76.372 148.899 73.5578C137.045 69.6493 120.513 67.8513 99.7696 68.0859C48.925 68.7112 33.7184 79.8115 29.1174 86.2996Z" fill="#542404"/>
    <path d="M152.876 141.019C156.619 125.541 160.284 110.063 163.871 94.5072C163.871 94.429 164.963 95.4452 165.431 95.8361C165.509 95.9143 165.431 96.7742 165.275 97.165C161.844 112.017 157.945 126.792 153.11 141.097C153.11 141.331 152.876 141.253 152.876 141.019Z" fill="#93430C"/>
    <path d="M113.885 105.686C113.963 105.138 113.963 104.513 113.963 103.888C114.586 104.044 115.132 104.122 115.756 103.966C115.678 104.513 115.6 105.138 115.6 105.686C115.288 108.891 115.054 112.096 114.742 115.301C114.196 121.398 113.495 127.495 112.481 133.514C112.481 133.671 112.169 133.671 112.169 133.436C112.325 127.261 112.637 121.085 113.105 114.91C113.417 111.783 113.651 108.734 113.885 105.686Z" fill="#93430C"/>
    <path d="M138.995 136.876C139.697 129.684 141.022 122.492 142.348 115.379C142.972 111.783 143.596 108.265 144.298 104.669C144.454 103.966 144.532 103.34 144.61 102.637C145 99.8227 146.637 102.09 146.637 102.09C146.481 102.637 146.403 103.184 146.247 103.809C146.169 104.122 146.091 104.513 146.013 104.826C145.312 108.343 144.61 111.939 143.908 115.457C142.504 122.649 141.178 129.918 139.307 136.954C139.307 137.188 138.917 137.188 138.995 136.876Z" fill="#93430C"/>
    <path d="M106.086 205.666C106.164 204.494 106.32 203.321 106.398 202.149C107.256 191.987 108.036 181.746 108.972 171.584C109.362 167.676 109.907 163.767 110.219 159.858C110.219 159.702 110.453 159.702 110.453 159.858C109.674 175.18 108.582 190.423 107.412 205.745C106.944 205.666 106.476 205.666 106.086 205.666Z" fill="#93430C"/>
    <path d="M126.908 97.791C127.064 97.8692 127.298 98.0255 127.453 98.1037C127.765 98.26 127.999 98.4164 128.311 98.4946C127.453 105.843 126.44 113.191 125.192 120.461C125.192 120.617 124.958 120.539 125.036 120.461C125.66 114.91 125.738 109.282 126.284 103.732C126.44 101.778 126.674 99.7453 126.908 97.791Z" fill="#93430C"/>
    <path d="M39.8791 90.0521C40.8149 89.9739 41.7507 89.8957 42.6085 89.8175C42.6085 89.9739 42.6085 90.1302 42.5306 90.2084C42.4526 90.3647 42.3746 90.4429 42.2186 90.5211C41.5948 90.7556 40.8929 91.0683 40.0351 91.381C37.8516 92.319 35.6681 93.5697 33.6405 95.055L32.6268 95.7585L33.7965 95.9149C39.4892 96.6184 45.104 96.2275 51.3426 95.6803L52.7463 95.524C52.5903 96.0712 52.5123 96.6966 52.3563 97.2438C52.1224 98.4945 51.8105 99.7452 51.4985 100.996L51.3426 101.621L51.9664 101.543C57.1133 100.918 62.3381 99.8234 67.329 98.26C67.9529 98.0255 68.6547 97.8691 69.4345 97.5564C70.0584 98.1036 70.7602 98.5727 71.3841 99.0417C74.4254 101.152 77.6227 102.794 80.9759 103.81H81.1319H81.2879C86.8246 102.481 91.9715 99.9016 96.6504 96.1494C97.0403 95.8367 97.5082 95.4458 97.9761 94.9768C98.444 95.3677 98.9119 95.7585 99.3018 96.1494C103.903 99.9016 109.128 102.481 114.664 103.81H114.82H114.976C118.33 102.794 121.605 101.23 124.568 99.0417C125.27 98.5727 125.894 98.0255 126.518 97.5564C127.298 97.791 127.999 98.0255 128.623 98.26C133.614 99.8234 138.839 100.918 143.986 101.543L144.61 101.621L144.454 100.996C144.142 99.7452 143.908 98.4945 143.596 97.2438C143.44 96.6966 143.362 96.0712 143.206 95.524L144.61 95.6803C150.848 96.2275 156.463 96.6184 162.156 95.9149L163.325 95.7585L162.312 95.055C160.284 93.6479 158.179 92.3972 155.917 91.381C155.059 90.9901 154.435 90.7556 153.734 90.5211C153.578 90.4429 153.5 90.3647 153.422 90.2084C153.344 90.0521 153.344 89.9739 153.344 89.8175C154.202 89.8957 155.137 89.9739 156.073 90.0521C162.624 90.4429 169.252 89.7394 175.647 87.9415C175.491 88.4105 175.413 88.9577 175.257 89.4267C170.5 90.6774 165.587 91.381 160.674 91.4591H159.036L160.44 92.319C161.844 93.1789 163.559 94.7423 164.885 95.7585C164.885 96.0712 164.495 96.3839 164.339 96.8529C157.867 97.9473 151.238 97.4783 145.078 97.0092L144.454 96.9311C144.454 96.9311 145.935 101.387 146.091 101.778C146.091 101.778 144.532 102.716 144.22 102.872C138.293 102.247 132.366 100.918 126.674 99.0417L126.44 98.9635L126.206 99.1199C123.866 100.918 121.371 102.481 118.719 103.654C117.316 104.279 115.912 104.748 114.508 105.217C113.105 104.904 111.623 104.435 110.297 103.966C105.93 102.403 101.797 99.9797 98.0541 96.8529L97.7422 96.6184L97.4303 96.8529C93.6871 99.9797 89.554 102.403 85.187 103.966C83.7833 104.435 82.3796 104.904 80.9759 105.217C79.5723 104.826 78.1686 104.279 76.7649 103.654C74.1135 102.481 71.618 100.996 69.2786 99.1199L69.0446 98.9635L68.8107 99.0417C63.04 100.918 57.0353 102.247 51.0306 102.872C50.5628 102.95 50.0949 102.95 49.627 103.028C49.7049 102.559 49.8609 102.09 49.9389 101.621L50.0169 101.309C50.2508 100.136 50.5628 98.8854 50.8747 97.4783L51.0306 96.8529L50.4068 96.9311C44.1682 97.4783 37.5397 97.8691 31.0671 96.7747C30.8332 96.7747 30.6772 96.6966 30.4433 96.6966C30.3653 96.4621 30.2093 95.993 30.1313 95.7585C30.3653 95.6022 30.5212 95.4458 30.7552 95.2895H30.8332C32.1589 94.1951 33.6405 93.1789 35.0442 92.319L36.4479 91.4591H34.8103C29.7414 91.381 24.7505 90.5993 19.8376 89.2704C19.7597 88.7232 19.7597 88.2541 19.6817 87.8633C26.6221 89.7394 33.2506 90.4429 39.8791 90.0521Z" fill="#93430C"/>
    <path d="M42.4527 142.27C41.7508 140.238 31.5351 99.4328 30.6773 95.9933C30.6773 95.9151 32.7048 96.1496 32.7828 96.2278C33.6406 99.5891 42.4527 140.082 42.9985 142.114C42.9985 142.27 42.5306 142.427 42.4527 142.27Z" fill="#93430C"/>
    <path d="M82.4575 103.653C82.4575 104.201 82.5355 104.748 82.5355 105.217C82.7694 108.422 83.0034 111.627 83.2373 114.832C83.7052 121.007 84.0171 127.183 84.1731 133.358C84.1731 133.515 83.9391 133.593 83.8612 133.436C82.8474 127.417 82.1455 121.398 81.5997 115.223C81.3657 112.174 81.0538 109.047 80.8198 105.998C80.7419 105.295 80.6639 104.591 80.5859 103.81C81.2877 103.888 81.8336 103.81 82.4575 103.653Z" fill="#93430C"/>
    <path d="M57.1132 136.954C55.3196 129.918 53.9159 122.648 52.5122 115.457C51.8103 112.095 50.2507 107.093 49.6268 103.731C49.6268 103.653 51.4984 99.7445 51.8883 102.48C51.9663 103.262 52.1223 103.966 52.2783 104.747C52.9021 108.343 53.526 111.861 54.2278 115.457C55.4755 122.57 56.8012 129.762 57.5811 136.954C57.5031 137.188 57.1911 137.188 57.1132 136.954Z" fill="#93430C"/>
    <path d="M89.0079 205.119C88.93 204.181 88.852 203.243 88.774 202.383C87.9942 192.143 87.0584 181.824 86.5125 171.584C86.2785 167.676 86.2006 163.767 86.0446 159.858C86.0446 159.702 86.2006 159.702 86.2785 159.858C87.7602 174.945 89.0859 190.111 90.4116 205.276C89.9437 205.197 89.4758 205.197 89.0079 205.119Z" fill="#93430C"/>
    <path d="M69.5904 98.2598C69.8244 100.058 69.9803 101.934 70.1363 103.732C70.6822 109.282 70.8382 114.91 71.384 120.46C71.384 120.617 71.2281 120.617 71.2281 120.46C69.9803 113.269 68.9666 105.92 68.1088 98.6506C68.6546 98.5724 69.1225 98.4161 69.5904 98.2598Z" fill="#93430C"/>
    <path d="M46.0396 154.933C47.1314 158.451 55.3975 190.11 57.1131 196.52C60.5444 198.474 64.5215 199.256 68.2646 199.1C68.4206 199.881 68.4206 199.803 68.6545 200.507C68.5766 200.585 68.4206 200.585 68.2646 200.585C64.7554 200.741 61.0902 200.116 57.737 198.631C57.0351 198.318 56.3333 197.927 55.6314 197.536C55.3975 196.52 55.3195 196.364 55.0856 195.347C53.7599 190.032 46.1956 158.138 45.8057 154.933C45.8057 154.933 46.0396 154.855 46.0396 154.933Z" fill="#93430C"/>
    <path d="M19.9934 86.925C22.5668 86.2215 25.0622 85.5961 27.6357 84.8926C27.7136 84.8926 27.5577 84.8926 27.1678 85.5961C27.0118 85.9088 26.31 87.0814 26.31 87.0814C24.5164 87.5504 22.7228 88.0194 20.9292 88.4884C27.3237 115.77 34.6541 142.739 42.2964 169.551C44.4019 177.056 46.5854 184.482 48.7689 191.986C51.0304 193.393 53.5259 194.097 56.0993 194.253C56.1773 194.644 56.0993 194.41 56.2552 194.801C56.4112 195.27 56.5672 195.66 56.7231 196.051C54.2277 195.973 51.7323 195.426 49.4708 194.41C48.613 194.019 48.379 193.941 47.5992 193.393C47.2873 192.221 47.0533 191.596 46.7414 190.423C38.7092 162.594 30.755 134.687 23.7365 106.39C22.3328 100.761 21.0071 95.1329 19.6814 89.4265C19.5255 88.7229 19.3695 87.9412 19.1356 87.2377C19.7594 87.0032 19.3695 87.0814 19.9934 86.925Z" fill="#93430C"/>
    <path d="M61.2464 158.06C62.5721 161.421 63.118 165.252 63.8978 168.848C64.8336 173.225 65.5354 177.681 66.3152 182.058C67.407 188.547 68.4988 195.113 69.7465 201.523C73.7236 202.148 77.6227 201.992 81.5218 201.054C82.4576 201.601 83.3154 201.445 84.2512 201.992C84.1732 201.992 84.0953 202.07 84.0173 202.07C79.4163 203.477 74.7374 203.79 70.1364 203.243C69.5905 203.164 69.1226 203.086 68.5767 203.008C68.4208 202.226 68.3428 202.07 68.1868 201.21C66.9391 194.957 65.9253 188.703 64.9895 182.449C64.2877 178.15 63.5858 173.772 62.884 169.473C62.2601 165.721 61.4023 161.89 61.0904 158.06C60.9344 157.982 61.1684 157.904 61.2464 158.06Z" fill="#93430C"/>
    <path d="M149.835 155.012C147.261 162.907 145.857 169.161 144.142 176.978C142.816 182.997 141.022 190.11 139.307 196.52C135.876 198.475 131.899 199.256 128.155 199.1C127.999 199.882 127.999 199.804 127.765 200.507C127.843 200.585 127.999 200.585 128.155 200.585C131.665 200.742 135.33 200.116 138.683 198.631C139.385 198.318 140.087 197.927 140.789 197.537C141.022 196.52 141.1 196.364 141.334 195.348C142.66 190.032 143.83 184.56 145.078 179.167C146.871 171.193 148.977 163.063 149.99 154.934C149.99 155.012 149.835 154.934 149.835 155.012Z" fill="#93430C"/>
    <path d="M176.504 86.925C173.931 86.2215 171.436 85.5961 168.862 84.8926C168.784 84.8926 168.94 84.8926 169.33 85.5961C169.486 85.9088 170.188 87.0814 170.188 87.0814C171.982 87.5504 173.775 88.0194 175.569 88.4884C169.174 115.77 161.844 142.739 154.201 169.551C152.096 177.056 149.912 184.482 147.729 191.986C145.467 193.393 142.972 194.097 140.399 194.253C140.321 194.644 140.399 194.41 140.243 194.801C140.087 195.27 139.931 195.66 139.775 196.051C142.27 195.973 144.766 195.426 147.027 194.41C147.885 194.019 148.119 193.941 148.899 193.393C149.211 192.221 149.445 191.596 149.756 190.423C157.789 162.594 165.743 134.687 172.761 106.39C174.165 100.761 175.491 95.1329 176.816 89.4265C176.972 88.7229 177.128 87.9412 177.362 87.2377C176.738 87.0032 177.128 87.0814 176.504 86.925Z" fill="#93430C"/>
    <path d="M135.252 158.06C133.926 161.421 133.38 165.252 132.6 168.848C131.664 173.225 130.962 177.681 130.183 182.058C129.091 188.547 127.999 195.113 126.751 201.523C122.774 202.148 118.875 201.992 114.976 201.054C114.04 201.601 113.182 201.445 112.247 201.992C112.325 201.992 112.403 202.07 112.481 202.07C117.082 203.477 121.761 203.79 126.362 203.243C126.907 203.164 127.375 203.086 127.921 203.008C128.077 202.226 128.155 202.07 128.311 201.21C129.559 194.957 130.573 188.703 131.508 182.449C132.21 178.15 132.912 173.772 133.614 169.473C134.238 165.721 135.096 161.89 135.407 158.06C135.563 157.982 135.33 157.904 135.252 158.06Z" fill="#93430C"/>
    <path d="M78.7924 180.652C79.4162 185.342 80.1181 189.954 80.7419 194.644C80.9759 196.52 81.2098 198.396 81.5218 200.272C84.5631 201.523 87.5264 203.008 90.4118 204.65C92.9852 203.868 95.4026 202.852 97.8201 201.523C97.8981 201.445 97.9761 201.445 98.0541 201.445H98.132H98.21C98.288 201.445 98.288 201.445 98.366 201.445H98.444C98.5219 201.445 98.5999 201.523 98.6779 201.523C101.095 202.852 103.981 203.946 106.554 204.728C109.362 203.243 112.169 201.992 114.898 200.741C115.132 198.865 115.444 196.52 115.678 194.566C116.302 189.876 117.004 185.264 117.628 180.573C117.628 180.339 118.018 180.339 118.018 180.652C117.94 185.42 117.316 190.267 116.848 195.035C116.692 196.598 116.536 198.162 116.38 199.647C116.302 200.507 116.146 200.741 116.068 201.601C115.6 201.836 115.132 202.07 114.586 202.305C112.715 203.165 110.609 204.181 108.66 205.275C107.88 205.666 107.1 206.135 106.398 206.526C105.462 206.213 104.527 205.979 103.591 205.588C101.797 204.885 100.004 204.103 98.21 203.165C96.4944 204.103 94.7008 204.884 92.9072 205.51C92.0494 205.823 91.2696 206.135 90.4118 206.37C89.554 205.901 88.6961 205.354 87.9163 204.885C85.8888 203.79 83.8612 202.774 81.7557 201.836C81.2878 201.601 80.8199 201.445 80.352 201.21C80.274 200.507 80.1961 200.507 80.1181 199.803C79.9621 198.24 79.8061 196.677 79.6502 195.113C79.1823 190.345 78.5584 185.576 78.4804 180.73C78.4024 180.495 78.7924 180.417 78.7924 180.652Z" fill="#93430C"/>
    <path d="M49.4709 155.559C51.6544 163.298 54.0719 171.115 55.4756 179.01C55.4756 179.167 55.3196 179.167 55.2416 179.089C52.6682 171.506 51.0306 163.454 49.237 155.637C49.159 155.403 49.393 155.403 49.4709 155.559Z" fill="#A0501A"/>
    <path d="M36.2138 100.917C37.3056 104.278 38.0854 107.874 39.0212 111.314C39.957 114.753 40.9708 118.193 41.6726 121.711C41.6726 121.867 41.5166 121.867 41.4387 121.789C40.113 118.427 39.2551 114.91 38.3194 111.47C37.3836 108.031 36.4478 104.513 35.9799 100.995C36.0579 100.917 36.2138 100.839 36.2138 100.917Z" fill="#A0501A"/>
    <path d="M63.6639 103.107C61.5584 104.045 59.2969 104.67 57.0354 105.217C55.3198 105.608 55.7877 106.468 56.0216 107.953C56.2556 109.282 56.3336 110.689 56.4895 112.018C56.0216 109.829 55.4758 107.64 55.0858 105.373C55.0858 105.217 55.0859 105.061 55.3198 105.061C58.1272 104.435 60.8566 103.654 63.6639 102.95C63.7419 102.95 63.7419 103.107 63.6639 103.107Z" fill="#A0501A"/>
    <path d="M78.9483 108.031C76.5309 107.327 74.4254 106.311 72.3978 104.748C72.5538 104.67 72.7097 104.592 72.8657 104.513C73.0997 106.311 73.4116 108.187 73.4896 109.985C73.4896 110.063 73.4116 110.063 73.4116 109.985C72.9437 108.266 72.6318 106.389 72.3978 104.67C72.3198 104.357 72.6318 104.201 72.8657 104.435C74.6593 105.842 76.7648 107.093 78.9483 108.031C79.0263 108.109 79.0263 108.031 78.9483 108.031Z" fill="#A0501A"/>
    <path d="M42.9202 100.058C44.09 99.7452 45.3377 99.9014 46.5074 99.7452C47.9111 99.5889 49.2368 99.4326 50.6405 99.2764C50.7185 99.2764 50.7185 99.3545 50.6405 99.4326C48.457 100.214 45.1817 100.839 42.9202 100.058Z" fill="#A0501A"/>
    <path d="M24.0486 92.5537C27.0119 93.5694 29.8973 93.8038 33.0166 93.9601C33.1725 93.9601 33.1725 94.1163 33.0166 94.1945C29.8973 94.8977 26.778 94.1945 23.9706 92.71C23.8926 92.71 23.9706 92.5537 24.0486 92.5537Z" fill="#A0501A"/>
    <path d="M86.5125 107.171C89.7877 106.311 92.6731 105.373 95.1685 102.95C95.4025 102.715 95.7144 102.872 95.7144 103.184C95.7924 107.718 96.2603 112.565 95.6364 117.099C95.6364 117.177 95.5584 117.177 95.5584 117.099C94.7786 112.643 95.1685 107.718 95.0125 103.184C95.1685 103.263 95.4025 103.341 95.5584 103.419C93.2189 105.686 89.7877 107.64 86.4345 107.327C86.5125 107.249 86.5125 107.171 86.5125 107.171Z" fill="#A0501A"/>
    <path d="M110.063 108.109C106.866 107.64 103.981 106.155 101.485 104.122C101.641 104.044 101.797 103.966 101.953 103.888C102.187 106.233 102.187 108.656 101.641 110.923C101.641 111.001 101.485 111.001 101.485 110.923C101.485 108.578 101.563 106.233 101.407 103.888C101.407 103.653 101.719 103.575 101.875 103.653C104.293 105.608 107.1 106.937 110.063 107.953C110.219 108.031 110.141 108.109 110.063 108.109Z" fill="#A0501A"/>
    <path d="M119.031 107.093C120.903 106.233 122.619 105.607 124.256 104.357C124.412 104.2 124.724 104.279 124.724 104.513C124.49 106.936 124.178 109.281 123.866 111.627H123.788C123.866 109.281 124.022 106.936 124.178 104.513C124.334 104.591 124.49 104.669 124.646 104.669C123.086 105.92 121.137 107.171 119.031 107.171C118.953 107.249 118.953 107.171 119.031 107.093Z" fill="#A0501A"/>
    <path d="M130.963 104.122C134.238 104.826 137.201 105.686 140.555 105.999C140.711 105.999 140.867 106.155 140.789 106.389C140.243 108.969 139.775 111.549 139.151 114.128C139.151 114.206 139.073 114.206 139.073 114.128C139.229 112.799 139.463 111.471 139.619 110.142C139.775 109.282 140.087 108.344 140.087 107.562C140.087 106.468 140.009 106.624 138.917 106.468C136.188 106.155 133.302 105.608 130.885 104.279C130.885 104.122 130.963 104.044 130.963 104.122Z" fill="#A0501A"/>
    <path d="M150.458 100.604C153.5 100.839 156.307 100.761 159.27 100.214C159.504 100.135 159.738 100.37 159.66 100.604C158.802 103.34 158.101 106.155 157.165 108.891C157.165 108.969 157.009 108.969 157.009 108.891C157.321 105.998 158.179 103.262 159.036 100.448C159.192 100.604 159.27 100.683 159.426 100.839C156.541 101.699 153.344 101.777 150.458 100.917C150.302 100.839 150.302 100.604 150.458 100.604Z" fill="#A0501A"/>
    <path d="M166.991 93.413C168.784 93.6475 170.578 93.5693 172.293 93.1003C172.527 93.0221 172.683 93.2566 172.683 93.4911C172.059 96.3053 171.358 99.1976 170.11 101.855C170.032 101.934 169.954 101.855 169.954 101.777C170.578 98.9631 171.514 96.149 172.137 93.3348C172.293 93.4912 172.371 93.5693 172.527 93.7257C170.656 94.2729 168.94 94.2729 167.069 93.6475C166.913 93.4912 166.913 93.413 166.991 93.413Z" fill="#A0501A"/>
    <path d="M130.495 162.829C129.871 168.145 128.935 173.382 128.077 178.62C127.22 184.013 126.518 189.564 125.192 194.879C125.192 194.957 125.114 194.957 125.114 194.879C125.582 189.564 126.674 184.326 127.532 179.089C128.467 173.617 129.247 168.145 130.495 162.829C130.495 162.751 130.417 162.751 130.495 162.829Z" fill="#A0501A"/>
    <path d="M144.064 165.018C143.284 169.942 142.192 174.867 141.1 179.792C140.087 184.638 139.307 189.798 137.747 194.488C137.747 194.566 137.669 194.566 137.669 194.488C138.137 189.641 139.541 184.795 140.555 180.026C141.646 175.023 142.582 169.942 143.986 165.018C143.986 164.939 144.064 164.939 144.064 165.018Z" fill="#A0501A"/>
    <path d="M90.4896 176.978C91.4254 184.404 92.0493 191.908 92.2832 199.413C92.2832 199.491 92.2052 199.491 92.2052 199.413C91.1914 191.986 90.5676 184.482 90.1777 176.978C90.2557 176.821 90.4896 176.821 90.4896 176.978Z" fill="#A0501A"/>
    <path d="M68.4986 179.401C69.5903 183.388 70.1362 187.609 70.6821 191.674C70.916 193.394 71.15 195.192 71.306 196.912C71.4619 198.319 71.306 198.944 72.7096 199.179C73.8014 199.413 75.0491 199.257 76.2189 199.413C76.2968 199.413 76.2968 199.569 76.2189 199.569C74.5812 199.569 72.9436 199.569 71.306 199.569C71.228 199.569 71.15 199.491 71.072 199.413C70.1362 192.769 68.9665 186.124 68.2646 179.401C68.3426 179.401 68.4206 179.401 68.4986 179.401Z" fill="#A0501A"/>
    <path d="M28.1817 108.891C30.4432 114.91 32.0808 121.242 33.7184 127.496C35.3561 133.749 36.9937 140.003 38.0854 146.413C38.0854 146.491 38.0075 146.569 37.9295 146.413C36.2139 140.159 34.8102 133.906 33.1726 127.652C31.5349 121.398 29.5074 115.223 27.9477 108.969C27.8697 108.813 28.1037 108.735 28.1817 108.891Z" fill="#A0501A"/>
    <path d="M38.9432 149.775C41.5946 157.904 44.0901 166.269 45.9617 174.711C45.9617 174.789 45.8837 174.867 45.8057 174.711C42.9983 166.66 40.7368 158.139 38.7093 149.853C38.7093 149.697 38.9432 149.618 38.9432 149.775Z" fill="#A0501A"/>
    <path d="M36.6815 80.75C36.6815 80.75 37.3053 77.9359 38.631 76.2161C39.9567 74.4964 40.8145 73.6365 40.8145 73.6365C40.8145 73.6365 37.5393 66.4448 42.8421 57.846C48.1449 49.1691 56.411 47.0585 56.411 47.0585C56.411 47.0585 53.7596 41.352 59.2964 34.7075C64.8332 28.063 84.8747 24.2326 84.8747 24.2326C84.8747 24.2326 90.2555 20.5586 88.072 16.4937C85.8884 12.4289 80.0397 13.9141 80.0397 13.9141C80.0397 13.9141 85.1086 -3.12711 104.604 2.34484C124.1 7.81679 127.921 21.7312 127.921 21.7312C127.921 21.7312 129.637 27.2813 128.935 30.9553C128.233 34.6293 127.921 35.8801 127.921 35.8801C127.921 35.8801 140.632 35.0984 145.155 40.0231C149.756 45.026 149.6 53.4685 149.6 53.4685C149.6 53.4685 158.256 56.4389 159.66 66.9138C159.66 66.9138 159.348 79.1084 150.38 85.4403C141.412 91.7721 127.141 93.0228 127.141 93.0228C127.141 93.0228 114.508 94.1954 101.563 93.8045C97.7418 93.7264 93.8427 93.4918 90.3335 93.0228C90.3335 93.0228 84.8747 97.3222 75.0489 94.9771C65.2231 92.632 60.5441 86.0656 60.5441 86.0656L58.2046 85.2839C58.2046 85.2839 50.5624 89.3488 43.232 87.8636C35.8237 86.3783 36.6815 80.75 36.6815 80.75ZM105.15 84.5022C105.15 84.5022 98.4436 88.7234 93.2188 91.3812C95.4803 91.7721 105.15 84.5022 105.15 84.5022Z" fill="#F37022"/>
    <path d="M110.609 80.9064C110.609 80.9064 117.159 77.2324 115.99 65.8195C114.976 55.6573 106.242 53.6249 106.242 53.6249C106.242 53.6249 119.109 39.7105 108.893 19.2298C103.512 8.52038 86.0444 9.45843 81.8334 9.92746C84.7187 5.31538 91.2692 -1.48547 104.526 2.26673C123.944 7.73868 127.843 21.6531 127.843 21.6531C127.843 21.6531 129.559 27.2032 128.857 30.8772C128.155 34.5512 127.843 35.802 127.843 35.802C127.843 35.802 140.554 35.0202 145.077 39.945C149.756 45.0261 149.6 53.4685 149.6 53.4685C149.6 53.4685 158.256 56.439 159.66 66.9139C159.66 66.9139 159.348 79.1085 150.38 85.4403C141.412 91.7722 127.141 93.0229 127.141 93.0229C127.141 93.0229 123.944 93.3356 119.187 93.5701C117.939 84.5023 110.609 80.9064 110.609 80.9064Z" fill="url(#paint6_linear_402_4189)"/>
    <path d="M39.5672 78.0139C40.269 74.5744 44.2461 71.6821 44.2461 71.6821C44.2461 71.6821 40.7369 64.6467 47.1315 56.8297C52.9802 49.7161 59.7646 45.8858 59.7646 45.8858C59.7646 45.8858 57.5811 38.694 64.8335 34.0038C74.1914 27.9847 81.9117 29.4699 87.3705 22.3564C88.3063 21.1838 90.3338 20.4021 88.1503 16.3372C85.9668 12.2724 80.1181 13.7576 80.1181 13.7576C80.1181 13.7576 93.5311 7.34761 100.082 19.3859C100.082 19.3859 103.357 24.0761 100.082 29.0791C96.7284 34.082 92.3614 35.4109 92.3614 35.4109C92.3614 35.4109 106.32 33.3003 105.462 22.3564V19.3077C105.462 19.3077 110.141 23.2944 108.27 31.7369C108.27 31.7369 110.999 30.1734 111.545 27.9847C111.545 27.9847 112.169 37.2088 106.242 41.1955C100.316 45.1822 79.3383 49.1689 77.9346 53.9373C76.5309 58.7057 80.1181 60.5037 81.7557 60.3473C83.4713 60.1128 100.861 56.9078 107.646 52.7648C114.43 48.6217 113.885 49.0908 113.885 49.0908C113.885 49.0908 111.077 56.3606 106.164 59.0966C101.251 61.8326 90.4118 65.2721 90.0219 70.1187C89.632 74.9652 97.7421 78.4048 104.449 77.3104C104.449 77.3104 92.6733 87.9416 92.7513 90.8339C92.8292 93.7262 105.073 84.5021 105.073 84.5021L113.183 79.6555C113.183 79.6555 113.027 83.4859 109.284 88.1761C105.54 92.7882 101.407 93.8044 101.407 93.8044C97.5862 93.7262 93.6871 93.4917 90.1778 93.0227C90.1778 93.0227 84.7191 97.3221 74.8933 94.9769C65.0675 92.6318 60.8564 87.0817 60.8564 87.0817L57.5811 87.7071C57.5811 87.7071 54.3838 88.8796 47.0535 87.3944C43.3103 86.6127 38.6314 82.8605 39.5672 78.0139ZM66.3152 88.9578C73.4116 93.5699 83.5493 94.8206 90.8797 89.8958C90.9577 89.8958 90.8797 89.7395 90.8017 89.8177C83.0814 92.3973 74.8933 92.5536 67.7189 88.4106C68.1088 88.1761 68.4987 87.8634 68.8886 87.4726C69.0446 87.3162 68.8886 87.0817 68.6547 87.0817C67.8748 87.238 67.173 87.4726 66.3932 87.7852C65.9253 88.0979 65.8473 88.6451 66.3152 88.9578ZM61.5582 44.0097C61.6362 44.166 61.8702 44.0878 61.8702 43.9315C61.9482 40.6483 63.6638 38.5377 66.3152 36.818C68.7326 35.3327 71.3061 33.9256 73.8015 32.7531C73.9575 32.6749 73.8795 32.4404 73.6455 32.4404C70.2143 33.613 66.7051 34.8637 63.8977 37.0525C61.9482 38.6941 60.1546 41.5082 61.5582 44.0097ZM56.5674 51.5922C53.2141 52.6866 50.4847 55.1881 48.5352 58.0804C46.7416 60.66 44.636 64.8031 45.6498 68.0081C45.7278 68.1644 45.9617 68.2426 46.0397 68.0862C46.6636 66.7573 46.8196 65.1939 47.2095 63.7868C47.6774 62.1453 48.3792 60.5818 49.237 59.1748C51.1086 56.1261 53.682 53.8592 56.6453 51.9049C56.7233 51.7486 56.6454 51.514 56.5674 51.5922ZM43.2324 82.2351C46.2737 86.6909 53.0582 86.9254 57.7371 85.3619C57.8931 85.2838 57.8931 85.0493 57.6591 85.0493C53.604 84.7366 49.5489 85.6746 46.0397 83.095C42.5305 80.5935 42.2966 74.5744 47.2095 73.6363C47.3654 73.6363 47.3654 73.3237 47.1315 73.3237C42.2966 72.9328 40.9709 78.8738 43.2324 82.2351Z" fill="#5F308C"/>
    <path d="M79.728 13.5225C79.728 13.5225 79.806 14.2261 80.1959 13.7571C83.0033 10.8647 95.1686 -0.78269 113.26 9.69218C131.976 20.4797 123.944 40.1787 123.944 40.1787C123.944 40.1787 139.073 38.3027 144.22 45.338C149.288 52.3734 146.637 61.2848 146.637 61.2848C146.637 61.2848 153.032 56.0474 155.917 65.9751C158.802 75.9028 150.38 85.4396 150.38 85.4396C150.38 85.4396 160.986 77.6225 159.894 67.304C158.802 57.0636 150.536 53.1551 150.536 53.1551C150.536 53.1551 150.926 44.4 144.376 39.9442C137.825 35.4885 127.921 35.8012 127.921 35.8012C127.921 35.8012 133.77 19.0727 118.017 7.58157C102.265 -3.90952 90.8015 2.65682 90.8015 2.65682C90.8015 2.65682 82.6134 5.31462 79.728 13.5225Z" fill="#FFB284"/>
    <path d="M70.5261 77.1535C70.6821 76.9971 70.8381 76.919 70.994 76.919C71.228 76.919 71.4619 76.8408 71.6959 76.8408C72.1638 76.7626 72.5537 76.7626 73.0216 76.7626C73.8794 76.6845 74.7372 76.6063 75.673 76.6063C77.3886 76.5281 79.1822 76.45 80.8978 76.2154C81.7556 76.1373 82.6134 76.0591 83.5492 75.9028C84.0171 75.8246 84.407 75.8246 84.8749 75.7464C84.9529 75.7464 85.1089 75.7464 85.1868 75.6682C85.0309 75.6682 85.2648 75.6682 85.2648 75.6682C85.5768 75.5901 85.8107 75.5901 86.1226 75.5901C86.2006 75.5901 86.2786 75.5901 86.3566 75.5901C86.2006 75.5901 86.3566 75.5901 86.3566 75.5901C86.4346 75.5901 86.5125 75.5901 86.5125 75.5901C86.7465 75.5901 86.9025 75.5119 87.1364 75.5119C87.6043 75.4337 87.9942 75.3556 88.4621 75.2774C89.3199 75.1211 90.1777 74.9647 91.0355 74.8084C92.9851 74.4175 94.9347 74.0267 96.8062 73.5576C97.1182 73.4795 97.5081 73.5576 97.742 73.7921C97.82 73.9485 97.976 74.0267 98.054 74.2612C98.1319 74.4175 98.054 74.652 98.054 74.8084C97.976 75.1211 97.6641 75.4337 97.3521 75.5119C93.8429 76.3718 90.3337 76.919 86.8245 77.388C83.3153 77.857 79.806 78.0134 76.2968 78.0134C75.2831 78.0134 74.2693 78.0134 73.3335 77.9352C72.8656 77.9352 72.3197 77.857 71.8518 77.7789C71.6179 77.7789 71.3839 77.7007 71.072 77.7007C70.994 77.7007 70.8381 77.7007 70.6821 77.6225C70.6041 77.5443 70.5261 77.4662 70.4481 77.388C70.4481 77.388 70.4481 77.2317 70.5261 77.1535Z" fill="#FFB284"/>
    <path d="M76.3747 74.5739C76.6866 74.4957 76.9986 74.4957 77.3105 74.4175C77.6224 74.4175 77.9344 74.3393 78.3243 74.3393C78.9481 74.2612 79.572 74.183 80.1179 74.1048C81.3656 73.9485 82.6913 73.7921 83.939 73.5576C86.4345 73.1668 89.0079 72.6978 91.4254 72.0724C92.1272 71.9161 92.829 71.7597 93.5309 71.5252C94.2327 71.3689 95.2465 70.978 95.8704 71.447C96.1043 71.6034 96.1823 71.9161 96.1043 72.2287C95.7924 72.9323 94.8566 73.0886 94.2327 73.245C93.6089 73.4013 92.985 73.5576 92.3611 73.714C91.1134 74.0267 89.7877 74.2612 88.54 74.4175C87.2143 74.652 85.8886 74.8084 84.5629 74.9647C83.3152 75.121 81.9895 75.1992 80.7417 75.1992C80.0399 75.1992 79.3381 75.1992 78.5582 75.1992C78.1683 75.1992 77.8564 75.1992 77.4665 75.121C77.0766 75.121 76.6866 75.121 76.2967 75.0429C76.2187 74.9647 76.2188 74.652 76.3747 74.5739Z" fill="#FFB284"/>
    <path d="M67.1727 53.3901C67.4066 53.2337 67.5626 53.0774 67.7966 52.921C68.0305 52.7647 68.2644 52.5302 68.4984 52.3738C68.9663 52.1393 69.4342 51.8267 69.9801 51.5921C70.9938 51.1231 72.0856 50.6541 73.0994 50.2632C75.1269 49.4034 77.1545 48.6998 79.26 48.0745C83.3931 46.7456 87.6821 45.7293 92.0491 45.0258C94.5446 44.6349 97.04 44.2441 99.5354 44.0096C100.081 43.9314 100.627 44.5568 100.627 45.104C100.627 45.7293 100.159 46.1202 99.5354 46.1984C98.4437 46.2765 97.3519 46.4329 96.2602 46.5892C96.0262 46.5892 95.7143 46.6674 95.4804 46.6674C95.4804 46.6674 95.7143 46.6674 95.4804 46.6674C95.4024 46.6674 95.4024 46.6674 95.3244 46.6674C95.1684 46.6674 95.0125 46.7456 94.8565 46.7456C94.3106 46.8237 93.7647 46.9019 93.2968 46.9801C91.1913 47.2928 89.0078 47.7618 86.9023 48.2308C82.6132 49.1688 78.4802 50.3414 74.3471 51.7485C73.1773 52.1393 72.0856 52.5302 70.9159 52.921C70.37 53.1556 69.7461 53.3119 69.2002 53.4682C69.0443 53.5464 68.8883 53.5464 68.7323 53.6246C68.5764 53.6246 68.4204 53.6246 68.2645 53.7028C67.9525 53.7028 67.6406 53.7809 67.3287 53.8591C67.0947 53.8591 67.0167 53.5464 67.1727 53.3901Z" fill="#FFB284"/>
    <path d="M71.5398 55.3445C72.0077 54.9537 72.5536 54.4846 73.0994 54.172C73.6453 53.8593 74.1912 53.4684 74.7371 53.1557C75.9068 52.5304 76.9986 51.905 78.2463 51.3578C80.6637 50.2634 83.1592 49.4035 85.6546 48.7782C86.3565 48.6218 87.0583 48.4655 87.7601 48.3092C88.1501 48.231 88.462 48.1528 88.8519 48.0746C89.3198 47.9965 89.7877 47.9183 90.2556 48.0746C90.5675 48.1528 90.8015 48.3873 90.8794 48.7C90.9574 49.0127 90.8795 49.4035 90.6455 49.5599C90.4116 49.7162 90.2556 49.8726 89.9437 49.9507C89.7877 50.0289 89.6317 50.0289 89.5537 50.0289C89.2418 50.1071 88.8519 50.1071 88.54 50.1852C87.9161 50.2634 87.2922 50.4198 86.6684 50.5761C85.4207 50.8106 84.173 51.1233 82.9252 51.5142C80.5078 52.2177 78.0903 53.0776 75.7508 54.0156C75.127 54.2501 74.4251 54.5628 73.8013 54.8755C73.0994 55.1882 72.4756 55.4227 71.7737 55.6572C71.5398 55.7354 71.3838 55.4227 71.5398 55.3445Z" fill="#FFB284"/>
    <path d="M127.219 36.8956C127.375 36.3484 127.531 35.8012 127.609 35.254C136.655 34.785 147.261 37.7555 150.068 47.4486C151.394 52.0607 150.224 57.1418 147.729 61.1285C144.999 65.4279 140.788 68.242 136.421 70.509C136.187 70.6653 135.953 70.2745 136.187 70.1181C143.596 65.6624 151.55 57.3763 148.742 47.8395C146.091 38.6153 135.719 36.1921 127.219 36.8956Z" fill="#2D0F4A"/>
    <path d="M156.463 77.9356C158.334 74.8088 159.348 71.2129 159.192 67.5389C158.958 61.2853 155.059 56.126 149.366 54.4844C149.522 53.9372 149.6 53.3118 149.678 52.7646C155.527 54.2499 159.816 60.0345 160.44 66.0537C161.22 73.4799 157.009 82.4695 150.068 85.6745C149.99 85.6745 149.912 85.5963 149.99 85.5963C152.252 83.0167 154.669 80.8279 156.463 77.9356Z" fill="#2D0F4A"/>
    <path d="M124.646 40.1791C127.219 35.5671 128.701 30.7987 128.155 25.4831C127.531 20.1675 125.114 15.3209 121.449 11.4905C114.586 4.2988 103.747 -0.000583658 93.8428 2.1882C88.462 3.43893 84.6408 6.95661 81.0536 11.0215C80.8197 11.3342 80.2738 10.9433 80.5078 10.6306C92.673 -9.69375 125.66 2.89173 129.013 23.6851C129.949 29.3134 129.013 36.1143 124.802 40.2573C124.724 40.3355 124.646 40.2573 124.646 40.1791Z" fill="#2D0F4A"/>
    <path d="M79.9619 13.757C83.3151 12.2717 88.7739 13.757 89.1638 17.9782C89.3198 19.8543 88.54 21.9649 87.2922 23.372C85.8106 24.9354 83.4711 25.4044 81.5215 25.9516C71.6177 28.6094 59.6864 30.4073 56.1772 41.6639C56.0992 41.8984 55.7873 41.8203 55.7873 41.5857C55.9433 33.5342 64.9892 29.2348 71.5398 27.2023C75.8288 25.8734 80.5078 25.1699 84.7188 23.4501C86.9803 22.5121 88.9299 19.2289 87.6821 16.8056C86.2005 13.8351 82.8472 13.9915 80.0399 13.9133C79.8839 13.9915 79.8059 13.8351 79.9619 13.757Z" fill="#2D0F4A"/>
    <path d="M41.4386 73.089C41.0487 73.4016 40.7367 73.7925 40.4248 74.1833C35.9018 64.4902 42.2964 54.2498 50.7185 49.3251C55.7094 46.3546 61.4801 44.8693 67.0948 43.8531C73.4114 42.6806 79.806 41.6643 86.1226 41.1953C86.1226 41.1953 86.2006 41.2735 86.1226 41.2735C75.439 44.1658 63.6636 44.4003 53.6039 49.4032C49.2368 51.5138 45.1817 54.6407 42.6863 58.9401C40.2688 63.0831 39.567 68.4769 41.4386 73.089Z" fill="#2D0F4A"/>
    <path d="M89.5536 59.0185C83.9389 60.5819 78.1682 61.7544 72.4754 63.1615C66.9387 64.5686 61.4019 65.9757 55.9431 67.6172C50.9523 69.1025 45.8834 70.9004 41.8283 74.2617C39.8008 75.9033 37.5393 78.0921 37.2273 80.8281C36.9154 83.0169 37.9292 84.893 39.6448 86.3C39.8007 86.4564 39.6448 86.6909 39.4108 86.6909C35.0438 85.5965 35.3558 79.9682 37.4613 76.9977C40.6586 72.4638 45.9614 69.806 50.9523 67.9299C57.0349 65.663 63.3515 64.1777 69.6681 62.6925C76.2186 61.1291 82.9251 59.5657 89.6316 58.8621C89.6316 58.784 89.6316 58.9403 89.5536 59.0185Z" fill="#2D0F4A"/>
    <path d="M126.361 75.8252C124.178 76.9978 121.76 77.545 119.421 78.4049C116.926 79.2648 114.43 80.2028 112.013 81.219C107.334 83.1733 103.513 86.0656 99.3795 88.8797C95.0125 91.8502 90.4115 94.3517 85.1867 95.2897C80.5077 96.1496 74.2691 96.306 70.136 93.6482C70.0581 93.57 70.0581 93.4136 70.214 93.4136C72.8654 93.6482 75.4388 94.3517 78.1682 94.508C80.8976 94.6644 83.705 94.3517 86.3564 93.7263C91.7372 92.4756 96.3382 89.5051 100.783 86.3783C104.448 83.7986 108.036 81.5317 112.247 79.8901C114.664 78.9521 117.082 78.1704 119.499 77.4668C121.76 76.7633 124.022 75.9816 126.361 75.7471C126.439 75.7471 126.439 75.8252 126.361 75.8252Z" fill="#2D0F4A"/>
    <path d="M45.0258 87.9419C47.5212 87.551 50.2506 87.7073 52.824 87.4728C55.6314 87.2383 58.3608 86.7693 61.0902 86.2221C66.6269 84.9714 71.6958 82.8608 76.8427 80.672C76.9986 80.5938 77.1546 80.8283 76.9986 80.9065C72.5536 84.2678 66.7829 86.1439 61.4021 87.3165C58.7507 87.8637 56.0993 88.2545 53.4479 88.4109C50.7965 88.5672 47.6772 88.8799 45.0258 88.2545C44.8698 88.1764 44.8698 87.9419 45.0258 87.9419Z" fill="#2D0F4A"/>
    <path d="M119.889 44.2442C117.627 46.9802 114.586 49.2472 111.623 51.1233C108.659 52.9993 105.306 54.8754 101.797 55.4226C101.641 55.4226 101.563 55.2663 101.719 55.1881C104.838 53.4684 108.192 52.2176 111.233 50.3415C114.274 48.5436 117.004 46.2767 119.889 44.0879C119.811 44.0879 119.889 44.1661 119.889 44.2442Z" fill="#2D0F4A"/>
    <path d="M91.3474 11.334C97.1181 9.69237 102.967 13.9136 105.072 19.151C107.646 25.4828 105.618 32.2055 100.861 36.8176C100.783 36.8958 100.705 36.8176 100.783 36.7394C104.293 32.2055 106.242 26.1082 104.448 20.4799C102.577 14.5389 97.3521 11.4903 91.3474 11.5685C91.2694 11.5685 91.2694 11.4121 91.3474 11.334Z" fill="#2D0F4A"/>
    <path d="M111.077 21.8092C113.806 31.5805 103.669 38.694 94.9347 39.2412C94.7787 39.2412 94.7007 39.0067 94.8567 38.9285C98.9898 37.4433 103.201 36.5052 106.632 33.4566C109.751 30.7206 111.935 26.0304 110.999 21.8092C110.921 21.8092 111.077 21.731 111.077 21.8092Z" fill="#2D0F4A"/>
    <path d="M149.444 82.7825C151.082 79.4993 152.564 76.2162 152.876 72.5421C153.187 68.79 152.72 64.1779 148.664 62.849C148.431 62.7708 148.431 62.38 148.664 62.3018C153.187 60.6602 154.513 67.4611 154.513 70.5097C154.513 74.9654 153.032 79.812 149.6 82.8607C149.522 82.9388 149.366 82.8607 149.444 82.7825Z" fill="#FFB284"/>
    <path d="M143.986 60.8162C144.609 55.9697 143.986 51.2012 140.554 47.449C138.995 45.7293 136.967 44.4004 134.862 43.5405C132.678 42.6025 130.495 42.6806 128.155 42.3679C127.921 42.3679 127.999 42.0553 128.155 41.9771C130.417 41.039 133.536 41.5862 135.797 42.3679C138.215 43.2278 140.398 44.7912 142.036 46.7455C145.155 50.4977 146.481 56.3605 144.454 60.9726C144.298 61.1289 143.908 61.0507 143.986 60.8162Z" fill="#FFB284"/>
    <path d="M122.54 36.9744C123.008 29.7827 121.76 22.4347 117.004 16.8064C114.82 14.2268 112.169 12.1162 109.205 10.6309C106.008 8.98934 102.577 8.36397 99.1455 7.66044C98.9895 7.66044 98.9895 7.42593 99.1455 7.42593C106.164 6.33154 113.884 10.7091 118.251 15.9465C122.93 21.653 125.348 29.8609 122.93 37.0526C122.852 37.209 122.54 37.209 122.54 36.9744Z" fill="#FFB284"/>
    <path d="M108.348 9.37998C105.306 8.75462 101.875 12.8977 103.669 15.0083C105.462 17.1189 112.949 18.526 113.183 15.0083C113.494 11.4906 109.907 9.69267 108.348 9.37998Z" fill="#FFB284"/>
    <path d="M134.55 43.1494C131.196 42.4458 127.375 47.0579 129.403 49.403C131.352 51.7481 139.618 53.3115 139.93 49.403C140.242 45.4945 136.265 43.5402 134.55 43.1494Z" fill="#FFB284"/>
    <path d="M140.476 53.155C138.995 52.0606 136.421 54.4057 137.669 56.2036C138.917 58.0797 141.724 58.2361 141.88 56.2036C141.958 55.2656 141.49 53.9367 140.476 53.155Z" fill="#FFB284"/>
    <path d="M114.898 17.4313C113.417 16.3369 110.843 18.6821 112.091 20.48C113.339 22.3561 116.146 22.5124 116.302 20.48C116.38 19.5419 115.912 18.213 114.898 17.4313Z" fill="#FFB284"/>
    <path d="M121.761 32.049C120.747 31.1891 119.031 32.987 119.889 34.3941C120.747 35.8012 122.618 35.9575 122.696 34.3941C122.774 33.6906 122.462 32.6743 121.761 32.049Z" fill="#FFB284"/>
    <path d="M144.843 67.6173C143.83 66.7575 142.114 68.5554 142.972 69.9625C143.83 71.3695 145.701 71.5259 145.779 69.9625C145.857 69.1807 145.545 68.1645 144.843 67.6173Z" fill="#FFB284"/>
    <path d="M133.926 51.1232C132.912 50.2633 131.196 52.0612 132.054 53.4683C132.912 54.8754 134.784 55.0317 134.862 53.4683C134.94 52.7648 134.628 51.7486 133.926 51.1232Z" fill="#FFB284"/>
    <path d="M152.33 65.8974C150.458 63.0051 144.531 65.3502 145.545 69.3369C146.559 73.3236 151.16 75.5124 152.72 72.0729C153.499 70.5095 153.577 67.8517 152.33 65.8974Z" fill="#FFB284"/>
    <path d="M149.288 75.512C148.431 74.1831 145.623 75.2775 146.091 77.1536C146.559 79.0297 148.742 80.0459 149.444 78.4043C149.834 77.7008 149.912 76.4501 149.288 75.512Z" fill="#FFB284"/>
    <path d="M143.83 89.1143C137.357 91.9285 130.572 93.4137 123.554 94.1954C116.224 95.0553 108.737 95.2898 101.485 93.9609C101.329 93.9609 101.329 93.6482 101.485 93.7264C115.678 94.2736 130.105 93.3356 143.752 88.958C143.83 88.958 143.907 89.0362 143.83 89.1143Z" fill="#2D0F4A"/>
    <path d="M144.376 85.0486C137.981 87.9409 130.807 89.5825 123.866 90.5205C116.77 91.5368 109.595 91.8494 102.421 91.3804C101.017 91.3022 101.017 89.1135 102.421 89.2698C109.361 89.7388 116.38 89.6607 123.242 88.879C130.339 88.0191 137.201 86.2993 144.142 84.6577C144.454 84.5796 144.688 84.9704 144.376 85.0486Z" fill="#E05C0D"/>
    <path d="M131.041 85.4397C123.32 87.7067 115.054 88.332 107.1 88.4102C105.774 88.4102 105.774 86.2996 107.1 86.3778C115.132 86.4559 123.008 85.5961 130.963 84.9707C131.274 84.9707 131.274 85.3616 131.041 85.4397Z" fill="#E05C0D"/>
    <path d="M122.93 45.1036C121.137 48.1522 118.407 50.7319 115.6 52.8425C114.118 53.9369 112.481 54.8749 110.765 55.7348C109.205 56.4383 107.412 57.3764 105.774 57.3764C104.838 57.3764 104.448 56.0475 105.306 55.5785C106.632 54.7968 108.348 54.4841 109.751 53.9369C111.389 53.2333 113.027 52.4516 114.508 51.5136C117.549 49.6375 119.967 47.2924 122.462 44.7127C122.618 44.4782 123.086 44.7909 122.93 45.1036Z" fill="#E05C0D"/>
    <path d="M121.293 50.5763C118.329 54.8757 112.637 57.4553 107.88 59.2532C105.072 60.2694 102.265 61.2075 99.4576 62.2237C97.9759 62.7709 96.5722 63.3963 95.1686 64.0998C93.9988 64.7252 92.9071 65.5069 91.5814 65.6632C91.2694 65.6632 91.1135 65.3505 91.2694 65.116C92.3612 63.0054 95.5585 61.8328 97.586 60.973C100.237 59.8004 102.967 58.8624 105.618 57.9243C108.426 56.9863 111.233 56.1264 113.884 54.8757C116.614 53.6249 118.719 52.1397 121.137 50.4199C121.215 50.4199 121.371 50.4981 121.293 50.5763Z" fill="#E05C0D"/>
    <path d="M103.513 51.4354C99.6916 54.8749 94.4667 56.2038 89.5538 57.2201C86.7465 57.7672 83.8611 58.0799 81.0538 58.4708C78.3244 58.8616 75.439 59.8779 72.7096 59.956C72.0858 59.956 71.9298 59.1743 72.3977 58.8616C74.5812 57.5327 77.4666 57.2201 79.962 56.8292C82.6914 56.3602 85.4988 56.0475 88.2281 55.6566C93.6089 54.8749 98.4439 53.4679 103.357 51.0446C103.435 50.9664 103.669 51.2791 103.513 51.4354Z" fill="#E05C0D"/>
    <path d="M113.416 26.9683C114.976 30.4078 114.664 34.16 113.027 37.5214C111.857 40.0228 109.049 43.6969 106.008 43.9314C105.852 43.9314 105.696 43.6969 105.852 43.6187C106.554 42.6025 107.802 41.9771 108.66 41.0391C109.673 39.8665 110.687 38.6158 111.389 37.2087C113.027 34.16 113.338 30.486 113.182 27.0465C113.182 26.8902 113.338 26.8902 113.416 26.9683Z" fill="#E05C0D"/>
    <path d="M114.742 39.007C114.04 40.6486 112.325 41.8212 110.843 42.6811C109.439 43.4628 107.646 44.4008 106.008 43.8536C105.852 43.7754 105.852 43.6191 106.008 43.5409C107.334 42.6029 109.049 42.3684 110.531 41.5867C112.013 40.805 113.261 39.7887 114.664 38.9289C114.664 38.8507 114.742 38.9289 114.742 39.007Z" fill="#E05C0D"/>
    <path d="M119.421 75.1994C116.77 76.1375 114.118 76.841 111.545 77.9354C109.049 79.0298 106.632 80.3587 104.37 81.9221C100.549 84.5018 96.962 88.6448 92.0491 88.8793C91.1133 88.8793 90.8794 87.4722 91.8152 87.2377C97.04 86.2215 100.549 82.0003 104.916 79.3425C109.127 76.841 114.352 74.8086 119.343 74.8086C119.577 74.8086 119.655 75.1213 119.421 75.1994Z" fill="#E05C0D"/>
    <path d="M112.871 73.8707C111.545 74.8087 109.829 75.3559 108.348 76.2158C106.866 77.0757 105.384 77.9356 103.981 78.9518C102.577 79.968 101.173 81.0624 99.9255 82.2349C98.7558 83.2512 97.5861 84.8927 96.1824 85.5181C95.9484 85.5963 95.7145 85.4399 95.7145 85.2054C96.0264 83.7202 97.4301 82.3131 98.4439 81.2969C99.7696 79.968 101.251 78.7173 102.811 77.701C105.462 75.9031 109.517 73.7143 112.793 73.8707C112.949 73.7925 112.949 73.8707 112.871 73.8707Z" fill="#E05C0D"/>
    <path d="M112.247 199.569C111.623 201.211 113.105 203.478 113.807 205.041C114.821 207.386 115.678 209.732 116.614 212.077C118.642 217.158 120.357 222.317 121.761 227.555C124.412 237.873 125.582 248.426 125.582 259.057C125.582 262.106 130.261 262.731 130.261 259.683C130.339 248.582 128.779 237.56 125.738 226.851C124.256 221.535 122.385 216.376 120.201 211.373C119.11 208.872 117.784 206.448 116.38 204.103C115.444 202.54 114.353 199.726 112.481 199.413C112.325 199.413 112.247 199.491 112.247 199.569Z" fill="white"/>
    <path d="M142.582 257.572C140.087 255.618 135.798 254.836 132.289 255.774C131.977 255.618 131.587 255.539 131.275 255.461C129.403 254.601 127.376 254.132 125.27 254.836C123.009 255.539 121.137 257.572 121.215 260.073C121.371 266.952 130.963 268.047 136.032 267.656C138.839 267.499 142.192 267.187 143.986 264.764C145.858 262.34 144.766 259.292 142.582 257.572Z" fill="white"/>
    <path d="M75.985 193.863C77.5446 198.006 76.7648 202.852 75.1271 206.839C73.4115 210.982 70.5262 214.656 66.783 217.236C63.0399 219.737 58.5169 221.144 54.0719 221.222C51.8884 221.301 49.6269 221.066 47.5213 220.519C45.5718 220.05 42.6084 219.346 41.4387 217.627C40.9708 216.923 41.3607 215.516 42.4525 215.594C44.3241 215.672 46.0397 217.001 47.9113 217.47C49.8608 218.017 51.8884 218.252 53.9159 218.252C57.893 218.174 61.7921 217.079 65.1454 214.812C68.4986 212.624 70.9941 209.419 72.6317 205.745C74.3473 201.992 74.7372 198.084 74.9712 194.019C75.0492 193.394 75.829 193.394 75.985 193.863Z" fill="white"/>
    <path d="M38.1636 210.904C40.815 210.201 43.3104 212.077 43.2324 214.578C43.7003 216.298 42.8425 218.409 41.5948 219.894C43.3104 220.754 44.6361 222.161 44.3242 224.506C43.8563 227.789 39.9572 228.336 37.4617 227.164C34.3424 225.757 32.6268 222.317 32.8607 218.956C33.0947 215.829 34.8883 211.764 38.1636 210.904Z" fill="white"/>
    <path d="M7.04862 166.66C7.43853 168.301 8.37431 169.708 9.62203 170.647C11.0257 172.444 13.1313 173.461 15.6267 172.523C22.2552 170.099 19.8377 157.748 12.5854 158.608C8.68624 159.077 6.11283 162.908 7.04862 166.66Z" fill="white"/>
    <path d="M18.2001 167.441C20.6956 168.458 24.1268 169.083 23.8149 172.444C23.6589 174.164 26.0764 174.711 26.7002 173.148C27.558 171.194 26.3103 168.77 24.6727 167.598C22.8791 166.347 20.3056 166.269 18.2001 166.816C17.9662 166.894 17.9662 167.285 18.2001 167.441Z" fill="white"/>
    <path d="M12.0394 171.428C10.3238 173.617 9.77791 176.431 10.9476 179.011C11.9614 181.199 14.1449 182.763 16.6404 182.841C18.5119 182.841 18.8239 179.949 16.9523 179.949C12.7412 179.87 12.9752 174.789 12.9752 171.819C12.9752 171.35 12.3513 171.037 12.0394 171.428Z" fill="white"/>
    <path d="M9.77809 170.334C4.86519 171.35 3.4615 177.213 6.97071 180.73C8.29641 182.059 10.5579 180.183 9.2322 178.854C7.04869 176.587 7.82851 173.226 10.4019 171.584C10.9478 171.193 10.4799 170.177 9.77809 170.334Z" fill="white"/>
    <path d="M9.31006 168.692C8.53023 166.66 4.94304 167.442 3.53936 168.223C1.35585 169.474 0.420055 171.976 0.809968 174.477C1.04392 176.197 3.7733 175.806 3.53936 174.008C3.30541 172.445 3.7733 170.803 5.17698 169.865C5.87883 169.396 6.65866 169.161 7.43848 169.161C8.06234 169.083 8.60821 169.24 9.23207 169.005C9.31005 168.849 9.31006 168.771 9.31006 168.692Z" fill="white"/>
    <path d="M44.3242 146.414C42.0627 142.818 37.0719 140.707 33.0168 139.847C28.7277 138.987 24.4387 139.378 20.4616 141.176C12.1955 144.85 7.28255 153.762 9.3101 162.673C9.77799 164.862 13.1312 163.924 12.6633 161.735C11.0257 154.309 15.4707 146.961 22.4112 144.147C25.6084 142.896 29.2736 142.427 32.6269 142.896C34.5764 143.209 36.604 143.756 38.3976 144.616C40.1912 145.398 41.7508 146.492 43.5444 147.274C44.0123 147.43 44.6362 146.961 44.3242 146.414Z" fill="white"/>
    <path d="M157.009 184.326C158.958 182.997 161.532 183.075 163.325 184.404C164.495 184.716 165.587 185.655 166.133 186.671C167.537 189.25 166.835 192.534 165.431 194.957C164.027 197.38 161.61 199.178 158.724 198.553C155.683 197.927 153.656 195.113 153.5 192.143C153.344 189.329 154.513 185.967 157.009 184.326Z" fill="white"/>
    <path d="M158.958 184.795C155.995 185.576 153.656 188.156 153.5 191.283C153.422 193.472 149.834 193.081 150.146 190.892C150.848 186.671 154.513 183.153 158.958 183.778C159.582 183.935 159.504 184.716 158.958 184.795Z" fill="white"/>
    <path d="M154.903 172.288C157.633 173.539 160.596 174.086 163.325 175.415C165.977 176.744 168.628 178.541 170.734 180.652C172.839 182.841 173.385 185.577 170.89 187.766C168.628 189.72 165.353 189.72 162.546 189.798C160.128 189.798 160.674 193.55 163.091 193.55C166.835 193.472 170.812 193.081 173.619 190.345C176.271 187.766 177.128 184.013 175.101 180.808C173.151 177.603 169.486 175.493 166.133 174.008C162.936 172.6 158.49 170.959 154.981 171.662C154.591 171.662 154.591 172.131 154.903 172.288Z" fill="white"/>
    <path d="M84.4852 134.062C83.3935 134.296 81.6779 134.062 80.3522 133.984C79.9622 133.984 79.5723 133.906 79.1824 133.906C78.4806 132.968 77.9347 131.717 77.7008 130.232C77.3888 128.355 77.7787 126.636 78.4806 125.385C78.5586 125.307 78.5586 125.229 78.6365 125.15C80.4301 125.072 82.2237 124.916 83.9394 125.307C84.7192 126.245 85.2651 127.574 85.499 129.059C85.8109 131.013 85.421 132.811 84.6412 134.062C84.5632 134.062 84.5632 134.062 84.4852 134.062Z" fill="#999999"/>
    <path d="M84.4852 134.062C83.8614 134.219 83.0816 134.219 82.3017 134.141C83.0816 133.124 83.4715 131.405 83.2375 129.607C82.8476 127.183 81.5219 125.385 80.0402 125.073C81.3659 124.995 82.6916 124.995 83.9394 125.307C84.7192 126.245 85.2651 127.574 85.499 129.059C85.8109 131.014 85.421 132.812 84.6412 134.062C84.5632 134.062 84.5632 134.062 84.4852 134.062Z" fill="white"/>
    <path d="M80.3522 133.984C79.9623 133.984 79.5724 133.906 79.1825 133.906C78.4806 132.968 77.9347 131.717 77.7008 130.232C77.3889 128.355 77.7788 126.636 78.4806 125.385C78.6366 125.229 78.8705 125.15 79.1045 125.072C79.4164 125.072 79.7283 125.072 80.0403 124.994C81.5219 125.307 82.9256 127.105 83.2375 129.528C83.4715 131.326 83.1596 133.046 82.3018 134.062C81.6779 134.14 80.9761 134.062 80.3522 133.984Z" fill="black"/>
    <path d="M78.4807 127.965C78.6367 128.668 79.3386 129.137 80.0404 128.981C80.7422 128.825 81.2101 128.121 81.0542 127.417C80.8982 126.714 80.1964 126.245 79.4945 126.401C78.7927 126.558 78.3248 127.261 78.4807 127.965Z" fill="black"/>
    <path d="M78.5587 130.543C78.6367 130.934 79.0266 131.247 79.4945 131.168C79.8844 131.09 80.1963 130.7 80.1183 130.231C80.0404 129.84 79.6504 129.528 79.1825 129.606C78.7147 129.762 78.4807 130.153 78.5587 130.543Z" fill="black"/>
    <path d="M114.743 125.777C115.132 125.698 115.522 125.62 115.912 125.542C117.238 125.229 118.564 125.308 119.889 125.308C120.201 125.386 120.591 125.542 120.903 125.698C121.449 126.793 121.761 128.2 121.683 129.685C121.605 131.248 121.137 132.734 120.435 133.75C119.032 133.594 117.55 133.515 116.068 133.594C115.99 133.594 115.834 133.515 115.756 133.515C115.366 133.437 114.976 133.281 114.587 133.203C114.041 132.108 113.807 130.779 113.807 129.294C113.885 127.965 114.275 126.793 114.743 125.777Z" fill="#999999"/>
    <path d="M118.018 125.308C118.642 125.308 119.266 125.308 119.889 125.308C120.201 125.386 120.591 125.542 120.903 125.698C121.449 126.793 121.761 128.2 121.683 129.685C121.605 131.249 121.137 132.734 120.435 133.75C119.655 133.672 118.876 133.594 118.096 133.594C118.798 132.734 119.343 131.327 119.421 129.763C119.499 127.887 118.876 126.246 118.018 125.308Z" fill="white"/>
    <path d="M114.743 125.777C115.133 125.698 115.522 125.62 115.912 125.542C116.614 125.386 117.316 125.308 118.018 125.308C118.954 126.246 119.5 127.887 119.422 129.763C119.344 131.327 118.876 132.656 118.096 133.594C117.394 133.594 116.77 133.594 116.068 133.594C115.99 133.594 115.834 133.516 115.756 133.516C115.366 133.437 114.977 133.281 114.587 133.203C114.041 132.108 113.807 130.78 113.807 129.294C113.885 127.965 114.275 126.793 114.743 125.777Z" fill="black"/>
    <path d="M115.054 127.183C115.054 127.887 115.678 128.512 116.38 128.512C117.082 128.512 117.706 127.887 117.706 127.183C117.706 126.48 117.082 125.854 116.38 125.854C115.6 125.933 115.054 126.48 115.054 127.183Z" fill="black"/>
    <path d="M114.587 129.763C114.587 130.232 114.977 130.544 115.366 130.544C115.834 130.544 116.146 130.153 116.146 129.763C116.146 129.294 115.756 128.981 115.366 128.981C114.977 128.981 114.587 129.372 114.587 129.763Z" fill="black"/>
    <path d="M107.49 152.511C102.733 156.341 93.1412 155.56 88.9302 151.339C88.6962 151.104 88.9302 150.557 89.3201 150.713C92.2054 151.886 94.9348 153.215 98.1321 153.449C101.407 153.684 104.137 152.746 107.256 152.042C107.49 151.964 107.724 152.355 107.49 152.511Z" fill="white"/>
    <path d="M90.8796 127.574C87.6044 126.949 84.563 125.933 81.1318 125.776C79.5722 125.698 78.0125 125.776 76.4529 125.855C74.9712 126.011 73.3336 126.402 71.8519 126.245C71.6959 126.245 71.6179 126.089 71.7739 125.933C74.3473 124.213 78.5584 124.447 81.4437 124.682C84.641 124.917 88.1502 125.542 90.9576 127.34C91.1916 127.418 91.0356 127.574 90.8796 127.574Z" fill="white"/>
    <path d="M89.1642 134.374C86.5127 134.609 83.7054 134.14 80.976 134.14C78.5585 134.14 75.8291 134.921 73.4117 134.53C73.2557 134.53 73.2557 134.296 73.4117 134.296C75.4392 133.124 78.7145 133.046 80.976 133.046C83.6274 133.046 86.6687 133.124 89.2421 134.062C89.3981 134.14 89.3981 134.374 89.1642 134.374Z" fill="white"/>
    <path d="M92.0495 122.806C89.1641 120.304 86.5907 117.881 83.0035 116.474C79.4163 114.989 75.9851 114.989 72.2419 114.911C71.93 114.911 71.852 114.364 72.164 114.285C79.0264 112.175 88.9302 116.396 92.2834 122.728C92.2834 122.806 92.1275 122.884 92.0495 122.806Z" fill="white"/>
    <path d="M108.582 122.806C111.467 120.304 114.04 117.881 117.628 116.474C121.215 114.989 124.646 114.989 128.389 114.911C128.701 114.911 128.779 114.364 128.467 114.285C121.605 112.175 111.701 116.396 108.348 122.728C108.27 122.806 108.426 122.884 108.582 122.806Z" fill="white"/>
    <path d="M109.673 127.34C112.403 125.62 115.99 124.995 119.187 124.682C122.073 124.447 126.362 124.291 128.857 125.933C129.013 126.011 128.935 126.167 128.779 126.245C127.297 126.402 125.66 126.011 124.178 125.855C122.619 125.698 121.059 125.698 119.499 125.776C116.146 125.933 113.105 126.949 109.751 127.574C109.595 127.574 109.517 127.418 109.673 127.34Z" fill="white"/>
    <path d="M111.467 134.062C113.962 133.202 117.082 133.046 119.733 133.046C122.073 133.046 125.27 133.046 127.297 134.296C127.375 134.374 127.375 134.53 127.297 134.53C124.88 134.921 122.151 134.218 119.733 134.14C117.004 134.14 114.196 134.609 111.545 134.374C111.311 134.374 111.233 134.14 111.467 134.062Z" fill="white"/>
    <defs>
        <linearGradient id="paint0_linear_402_4189" x1="175.86" y1="147.329" x2="21.2551" y2="147.329" gradientUnits="userSpaceOnUse">
            <stop stop-color="#F0B85D"/>
            <stop offset="1" stop-color="#E4A23C"/>
        </linearGradient>
        <linearGradient id="paint1_linear_402_4189" x1="175.861" y1="98.3961" x2="21.2478" y2="98.3961" gradientUnits="userSpaceOnUse">
            <stop stop-color="#F0B85D"/>
            <stop offset="1" stop-color="#E4A23C"/>
        </linearGradient>
        <linearGradient id="paint2_linear_402_4189" x1="178.861" y1="92.9044" x2="-18.1808" y2="92.9044" gradientUnits="userSpaceOnUse">
            <stop stop-color="#F0B85D"/>
            <stop offset="1" stop-color="#E4A23C"/>
        </linearGradient>
        <linearGradient id="paint3_linear_402_4189" x1="175.86" y1="142.129" x2="140.51" y2="142.129" gradientUnits="userSpaceOnUse">
            <stop stop-color="#F0B85D"/>
            <stop offset="1" stop-color="#E4A23C"/>
        </linearGradient>
        <linearGradient id="paint4_linear_402_4189" x1="127.657" y1="151.69" x2="106.88" y2="151.69" gradientUnits="userSpaceOnUse">
            <stop stop-color="#F0B85D"/>
            <stop offset="1" stop-color="#E4A23C"/>
        </linearGradient>
        <linearGradient id="paint5_linear_402_4189" x1="98.5573" y1="150.628" x2="81.8851" y2="150.628" gradientUnits="userSpaceOnUse">
            <stop stop-color="#F0B85D"/>
            <stop offset="1" stop-color="#E4A23C"/>
        </linearGradient>
        <linearGradient id="paint6_linear_402_4189" x1="124.817" y1="43.1967" x2="109.857" y2="48.2339" gradientUnits="userSpaceOnUse">
            <stop stop-color="#FD8F4D"/>
            <stop offset="1" stop-color="#F37022"/>
        </linearGradient>
    </defs>
</svg>
