<svg width="82" height="42" viewBox="0 0 82 42" fill="none" xmlns="http://www.w3.org/2000/svg">
    <path d="M69.0191 35.0254C68.9478 34.8838 68.8747 34.7457 68.8 34.6087C68.7724 34.559 68.7458 34.5108 68.7192 34.4626C68.6707 34.3762 68.6211 34.2883 68.5697 34.204C68.5306 34.1377 68.4916 34.0715 68.4511 34.0062C68.422 33.9575 68.3903 33.9083 68.3597 33.8606C68.3405 33.8295 68.3202 33.7969 68.2995 33.7668C68.2637 33.7116 68.2368 33.6503 68.1995 33.5961C68.1637 33.5409 68.1364 33.4821 68.0991 33.4279L68.096 33.4234C68.0577 33.3677 68.0105 33.318 67.9696 33.2618C67.8915 33.1514 67.8064 33.0435 67.7249 32.9377C67.6836 32.884 67.6408 32.8313 67.6005 32.7791C67.5644 32.7329 67.5279 32.6893 67.4928 32.6446C67.4371 32.5764 67.3815 32.5082 67.3269 32.4414C67.2934 32.4023 67.26 32.3632 67.2265 32.324C67.2084 32.3009 67.1899 32.2804 67.1704 32.2583C66.6893 31.7015 66.1704 31.188 65.6226 30.7117C65.3695 30.4927 65.1099 30.2802 64.845 30.0757C64.7302 29.988 64.6154 29.9003 64.4986 29.8162C64.4527 29.7811 64.4063 29.7485 64.3599 29.716C64.2768 29.6553 64.1922 29.5957 64.1086 29.5376C63.996 29.4595 63.8834 29.3813 63.7693 29.3042C63.7295 29.2782 63.6913 29.2511 63.6491 29.2246C63.5941 29.189 63.5406 29.1525 63.4846 29.1154C63.4296 29.0798 63.3746 29.0443 63.3196 29.0087C63.3196 29.0087 63.3196 29.0087 63.3186 29.0072C63.2636 28.9717 63.2086 28.9361 63.1522 28.9016C63.0972 28.866 63.0407 28.8315 62.9843 28.7969C62.8678 28.7258 62.7502 28.6532 62.6323 28.5832C62.5804 28.5521 62.5285 28.5211 62.4752 28.491C62.4045 28.4485 62.3348 28.4074 62.2637 28.3674C61.3084 27.8123 60.3149 27.3031 59.3096 26.8084C59.2401 26.7739 59.1691 26.7404 59.0985 26.7044C58.9834 26.6479 58.8656 26.5909 58.7505 26.5344C58.647 26.4853 58.5439 26.4338 58.4405 26.3848C58.3385 26.3348 58.234 26.2843 58.1294 26.2338C57.9108 26.1283 57.6931 26.0243 57.4745 25.9187C57.3517 25.8607 57.2294 25.8002 57.1082 25.7412C56.8631 25.6227 56.6181 25.5042 56.376 25.3836C55.4007 24.904 54.4371 24.4097 53.5058 23.8737C53.4408 23.8361 53.3757 23.7986 53.3096 23.7596C53.2445 23.722 53.181 23.6835 53.1149 23.6444C53.0075 23.5803 52.9002 23.5163 52.7944 23.4512C52.7497 23.4241 52.7039 23.3956 52.6606 23.3676C52.5832 23.3185 52.5069 23.2709 52.4295 23.2219C52.3873 23.1953 52.3476 23.1693 52.3054 23.1427C52.1206 23.0231 51.9372 22.9024 51.7559 22.7781C51.685 22.7291 51.6142 22.68 51.5434 22.6309C51.4934 22.5963 51.446 22.5622 51.3976 22.5267C51.3399 22.4841 51.2818 22.444 51.2242 22.4014C51.1712 22.3623 51.1191 22.3248 51.0666 22.2832C51.0135 22.2441 50.962 22.204 50.9104 22.1639C50.8874 22.1464 50.8634 22.1273 50.8405 22.1098C50.2509 21.6553 49.6888 21.1645 49.163 20.6314C48.9398 20.4053 48.7245 20.1715 48.5146 19.9297C48.4745 19.8841 48.4348 19.8359 48.3947 19.7902C48.3561 19.7436 48.3164 19.6954 48.2767 19.6473C48.2381 19.6006 48.1984 19.5524 48.1603 19.5033C48.1293 19.4646 48.0974 19.4245 48.0679 19.3848C48.0467 19.3572 48.0256 19.3296 48.0034 19.3005C47.9822 19.2729 47.96 19.2438 47.9378 19.2147C47.9053 19.1706 47.8738 19.1279 47.8397 19.0848C47.8134 19.0496 47.7885 19.0135 47.7611 18.9769C47.7446 18.9528 47.7265 18.9297 47.7099 18.9056C47.3276 18.3656 46.9772 17.7863 46.6624 17.1606C47.3311 16.3353 47.9998 15.5099 48.6684 14.6846C49.3371 13.8593 50.0058 13.0339 50.6745 12.2086C51.3431 11.3832 52.0118 10.5579 52.6805 9.73255C53.3492 8.90721 54.0178 8.08187 54.6865 7.25653C55.3601 6.42565 56.0277 5.5988 56.6975 4.77497C57.016 5.43783 57.3757 6.05282 57.7682 6.62348C57.8014 6.67166 57.8345 6.71984 57.8691 6.76702C57.894 6.80315 57.9193 6.83677 57.9442 6.87291C57.9669 6.90604 57.9912 6.93815 58.0144 6.96876C58.048 7.01443 58.0827 7.0616 58.1177 7.10626C58.1513 7.15193 58.1854 7.19508 58.2204 7.23974C58.2488 7.27787 58.2787 7.315 58.3086 7.35213C58.352 7.40884 58.3983 7.46352 58.4421 7.51771C58.4623 7.5438 58.4839 7.56888 58.5055 7.59397C58.6363 7.75251 58.7702 7.90903 58.9089 8.06001C59.4903 8.70559 60.1206 9.2892 60.7877 9.82797C60.8403 9.86956 60.8904 9.91066 60.943 9.95226C60.9808 9.98182 61.0186 10.0114 61.0563 10.041C61.0803 10.06 61.1043 10.079 61.1273 10.0966C61.1697 10.1297 61.2135 10.1617 61.2559 10.1948C61.3687 10.2795 61.4825 10.3657 61.5982 10.4483C61.6859 10.5124 61.7726 10.5751 61.8607 10.6367C61.8618 10.6382 61.8618 10.6382 61.8633 10.6372C61.9188 10.6768 61.9769 10.7168 62.034 10.7554C62.2067 10.8766 62.3829 10.9933 62.5596 11.1075C62.6085 11.1405 62.6579 11.1711 62.7068 11.2041C62.722 11.2137 62.7383 11.2247 62.7546 11.2357C62.8015 11.2657 62.8483 11.2958 62.8966 11.3248C62.9811 11.3779 63.0655 11.431 63.15 11.484C63.2345 11.5371 63.3205 11.5892 63.4064 11.6413C64.3215 12.195 65.2713 12.7073 66.2315 13.2061C66.7057 13.4517 67.1818 13.6939 67.658 13.936C68.1473 14.1846 68.6381 14.4322 69.1241 14.6853C70.0842 15.1841 71.033 15.695 71.9491 16.2502C71.9608 16.2577 71.9725 16.2652 71.9842 16.2727C72.0397 16.3058 72.0951 16.3388 72.1501 16.3743C72.3795 16.5145 72.6055 16.6592 72.8311 16.8065C72.9314 16.8731 73.0307 16.9382 73.1295 17.0058C73.3949 17.1856 73.6569 17.37 73.9125 17.5609C73.9645 17.5984 74.015 17.637 74.0655 17.6756C74.1161 17.7142 74.1676 17.7543 74.2181 17.7929C74.3365 17.8826 74.4519 17.9743 74.5669 18.0685C74.7411 18.2108 74.9138 18.3542 75.0831 18.5021C75.7133 19.0505 76.3062 19.6463 76.8476 20.3035C76.8553 20.3115 76.8616 20.3206 76.8693 20.3286C76.9517 20.4294 77.0337 20.5328 77.1157 20.6362C77.1528 20.6838 77.19 20.7315 77.2256 20.7802C77.2287 20.7847 77.2363 20.7862 77.2394 20.7907C77.2786 20.8414 77.3223 20.889 77.3586 20.9417L77.3679 20.9553C77.4 21.002 77.4316 21.0511 77.4652 21.0968C77.4704 21.1043 77.4731 21.1114 77.4782 21.1189C77.5134 21.1701 77.5497 21.2228 77.5849 21.274C77.7817 21.5601 77.9691 21.8547 78.1472 22.1645C78.167 22.1996 78.1879 22.2363 78.2087 22.2729C78.2108 22.2759 78.2139 22.2805 78.2145 22.2845C78.2364 22.3226 78.2572 22.3593 78.2776 22.3985C78.2958 22.4281 78.3121 22.4612 78.3288 22.4918C78.3298 22.4933 78.3279 22.4969 78.3289 22.4984C78.3837 22.6003 78.4222 22.7133 78.4875 22.8082C78.503 22.8308 78.516 22.8529 78.5301 22.8765C78.5311 22.878 78.5321 22.8795 78.5342 22.8825C78.5769 22.9573 78.6097 23.0366 78.6542 23.1235C78.0265 23.9387 77.3688 24.7102 76.727 25.5018C76.0838 26.2944 75.4406 27.087 74.7999 27.88C74.1577 28.6741 73.5144 29.4667 72.8727 30.2583C72.2305 31.0524 71.5873 31.845 70.9455 32.6366C70.3045 33.4387 69.6613 34.2313 69.0191 35.0254Z" fill="white"/>
    <path d="M56.5155 10.0693C55.8247 9.23939 55.2114 8.31277 54.7009 7.25667C55.3705 6.43286 56.0381 5.60604 56.7078 4.78223C57.0263 5.44512 57.3861 6.06014 57.7787 6.63083C57.8118 6.67902 57.8449 6.7272 57.8796 6.77438C57.9044 6.81052 57.9297 6.84414 57.9546 6.88028C57.9774 6.91341 58.0016 6.94553 58.0249 6.97614C58.0585 7.02181 58.0931 7.06898 58.1282 7.11364C58.1618 7.15931 58.1958 7.20247 58.2309 7.24713C58.2593 7.28527 58.2892 7.3224 58.3191 7.35953C58.3625 7.41624 58.4088 7.47093 58.4526 7.52512C58.4727 7.55121 58.4944 7.5763 58.516 7.60138C57.8473 8.4267 57.1807 9.24849 56.5155 10.0693Z" fill="url(#paint0_linear_402_4658)"/>
    <path d="M61.4322 14.0952C60.5136 13.5459 59.6302 12.9527 58.8011 12.2895C59.4634 11.4706 60.1268 10.6532 60.7892 9.83426C61.6138 10.5005 62.4953 11.0972 63.4105 11.6511C62.7531 12.4645 62.0927 13.2798 61.4322 14.0952Z" fill="url(#paint1_linear_402_4658)"/>
    <path d="M67.1685 17.1121C66.6997 16.8714 66.2291 16.6342 65.7569 16.398C65.2574 16.1473 64.7603 15.8971 64.2652 15.6434C64.9222 14.8325 65.5783 14.0201 66.2353 13.2091C66.7096 13.4549 67.1859 13.6971 67.6622 13.9393C68.1517 14.188 68.6427 14.4357 69.1287 14.6889C68.4761 15.4968 67.821 16.3042 67.1685 17.1121Z" fill="url(#paint2_linear_402_4658)"/>
    <path d="M72.6292 20.4625C71.8011 19.8008 70.9177 19.2076 69.998 18.6567C70.6486 17.8524 71.3002 17.0497 71.9523 16.2444C71.964 16.2519 71.9757 16.2594 71.9874 16.2669C72.0429 16.2999 72.0983 16.333 72.1533 16.3686C72.3828 16.5088 72.6089 16.6535 72.8345 16.8008C72.9348 16.8674 73.0341 16.9326 73.133 17.0002C73.3984 17.1801 73.6605 17.3645 73.9161 17.5554C73.9682 17.593 74.0187 17.6316 74.0692 17.6702C74.1198 17.7088 74.1713 17.7489 74.2219 17.7875C74.3403 17.8772 74.4557 17.9689 74.5707 18.0632C73.9265 18.8609 73.2778 19.6617 72.6292 20.4625Z" fill="url(#paint3_linear_402_4658)"/>
    <path d="M56.8119 14.7495C55.982 14.0913 55.2078 13.3622 54.5126 12.5352C55.1794 11.7134 55.8436 10.891 56.5103 10.0691C57.2011 10.8991 57.9733 11.6318 58.8013 12.2934C58.1375 13.1133 57.4742 13.9306 56.8119 14.7495Z" fill="url(#paint4_linear_402_4658)"/>
    <path d="M62.2926 18.0803C61.3268 17.5894 60.3713 17.0849 59.4496 16.5375C60.1101 15.7221 60.7691 14.9077 61.4295 14.0922C62.3482 14.6416 63.3003 15.1507 64.2641 15.6451C63.6056 16.457 62.9486 17.2679 62.2926 18.0803Z" fill="url(#paint5_linear_402_4658)"/>
    <path d="M68.0445 21.0752C67.1228 20.5278 66.1674 20.0233 65.2016 19.5324C65.8567 18.7251 66.5093 17.9172 67.1644 17.1098C68.1282 17.6043 69.0802 18.1133 69.999 18.6627C69.3458 19.4665 68.6952 20.2708 68.0445 21.0752Z" fill="url(#paint6_linear_402_4658)"/>
    <path d="M72.9793 25.077C72.2841 24.2501 71.511 23.5224 70.68 22.8628C71.3287 22.0621 71.9773 21.2614 72.6244 20.4617C73.4523 21.1233 74.223 21.857 74.9153 22.686C74.2711 23.4837 73.6245 24.2808 72.9793 25.077Z" fill="url(#paint7_linear_402_4658)"/>
    <path d="M76.7312 25.4947C76.2203 24.4411 75.6084 23.5135 74.9167 22.6821C75.5618 21.886 76.2084 21.0889 76.8524 20.2913C77.5412 21.1247 78.1511 22.0559 78.6587 23.114C78.0165 23.908 77.3744 24.7021 76.7312 25.4947Z" fill="url(#paint8_linear_402_4658)"/>
    <path d="M52.5138 15.0042C51.8167 14.1808 51.1985 13.2597 50.6821 12.2142C51.3507 11.3889 52.0194 10.5636 52.688 9.73828C53.2009 10.7883 53.8172 11.7129 54.5114 12.5383C53.8457 13.3616 53.1805 14.1824 52.5138 15.0042Z" fill="url(#paint9_linear_402_4658)"/>
    <path d="M57.4659 18.9862C56.5423 18.4424 55.652 17.8583 54.8176 17.2031C55.4799 16.3842 56.1433 15.5668 56.8057 14.7478C57.6357 15.406 58.5236 15.9962 59.4442 16.542C58.7867 17.3554 58.1263 18.1708 57.4659 18.9862Z" fill="url(#paint10_linear_402_4658)"/>
    <path d="M63.2358 21.9601C62.2655 21.4722 61.2861 20.9994 60.3158 20.5116C60.9729 19.7006 61.6299 18.8897 62.2884 18.0778C63.2542 18.5687 64.2328 19.0465 65.2 19.5364C64.5449 20.3438 63.8898 21.1512 63.2358 21.9601Z" fill="url(#paint11_linear_402_4658)"/>
    <path d="M68.7343 25.2675C67.8999 24.6124 67.0111 24.0272 66.086 23.4845C66.7366 22.6802 67.3882 21.8774 68.0403 21.0721C68.962 21.6194 69.8488 22.208 70.6788 22.8662C70.0301 23.667 69.383 24.4668 68.7343 25.2675Z" fill="url(#paint12_linear_402_4658)"/>
    <path d="M52.8285 19.6619C51.9921 19.0103 51.2127 18.2891 50.512 17.4703C51.1788 16.6484 51.843 15.826 52.5098 15.0042C53.207 15.8276 53.9845 16.5522 54.8174 17.2083C54.1531 18.0242 53.4908 18.843 52.8285 19.6619Z" fill="url(#paint13_linear_402_4658)"/>
    <path d="M58.3419 22.9493C57.3697 22.4649 56.4079 21.967 55.4808 21.4277C56.1412 20.6123 56.8002 19.7978 57.4607 18.9824C58.3843 19.5262 59.3432 20.0262 60.3134 20.5141C59.6575 21.3265 59.0004 22.1374 58.3419 22.9493Z" fill="url(#paint14_linear_402_4658)"/>
    <path d="M64.1303 25.9012C63.2032 25.3619 62.2413 24.864 61.2692 24.3796C61.9242 23.5722 62.5768 22.7644 63.2319 21.957C64.2021 22.4449 65.1596 22.9459 66.0847 23.4887C65.433 24.2915 64.7824 25.0959 64.1303 25.9012Z" fill="url(#paint15_linear_402_4658)"/>
    <path d="M69.1004 29.8595C68.3998 29.0406 67.6203 28.3195 66.784 27.6679C67.4326 26.8672 68.0812 26.0665 68.7283 25.2668C69.5627 25.9219 70.3387 26.6476 71.0359 27.471C70.3922 28.2662 69.747 29.0623 69.1004 29.8595Z" fill="url(#paint16_linear_402_4658)"/>
    <path d="M72.8703 30.2559C72.354 29.2103 71.7357 28.2893 71.0386 27.466C71.6837 26.6699 72.3303 25.8728 72.9744 25.0752C73.6695 25.9021 74.2833 26.8261 74.7962 27.8762C74.1556 28.6692 73.5124 29.4618 72.8703 30.2559Z" fill="url(#paint17_linear_402_4658)"/>
    <path d="M48.5135 19.9386C48.4734 19.8929 48.4337 19.8447 48.3936 19.7991C48.355 19.7524 48.3153 19.7042 48.2756 19.6561C48.237 19.6094 48.1973 19.5612 48.1591 19.5121C48.1282 19.4734 48.0962 19.4333 48.0668 19.3936C48.0456 19.366 48.0244 19.3384 48.0022 19.3093C47.9811 19.2817 47.9589 19.2526 47.9367 19.2235C47.9041 19.1794 47.8726 19.1367 47.8386 19.0935C47.8122 19.0584 47.7874 19.0223 47.76 18.9856C47.7434 18.9616 47.7254 18.9385 47.7088 18.9144C47.3264 18.3743 46.9759 17.795 46.6611 17.1693C47.3298 16.344 47.9984 15.5187 48.667 14.6934C49.1863 15.7369 49.808 16.6534 50.507 17.4732C49.8454 18.296 49.1787 19.1178 48.5135 19.9386Z" fill="url(#paint18_linear_402_4658)"/>
    <path d="M53.4996 23.8776C52.5706 23.3419 51.6729 22.7628 50.8331 22.1157C51.4955 21.2968 52.1589 20.4794 52.8212 19.6605C53.6576 20.3121 54.5509 20.8942 55.4779 21.4335C54.8204 22.2468 54.16 23.0622 53.4996 23.8776Z" fill="url(#paint19_linear_402_4658)"/>
    <path d="M59.3048 26.8071C59.2352 26.7726 59.1642 26.739 59.0936 26.703C58.9784 26.6465 58.8607 26.5894 58.7454 26.5329C58.6434 26.4829 58.5389 26.4323 58.4354 26.3833C58.3333 26.3333 58.2288 26.2828 58.1242 26.2322C57.9055 26.1267 57.6878 26.0226 57.4691 25.917C57.3463 25.859 57.224 25.7985 57.1027 25.7394C56.8575 25.6209 56.6124 25.5023 56.3703 25.3817C57.0273 24.5708 57.6833 23.7584 58.3403 22.9475C58.9013 23.2272 59.4662 23.4998 60.0306 23.775C60.4447 23.9776 60.8579 24.1788 61.2701 24.3849C60.6135 25.1933 59.9599 25.9997 59.3048 26.8071Z" fill="url(#paint20_linear_402_4658)"/>
    <path d="M64.8382 30.0739C64.7234 29.9862 64.6085 29.8985 64.4917 29.8143C64.4458 29.7792 64.3994 29.7466 64.353 29.7141C64.2699 29.6534 64.1852 29.5938 64.1016 29.5357C63.989 29.4575 63.8763 29.3793 63.7622 29.3022C63.7225 29.2761 63.6842 29.2491 63.642 29.2225C63.587 29.187 63.5335 29.1504 63.4775 29.1133C63.4225 29.0778 63.3675 29.0422 63.3125 29.0066C63.3125 29.0066 63.3125 29.0066 63.3114 29.0051C63.2565 28.9696 63.2015 28.934 63.145 28.8994C63.09 28.8639 63.0335 28.8293 62.977 28.7948C62.8605 28.7236 62.743 28.651 62.6249 28.5809C62.5731 28.5499 62.5212 28.5188 62.4678 28.4888C62.3971 28.4462 62.3274 28.4052 62.2562 28.3651C62.2293 28.3481 62.2008 28.332 62.1723 28.316C62.8229 27.5117 63.4746 26.7089 64.1267 25.9036C65.0537 26.4429 65.9469 27.025 66.7833 27.6766C66.1355 28.4724 65.4869 29.2731 64.8382 30.0739Z" fill="url(#paint21_linear_402_4658)"/>
    <path d="M69.0094 35.0184C68.4882 33.9784 67.8646 33.0654 67.1596 32.2497C67.8047 31.4536 68.4513 30.6565 69.0953 29.8589C69.7959 30.6777 70.4161 31.5953 70.9354 32.6387C70.2947 33.4318 69.6516 34.2243 69.0094 35.0184Z" fill="url(#paint22_linear_402_4658)"/>
    <path d="M28.206 40.807C28.0382 41.0124 27.7015 41.0143 27.4506 40.8104C27.1997 40.6066 27.1341 40.2739 27.3005 40.0665L56.2369 4.37493C56.4047 4.16958 56.7414 4.1677 56.9923 4.37154C57.2432 4.57539 57.3088 4.90812 57.1424 5.11548L28.206 40.807Z" fill="url(#paint23_linear_402_4658)"/>
    <path opacity="0.2" d="M65.6122 30.707C65.3592 30.4882 65.0998 30.2759 64.835 30.0717C64.7202 29.9842 64.6054 29.8966 64.4887 29.8125C64.4428 29.7775 64.3964 29.745 64.3501 29.7125C64.267 29.6519 64.1824 29.5924 64.0988 29.5344C63.9863 29.4564 63.8737 29.3783 63.7596 29.3013C63.7199 29.2753 63.6817 29.2483 63.6395 29.2218C63.5845 29.1863 63.531 29.1498 63.475 29.1128C63.4201 29.0773 63.3651 29.0418 63.3101 29.0063C63.3101 29.0063 63.3101 29.0063 63.3091 29.0048C63.2541 28.9693 63.1992 28.9338 63.1427 28.8993C63.0877 28.8638 63.0313 28.8293 62.9748 28.7948C62.8584 28.7238 62.7409 28.6514 62.6229 28.5814C62.5711 28.5504 62.5192 28.5194 62.4659 28.4894C62.3952 28.447 62.3255 28.406 62.2544 28.366C61.2994 27.8119 60.306 27.3036 59.3009 26.81C59.2314 26.7755 59.1604 26.7421 59.0898 26.7062C58.9747 26.6498 58.857 26.5929 58.7418 26.5365C58.6383 26.4876 58.5353 26.4362 58.4318 26.3873C58.3299 26.3373 58.2254 26.2869 58.1209 26.2365L60.0299 23.7781L63.8465 18.8556L65.756 16.3947L67.6641 13.9347C68.1533 14.1828 68.6441 14.4299 69.1299 14.6826C70.0899 15.1804 71.0386 15.6904 71.9544 16.2446C71.9661 16.2521 71.9778 16.2596 71.9895 16.2671C72.045 16.3001 72.1004 16.3331 72.1553 16.3686C72.3847 16.5086 72.6106 16.6531 72.8361 16.8001C72.9364 16.8666 73.0357 16.9316 73.1345 16.9991C73.3998 17.1786 73.6617 17.3627 73.9172 17.5534C73.9692 17.5909 74.0197 17.6294 74.0702 17.668C74.1207 17.7065 74.1722 17.7465 74.2227 17.7851C74.341 17.8746 74.4564 17.9662 74.5713 18.0603C74.7454 18.2025 74.9181 18.3457 75.0873 18.4934L73.1915 20.9362L71.2957 23.379L69.3998 25.8218L67.504 28.2647L65.6122 30.707Z" fill="url(#paint24_linear_402_4658)"/>
    <path opacity="0.2" d="M49.1569 20.6406C48.9339 20.4147 48.7188 20.1812 48.5091 19.9396C48.469 19.894 48.4293 19.8458 48.3892 19.8002C48.3506 19.7536 48.311 19.7055 48.2714 19.6574C48.2328 19.6108 48.1931 19.5626 48.155 19.5135C48.1241 19.4749 48.0921 19.4348 48.0627 19.3952C48.0416 19.3676 48.0204 19.34 47.9983 19.3109C47.9771 19.2834 47.9549 19.2543 47.9328 19.2252C47.9003 19.1811 47.8688 19.1384 47.8348 19.0953C47.8084 19.0602 47.7836 19.0241 47.7563 18.9875C47.7397 18.9634 47.7217 18.9404 47.7051 18.9163C47.3232 18.3767 46.9732 17.7977 46.6589 17.1724C47.3287 16.3464 47.9984 15.5204 48.6681 14.6945C49.3379 13.8685 50.0076 13.0425 50.6773 12.2165C51.3471 11.3906 52.0168 10.5646 52.6865 9.73862C53.3563 8.91265 54.026 8.08667 54.6957 7.2607C55.371 6.4332 56.0397 5.60572 56.7104 4.78125C57.0284 5.44378 57.3877 6.0584 57.7798 6.62865C57.8129 6.6768 57.846 6.72495 57.8806 6.77209C57.9054 6.8082 57.9307 6.84179 57.9555 6.8779C57.9783 6.91101 58.0025 6.9431 58.0257 6.97368C58.0593 7.01932 58.0939 7.06645 58.1289 7.11108C58.1625 7.15671 58.1965 7.19982 58.2315 7.24445C58.2599 7.28256 58.2898 7.31965 58.3196 7.35675C58.363 7.41341 58.4092 7.46805 58.453 7.52219C58.4731 7.54826 58.4947 7.57333 58.5163 7.59839C58.6471 7.7568 58.7808 7.91318 58.9194 8.06402L56.9672 10.5805L55.0165 13.0959L53.0648 15.6098L51.1142 18.1252L49.1569 20.6406Z" fill="url(#paint25_linear_402_4658)"/>
    <path d="M12.5488 35.0254C12.62 34.8838 12.6932 34.7457 12.7678 34.6087C12.7955 34.559 12.8221 34.5108 12.8487 34.4626C12.8972 34.3762 12.9467 34.2883 12.9982 34.204C13.0372 34.1377 13.0763 34.0715 13.1168 34.0062C13.1459 33.9575 13.1776 33.9083 13.2082 33.8606C13.2274 33.8295 13.2477 33.7969 13.2684 33.7668C13.3042 33.7116 13.3311 33.6503 13.3683 33.5961C13.4041 33.5409 13.4315 33.4821 13.4687 33.4279L13.4719 33.4234C13.5102 33.3677 13.5574 33.318 13.5982 33.2618C13.6764 33.1514 13.7615 33.0435 13.843 32.9377C13.8843 32.884 13.9271 32.8313 13.9673 32.7791C14.0034 32.7329 14.04 32.6893 14.0751 32.6446C14.1307 32.5764 14.1864 32.5082 14.241 32.4414C14.2745 32.4023 14.3079 32.3632 14.3414 32.324C14.3594 32.3009 14.3779 32.2804 14.3975 32.2583C14.8786 31.7015 15.3975 31.188 15.9453 30.7117C16.1984 30.4927 16.458 30.2802 16.7229 30.0757C16.8377 29.988 16.9525 29.9003 17.0693 29.8162C17.1152 29.7811 17.1616 29.7485 17.208 29.716C17.2911 29.6553 17.3757 29.5957 17.4593 29.5376C17.5719 29.4595 17.6845 29.3813 17.7986 29.3042C17.8383 29.2782 17.8766 29.2511 17.9188 29.2246C17.9738 29.189 18.0273 29.1525 18.0833 29.1154C18.1383 29.0798 18.1932 29.0443 18.2482 29.0087C18.2482 29.0087 18.2482 29.0087 18.2493 29.0072C18.3042 28.9717 18.3592 28.9361 18.4157 28.9016C18.4707 28.866 18.5271 28.8315 18.5836 28.7969C18.7001 28.7258 18.8176 28.6532 18.9356 28.5832C18.9875 28.5521 19.0394 28.5211 19.0927 28.491C19.1634 28.4485 19.2331 28.4074 19.3042 28.3674C20.2595 27.8123 21.253 27.3031 22.2582 26.8084C22.3278 26.7739 22.3988 26.7404 22.4693 26.7044C22.5845 26.6479 22.7022 26.5909 22.8174 26.5344C22.9209 26.4853 23.0239 26.4338 23.1274 26.3848C23.2294 26.3348 23.3339 26.2843 23.4384 26.2338C23.6571 26.1283 23.8747 26.0243 24.0934 25.9187C24.2161 25.8607 24.3384 25.8002 24.4597 25.7412C24.7048 25.6227 24.9498 25.5042 25.1919 25.3836C26.1672 24.904 27.1308 24.4097 28.062 23.8737C28.1271 23.8361 28.1922 23.7986 28.2583 23.7596C28.3233 23.722 28.3869 23.6835 28.453 23.6444C28.5603 23.5803 28.6676 23.5163 28.7735 23.4512C28.8182 23.4241 28.864 23.3956 28.9073 23.3676C28.9846 23.3185 29.061 23.2709 29.1383 23.2219C29.1806 23.1953 29.2203 23.1693 29.2625 23.1427C29.4473 23.0231 29.6306 22.9024 29.812 22.7781C29.8828 22.7291 29.9537 22.68 30.0245 22.6309C30.0744 22.5963 30.1219 22.5622 30.1703 22.5267C30.2279 22.4841 30.286 22.444 30.3437 22.4014C30.3967 22.3623 30.4487 22.3248 30.5013 22.2832C30.5544 22.2441 30.6059 22.204 30.6575 22.1639C30.6804 22.1464 30.7044 22.1273 30.7274 22.1098C31.3169 21.6553 31.8791 21.1645 32.4049 20.6314C32.6281 20.4053 32.8433 20.1715 33.0532 19.9297C33.0934 19.8841 33.133 19.8359 33.1732 19.7902C33.2118 19.7436 33.2515 19.6954 33.2911 19.6473C33.3298 19.6006 33.3694 19.5524 33.4076 19.5033C33.4385 19.4646 33.4705 19.4245 33.5 19.3848C33.5211 19.3572 33.5423 19.3296 33.5645 19.3005C33.5856 19.2729 33.6078 19.2438 33.63 19.2147C33.6626 19.1706 33.6941 19.1279 33.7282 19.0848C33.7545 19.0496 33.7794 19.0135 33.8067 18.9769C33.8233 18.9528 33.8414 18.9297 33.8579 18.9056C34.2402 18.3656 34.5907 17.7863 34.9055 17.1606C34.2368 16.3353 33.5681 15.5099 32.8994 14.6846C32.2308 13.8593 31.5621 13.0339 30.8934 12.2086C30.2247 11.3832 29.5561 10.5579 28.8874 9.73255C28.2187 8.90721 27.55 8.08187 26.8814 7.25653C26.2078 6.42565 25.5401 5.5988 24.8704 4.77497C24.5519 5.43783 24.1921 6.05282 23.7996 6.62348C23.7665 6.67166 23.7334 6.71984 23.6987 6.76702C23.6739 6.80315 23.6486 6.83677 23.6237 6.87291C23.6009 6.90604 23.5767 6.93815 23.5534 6.96876C23.5198 7.01443 23.4852 7.0616 23.4501 7.10626C23.4166 7.15193 23.3825 7.19508 23.3474 7.23974C23.319 7.27787 23.2891 7.315 23.2592 7.35213C23.2159 7.40884 23.1695 7.46352 23.1257 7.51771C23.1056 7.5438 23.084 7.56888 23.0624 7.59397C22.9315 7.75251 22.7977 7.90903 22.659 8.06001C22.0776 8.70559 21.4472 9.2892 20.7801 9.82797C20.7275 9.86956 20.6775 9.91066 20.6249 9.95226C20.5871 9.98182 20.5493 10.0114 20.5115 10.041C20.4875 10.06 20.4635 10.079 20.4406 10.0966C20.3982 10.1297 20.3543 10.1617 20.312 10.1948C20.1992 10.2795 20.0854 10.3657 19.9697 10.4483C19.882 10.5124 19.7953 10.5751 19.7071 10.6367C19.7061 10.6382 19.7061 10.6382 19.7046 10.6372C19.649 10.6768 19.591 10.7168 19.5339 10.7554C19.3611 10.8766 19.1849 10.9933 19.0083 11.1075C18.9594 11.1405 18.91 11.1711 18.8611 11.2041C18.8459 11.2137 18.8296 11.2247 18.8133 11.2357C18.7664 11.2657 18.7196 11.2958 18.6713 11.3248C18.5868 11.3779 18.5023 11.431 18.4178 11.484C18.3334 11.5371 18.2474 11.5892 18.1614 11.6413C17.2464 12.195 16.2965 12.7073 15.3364 13.2061C14.8622 13.4517 14.386 13.6939 13.9099 13.936C13.4206 14.1846 12.9297 14.4322 12.4438 14.6853C11.4837 15.1841 10.5349 15.695 9.61877 16.2502C9.60706 16.2577 9.59535 16.2652 9.58365 16.2727C9.52821 16.3058 9.47278 16.3388 9.4178 16.3743C9.18838 16.5145 8.96237 16.6592 8.73682 16.8065C8.63649 16.8731 8.5372 16.9382 8.43836 17.0058C8.17296 17.1856 7.91098 17.37 7.6554 17.5609C7.60339 17.5984 7.55287 17.637 7.50234 17.6756C7.45182 17.7142 7.40026 17.7543 7.34974 17.7929C7.23136 17.8826 7.11595 17.9743 7.00099 18.0685C6.82678 18.2108 6.65405 18.3542 6.48474 18.5021C5.85461 19.0505 5.26168 19.6463 4.72023 20.3035C4.71253 20.3115 4.70632 20.3206 4.69862 20.3286C4.61618 20.4294 4.53418 20.5328 4.45219 20.6362C4.41504 20.6838 4.3779 20.7315 4.34223 20.7802C4.33913 20.7847 4.33156 20.7862 4.32845 20.7907C4.28924 20.8414 4.24556 20.889 4.20931 20.9417L4.19999 20.9553C4.16789 21.002 4.13624 21.0511 4.10265 21.0968C4.09747 21.1043 4.09481 21.1114 4.08964 21.1189C4.05443 21.1701 4.01818 21.2228 3.98297 21.274C3.78621 21.5601 3.59881 21.8547 3.42065 22.1645C3.40084 22.1996 3.37999 22.2363 3.35914 22.2729C3.35707 22.2759 3.35397 22.2805 3.35338 22.2845C3.3315 22.3226 3.31065 22.3593 3.29026 22.3985C3.27207 22.4281 3.25581 22.4612 3.23911 22.4918C3.23807 22.4933 3.24001 22.4969 3.23897 22.4984C3.18414 22.6003 3.14564 22.7133 3.0804 22.8082C3.06487 22.8308 3.05186 22.8529 3.03781 22.8765C3.03677 22.878 3.03574 22.8795 3.03367 22.8825C2.99094 22.9573 2.95816 23.0366 2.91368 23.1235C3.54137 23.9387 4.1991 24.7102 4.84085 25.5018C5.48408 26.2944 6.12731 27.087 6.76802 27.88C7.41021 28.6741 8.05344 29.4667 8.69518 30.2583C9.33738 31.0524 9.98061 31.845 10.6224 32.6366C11.2634 33.4387 11.9066 34.2313 12.5488 35.0254Z" fill="white"/>
    <path d="M25.0524 10.0693C25.7431 9.23939 26.3565 8.31277 26.867 7.25667C26.1974 6.43286 25.5298 5.60604 24.8601 4.78223C24.5415 5.44512 24.1817 6.06014 23.7892 6.63083C23.7561 6.67902 23.7229 6.7272 23.6883 6.77438C23.6635 6.81052 23.6381 6.84414 23.6133 6.88028C23.5905 6.91341 23.5662 6.94553 23.543 6.97614C23.5094 7.02181 23.4748 7.06898 23.4397 7.11364C23.4061 7.15931 23.3721 7.20247 23.337 7.24713C23.3086 7.28527 23.2787 7.3224 23.2488 7.35953C23.2054 7.41624 23.1591 7.47093 23.1153 7.52512C23.0951 7.55121 23.0735 7.5763 23.0519 7.60138C23.7205 8.4267 24.3872 9.24849 25.0524 10.0693Z" fill="url(#paint26_linear_402_4658)"/>
    <path d="M20.1356 14.0952C21.0543 13.5459 21.9377 12.9527 22.7668 12.2895C22.1044 11.4706 21.441 10.6532 20.7787 9.83426C19.9541 10.5005 19.0726 11.0972 18.1573 11.6511C18.8148 12.4645 19.4752 13.2798 20.1356 14.0952Z" fill="url(#paint27_linear_402_4658)"/>
    <path d="M14.3997 17.1121C14.8684 16.8714 15.339 16.6342 15.8112 16.398C16.3107 16.1473 16.8078 15.8971 17.3029 15.6434C16.6459 14.8325 15.9899 14.0201 15.3328 13.2091C14.8585 13.4549 14.3822 13.6971 13.9059 13.9393C13.4164 14.188 12.9255 14.4357 12.4394 14.6889C13.092 15.4968 13.7471 16.3042 14.3997 17.1121Z" fill="url(#paint28_linear_402_4658)"/>
    <path d="M8.93895 20.4625C9.767 19.8008 10.6504 19.2076 11.5701 18.6567C10.9195 17.8524 10.2679 17.0497 9.6158 16.2444C9.60409 16.2519 9.59238 16.2594 9.58067 16.2669C9.52523 16.2999 9.46978 16.333 9.41479 16.3686C9.18531 16.5088 8.95926 16.6535 8.73365 16.8008C8.63331 16.8674 8.53399 16.9326 8.43513 17.0002C8.16967 17.1801 7.90763 17.3645 7.65198 17.5554C7.59996 17.593 7.54943 17.6316 7.49889 17.6702C7.44836 17.7088 7.39679 17.7489 7.34626 17.7875C7.22785 17.8772 7.11241 17.9689 6.99743 18.0632C7.64163 18.8609 8.29029 19.6617 8.93895 20.4625Z" fill="url(#paint29_linear_402_4658)"/>
    <path d="M24.756 14.7495C25.5859 14.0913 26.36 13.3622 27.0553 12.5352C26.3885 11.7134 25.7243 10.891 25.0575 10.0691C24.3667 10.8991 23.5946 11.6318 22.7666 12.2934C23.4304 13.1133 24.0937 13.9306 24.756 14.7495Z" fill="url(#paint30_linear_402_4658)"/>
    <path d="M19.2753 18.0803C20.2411 17.5894 21.1965 17.0849 22.1182 16.5375C21.4578 15.7221 20.7988 14.9077 20.1384 14.0922C19.2196 14.6416 18.2676 15.1507 17.3038 15.6451C17.9623 16.457 18.6193 17.2679 19.2753 18.0803Z" fill="url(#paint31_linear_402_4658)"/>
    <path d="M13.5236 21.0752C14.4453 20.5278 15.4008 20.0233 16.3665 19.5324C15.7114 18.7251 15.0588 17.9172 14.4037 17.1098C13.4399 17.6043 12.4879 18.1133 11.5691 18.6627C12.2223 19.4665 12.8729 20.2708 13.5236 21.0752Z" fill="url(#paint32_linear_402_4658)"/>
    <path d="M8.58857 25.077C9.28381 24.2501 10.0569 23.5224 10.8878 22.8628C10.2392 22.0621 9.59062 21.2614 8.9435 20.4617C8.11553 21.1233 7.34485 21.857 6.65258 22.686C7.29672 23.4837 7.94339 24.2808 8.58857 25.077Z" fill="url(#paint33_linear_402_4658)"/>
    <path d="M4.83664 25.4947C5.34762 24.4411 5.95947 23.5135 6.65122 22.6821C6.00611 21.886 5.35952 21.0889 4.71545 20.2913C4.02667 21.1247 3.41676 22.0559 2.9092 23.114C3.55134 23.908 4.19347 24.7021 4.83664 25.4947Z" fill="url(#paint34_linear_402_4658)"/>
    <path d="M29.054 15.0042C29.7511 14.1808 30.3694 13.2597 30.8857 12.2142C30.2171 11.3889 29.5485 10.5636 28.8799 9.73828C28.367 10.7883 27.7506 11.7129 27.0565 12.5383C27.7221 13.3616 28.3873 14.1824 29.054 15.0042Z" fill="url(#paint35_linear_402_4658)"/>
    <path d="M24.102 18.9862C25.0256 18.4424 25.9158 17.8583 26.7503 17.2031C26.0879 16.3842 25.4245 15.5668 24.7622 14.7478C23.9322 15.406 23.0443 15.9962 22.1237 16.542C22.7811 17.3554 23.4415 18.1708 24.102 18.9862Z" fill="url(#paint36_linear_402_4658)"/>
    <path d="M18.3321 21.9601C19.3024 21.4722 20.2818 20.9994 21.2521 20.5116C20.595 19.7006 19.938 18.8897 19.2794 18.0778C18.3137 18.5687 17.3351 19.0465 16.3678 19.5364C17.0229 20.3438 17.678 21.1512 18.3321 21.9601Z" fill="url(#paint37_linear_402_4658)"/>
    <path d="M12.8336 25.2675C13.668 24.6124 14.5568 24.0272 15.4819 23.4845C14.8313 22.6802 14.1796 21.8774 13.5275 21.0721C12.6059 21.6194 11.7191 22.208 10.8891 22.8662C11.5377 23.667 12.1849 24.4668 12.8336 25.2675Z" fill="url(#paint38_linear_402_4658)"/>
    <path d="M28.7397 19.6619C29.576 19.0103 30.3555 18.2891 31.0561 17.4703C30.3893 16.6484 29.7251 15.826 29.0583 15.0042C28.3611 15.8276 27.5836 16.5522 26.7507 17.2083C27.4151 18.0242 28.0774 18.843 28.7397 19.6619Z" fill="url(#paint39_linear_402_4658)"/>
    <path d="M23.226 22.9493C24.1981 22.4649 25.16 21.967 26.0871 21.4277C25.4266 20.6123 24.7677 19.7978 24.1072 18.9824C23.1836 19.5262 22.2246 20.0262 21.2544 20.5141C21.9104 21.3265 22.5675 22.1374 23.226 22.9493Z" fill="url(#paint40_linear_402_4658)"/>
    <path d="M17.4379 25.9012C18.3649 25.3619 19.3268 24.864 20.299 24.3796C19.6439 23.5722 18.9913 22.7644 18.3362 21.957C17.366 22.4449 16.4086 22.9459 15.4834 23.4887C16.1351 24.2915 16.7857 25.0959 17.4379 25.9012Z" fill="url(#paint41_linear_402_4658)"/>
    <path d="M12.4677 29.8595C13.1683 29.0406 13.9478 28.3195 14.7841 27.6679C14.1355 26.8672 13.4869 26.0665 12.8398 25.2668C12.0054 25.9219 11.2294 26.6476 10.5322 27.471C11.1759 28.2662 11.8211 29.0623 12.4677 29.8595Z" fill="url(#paint42_linear_402_4658)"/>
    <path d="M8.69782 30.2559C9.21416 29.2103 9.83241 28.2893 10.5295 27.466C9.8844 26.6699 9.23782 25.8728 8.59375 25.0752C7.89858 25.9021 7.28479 26.8261 6.77188 27.8762C7.41252 28.6692 8.05569 29.4618 8.69782 30.2559Z" fill="url(#paint43_linear_402_4658)"/>
    <path d="M33.0544 19.9386C33.0945 19.8929 33.1341 19.8447 33.1743 19.7991C33.2129 19.7524 33.2526 19.7042 33.2922 19.6561C33.3309 19.6094 33.3706 19.5612 33.4087 19.5121C33.4397 19.4734 33.4716 19.4333 33.5011 19.3936C33.5223 19.366 33.5434 19.3384 33.5656 19.3093C33.5868 19.2817 33.609 19.2526 33.6312 19.2235C33.6637 19.1794 33.6953 19.1367 33.7293 19.0935C33.7557 19.0584 33.7805 19.0223 33.8079 18.9856C33.8245 18.9616 33.8425 18.9385 33.8591 18.9144C34.2414 18.3743 34.5919 17.795 34.9067 17.1693C34.2381 16.344 33.5695 15.5187 32.9009 14.6934C32.3816 15.7369 31.7599 16.6534 31.0608 17.4732C31.7225 18.296 32.3892 19.1178 33.0544 19.9386Z" fill="url(#paint44_linear_402_4658)"/>
    <path d="M28.0683 23.8776C28.9972 23.3419 29.8949 22.7628 30.7348 22.1157C30.0724 21.2968 29.409 20.4794 28.7466 19.6605C27.9102 20.3121 27.017 20.8942 26.09 21.4335C26.7474 22.2468 27.4078 23.0622 28.0683 23.8776Z" fill="url(#paint45_linear_402_4658)"/>
    <path d="M22.2631 26.8071C22.3326 26.7726 22.4037 26.739 22.4742 26.703C22.5895 26.6465 22.7072 26.5894 22.8224 26.5329C22.9245 26.4829 23.029 26.4323 23.1325 26.3833C23.2345 26.3333 23.3391 26.2828 23.4436 26.2322C23.6624 26.1267 23.8801 26.0226 24.0988 25.917C24.2216 25.859 24.3439 25.7985 24.4652 25.7394C24.7103 25.6209 24.9555 25.5023 25.1976 25.3817C24.5406 24.5708 23.8846 23.7584 23.2275 22.9475C22.6666 23.2272 22.1017 23.4998 21.5373 23.775C21.1231 23.9776 20.71 24.1788 20.2978 24.3849C20.9544 25.1933 21.608 25.9997 22.2631 26.8071Z" fill="url(#paint46_linear_402_4658)"/>
    <path d="M16.7297 30.0739C16.8445 29.9862 16.9594 29.8985 17.0761 29.8143C17.1221 29.7792 17.1685 29.7466 17.2149 29.7141C17.298 29.6534 17.3826 29.5938 17.4662 29.5357C17.5789 29.4575 17.6915 29.3793 17.8057 29.3022C17.8454 29.2761 17.8836 29.2491 17.9259 29.2225C17.9809 29.187 18.0344 29.1504 18.0904 29.1133C18.1454 29.0778 18.2004 29.0422 18.2554 29.0066C18.2554 29.0066 18.2554 29.0066 18.2564 29.0051C18.3114 28.9696 18.3664 28.934 18.4229 28.8994C18.4779 28.8639 18.5344 28.8293 18.5908 28.7948C18.7074 28.7236 18.8249 28.651 18.9429 28.5809C18.9948 28.5499 19.0467 28.5188 19.1001 28.4888C19.1708 28.4462 19.2405 28.4052 19.3116 28.3651C19.3386 28.3481 19.3671 28.332 19.3955 28.316C18.7449 27.5117 18.0933 26.7089 17.4412 25.9036C16.5142 26.4429 15.6209 27.025 14.7846 27.6766C15.4323 28.4724 16.081 29.2731 16.7297 30.0739Z" fill="url(#paint47_linear_402_4658)"/>
    <path d="M12.5584 35.0184C13.0797 33.9784 13.7033 33.0654 14.4083 32.2497C13.7632 31.4536 13.1166 30.6565 12.4725 29.8589C11.772 30.6777 11.1518 31.5953 10.6325 32.6387C11.2732 33.4318 11.9163 34.2243 12.5584 35.0184Z" fill="url(#paint48_linear_402_4658)"/>
    <path d="M53.3619 40.807C53.5296 41.0124 53.8664 41.0143 54.1173 40.8104C54.3682 40.6066 54.4337 40.2739 54.2674 40.0665L25.3309 4.37493C25.1632 4.16958 24.8264 4.1677 24.5755 4.37154C24.3246 4.57539 24.2591 4.90812 24.4254 5.11548L53.3619 40.807Z" fill="url(#paint49_linear_402_4658)"/>
    <path opacity="0.2" d="M15.9557 30.707C16.2087 30.4882 16.4681 30.2759 16.7329 30.0717C16.8477 29.9842 16.9625 29.8966 17.0792 29.8125C17.1251 29.7775 17.1715 29.745 17.2178 29.7125C17.3009 29.6519 17.3855 29.5924 17.469 29.5344C17.5816 29.4564 17.6942 29.3783 17.8083 29.3013C17.848 29.2753 17.8862 29.2483 17.9284 29.2218C17.9834 29.1863 18.0369 29.1498 18.0929 29.1128C18.1478 29.0773 18.2028 29.0418 18.2577 29.0063C18.2577 29.0063 18.2577 29.0063 18.2588 29.0048C18.3137 28.9693 18.3687 28.9338 18.4252 28.8993C18.4801 28.8638 18.5366 28.8293 18.593 28.7948C18.7095 28.7238 18.827 28.6514 18.9449 28.5814C18.9968 28.5504 19.0487 28.5194 19.102 28.4894C19.1727 28.447 19.2423 28.406 19.3135 28.366C20.2685 27.8119 21.2619 27.3036 22.267 26.81C22.3365 26.7755 22.4075 26.7421 22.478 26.7062C22.5932 26.6498 22.7109 26.5929 22.8261 26.5365C22.9296 26.4876 23.0326 26.4362 23.136 26.3873C23.238 26.3373 23.3425 26.2869 23.447 26.2365L21.5379 23.7781L17.7214 18.8556L15.8118 16.3947L13.9038 13.9347C13.4145 14.1828 12.9238 14.4299 12.4379 14.6826C11.478 15.1804 10.5293 15.6904 9.61345 16.2446C9.60175 16.2521 9.59004 16.2596 9.57834 16.2671C9.52292 16.3001 9.4675 16.3331 9.41254 16.3686C9.18317 16.5086 8.95723 16.6531 8.73175 16.8001C8.63145 16.8666 8.53219 16.9316 8.43338 16.9991C8.16807 17.1786 7.90618 17.3627 7.65069 17.5534C7.5987 17.5909 7.5482 17.6294 7.4977 17.668C7.4472 17.7065 7.39566 17.7465 7.34516 17.7851C7.22683 17.8746 7.11147 17.9662 6.99656 18.0603C6.82243 18.2025 6.64978 18.3457 6.48056 18.4934L8.37638 20.9362L10.2722 23.379L12.168 25.8218L14.0639 28.2647L15.9557 30.707Z" fill="url(#paint50_linear_402_4658)"/>
    <path opacity="0.2" d="M32.4109 20.6406C32.6339 20.4147 32.8491 20.1812 33.0588 19.9396C33.0989 19.894 33.1385 19.8458 33.1786 19.8002C33.2172 19.7536 33.2569 19.7055 33.2965 19.6574C33.3351 19.6108 33.3747 19.5626 33.4129 19.5135C33.4438 19.4749 33.4757 19.4348 33.5051 19.3952C33.5263 19.3676 33.5474 19.34 33.5696 19.3109C33.5907 19.2834 33.6129 19.2543 33.6351 19.2252C33.6676 19.1811 33.6991 19.1384 33.7331 19.0953C33.7594 19.0602 33.7843 19.0241 33.8116 18.9875C33.8282 18.9634 33.8462 18.9404 33.8628 18.9163C34.2447 18.3767 34.5947 17.7977 34.9089 17.1724C34.2392 16.3464 33.5695 15.5204 32.8997 14.6945C32.23 13.8685 31.5603 13.0425 30.8905 12.2165C30.2208 11.3906 29.5511 10.5646 28.8813 9.73862C28.2116 8.91265 27.5419 8.08667 26.8721 7.2607C26.1969 6.4332 25.5282 5.60572 24.8574 4.78125C24.5394 5.44378 24.1802 6.0584 23.7881 6.62865C23.755 6.6768 23.7219 6.72495 23.6873 6.77209C23.6625 6.8082 23.6372 6.84179 23.6124 6.8779C23.5896 6.91101 23.5654 6.9431 23.5422 6.97368C23.5086 7.01932 23.474 7.06645 23.439 7.11108C23.4054 7.15671 23.3714 7.19982 23.3364 7.24445C23.308 7.28256 23.2781 7.31965 23.2482 7.35675C23.2049 7.41341 23.1586 7.46805 23.1148 7.52219C23.0947 7.54826 23.0731 7.57333 23.0515 7.59839C22.9208 7.7568 22.7871 7.91318 22.6485 8.06402L24.6006 10.5805L26.5513 13.0959L28.503 15.6098L30.4537 18.1252L32.4109 20.6406Z" fill="url(#paint51_linear_402_4658)"/>
    <defs>
        <linearGradient id="paint0_linear_402_4658" x1="55.3776" y1="5.68478" x2="57.7749" y2="9.21415" gradientUnits="userSpaceOnUse">
            <stop stop-color="#444B8C"/>
            <stop offset="0.9964" stop-color="#26264F"/>
        </linearGradient>
        <linearGradient id="paint1_linear_402_4658" x1="59.876" y1="10.9635" x2="62.3474" y2="12.9656" gradientUnits="userSpaceOnUse">
            <stop stop-color="#444B8C"/>
            <stop offset="0.9964" stop-color="#26264F"/>
        </linearGradient>
        <linearGradient id="paint2_linear_402_4658" x1="65.6329" y1="13.6177" x2="67.7415" y2="16.722" gradientUnits="userSpaceOnUse">
            <stop stop-color="#444B8C"/>
            <stop offset="0.9964" stop-color="#26264F"/>
        </linearGradient>
        <linearGradient id="paint3_linear_402_4658" x1="71.1901" y1="16.7641" x2="73.3638" y2="19.9643" gradientUnits="userSpaceOnUse">
            <stop stop-color="#444B8C"/>
            <stop offset="0.9964" stop-color="#26264F"/>
        </linearGradient>
        <linearGradient id="paint4_linear_402_4658" x1="55.4293" y1="11.4041" x2="57.9004" y2="13.406" gradientUnits="userSpaceOnUse">
            <stop stop-color="#444B8C"/>
            <stop offset="0.9964" stop-color="#26264F"/>
        </linearGradient>
        <linearGradient id="paint5_linear_402_4658" x1="60.6242" y1="15.0853" x2="63.0957" y2="17.0875" gradientUnits="userSpaceOnUse">
            <stop stop-color="#444B8C"/>
            <stop offset="0.9964" stop-color="#26264F"/>
        </linearGradient>
        <linearGradient id="paint6_linear_402_4658" x1="66.368" y1="18.0911" x2="68.8394" y2="20.0932" gradientUnits="userSpaceOnUse">
            <stop stop-color="#444B8C"/>
            <stop offset="0.9964" stop-color="#26264F"/>
        </linearGradient>
        <linearGradient id="paint7_linear_402_4658" x1="71.5717" y1="21.7626" x2="74.0427" y2="23.7644" gradientUnits="userSpaceOnUse">
            <stop stop-color="#444B8C"/>
            <stop offset="0.9964" stop-color="#26264F"/>
        </linearGradient>
        <linearGradient id="paint8_linear_402_4658" x1="75.5613" y1="21.8872" x2="78.0322" y2="23.8889" gradientUnits="userSpaceOnUse">
            <stop stop-color="#444B8C"/>
            <stop offset="0.9964" stop-color="#26264F"/>
        </linearGradient>
        <linearGradient id="paint9_linear_402_4658" x1="51.3654" y1="10.636" x2="53.7584" y2="14.1591" gradientUnits="userSpaceOnUse">
            <stop stop-color="#444B8C"/>
            <stop offset="0.9964" stop-color="#26264F"/>
        </linearGradient>
        <linearGradient id="paint10_linear_402_4658" x1="55.9012" y1="15.8653" x2="58.3725" y2="17.8675" gradientUnits="userSpaceOnUse">
            <stop stop-color="#444B8C"/>
            <stop offset="0.9964" stop-color="#26264F"/>
        </linearGradient>
        <linearGradient id="paint11_linear_402_4658" x1="61.5261" y1="19.0174" x2="63.9975" y2="21.0196" gradientUnits="userSpaceOnUse">
            <stop stop-color="#444B8C"/>
            <stop offset="0.9964" stop-color="#26264F"/>
        </linearGradient>
        <linearGradient id="paint12_linear_402_4658" x1="67.1512" y1="22.1687" x2="69.6226" y2="24.1708" gradientUnits="userSpaceOnUse">
            <stop stop-color="#444B8C"/>
            <stop offset="0.9964" stop-color="#26264F"/>
        </linearGradient>
        <linearGradient id="paint13_linear_402_4658" x1="51.436" y1="16.3276" x2="53.9071" y2="18.3295" gradientUnits="userSpaceOnUse">
            <stop stop-color="#444B8C"/>
            <stop offset="0.9964" stop-color="#26264F"/>
        </linearGradient>
        <linearGradient id="paint14_linear_402_4658" x1="56.6669" y1="19.9654" x2="59.1384" y2="21.9676" gradientUnits="userSpaceOnUse">
            <stop stop-color="#444B8C"/>
            <stop offset="0.9964" stop-color="#26264F"/>
        </linearGradient>
        <linearGradient id="paint15_linear_402_4658" x1="62.4457" y1="22.9273" x2="64.9171" y2="24.9295" gradientUnits="userSpaceOnUse">
            <stop stop-color="#444B8C"/>
            <stop offset="0.9964" stop-color="#26264F"/>
        </linearGradient>
        <linearGradient id="paint16_linear_402_4658" x1="67.6852" y1="26.555" x2="70.1562" y2="28.5569" gradientUnits="userSpaceOnUse">
            <stop stop-color="#444B8C"/>
            <stop offset="0.9964" stop-color="#26264F"/>
        </linearGradient>
        <linearGradient id="paint17_linear_402_4658" x1="71.6914" y1="26.6589" x2="74.1623" y2="28.6606" gradientUnits="userSpaceOnUse">
            <stop stop-color="#444B8C"/>
            <stop offset="0.9964" stop-color="#26264F"/>
        </linearGradient>
        <linearGradient id="paint18_linear_402_4658" x1="47.353" y1="15.5887" x2="49.7413" y2="19.1048" gradientUnits="userSpaceOnUse">
            <stop stop-color="#444B8C"/>
            <stop offset="0.9964" stop-color="#26264F"/>
        </linearGradient>
        <linearGradient id="paint19_linear_402_4658" x1="51.9264" y1="20.7678" x2="54.3977" y2="22.7699" gradientUnits="userSpaceOnUse">
            <stop stop-color="#444B8C"/>
            <stop offset="0.9964" stop-color="#26264F"/>
        </linearGradient>
        <linearGradient id="paint20_linear_402_4658" x1="57.7576" y1="23.3417" x2="59.8568" y2="26.4322" gradientUnits="userSpaceOnUse">
            <stop stop-color="#444B8C"/>
            <stop offset="0.9964" stop-color="#26264F"/>
        </linearGradient>
        <linearGradient id="paint21_linear_402_4658" x1="63.3852" y1="26.4027" x2="65.5499" y2="29.5896" gradientUnits="userSpaceOnUse">
            <stop stop-color="#444B8C"/>
            <stop offset="0.9964" stop-color="#26264F"/>
        </linearGradient>
        <linearGradient id="paint22_linear_402_4658" x1="67.8216" y1="31.432" x2="70.2924" y2="33.4337" gradientUnits="userSpaceOnUse">
            <stop stop-color="#444B8C"/>
            <stop offset="0.9964" stop-color="#26264F"/>
        </linearGradient>
        <linearGradient id="paint23_linear_402_4658" x1="41.7681" y1="22.2203" x2="42.6779" y2="22.9578" gradientUnits="userSpaceOnUse">
            <stop stop-color="#444B8C"/>
            <stop offset="0.9964" stop-color="#26264F"/>
        </linearGradient>
        <linearGradient id="paint24_linear_402_4658" x1="62.9953" y1="17.1095" x2="70.1431" y2="27.6284" gradientUnits="userSpaceOnUse">
            <stop stop-color="#444B8C"/>
            <stop offset="0.9964" stop-color="#26264F"/>
        </linearGradient>
        <linearGradient id="paint25_linear_402_4658" x1="50.3299" y1="9.11608" x2="55.3169" y2="16.4551" gradientUnits="userSpaceOnUse">
            <stop stop-color="#444B8C"/>
            <stop offset="0.9964" stop-color="#26264F"/>
        </linearGradient>
        <linearGradient id="paint26_linear_402_4658" x1="26.1902" y1="5.68478" x2="23.7929" y2="9.21415" gradientUnits="userSpaceOnUse">
            <stop stop-color="#444B8C"/>
            <stop offset="0.9964" stop-color="#26264F"/>
        </linearGradient>
        <linearGradient id="paint27_linear_402_4658" x1="21.6918" y1="10.9635" x2="19.2205" y2="12.9656" gradientUnits="userSpaceOnUse">
            <stop stop-color="#444B8C"/>
            <stop offset="0.9964" stop-color="#26264F"/>
        </linearGradient>
        <linearGradient id="paint28_linear_402_4658" x1="15.9352" y1="13.6177" x2="13.8266" y2="16.722" gradientUnits="userSpaceOnUse">
            <stop stop-color="#444B8C"/>
            <stop offset="0.9964" stop-color="#26264F"/>
        </linearGradient>
        <linearGradient id="paint29_linear_402_4658" x1="10.378" y1="16.7641" x2="8.20435" y2="19.9643" gradientUnits="userSpaceOnUse">
            <stop stop-color="#444B8C"/>
            <stop offset="0.9964" stop-color="#26264F"/>
        </linearGradient>
        <linearGradient id="paint30_linear_402_4658" x1="26.1386" y1="11.4041" x2="23.6675" y2="13.406" gradientUnits="userSpaceOnUse">
            <stop stop-color="#444B8C"/>
            <stop offset="0.9964" stop-color="#26264F"/>
        </linearGradient>
        <linearGradient id="paint31_linear_402_4658" x1="20.9436" y1="15.0853" x2="18.4722" y2="17.0875" gradientUnits="userSpaceOnUse">
            <stop stop-color="#444B8C"/>
            <stop offset="0.9964" stop-color="#26264F"/>
        </linearGradient>
        <linearGradient id="paint32_linear_402_4658" x1="15.2002" y1="18.0911" x2="12.7287" y2="20.0932" gradientUnits="userSpaceOnUse">
            <stop stop-color="#444B8C"/>
            <stop offset="0.9964" stop-color="#26264F"/>
        </linearGradient>
        <linearGradient id="paint33_linear_402_4658" x1="9.99621" y1="21.7626" x2="7.52517" y2="23.7644" gradientUnits="userSpaceOnUse">
            <stop stop-color="#444B8C"/>
            <stop offset="0.9964" stop-color="#26264F"/>
        </linearGradient>
        <linearGradient id="paint34_linear_402_4658" x1="6.00658" y1="21.8872" x2="3.53572" y2="23.8889" gradientUnits="userSpaceOnUse">
            <stop stop-color="#444B8C"/>
            <stop offset="0.9964" stop-color="#26264F"/>
        </linearGradient>
        <linearGradient id="paint35_linear_402_4658" x1="30.2024" y1="10.636" x2="27.8094" y2="14.1591" gradientUnits="userSpaceOnUse">
            <stop stop-color="#444B8C"/>
            <stop offset="0.9964" stop-color="#26264F"/>
        </linearGradient>
        <linearGradient id="paint36_linear_402_4658" x1="25.6667" y1="15.8653" x2="23.1954" y2="17.8675" gradientUnits="userSpaceOnUse">
            <stop stop-color="#444B8C"/>
            <stop offset="0.9964" stop-color="#26264F"/>
        </linearGradient>
        <linearGradient id="paint37_linear_402_4658" x1="20.0418" y1="19.0174" x2="17.5704" y2="21.0196" gradientUnits="userSpaceOnUse">
            <stop stop-color="#444B8C"/>
            <stop offset="0.9964" stop-color="#26264F"/>
        </linearGradient>
        <linearGradient id="paint38_linear_402_4658" x1="14.4166" y1="22.1687" x2="11.9453" y2="24.1708" gradientUnits="userSpaceOnUse">
            <stop stop-color="#444B8C"/>
            <stop offset="0.9964" stop-color="#26264F"/>
        </linearGradient>
        <linearGradient id="paint39_linear_402_4658" x1="30.1321" y1="16.3276" x2="27.661" y2="18.3295" gradientUnits="userSpaceOnUse">
            <stop stop-color="#444B8C"/>
            <stop offset="0.9964" stop-color="#26264F"/>
        </linearGradient>
        <linearGradient id="paint40_linear_402_4658" x1="24.901" y1="19.9654" x2="22.4295" y2="21.9676" gradientUnits="userSpaceOnUse">
            <stop stop-color="#444B8C"/>
            <stop offset="0.9964" stop-color="#26264F"/>
        </linearGradient>
        <linearGradient id="paint41_linear_402_4658" x1="19.1224" y1="22.9273" x2="16.651" y2="24.9295" gradientUnits="userSpaceOnUse">
            <stop stop-color="#444B8C"/>
            <stop offset="0.9964" stop-color="#26264F"/>
        </linearGradient>
        <linearGradient id="paint42_linear_402_4658" x1="13.8829" y1="26.555" x2="11.4119" y2="28.5569" gradientUnits="userSpaceOnUse">
            <stop stop-color="#444B8C"/>
            <stop offset="0.9964" stop-color="#26264F"/>
        </linearGradient>
        <linearGradient id="paint43_linear_402_4658" x1="9.87672" y1="26.6589" x2="7.40585" y2="28.6606" gradientUnits="userSpaceOnUse">
            <stop stop-color="#444B8C"/>
            <stop offset="0.9964" stop-color="#26264F"/>
        </linearGradient>
        <linearGradient id="paint44_linear_402_4658" x1="34.2148" y1="15.5887" x2="31.8266" y2="19.1048" gradientUnits="userSpaceOnUse">
            <stop stop-color="#444B8C"/>
            <stop offset="0.9964" stop-color="#26264F"/>
        </linearGradient>
        <linearGradient id="paint45_linear_402_4658" x1="29.6415" y1="20.7678" x2="27.1702" y2="22.7699" gradientUnits="userSpaceOnUse">
            <stop stop-color="#444B8C"/>
            <stop offset="0.9964" stop-color="#26264F"/>
        </linearGradient>
        <linearGradient id="paint46_linear_402_4658" x1="23.8102" y1="23.3417" x2="21.711" y2="26.4322" gradientUnits="userSpaceOnUse">
            <stop stop-color="#444B8C"/>
            <stop offset="0.9964" stop-color="#26264F"/>
        </linearGradient>
        <linearGradient id="paint47_linear_402_4658" x1="18.1826" y1="26.4027" x2="16.018" y2="29.5896" gradientUnits="userSpaceOnUse">
            <stop stop-color="#444B8C"/>
            <stop offset="0.9964" stop-color="#26264F"/>
        </linearGradient>
        <linearGradient id="paint48_linear_402_4658" x1="13.7463" y1="31.432" x2="11.2754" y2="33.4337" gradientUnits="userSpaceOnUse">
            <stop stop-color="#444B8C"/>
            <stop offset="0.9964" stop-color="#26264F"/>
        </linearGradient>
        <linearGradient id="paint49_linear_402_4658" x1="39.7998" y1="22.2203" x2="38.89" y2="22.9578" gradientUnits="userSpaceOnUse">
            <stop stop-color="#444B8C"/>
            <stop offset="0.9964" stop-color="#26264F"/>
        </linearGradient>
        <linearGradient id="paint50_linear_402_4658" x1="18.5726" y1="17.1095" x2="11.4248" y2="27.6284" gradientUnits="userSpaceOnUse">
            <stop stop-color="#444B8C"/>
            <stop offset="0.9964" stop-color="#26264F"/>
        </linearGradient>
        <linearGradient id="paint51_linear_402_4658" x1="31.238" y1="9.11608" x2="26.2509" y2="16.4551" gradientUnits="userSpaceOnUse">
            <stop stop-color="#444B8C"/>
            <stop offset="0.9964" stop-color="#26264F"/>
        </linearGradient>
    </defs>
</svg>
